<svg version="1.1" viewBox="0.0 0.0 960.0 540.0" fill="none" stroke="none" stroke-linecap="square" stroke-miterlimit="10" xmlns:xlink="http://www.w3.org/1999/xlink" xmlns="http://www.w3.org/2000/svg"><clipPath id="gd872feba9e_0_0.0"><path d="m0 0l960.0 0l0 540.0l-960.0 0l0 -540.0z" clip-rule="nonzero"/></clipPath><g clip-path="url(#gd872feba9e_0_0.0)"><path fill="#ffffff" d="m0 0l960.0 0l0 540.0l-960.0 0z" fill-rule="evenodd"/><path fill="#000000" fill-opacity="0.0" d="m7.5958004 265.36746l922.7716 -0.31497192" fill-rule="evenodd"/><path stroke="#595959" stroke-width="4.0" stroke-linejoin="round" stroke-linecap="butt" d="m7.5958004 265.36746l922.7716 -0.31497192" fill-rule="evenodd"/><path fill="#eeeeee" d="m382.77692 408.38846l172.40942 0l0 76.346436l-172.40942 0z" fill-rule="evenodd"/><path stroke="#595959" stroke-width="1.0" stroke-linejoin="round" stroke-linecap="butt" d="m382.77692 408.38846l172.40942 0l0 76.346436l-172.40942 0z" fill-rule="evenodd"/><path fill="#000000" d="m405.10947 424.4973l4.53125 0l0 6.484375q-1.0625 0.34375 -2.15625 0.515625q-1.09375 0.171875 -2.53125 0.171875q-3.015625 0 -4.703125 -1.796875q-1.6875 -1.8125 -1.6875 -5.046875q0 -2.078125 0.828125 -3.640625q0.84375 -1.5625 2.40625 -2.390625q1.5625 -0.828125 3.671875 -0.828125q2.125 0 3.96875 0.796875l-0.59375 1.359375q-1.8125 -0.765625 -3.484375 -0.765625q-2.421875 0 -3.796875 1.453125q-1.359375 1.4375 -1.359375 4.015625q0 2.6875 1.3125 4.09375q1.3125 1.390625 3.875 1.390625q1.375 0 2.703125 -0.328125l0 -4.09375l-2.984375 0l0 -1.390625zm9.00415 6.984375l-1.5 0l0 -9.984375l1.5 0l0 9.984375zm-1.640625 -12.6875q0 -0.515625 0.25 -0.75q0.265625 -0.25 0.65625 -0.25q0.359375 0 0.625 0.25q0.265625 0.234375 0.265625 0.75q0 0.515625 -0.265625 0.765625q-0.265625 0.25 -0.625 0.25q-0.390625 0 -0.65625 -0.25q-0.25 -0.25 -0.25 -0.765625zm7.0468445 12.6875l-3.796875 -9.984375l1.625 0l2.140625 5.921875q0.734375 2.078125 0.859375 2.703125l0.078125 0q0.09375 -0.484375 0.625 -2.0q0.53125 -1.515625 2.390625 -6.625l1.625 0l-3.78125 9.984375l-1.765625 0zm11.377594 0.1875q-2.21875 0 -3.5 -1.34375q-1.28125 -1.359375 -1.28125 -3.75q0 -2.421875 1.1875 -3.84375q1.1875 -1.421875 3.1875 -1.421875q1.890625 0 2.96875 1.234375q1.09375 1.234375 1.09375 3.265625l0 0.953125l-6.875 0q0.046875 1.765625 0.890625 2.671875q0.84375 0.90625 2.375 0.90625q1.609375 0 3.1875 -0.671875l0 1.34375q-0.796875 0.34375 -1.515625 0.5q-0.71875 0.15625 -1.71875 0.15625zm-0.421875 -9.09375q-1.203125 0 -1.921875 0.796875q-0.703125 0.78125 -0.828125 2.15625l5.21875 0q0 -1.421875 -0.640625 -2.1875q-0.640625 -0.765625 -1.828125 -0.765625zm24.234924 8.90625l0 -6.5q0 -1.1875 -0.515625 -1.78125q-0.5 -0.59375 -1.578125 -0.59375q-1.40625 0 -2.09375 0.8125q-0.671875 0.796875 -0.671875 2.484375l0 5.578125l-1.5 0l0 -6.5q0 -1.1875 -0.515625 -1.78125q-0.515625 -0.59375 -1.59375 -0.59375q-1.421875 0 -2.09375 0.859375q-0.65625 0.84375 -0.65625 2.78125l0 5.234375l-1.5 0l0 -9.984375l1.21875 0l0.25 1.359375l0.078125 0q0.421875 -0.71875 1.203125 -1.125q0.78125 -0.421875 1.75 -0.421875q2.328125 0 3.0625 1.703125l0.0625 0q0.453125 -0.78125 1.296875 -1.234375q0.84375 -0.46875 1.9375 -0.46875q1.6875 0 2.53125 0.875q0.84375 0.875 0.84375 2.78125l0 6.515625l-1.515625 0zm8.853607 0.1875q-2.21875 0 -3.5 -1.34375q-1.28125 -1.359375 -1.28125 -3.75q0 -2.421875 1.1875 -3.84375q1.1875 -1.421875 3.1875 -1.421875q1.890625 0 2.96875 1.234375q1.09375 1.234375 1.09375 3.265625l0 0.953125l-6.875 0q0.046875 1.765625 0.890625 2.671875q0.84375 0.90625 2.375 0.90625q1.609375 0 3.1875 -0.671875l0 1.34375q-0.796875 0.34375 -1.515625 0.5q-0.71875 0.15625 -1.71875 0.15625zm-0.421875 -9.09375q-1.203125 0 -1.921875 0.796875q-0.703125 0.78125 -0.828125 2.15625l5.21875 0q0 -1.421875 -0.640625 -2.1875q-0.640625 -0.765625 -1.828125 -0.765625zm14.734924 7.84375q0.40625 0 0.765625 -0.0625q0.375 -0.0625 0.59375 -0.125l0 1.15625q-0.234375 0.125 -0.71875 0.203125q-0.484375 0.078125 -0.859375 0.078125q-2.890625 0 -2.890625 -3.0625l0 -5.9375l-1.4375 0l0 -0.71875l1.4375 -0.640625l0.625 -2.125l0.875 0l0 2.3125l2.90625 0l0 1.171875l-2.90625 0l0 5.875q0 0.90625 0.421875 1.390625q0.4375 0.484375 1.1875 0.484375zm10.195557 1.0625l0 -6.453125q0 -1.21875 -0.5625 -1.8125q-0.546875 -0.609375 -1.734375 -0.609375q-1.578125 0 -2.3125 0.859375q-0.71875 0.84375 -0.71875 2.796875l0 5.21875l-1.5 0l0 -14.171875l1.5 0l0 4.28125q0 0.78125 -0.0625 1.296875l0.09375 0q0.4375 -0.71875 1.265625 -1.125q0.828125 -0.421875 1.875 -0.421875q1.828125 0 2.75 0.875q0.921875 0.859375 0.921875 2.75l0 6.515625l-1.515625 0zm8.841248 0.1875q-2.21875 0 -3.5 -1.34375q-1.28125 -1.359375 -1.28125 -3.75q0 -2.421875 1.1875 -3.84375q1.1875 -1.421875 3.1875 -1.421875q1.890625 0 2.96875 1.234375q1.09375 1.234375 1.09375 3.265625l0 0.953125l-6.875 0q0.046875 1.765625 0.890625 2.671875q0.84375 0.90625 2.375 0.90625q1.609375 0 3.1875 -0.671875l0 1.34375q-0.796875 0.34375 -1.515625 0.5q-0.71875 0.15625 -1.71875 0.15625zm-0.421875 -9.09375q-1.203125 0 -1.921875 0.796875q-0.703125 0.78125 -0.828125 2.15625l5.21875 0q0 -1.421875 -0.640625 -2.1875q-0.640625 -0.765625 -1.828125 -0.765625zm16.016174 0.09375l-2.5468445 0l0 8.8125l-1.515625 0l0 -8.8125l-1.78125 0l0 -0.671875l1.78125 -0.546875l0 -0.5625q0 -3.6875 3.21875 -3.6875q0.7968445 0 1.8593445 0.328125l-0.390625 1.203125q-0.875 -0.28125 -1.4999695 -0.28125q-0.859375 0 -1.265625 0.578125q-0.40625 0.5625 -0.40625 1.828125l0 0.640625l2.5468445 0l0 1.171875zm3.328125 8.8125l-1.5 0l0 -9.984375l1.5 0l0 9.984375zm-1.640625 -12.6875q0 -0.515625 0.25 -0.75q0.265625 -0.25 0.65625 -0.25q0.359375 0 0.625 0.25q0.265625 0.234375 0.265625 0.75q0 0.515625 -0.265625 0.765625q-0.265625 0.25 -0.625 0.25q-0.390625 0 -0.65625 -0.25q-0.25 -0.25 -0.25 -0.765625zm9.400085 2.515625q0.671875 0 1.1875 0.109375l-0.203125 1.40625q-0.625 -0.140625 -1.09375 -0.140625q-1.203125 0 -2.078125 0.984375q-0.859375 0.984375 -0.859375 2.453125l0 5.359375l-1.5 0l0 -9.984375l1.234375 0l0.1875 1.84375l0.0625 0q0.5625 -0.96875 1.34375 -1.5q0.78125 -0.53125 1.71875 -0.53125zm9.506165 7.453125q0 1.390625 -1.046875 2.15625q-1.03125 0.75 -2.90625 0.75q-1.984375 0 -3.09375 -0.640625l0 -1.390625q0.71875 0.359375 1.53125 0.578125q0.828125 0.203125 1.59375 0.203125q1.1875 0 1.828125 -0.375q0.640625 -0.390625 0.640625 -1.15625q0 -0.578125 -0.515625 -1.0q-0.5 -0.421875 -1.96875 -0.984375q-1.390625 -0.515625 -1.984375 -0.890625q-0.578125 -0.390625 -0.875 -0.875q-0.28125 -0.5 -0.28125 -1.1875q0 -1.21875 0.984375 -1.921875q1.0 -0.71875 2.734375 -0.71875q1.609375 0 3.140625 0.65625l-0.53125 1.234375q-1.5 -0.625 -2.71875 -0.625q-1.078125 0 -1.625 0.34375q-0.546875 0.34375 -0.546875 0.921875q0 0.40625 0.203125 0.6875q0.203125 0.28125 0.65625 0.546875q0.453125 0.25 1.75 0.734375q1.78125 0.640625 2.40625 1.296875q0.625 0.65625 0.625 1.65625zm5.6812744 1.65625q0.40625 0 0.765625 -0.0625q0.375 -0.0625 0.59375 -0.125l0 1.15625q-0.234375 0.125 -0.71875 0.203125q-0.484375 0.078125 -0.859375 0.078125q-2.890625 0 -2.890625 -3.0625l0 -5.9375l-1.4375 0l0 -0.71875l1.4375 -0.640625l0.625 -2.125l0.875 0l0 2.3125l2.90625 0l0 1.171875l-2.90625 0l0 5.875q0 0.90625 0.421875 1.390625q0.4375 0.484375 1.1875 0.484375z" fill-rule="nonzero"/><path fill="#000000" d="m414.51355 453.4817l-8.765625 0l0 -1.296875l3.515625 -3.53125q1.59375 -1.625 2.109375 -2.3125q0.515625 -0.6875 0.765625 -1.34375q0.25 -0.65625 0.25 -1.421875q0 -1.0625 -0.640625 -1.6875q-0.640625 -0.625 -1.796875 -0.625q-0.828125 0 -1.578125 0.28125q-0.734375 0.265625 -1.640625 0.984375l-0.8125 -1.03125q1.84375 -1.53125 4.015625 -1.53125q1.875 0 2.9375 0.96875q1.0625 0.953125 1.0625 2.578125q0 1.265625 -0.71875 2.515625q-0.703125 1.234375 -2.640625 3.125l-2.921875 2.859375l0 0.0625l6.859375 0l0 1.40625zm6.073456 -8.140625q2.09375 0 3.296875 1.046875q1.21875 1.046875 1.21875 2.859375q0 2.0625 -1.328125 3.25q-1.3125 1.171875 -3.625 1.171875q-2.25 0 -3.421875 -0.71875l0 -1.46875q0.625 0.421875 1.578125 0.65625q0.953125 0.21875 1.875 0.21875q1.59375 0 2.484375 -0.75q0.890625 -0.75 0.890625 -2.1875q0 -2.78125 -3.421875 -2.78125q-0.859375 0 -2.3125 0.25l-0.78125 -0.5l0.5 -6.21875l6.625 0l0 1.390625l-5.328125 0l-0.34375 4.0q1.046875 -0.21875 2.09375 -0.21875zm20.654114 3.140625q0 2.4375 -1.234375 3.8125q-1.21875 1.375 -3.390625 1.375q-1.34375 0 -2.390625 -0.625q-1.03125 -0.640625 -1.59375 -1.8125q-0.5625 -1.171875 -0.5625 -2.75q0 -2.4375 1.21875 -3.796875q1.21875 -1.375 3.390625 -1.375q2.09375 0 3.328125 1.40625q1.234375 1.390625 1.234375 3.765625zm-7.609375 0q0 1.90625 0.765625 2.921875q0.765625 1.0 2.25 1.0q1.484375 0 2.25 -1.0q0.78125 -1.0 0.78125 -2.921875q0 -1.90625 -0.78125 -2.890625q-0.765625 -0.984375 -2.265625 -0.984375q-1.484375 0 -2.25 0.96875q-0.75 0.96875 -0.75 2.90625zm14.909058 -5.140625q1.96875 0 3.046875 1.34375q1.09375 1.34375 1.09375 3.796875q0 2.453125 -1.09375 3.828125q-1.09375 1.359375 -3.046875 1.359375q-0.96875 0 -1.78125 -0.359375q-0.8125 -0.359375 -1.359375 -1.109375l-0.109375 0l-0.3125 1.28125l-1.078125 0l0 -14.171875l1.5 0l0 3.4375q0 1.15625 -0.0625 2.078125l0.0625 0q1.0625 -1.484375 3.140625 -1.484375zm-0.21875 1.265625q-1.546875 0 -2.234375 0.890625q-0.6875 0.875 -0.6875 2.984375q0 2.109375 0.703125 3.015625q0.703125 0.90625 2.25 0.90625q1.390625 0 2.078125 -1.015625q0.6875 -1.015625 0.6875 -2.921875q0 -1.953125 -0.6875 -2.90625q-0.6875 -0.953125 -2.109375 -0.953125zm5.791809 13.359375q-0.859375 0 -1.40625 -0.234375l0 -1.21875q0.640625 0.171875 1.25 0.171875q0.703125 0 1.03125 -0.390625q0.34375 -0.375 0.34375 -1.171875l0 -11.625l1.5 0l0 11.515625q0 2.953125 -2.71875 2.953125zm1.078125 -17.171875q0 -0.515625 0.25 -0.75q0.265625 -0.25 0.65625 -0.25q0.359375 0 0.625 0.25q0.265625 0.234375 0.265625 0.75q0 0.515625 -0.265625 0.765625q-0.265625 0.25 -0.625 0.25q-0.390625 0 -0.65625 -0.25q-0.25 -0.25 -0.25 -0.765625zm9.0780945 12.875q-2.21875 0 -3.5 -1.34375q-1.28125 -1.359375 -1.28125 -3.75q0 -2.421875 1.1875 -3.84375q1.1875 -1.421875 3.1875 -1.421875q1.890625 0 2.96875 1.234375q1.09375 1.234375 1.09375 3.265625l0 0.953125l-6.875 0q0.046875 1.765625 0.890625 2.671875q0.84375 0.90625 2.375 0.90625q1.609375 0 3.1875 -0.671875l0 1.34375q-0.796875 0.34375 -1.515625 0.5q-0.71875 0.15625 -1.71875 0.15625zm-0.421875 -9.09375q-1.203125 0 -1.921875 0.796875q-0.703125 0.78125 -0.828125 2.15625l5.21875 0q0 -1.421875 -0.640625 -2.1875q-0.640625 -0.765625 -1.828125 -0.765625zm10.654297 9.09375q-2.171875 0 -3.359375 -1.328125q-1.1875 -1.34375 -1.1875 -3.78125q0 -2.515625 1.203125 -3.875q1.21875 -1.375 3.4375 -1.375q0.71875 0 1.4375 0.15625q0.734375 0.15625 1.140625 0.375l-0.46875 1.28125q-0.5 -0.203125 -1.09375 -0.328125q-0.59375 -0.140625 -1.046875 -0.140625q-3.046875 0 -3.046875 3.875q0 1.84375 0.734375 2.828125q0.75 0.984375 2.21875 0.984375q1.25 0 2.546875 -0.53125l0 1.328125q-1.0 0.53125 -2.515625 0.53125zm8.11615 -1.25q0.40625 0 0.765625 -0.0625q0.375 -0.0625 0.59375 -0.125l0 1.15625q-0.234375 0.125 -0.71875 0.203125q-0.484375 0.078125 -0.859375 0.078125q-2.890625 0 -2.890625 -3.0625l0 -5.9375l-1.4375 0l0 -0.71875l1.4375 -0.640625l0.625 -2.125l0.875 0l0 2.3125l2.90625 0l0 1.171875l-2.90625 0l0 5.875q0 0.90625 0.421875 1.390625q0.4375 0.484375 1.1875 0.484375zm9.804901 -1.65625q0 1.390625 -1.046875 2.15625q-1.03125 0.75 -2.90625 0.75q-1.984375 0 -3.09375 -0.640625l0 -1.390625q0.71875 0.359375 1.53125 0.578125q0.828125 0.203125 1.59375 0.203125q1.1875 0 1.828125 -0.375q0.640625 -0.390625 0.640625 -1.15625q0 -0.578125 -0.515625 -1.0q-0.5 -0.421875 -1.96875 -0.984375q-1.390625 -0.515625 -1.984375 -0.890625q-0.578125 -0.390625 -0.875 -0.875q-0.28125 -0.5 -0.28125 -1.1875q0 -1.21875 0.984375 -1.921875q1.0 -0.71875 2.734375 -0.71875q1.609375 0 3.140625 0.65625l-0.53125 1.234375q-1.5 -0.625 -2.71875 -0.625q-1.078125 0 -1.625 0.34375q-0.546875 0.34375 -0.546875 0.921875q0 0.40625 0.203125 0.6875q0.203125 0.28125 0.65625 0.546875q0.453125 0.25 1.75 0.734375q1.78125 0.640625 2.40625 1.296875q0.625 0.65625 0.625 1.65625zm10.527496 1.65625q0.40625 0 0.765625 -0.0625q0.375 -0.0625 0.59375 -0.125l0 1.15625q-0.234375 0.125 -0.71875 0.203125q-0.484375 0.078125 -0.859375 0.078125q-2.890625 0 -2.890625 -3.0625l0 -5.9375l-1.4375 0l0 -0.71875l1.4375 -0.640625l0.625 -2.125l0.875 0l0 2.3125l2.90625 0l0 1.171875l-2.90625 0l0 5.875q0 0.90625 0.421875 1.390625q0.4375 0.484375 1.1875 0.484375zm10.195557 1.0625l0 -6.453125q0 -1.21875 -0.5625 -1.8125q-0.546875 -0.609375 -1.7344055 -0.609375q-1.578125 0 -2.3125 0.859375q-0.71875 0.84375 -0.71875 2.796875l0 5.21875l-1.5 0l0 -14.171875l1.5 0l0 4.28125q0 0.78125 -0.0625 1.296875l0.09375 0q0.4375 -0.71875 1.265625 -1.125q0.828125 -0.421875 1.875 -0.421875q1.8281555 0 2.7500305 0.875q0.921875 0.859375 0.921875 2.75l0 6.515625l-1.515625 0zm10.763123 0l-0.3125 -1.421875l-0.0625 0q-0.75 0.9375 -1.5 1.28125q-0.734375 0.328125 -1.84375 0.328125q-1.484375 0 -2.328125 -0.765625q-0.84375 -0.765625 -0.84375 -2.1875q0 -3.015625 4.828125 -3.171875l1.703125 -0.046875l0 -0.625q0 -1.171875 -0.515625 -1.734375q-0.5 -0.5625 -1.609375 -0.5625q-1.25 0 -2.828125 0.765625l-0.453125 -1.15625q0.734375 -0.390625 1.609375 -0.609375q0.875 -0.234375 1.765625 -0.234375q1.78125 0 2.640625 0.796875q0.859375 0.78125 0.859375 2.53125l0 6.8125l-1.109375 0zm-3.421875 -1.0625q1.40625 0 2.203125 -0.765625q0.8125 -0.78125 0.8125 -2.1875l0 -0.890625l-1.5 0.0625q-1.8125 0.0625 -2.609375 0.5625q-0.796875 0.484375 -0.796875 1.546875q0 0.8125 0.5 1.25q0.5 0.421875 1.390625 0.421875zm10.875732 0q0.40625 0 0.765625 -0.0625q0.375 -0.0625 0.59375 -0.125l0 1.15625q-0.234375 0.125 -0.71875 0.203125q-0.484375 0.078125 -0.859375 0.078125q-2.890625 0 -2.890625 -3.0625l0 -5.9375l-1.4375 0l0 -0.71875l1.4375 -0.640625l0.625 -2.125l0.875 0l0 2.3125l2.90625 0l0 1.171875l-2.90625 0l0 5.875q0 0.90625 0.421875 1.390625q0.4375 0.484375 1.1875 0.484375z" fill-rule="nonzero"/><path fill="#000000" d="m420.1989 472.76294q0 1.390625 -1.046875 2.15625q-1.03125 0.75 -2.90625 0.75q-1.984375 0 -3.09375 -0.640625l0 -1.390625q0.71875 0.359375 1.53125 0.578125q0.828125 0.203125 1.59375 0.203125q1.1875 0 1.828125 -0.375q0.640625 -0.390625 0.640625 -1.15625q0 -0.578125 -0.515625 -1.0q-0.5 -0.421875 -1.96875 -0.984375q-1.390625 -0.515625 -1.984375 -0.890625q-0.578125 -0.390625 -0.875 -0.875q-0.28125 -0.5 -0.28125 -1.1875q0 -1.21875 0.984375 -1.921875q1.0 -0.71875 2.734375 -0.71875q1.609375 0 3.140625 0.65625l-0.53125 1.234375q-1.5 -0.625 -2.71875 -0.625q-1.078125 0 -1.625 0.34375q-0.546875 0.34375 -0.546875 0.921875q0 0.40625 0.203125 0.6875q0.203125 0.28125 0.65625 0.546875q0.453125 0.25 1.75 0.734375q1.78125 0.640625 2.40625 1.296875q0.625 0.65625 0.625 1.65625zm5.6812134 1.65625q0.40625 0 0.765625 -0.0625q0.375 -0.0625 0.59375 -0.125l0 1.15625q-0.234375 0.125 -0.71875 0.203125q-0.484375 0.078125 -0.859375 0.078125q-2.890625 0 -2.890625 -3.0625l0 -5.9375l-1.4375 0l0 -0.71875l1.4375 -0.640625l0.625 -2.125l0.875 0l0 2.3125l2.90625 0l0 1.171875l-2.90625 0l0 5.875q0 0.90625 0.421875 1.390625q0.4375 0.484375 1.1875 0.484375zm9.508057 1.0625l-0.3125 -1.421875l-0.0625 0q-0.75 0.9375 -1.5 1.28125q-0.734375 0.328125 -1.84375 0.328125q-1.484375 0 -2.328125 -0.765625q-0.84375 -0.765625 -0.84375 -2.1875q0 -3.015625 4.828125 -3.171875l1.703125 -0.046875l0 -0.625q0 -1.171875 -0.515625 -1.734375q-0.5 -0.5625 -1.609375 -0.5625q-1.25 0 -2.828125 0.765625l-0.453125 -1.15625q0.734375 -0.390625 1.609375 -0.609375q0.875 -0.234375 1.765625 -0.234375q1.78125 0 2.640625 0.796875q0.859375 0.78125 0.859375 2.53125l0 6.8125l-1.109375 0zm-3.421875 -1.0625q1.40625 0 2.203125 -0.765625q0.8125 -0.78125 0.8125 -2.1875l0 -0.890625l-1.5 0.0625q-1.8125 0.0625 -2.609375 0.5625q-0.796875 0.484375 -0.796875 1.546875q0 0.8125 0.5 1.25q0.5 0.421875 1.390625 0.421875zm12.203827 -9.109375q0.671875 0 1.1875 0.109375l-0.203125 1.40625q-0.625 -0.140625 -1.09375 -0.140625q-1.203125 0 -2.078125 0.984375q-0.859375 0.984375 -0.859375 2.453125l0 5.359375l-1.5 0l0 -9.984375l1.234375 0l0.1875 1.84375l0.0625 0q0.5625 -0.96875 1.34375 -1.5q0.78125 -0.53125 1.71875 -0.53125zm6.2874146 9.109375q0.40625 0 0.765625 -0.0625q0.375 -0.0625 0.59375 -0.125l0 1.15625q-0.234375 0.125 -0.71875 0.203125q-0.484375 0.078125 -0.859375 0.078125q-2.890625 0 -2.890625 -3.0625l0 -5.9375l-1.4375 0l0 -0.71875l1.4375 -0.640625l0.625 -2.125l0.875 0l0 2.3125l2.90625 0l0 1.171875l-2.90625 0l0 5.875q0 0.90625 0.421875 1.390625q0.4375 0.484375 1.1875 0.484375zm16.35431 1.0625l-1.828125 -5.859375q-0.171875 -0.53125 -0.640625 -2.4375l-0.078125 0q-0.359375 1.59375 -0.640625 2.453125l-1.875 5.84375l-1.75 0l-2.734375 -9.984375l1.59375 0q0.96875 3.765625 1.46875 5.734375q0.5 1.96875 0.578125 2.640625l0.078125 0q0.09375 -0.515625 0.3125 -1.328125q0.234375 -0.828125 0.390625 -1.3125l1.828125 -5.734375l1.640625 0l1.796875 5.734375q0.5 1.5625 0.6875 2.625l0.078125 0q0.03125 -0.328125 0.1875 -1.0q0.15625 -0.6875 1.90625 -7.359375l1.5625 0l-2.765625 9.984375l-1.796875 0zm7.8707886 0l-1.5 0l0 -9.984375l1.5 0l0 9.984375zm-1.640625 -12.6875q0 -0.515625 0.25 -0.75q0.265625 -0.25 0.65625 -0.25q0.359375 0 0.625 0.25q0.265625 0.234375 0.265625 0.75q0 0.515625 -0.265625 0.765625q-0.265625 0.25 -0.625 0.25q-0.390625 0 -0.65625 -0.25q-0.25 -0.25 -0.25 -0.765625zm8.0780945 11.625q0.40625 0 0.765625 -0.0625q0.375 -0.0625 0.59375 -0.125l0 1.15625q-0.234375 0.125 -0.71875 0.203125q-0.484375 0.078125 -0.859375 0.078125q-2.890625 0 -2.890625 -3.0625l0 -5.9375l-1.4375 0l0 -0.71875l1.4375 -0.640625l0.625 -2.125l0.875 0l0 2.3125l2.90625 0l0 1.171875l-2.90625 0l0 5.875q0 0.90625 0.421875 1.390625q0.4375 0.484375 1.1875 0.484375zm10.195557 1.0625l0 -6.453125q0 -1.21875 -0.5625 -1.8125q-0.546875 -0.609375 -1.734375 -0.609375q-1.578125 0 -2.3125 0.859375q-0.71875 0.84375 -0.71875 2.796875l0 5.21875l-1.5 0l0 -14.171875l1.5 0l0 4.28125q0 0.78125 -0.0625 1.296875l0.09375 0q0.4375 -0.71875 1.265625 -1.125q0.828125 -0.421875 1.875 -0.421875q1.828125 0 2.75 0.875q0.921875 0.859375 0.921875 2.75l0 6.515625l-1.515625 0zm11.5625 -8.75l-0.140625 -0.203125q0.515625 -1.953125 1.625 -4.359375l1.109375 0q-0.265625 1.046875 -0.53125 2.359375q-0.265625 1.3125 -0.390625 2.203125l-1.671875 0zm-3.359375 0l-0.109375 -0.203125q0.1875 -0.828125 0.640625 -2.046875q0.453125 -1.21875 0.953125 -2.3125l1.125 0q-0.609375 2.3125 -0.9375 4.5625l-1.671875 0z" fill-rule="nonzero"/><path fill="#000000" d="m512.83154 465.1067q1.796875 0 2.8125 1.40625q1.03125 1.40625 1.03125 3.859375q0 2.515625 -1.0625 3.90625q-1.046875 1.390625 -2.859375 1.390625q-1.7968445 0 -2.8124695 -1.3125l-0.1875 0l-0.46875 1.125l-2.125 0l0 -14.171875l2.78125 0l0 3.296875q0 0.625 -0.109375 2.015625l0.109375 0q0.96875 -1.515625 2.8905945 -1.515625zm-0.8905945 2.21875q-1.03125 0 -1.515625 0.640625q-0.46875 0.625 -0.484375 2.09375l0 0.296875q0 1.640625 0.484375 2.359375q0.484375 0.703125 1.546875 0.703125q0.8593445 0 1.3593445 -0.78125q0.515625 -0.796875 0.515625 -2.296875q0 -1.515625 -0.515625 -2.265625q-0.515625 -0.75 -1.3905945 -0.75zm9.399628 -4.96875q-0.453125 1.796875 -1.609375 4.375l-1.984375 0q0.625 -2.703125 0.90625 -4.5625l2.5625 0l0.125 0.1875zm4.25 0q-0.453125 1.796875 -1.59375 4.375l-2.0 0q0.625 -2.703125 0.90625 -4.5625l2.546875 0l0.140625 0.1875z" fill-rule="nonzero"/><path fill="#000000" fill-opacity="0.0" d="m575.9449 195.54593l319.49603 0l0 43.27559l-319.49603 0z" fill-rule="evenodd"/><path fill="#000000" d="m763.4409 219.07843q0 3.46875 -2.375 5.34375q-2.359375 1.859375 -6.765625 1.859375l-2.6875 0l0 8.984375l-2.65625 0l0 -22.84375l5.921875 0q8.5625 0 8.5625 6.65625zm-11.828125 4.921875l2.390625 0q3.53125 0 5.109375 -1.140625q1.578125 -1.140625 1.578125 -3.65625q0 -2.265625 -1.484375 -3.375q-1.484375 -1.109375 -4.625 -1.109375l-2.96875 0l0 9.28125zm18.65625 -5.859375l0 11.109375q0 2.09375 0.953125 3.125q0.953125 1.03125 2.984375 1.03125q2.6875 0 3.921875 -1.46875q1.25 -1.46875 1.25 -4.796875l0 -9.0l2.59375 0l0 17.125l-2.140625 0l-0.375 -2.296875l-0.140625 0q-0.796875 1.265625 -2.21875 1.9375q-1.40625 0.671875 -3.21875 0.671875q-3.125 0 -4.6875 -1.484375q-1.546875 -1.484375 -1.546875 -4.75l0 -11.203125l2.625 0zm25.171875 -0.28125q3.375 0 5.234375 2.3125q1.875 2.296875 1.875 6.515625q0 4.21875 -1.890625 6.5625q-1.875 2.328125 -5.21875 2.328125q-1.671875 0 -3.0625 -0.609375q-1.375 -0.625 -2.3125 -1.90625l-0.1875 0l-0.546875 2.203125l-1.859375 0l0 -24.3125l2.59375 0l0 5.90625q0 1.984375 -0.125 3.5625l0.125 0q1.8125 -2.5625 5.375 -2.5625zm-0.375 2.171875q-2.65625 0 -3.828125 1.53125q-1.171875 1.515625 -1.171875 5.125q0 3.609375 1.203125 5.171875q1.203125 1.546875 3.859375 1.546875q2.390625 0 3.5625 -1.734375q1.171875 -1.75 1.171875 -5.015625q0 -3.34375 -1.171875 -4.984375q-1.171875 -1.640625 -3.625 -1.640625zm14.609375 15.234375l-2.59375 0l0 -24.3125l2.59375 0l0 24.3125zm8.09375 0l-2.59375 0l0 -17.125l2.59375 0l0 17.125zm-2.8125 -21.765625q0 -0.890625 0.4375 -1.296875q0.4375 -0.421875 1.09375 -0.421875q0.625 0 1.078125 0.421875q0.453125 0.421875 0.453125 1.296875q0 0.875 -0.453125 1.3125q-0.453125 0.421875 -1.078125 0.421875q-0.65625 0 -1.09375 -0.421875q-0.4375 -0.4375 -0.4375 -1.3125zm19.359375 17.09375q0 2.390625 -1.78125 3.6875q-1.78125 1.296875 -5.0 1.296875q-3.40625 0 -5.3125 -1.078125l0 -2.40625q1.234375 0.625 2.640625 0.984375q1.421875 0.359375 2.734375 0.359375q2.03125 0 3.125 -0.640625q1.09375 -0.65625 1.09375 -1.984375q0 -1.0 -0.875 -1.703125q-0.859375 -0.71875 -3.375 -1.6875q-2.390625 -0.890625 -3.40625 -1.546875q-1.0 -0.671875 -1.5 -1.515625q-0.484375 -0.84375 -0.484375 -2.015625q0 -2.09375 1.703125 -3.296875q1.703125 -1.21875 4.671875 -1.21875q2.765625 0 5.40625 1.125l-0.921875 2.109375q-2.578125 -1.0625 -4.671875 -1.0625q-1.84375 0 -2.78125 0.578125q-0.9375 0.578125 -0.9375 1.59375q0 0.6875 0.34375 1.171875q0.359375 0.484375 1.140625 0.921875q0.78125 0.4375 3.0 1.265625q3.046875 1.109375 4.109375 2.234375q1.078125 1.125 1.078125 2.828125zm15.9375 4.671875l0 -11.078125q0 -2.09375 -0.953125 -3.125q-0.953125 -1.03125 -2.984375 -1.03125q-2.703125 0 -3.953125 1.46875q-1.234375 1.46875 -1.234375 4.8125l0 8.953125l-2.59375 0l0 -24.3125l2.59375 0l0 7.359375q0 1.328125 -0.125 2.203125l0.15625 0q0.765625 -1.234375 2.171875 -1.9375q1.421875 -0.71875 3.234375 -0.71875q3.140625 0 4.703125 1.5q1.578125 1.484375 1.578125 4.734375l0 11.171875l-2.59375 0zm15.15625 0.3125q-3.796875 0 -6.0 -2.3125q-2.1875 -2.3125 -2.1875 -6.421875q0 -4.140625 2.03125 -6.578125q2.046875 -2.4375 5.484375 -2.4375q3.21875 0 5.09375 2.125q1.875 2.109375 1.875 5.578125l0 1.640625l-11.796875 0q0.078125 3.015625 1.515625 4.578125q1.453125 1.5625 4.078125 1.5625q2.765625 0 5.46875 -1.15625l0 2.3125q-1.375 0.59375 -2.609375 0.84375q-1.21875 0.265625 -2.953125 0.265625zm-0.703125 -15.578125q-2.0625 0 -3.296875 1.34375q-1.21875 1.34375 -1.4375 3.71875l8.953125 0q0 -2.453125 -1.09375 -3.75q-1.09375 -1.3125 -3.125 -1.3125zm19.234375 -2.171875q1.140625 0 2.046875 0.1875l-0.359375 2.40625q-1.0625 -0.234375 -1.875 -0.234375q-2.078125 0 -3.5625 1.6875q-1.46875 1.6875 -1.46875 4.203125l0 9.1875l-2.59375 0l0 -17.125l2.140625 0l0.296875 3.171875l0.125 0q0.953125 -1.671875 2.296875 -2.578125q1.34375 -0.90625 2.953125 -0.90625z" fill-rule="nonzero"/><path fill="#000000" fill-opacity="0.0" d="m717.7008 276.66928l182.2992 0l0 43.275604l-182.2992 0z" fill-rule="evenodd"/><path fill="#000000" d="m782.6094 298.92053q0 2.1875 -1.234375 3.578125q-1.21875 1.390625 -3.46875 1.859375l0 0.125q2.75 0.34375 4.078125 1.75q1.328125 1.40625 1.328125 3.6875q0 3.265625 -2.265625 5.03125q-2.265625 1.75 -6.4375 1.75q-1.8125 0 -3.328125 -0.28125q-1.5 -0.265625 -2.921875 -0.953125l0 -2.46875q1.484375 0.734375 3.15625 1.125q1.6875 0.375 3.1875 0.375q5.921875 0 5.921875 -4.640625q0 -4.15625 -6.53125 -4.15625l-2.25 0l0 -2.234375l2.28125 0q2.671875 0 4.234375 -1.171875q1.5625 -1.1875 1.5625 -3.28125q0 -1.671875 -1.15625 -2.625q-1.140625 -0.953125 -3.109375 -0.953125q-1.5 0 -2.828125 0.40625q-1.328125 0.40625 -3.03125 1.5l-1.3125 -1.75q1.40625 -1.109375 3.234375 -1.734375q1.84375 -0.640625 3.875 -0.640625q3.328125 0 5.171875 1.53125q1.84375 1.515625 1.84375 4.171875zm16.984375 15.171875l-0.140625 0q-1.796875 2.609375 -5.375 2.609375q-3.359375 0 -5.234375 -2.296875q-1.859375 -2.296875 -1.859375 -6.53125q0 -4.234375 1.875 -6.578125q1.875 -2.34375 5.21875 -2.34375q3.484375 0 5.34375 2.53125l0.203125 0l-0.109375 -1.234375l-0.0625 -1.203125l0 -6.96875l2.59375 0l0 24.3125l-2.109375 0l-0.34375 -2.296875zm-5.1875 0.4375q2.65625 0 3.84375 -1.4375q1.203125 -1.453125 1.203125 -4.671875l0 -0.546875q0 -3.640625 -1.21875 -5.1875q-1.203125 -1.5625 -3.859375 -1.5625q-2.28125 0 -3.5 1.78125q-1.203125 1.765625 -1.203125 5.0q0 3.28125 1.203125 4.953125q1.203125 1.671875 3.53125 1.671875zm29.421875 2.171875q-1.671875 0 -3.0625 -0.609375q-1.375 -0.625 -2.3125 -1.90625l-0.1875 0q0.1875 1.5 0.1875 2.84375l0 7.046875l-2.59375 0l0 -24.8125l2.109375 0l0.359375 2.34375l0.125 0q1.0 -1.40625 2.328125 -2.03125q1.328125 -0.625 3.046875 -0.625q3.40625 0 5.25 2.328125q1.859375 2.328125 1.859375 6.53125q0 4.21875 -1.890625 6.5625q-1.875 2.328125 -5.21875 2.328125zm-0.375 -15.546875q-2.625 0 -3.796875 1.453125q-1.171875 1.453125 -1.203125 4.625l0 0.578125q0 3.609375 1.203125 5.171875q1.203125 1.546875 3.859375 1.546875q2.21875 0 3.46875 -1.796875q1.265625 -1.796875 1.265625 -4.953125q0 -3.203125 -1.265625 -4.90625q-1.25 -1.71875 -3.53125 -1.71875zm22.546875 15.234375l-0.515625 -2.4375l-0.125 0q-1.28125 1.609375 -2.5625 2.1875q-1.265625 0.5625 -3.171875 0.5625q-2.546875 0 -4.0 -1.3125q-1.4375 -1.3125 -1.4375 -3.734375q0 -5.1875 8.296875 -5.4375l2.90625 -0.09375l0 -1.0625q0 -2.015625 -0.875 -2.96875q-0.859375 -0.96875 -2.765625 -0.96875q-2.140625 0 -4.84375 1.3125l-0.796875 -1.984375q1.265625 -0.6875 2.765625 -1.078125q1.515625 -0.390625 3.03125 -0.390625q3.0625 0 4.53125 1.359375q1.484375 1.359375 1.484375 4.359375l0 11.6875l-1.921875 0zm-5.859375 -1.828125q2.421875 0 3.796875 -1.328125q1.390625 -1.328125 1.390625 -3.71875l0 -1.546875l-2.59375 0.109375q-3.09375 0.109375 -4.46875 0.96875q-1.359375 0.84375 -1.359375 2.640625q0 1.40625 0.84375 2.140625q0.859375 0.734375 2.390625 0.734375zm20.9375 -15.609375q1.140625 0 2.046875 0.1875l-0.359375 2.40625q-1.0625 -0.234375 -1.875 -0.234375q-2.078125 0 -3.5625 1.6875q-1.46875 1.6875 -1.46875 4.203125l0 9.1875l-2.59375 0l0 -17.125l2.140625 0l0.296875 3.171875l0.125 0q0.953125 -1.671875 2.296875 -2.578125q1.34375 -0.90625 2.953125 -0.90625zm10.78125 15.609375q0.6875 0 1.328125 -0.09375q0.640625 -0.109375 1.015625 -0.21875l0 1.984375q-0.421875 0.203125 -1.25 0.328125q-0.8125 0.140625 -1.46875 0.140625q-4.96875 0 -4.96875 -5.234375l0 -10.1875l-2.453125 0l0 -1.25l2.453125 -1.078125l1.09375 -3.65625l1.5 0l0 3.96875l4.96875 0l0 2.015625l-4.96875 0l0 10.078125q0 1.546875 0.734375 2.375q0.734375 0.828125 2.015625 0.828125zm3.046875 -15.296875l2.78125 0l3.75 9.765625q1.234375 3.34375 1.53125 4.828125l0.125 0q0.203125 -0.796875 0.84375 -2.71875q0.65625 -1.9375 4.25 -11.875l2.78125 0l-7.359375 19.5q-1.09375 2.890625 -2.5625 4.09375q-1.453125 1.21875 -3.578125 1.21875q-1.1875 0 -2.34375 -0.265625l0 -2.078125q0.859375 0.1875 1.921875 0.1875q2.671875 0 3.8125 -3.0l0.953125 -2.4375l-6.90625 -17.21875z" fill-rule="nonzero"/><path fill="#eeeeee" d="m382.77692 26.658792l172.40942 0l0 89.637794l-172.40942 0z" fill-rule="evenodd"/><path stroke="#595959" stroke-width="1.0" stroke-linejoin="round" stroke-linecap="butt" d="m382.77692 26.658792l172.40942 0l0 89.637794l-172.40942 0z" fill-rule="evenodd"/><path fill="#000000" d="m448.00485 71.61644q0 3.296875 -1.796875 5.046875q-1.796875 1.734375 -5.15625 1.734375l-3.6875 0l0 -13.3125l4.078125 0q3.109375 0 4.828125 1.71875q1.734375 1.71875 1.734375 4.8125zm-1.640625 0.046875q0 -2.609375 -1.3125 -3.921875q-1.3125 -1.328125 -3.890625 -1.328125l-2.25 0l0 10.640625l1.890625 0q2.765625 0 4.15625 -1.359375q1.40625 -1.359375 1.40625 -4.03125zm10.522369 6.734375l-0.3125 -1.421875l-0.0625 0q-0.75 0.9375 -1.5 1.28125q-0.734375 0.328125 -1.84375 0.328125q-1.484375 0 -2.328125 -0.765625q-0.84375 -0.765625 -0.84375 -2.1875q0 -3.015625 4.828125 -3.171875l1.703125 -0.046875l0 -0.625q0 -1.171875 -0.515625 -1.734375q-0.5 -0.5625 -1.609375 -0.5625q-1.25 0 -2.828125 0.765625l-0.453125 -1.15625q0.734375 -0.390625 1.609375 -0.609375q0.875 -0.234375 1.765625 -0.234375q1.78125 0 2.640625 0.796875q0.859375 0.78125 0.859375 2.53125l0 6.8125l-1.109375 0zm-3.421875 -1.0625q1.40625 0 2.203125 -0.765625q0.8125 -0.78125 0.8125 -2.1875l0 -0.890625l-1.5 0.0625q-1.8125 0.0625 -2.609375 0.5625q-0.796875 0.484375 -0.796875 1.546875q0 0.8125 0.5 1.25q0.5 0.421875 1.390625 0.421875zm10.875702 0q0.40625 0 0.765625 -0.0625q0.375 -0.0625 0.59375 -0.125l0 1.15625q-0.234375 0.125 -0.71875 0.203125q-0.484375 0.078125 -0.859375 0.078125q-2.890625 0 -2.890625 -3.0625l0 -5.9375l-1.4375 0l0 -0.71875l1.4375 -0.640625l0.625 -2.125l0.875 0l0 2.3125l2.90625 0l0 1.171875l-2.90625 0l0 5.875q0 0.90625 0.421875 1.390625q0.4375 0.484375 1.1875 0.484375zm9.508057 1.0625l-0.3125 -1.421875l-0.0625 0q-0.75 0.9375 -1.5 1.28125q-0.734375 0.328125 -1.84375 0.328125q-1.484375 0 -2.328125 -0.765625q-0.84375 -0.765625 -0.84375 -2.1875q0 -3.015625 4.828125 -3.171875l1.703125 -0.046875l0 -0.625q0 -1.171875 -0.515625 -1.734375q-0.5 -0.5625 -1.609375 -0.5625q-1.25 0 -2.828125 0.765625l-0.453125 -1.15625q0.734375 -0.390625 1.609375 -0.609375q0.875 -0.234375 1.765625 -0.234375q1.78125 0 2.640625 0.796875q0.859375 0.78125 0.859375 2.53125l0 6.8125l-1.109375 0zm-3.421875 -1.0625q1.40625 0 2.203125 -0.765625q0.8125 -0.78125 0.8125 -2.1875l0 -0.890625l-1.5 0.0625q-1.8125 0.0625 -2.609375 0.5625q-0.796875 0.484375 -0.796875 1.546875q0 0.8125 0.5 1.25q0.5 0.421875 1.390625 0.421875zm14.094452 -1.65625q0 1.390625 -1.046875 2.15625q-1.03125 0.75 -2.90625 0.75q-1.984375 0 -3.09375 -0.640625l0 -1.390625q0.71875 0.359375 1.53125 0.578125q0.828125 0.203125 1.59375 0.203125q1.1875 0 1.828125 -0.375q0.640625 -0.390625 0.640625 -1.15625q0 -0.578125 -0.515625 -1.0q-0.5 -0.421875 -1.96875 -0.984375q-1.390625 -0.515625 -1.984375 -0.890625q-0.578125 -0.390625 -0.875 -0.875q-0.28125 -0.5 -0.28125 -1.1875q0 -1.21875 0.984375 -1.921875q1.0 -0.71875 2.734375 -0.71875q1.609375 0 3.140625 0.65625l-0.53125 1.234375q-1.5 -0.625 -2.71875 -0.625q-1.078125 0 -1.625 0.34375q-0.546875 0.34375 -0.546875 0.921875q0 0.40625 0.203125 0.6875q0.203125 0.28125 0.65625 0.546875q0.453125 0.25 1.75 0.734375q1.78125 0.640625 2.40625 1.296875q0.625 0.65625 0.625 1.65625zm6.681244 2.90625q-2.21875 0 -3.5 -1.34375q-1.28125 -1.359375 -1.28125 -3.75q0 -2.421875 1.1875 -3.84375q1.1875 -1.421875 3.1875 -1.421875q1.890625 0 2.96875 1.234375q1.09375 1.234375 1.09375 3.265625l0 0.953125l-6.875 0q0.046875 1.765625 0.890625 2.671875q0.84375 0.90625 2.375 0.90625q1.609375 0 3.1875 -0.671875l0 1.34375q-0.796875 0.34375 -1.515625 0.5q-0.71875 0.15625 -1.71875 0.15625zm-0.421875 -9.09375q-1.203125 0 -1.921875 0.796875q-0.703125 0.78125 -0.828125 2.15625l5.21875 0q0 -1.421875 -0.640625 -2.1875q-0.640625 -0.765625 -1.828125 -0.765625zm9.888672 7.84375q0.40625 0 0.765625 -0.0625q0.375 -0.0625 0.59375 -0.125l0 1.15625q-0.234375 0.125 -0.71875 0.203125q-0.484375 0.078125 -0.859375 0.078125q-2.890625 0 -2.890625 -3.0625l0 -5.9375l-1.4375 0l0 -0.71875l1.4375 -0.640625l0.625 -2.125l0.875 0l0 2.3125l2.90625 0l0 1.171875l-2.90625 0l0 5.875q0 0.90625 0.421875 1.390625q0.4375 0.484375 1.1875 0.484375z" fill-rule="nonzero"/><path fill="#eeeeee" d="m382.77692 136.38846l172.40942 0l0 76.34645l-172.40942 0z" fill-rule="evenodd"/><path stroke="#595959" stroke-width="1.0" stroke-linejoin="round" stroke-linecap="butt" d="m382.77692 136.38846l172.40942 0l0 76.34645l-172.40942 0z" fill-rule="evenodd"/><path fill="#000000" d="m446.33017 170.48167l-7.421875 0l0 -13.3125l7.421875 0l0 1.375l-5.875 0l0 4.28125l5.53125 0l0 1.375l-5.53125 0l0 4.890625l5.875 0l0 1.390625zm9.563232 0l0 -6.453125q0 -1.21875 -0.5625 -1.8125q-0.546875 -0.609375 -1.734375 -0.609375q-1.5625 0 -2.296875 0.84375q-0.734375 0.84375 -0.734375 2.796875l0 5.234375l-1.5 0l0 -9.984375l1.21875 0l0.25 1.359375l0.078125 0q0.453125 -0.734375 1.296875 -1.140625q0.84375 -0.40625 1.875 -0.40625q1.796875 0 2.703125 0.875q0.921875 0.875 0.921875 2.78125l0 6.515625l-1.515625 0zm7.8412476 -1.0625q0.40625 0 0.765625 -0.0625q0.375 -0.0625 0.59375 -0.125l0 1.15625q-0.234375 0.125 -0.71875 0.203125q-0.484375 0.078125 -0.859375 0.078125q-2.890625 0 -2.890625 -3.0625l0 -5.9375l-1.4375 0l0 -0.71875l1.4375 -0.640625l0.625 -2.125l0.875 0l0 2.3125l2.90625 0l0 1.171875l-2.90625 0l0 5.875q0 0.90625 0.421875 1.390625q0.4375 0.484375 1.1875 0.484375zm4.8674316 1.0625l-1.5 0l0 -9.984375l1.5 0l0 9.984375zm-1.640625 -12.6875q0 -0.515625 0.25 -0.75q0.265625 -0.25 0.65625 -0.25q0.359375 0 0.625 0.25q0.265625 0.234375 0.265625 0.75q0 0.515625 -0.265625 0.765625q-0.265625 0.25 -0.625 0.25q-0.390625 0 -0.65625 -0.25q-0.25 -0.25 -0.25 -0.765625zm8.0780945 11.625q0.40625 0 0.765625 -0.0625q0.375 -0.0625 0.59375 -0.125l0 1.15625q-0.234375 0.125 -0.71875 0.203125q-0.484375 0.078125 -0.859375 0.078125q-2.890625 0 -2.890625 -3.0625l0 -5.9375l-1.4375 0l0 -0.71875l1.4375 -0.640625l0.625 -2.125l0.875 0l0 2.3125l2.90625 0l0 1.171875l-2.90625 0l0 5.875q0 0.90625 0.421875 1.390625q0.4375 0.484375 1.1875 0.484375zm4.867401 1.0625l-1.5 0l0 -9.984375l1.5 0l0 9.984375zm-1.640625 -12.6875q0 -0.515625 0.25 -0.75q0.265625 -0.25 0.65625 -0.25q0.359375 0 0.625 0.25q0.265625 0.234375 0.265625 0.75q0 0.515625 -0.265625 0.765625q-0.265625 0.25 -0.625 0.25q-0.390625 0 -0.65625 -0.25q-0.25 -0.25 -0.25 -0.765625zm9.0780945 12.875q-2.21875 0 -3.5 -1.34375q-1.28125 -1.359375 -1.28125 -3.75q0 -2.421875 1.1875 -3.84375q1.1875 -1.421875 3.1875 -1.421875q1.890625 0 2.96875 1.234375q1.09375 1.234375 1.09375 3.265625l0 0.953125l-6.875 0q0.046875 1.765625 0.890625 2.671875q0.84375 0.90625 2.375 0.90625q1.609375 0 3.1875 -0.671875l0 1.34375q-0.796875 0.34375 -1.515625 0.5q-0.71875 0.15625 -1.71875 0.15625zm-0.421875 -9.09375q-1.203125 0 -1.921875 0.796875q-0.703125 0.78125 -0.828125 2.15625l5.21875 0q0 -1.421875 -0.640625 -2.1875q-0.640625 -0.765625 -1.828125 -0.765625zm13.107452 6.1875q0 1.390625 -1.046875 2.15625q-1.03125 0.75 -2.90625 0.75q-1.984375 0 -3.09375 -0.640625l0 -1.390625q0.71875 0.359375 1.53125 0.578125q0.828125 0.203125 1.59375 0.203125q1.1875 0 1.828125 -0.375q0.640625 -0.390625 0.640625 -1.15625q0 -0.578125 -0.515625 -1.0q-0.5 -0.421875 -1.96875 -0.984375q-1.390625 -0.515625 -1.984375 -0.890625q-0.578125 -0.390625 -0.875 -0.875q-0.28125 -0.5 -0.28125 -1.1875q0 -1.21875 0.984375 -1.921875q1.0 -0.71875 2.734375 -0.71875q1.609375 0 3.140625 0.65625l-0.53125 1.234375q-1.5 -0.625 -2.71875 -0.625q-1.078125 0 -1.625 0.34375q-0.546875 0.34375 -0.546875 0.921875q0 0.40625 0.203125 0.6875q0.203125 0.28125 0.65625 0.546875q0.453125 0.25 1.75 0.734375q1.78125 0.640625 2.40625 1.296875q0.625 0.65625 0.625 1.65625z" fill-rule="nonzero"/><path fill="#000000" d="m423.1572 182.34105q1.96875 0 3.046875 1.34375q1.09375 1.34375 1.09375 3.796875q0 2.453125 -1.09375 3.828125q-1.09375 1.359375 -3.046875 1.359375q-0.96875 0 -1.78125 -0.359375q-0.8125 -0.359375 -1.359375 -1.109375l-0.109375 0l-0.3125 1.28125l-1.078125 0l0 -14.171875l1.5 0l0 3.4375q0 1.15625 -0.0625 2.078125l0.0625 0q1.0625 -1.484375 3.140625 -1.484375zm-0.21875 1.265625q-1.546875 0 -2.234375 0.890625q-0.6875 0.875 -0.6875 2.984375q0 2.109375 0.703125 3.015625q0.703125 0.90625 2.25 0.90625q1.390625 0 2.078125 -1.015625q0.6875 -1.015625 0.6875 -2.921875q0 -1.953125 -0.6875 -2.90625q-0.6875 -0.953125 -2.109375 -0.953125zm11.557404 -1.296875q0.671875 0 1.1875 0.109375l-0.203125 1.40625q-0.625 -0.140625 -1.09375 -0.140625q-1.203125 0 -2.078125 0.984375q-0.859375 0.984375 -0.859375 2.453125l0 5.359375l-1.5 0l0 -9.984375l1.234375 0l0.1875 1.84375l0.0625 0q0.5625 -0.96875 1.34375 -1.5q0.78125 -0.53125 1.71875 -0.53125zm4.5686646 10.171875l-1.5 0l0 -9.984375l1.5 0l0 9.984375zm-1.640625 -12.6875q0 -0.515625 0.25 -0.75q0.265625 -0.25 0.65625 -0.25q0.359375 0 0.625 0.25q0.265625 0.234375 0.265625 0.75q0 0.515625 -0.265625 0.765625q-0.265625 0.25 -0.625 0.25q-0.390625 0 -0.65625 -0.25q-0.25 -0.25 -0.25 -0.765625zm10.9999695 12.6875l-0.3125 -1.421875l-0.0625 0q-0.75 0.9375 -1.5 1.28125q-0.734375 0.328125 -1.84375 0.328125q-1.484375 0 -2.328125 -0.765625q-0.84375 -0.765625 -0.84375 -2.1875q0 -3.015625 4.828125 -3.171875l1.703125 -0.046875l0 -0.625q0 -1.171875 -0.515625 -1.734375q-0.5 -0.5625 -1.609375 -0.5625q-1.25 0 -2.828125 0.765625l-0.453125 -1.15625q0.734375 -0.390625 1.609375 -0.609375q0.875 -0.234375 1.765625 -0.234375q1.78125 0 2.640625 0.796875q0.859375 0.78125 0.859375 2.53125l0 6.8125l-1.109375 0zm-3.421875 -1.0625q1.40625 0 2.203125 -0.765625q0.8125 -0.78125 0.8125 -2.1875l0 -0.890625l-1.5 0.0625q-1.8125 0.0625 -2.609375 0.5625q-0.796875 0.484375 -0.796875 1.546875q0 0.8125 0.5 1.25q0.5 0.421875 1.390625 0.421875zm14.485107 1.0625l0 -6.453125q0 -1.21875 -0.5625 -1.8125q-0.546875 -0.609375 -1.734375 -0.609375q-1.5625 0 -2.296875 0.84375q-0.734375 0.84375 -0.734375 2.796875l0 5.234375l-1.5 0l0 -9.984375l1.21875 0l0.25 1.359375l0.078125 0q0.453125 -0.734375 1.296875 -1.140625q0.84375 -0.40625 1.875 -0.40625q1.796875 0 2.703125 0.875q0.921875 0.875 0.921875 2.78125l0 6.515625l-1.515625 0zm8.625 -4.3125l0 -1.375l4.46875 0l0 1.375l-4.46875 0zm15.677551 4.5q-2.171875 0 -3.359375 -1.328125q-1.1875 -1.34375 -1.1875 -3.78125q0 -2.515625 1.203125 -3.875q1.21875 -1.375 3.4375 -1.375q0.71875 0 1.4375 0.15625q0.734375 0.15625 1.140625 0.375l-0.46875 1.28125q-0.5 -0.203125 -1.09375 -0.328125q-0.59375 -0.140625 -1.046875 -0.140625q-3.046875 0 -3.046875 3.875q0 1.84375 0.734375 2.828125q0.75 0.984375 2.21875 0.984375q1.25 0 2.546875 -0.53125l0 1.328125q-1.0 0.53125 -2.515625 0.53125zm11.037994 -0.1875l-0.3125 -1.421875l-0.0625 0q-0.75 0.9375 -1.5 1.28125q-0.734375 0.328125 -1.84375 0.328125q-1.484375 0 -2.328125 -0.765625q-0.84375 -0.765625 -0.84375 -2.1875q0 -3.015625 4.828125 -3.171875l1.703125 -0.046875l0 -0.625q0 -1.171875 -0.515625 -1.734375q-0.5 -0.5625 -1.609375 -0.5625q-1.25 0 -2.828125 0.765625l-0.453125 -1.15625q0.734375 -0.390625 1.609375 -0.609375q0.875 -0.234375 1.765625 -0.234375q1.78125 0 2.640625 0.796875q0.859375 0.78125 0.859375 2.53125l0 6.8125l-1.109375 0zm-3.421875 -1.0625q1.40625 0 2.203125 -0.765625q0.8125 -0.78125 0.8125 -2.1875l0 -0.890625l-1.5 0.0625q-1.8125 0.0625 -2.609375 0.5625q-0.796875 0.484375 -0.796875 1.546875q0 0.8125 0.5 1.25q0.5 0.421875 1.390625 0.421875zm12.203857 -9.109375q0.671875 0 1.1875 0.109375l-0.203125 1.40625q-0.625 -0.140625 -1.09375 -0.140625q-1.203125 0 -2.078125 0.984375q-0.859375 0.984375 -0.859375 2.453125l0 5.359375l-1.5 0l0 -9.984375l1.234375 0l0.1875 1.84375l0.0625 0q0.5625 -0.96875 1.34375 -1.5q0.78125 -0.53125 1.71875 -0.53125zm11.67804 5.171875q0 2.4375 -1.234375 3.8125q-1.21875 1.375 -3.390625 1.375q-1.34375 0 -2.390625 -0.625q-1.03125 -0.640625 -1.59375 -1.8125q-0.5625 -1.171875 -0.5625 -2.75q0 -2.4375 1.21875 -3.796875q1.21875 -1.375 3.390625 -1.375q2.09375 0 3.328125 1.40625q1.234375 1.390625 1.234375 3.765625zm-7.609375 0q0 1.90625 0.765625 2.921875q0.765625 1.0 2.25 1.0q1.484375 0 2.25 -1.0q0.78125 -1.0 0.78125 -2.921875q0 -1.90625 -0.78125 -2.890625q-0.765625 -0.984375 -2.265625 -0.984375q-1.484375 0 -2.25 0.96875q-0.75 0.96875 -0.75 2.90625zm11.768433 5.0l-1.5 0l0 -14.171875l1.5 0l0 14.171875z" fill-rule="nonzero"/><path fill="#000000" fill-opacity="0.0" d="m468.98163 116.296585l0 20.094498" fill-rule="evenodd"/><path stroke="#595959" stroke-width="1.0" stroke-linejoin="round" stroke-linecap="butt" d="m468.98163 116.296585l0 14.094498" fill-rule="evenodd"/><path fill="#595959" stroke="#595959" stroke-width="1.0" stroke-linecap="butt" d="m467.3299 130.39108l1.6517334 4.538086l1.6517334 -4.538086z" fill-rule="evenodd"/><path fill="#eeeeee" d="m182.7769 136.38846l172.40944 0l0 76.34645l-172.40944 0z" fill-rule="evenodd"/><path stroke="#595959" stroke-width="1.0" stroke-linejoin="round" stroke-linecap="butt" d="m182.7769 136.38846l172.40944 0l0 76.34645l-172.40944 0z" fill-rule="evenodd"/><path fill="#000000" d="m246.33017 170.48167l-7.421875 0l0 -13.3125l7.421875 0l0 1.375l-5.875 0l0 4.28125l5.53125 0l0 1.375l-5.53125 0l0 4.890625l5.875 0l0 1.390625zm9.563217 0l0 -6.453125q0 -1.21875 -0.5625 -1.8125q-0.546875 -0.609375 -1.734375 -0.609375q-1.5625 0 -2.296875 0.84375q-0.734375 0.84375 -0.734375 2.796875l0 5.234375l-1.5 0l0 -9.984375l1.21875 0l0.25 1.359375l0.078125 0q0.453125 -0.734375 1.296875 -1.140625q0.84375 -0.40625 1.875 -0.40625q1.796875 0 2.7031403 0.875q0.921875 0.875 0.921875 2.78125l0 6.515625l-1.5156403 0zm7.841263 -1.0625q0.40625 0 0.765625 -0.0625q0.375 -0.0625 0.59375 -0.125l0 1.15625q-0.234375 0.125 -0.71875 0.203125q-0.484375 0.078125 -0.859375 0.078125q-2.890625 0 -2.890625 -3.0625l0 -5.9375l-1.4375 0l0 -0.71875l1.4375 -0.640625l0.625 -2.125l0.875 0l0 2.3125l2.90625 0l0 1.171875l-2.90625 0l0 5.875q0 0.90625 0.421875 1.390625q0.4375 0.484375 1.1875 0.484375zm4.8674316 1.0625l-1.5 0l0 -9.984375l1.5 0l0 9.984375zm-1.640625 -12.6875q0 -0.515625 0.25 -0.75q0.265625 -0.25 0.65625 -0.25q0.359375 0 0.625 0.25q0.265625 0.234375 0.265625 0.75q0 0.515625 -0.265625 0.765625q-0.265625 0.25 -0.625 0.25q-0.390625 0 -0.65625 -0.25q-0.25 -0.25 -0.25 -0.765625zm8.0780945 11.625q0.40625 0 0.765625 -0.0625q0.375 -0.0625 0.59375 -0.125l0 1.15625q-0.234375 0.125 -0.71875 0.203125q-0.484375 0.078125 -0.859375 0.078125q-2.890625 0 -2.890625 -3.0625l0 -5.9375l-1.4375 0l0 -0.71875l1.4375 -0.640625l0.625 -2.125l0.875 0l0 2.3125l2.90625 0l0 1.171875l-2.90625 0l0 5.875q0 0.90625 0.421875 1.390625q0.4375 0.484375 1.1875 0.484375zm4.867401 1.0625l-1.5 0l0 -9.984375l1.5 0l0 9.984375zm-1.640625 -12.6875q0 -0.515625 0.25 -0.75q0.265625 -0.25 0.65625 -0.25q0.359375 0 0.625 0.25q0.265625 0.234375 0.265625 0.75q0 0.515625 -0.265625 0.765625q-0.265625 0.25 -0.625 0.25q-0.390625 0 -0.65625 -0.25q-0.25 -0.25 -0.25 -0.765625zm9.0780945 12.875q-2.21875 0 -3.5 -1.34375q-1.28125 -1.359375 -1.28125 -3.75q0 -2.421875 1.1875 -3.84375q1.1875 -1.421875 3.1875 -1.421875q1.890625 0 2.96875 1.234375q1.09375 1.234375 1.09375 3.265625l0 0.953125l-6.875 0q0.046875 1.765625 0.890625 2.671875q0.84375 0.90625 2.375 0.90625q1.609375 0 3.1875 -0.671875l0 1.34375q-0.796875 0.34375 -1.515625 0.5q-0.71875 0.15625 -1.71875 0.15625zm-0.421875 -9.09375q-1.203125 0 -1.921875 0.796875q-0.703125 0.78125 -0.828125 2.15625l5.21875 0q0 -1.421875 -0.640625 -2.1875q-0.640625 -0.765625 -1.828125 -0.765625zm13.107452 6.1875q0 1.390625 -1.046875 2.15625q-1.03125 0.75 -2.90625 0.75q-1.984375 0 -3.09375 -0.640625l0 -1.390625q0.71875 0.359375 1.53125 0.578125q0.828125 0.203125 1.59375 0.203125q1.1875 0 1.828125 -0.375q0.640625 -0.390625 0.640625 -1.15625q0 -0.578125 -0.515625 -1.0q-0.5 -0.421875 -1.96875 -0.984375q-1.390625 -0.515625 -1.984375 -0.890625q-0.578125 -0.390625 -0.875 -0.875q-0.28125 -0.5 -0.28125 -1.1875q0 -1.21875 0.984375 -1.921875q1.0 -0.71875 2.734375 -0.71875q1.609375 0 3.140625 0.65625l-0.53125 1.234375q-1.5 -0.625 -2.71875 -0.625q-1.078125 0 -1.625 0.34375q-0.546875 0.34375 -0.546875 0.921875q0 0.40625 0.203125 0.6875q0.203125 0.28125 0.65625 0.546875q0.453125 0.25 1.75 0.734375q1.78125 0.640625 2.40625 1.296875q0.625 0.65625 0.625 1.65625z" fill-rule="nonzero"/><path fill="#000000" d="m232.2363 192.48167l-0.3125 -1.421875l-0.0625 0q-0.75 0.9375 -1.5 1.28125q-0.734375 0.328125 -1.84375 0.328125q-1.484375 0 -2.328125 -0.765625q-0.84375 -0.765625 -0.84375 -2.1875q0 -3.015625 4.828125 -3.171875l1.703125 -0.046875l0 -0.625q0 -1.171875 -0.515625 -1.734375q-0.5 -0.5625 -1.609375 -0.5625q-1.25 0 -2.828125 0.765625l-0.453125 -1.15625q0.734375 -0.390625 1.609375 -0.609375q0.875 -0.234375 1.765625 -0.234375q1.78125 0 2.640625 0.796875q0.859375 0.78125 0.859375 2.53125l0 6.8125l-1.109375 0zm-3.421875 -1.0625q1.40625 0 2.203125 -0.765625q0.8125 -0.78125 0.8125 -2.1875l0 -0.890625l-1.5 0.0625q-1.8125 0.0625 -2.609375 0.5625q-0.796875 0.484375 -0.796875 1.546875q0 0.8125 0.5 1.25q0.5 0.421875 1.390625 0.421875zm9.156967 1.0625l-1.5 0l0 -14.171875l1.5 0l0 14.171875zm4.7187195 0l-1.5 0l0 -9.984375l1.5 0l0 9.984375zm-1.640625 -12.6875q0 -0.515625 0.25 -0.75q0.265625 -0.25 0.65625 -0.25q0.359375 0 0.625 0.25q0.265625 0.234375 0.265625 0.75q0 0.515625 -0.265625 0.765625q-0.265625 0.25 -0.625 0.25q-0.390625 0 -0.65625 -0.25q-0.25 -0.25 -0.25 -0.765625zm8.8437195 12.875q-2.171875 0 -3.359375 -1.328125q-1.1875 -1.34375 -1.1875 -3.78125q0 -2.515625 1.203125 -3.875q1.21875 -1.375 3.4375 -1.375q0.71875 0 1.4375 0.15625q0.734375 0.15625 1.140625 0.375l-0.46875 1.28125q-0.5 -0.203125 -1.09375 -0.328125q-0.59375 -0.140625 -1.046875 -0.140625q-3.046875 0 -3.046875 3.875q0 1.84375 0.734375 2.828125q0.75 0.984375 2.21875 0.984375q1.25 0 2.546875 -0.53125l0 1.328125q-1.0 0.53125 -2.515625 0.53125zm9.116135 0q-2.21875 0 -3.5 -1.34375q-1.28125 -1.359375 -1.28125 -3.75q0 -2.421875 1.1875 -3.84375q1.1875 -1.421875 3.1875 -1.421875q1.890625 0 2.96875 1.234375q1.09375 1.234375 1.09375 3.265625l0 0.953125l-6.875 0q0.046875 1.765625 0.890625 2.671875q0.84375 0.90625 2.375 0.90625q1.609375 0 3.1875 -0.671875l0 1.34375q-0.796875 0.34375 -1.515625 0.5q-0.71875 0.15625 -1.71875 0.15625zm-0.421875 -9.09375q-1.203125 0 -1.921875 0.796875q-0.703125 0.78125 -0.828125 2.15625l5.21875 0q0 -1.421875 -0.640625 -2.1875q-0.640625 -0.765625 -1.828125 -0.765625zm10.672424 4.59375l0 -1.375l4.46875 0l0 1.375l-4.46875 0zm16.333801 -5.828125q1.96875 0 3.046875 1.34375q1.09375 1.34375 1.09375 3.796875q0 2.453125 -1.09375 3.828125q-1.09375 1.359375 -3.046875 1.359375q-0.96875 0 -1.78125 -0.359375q-0.8125 -0.359375 -1.359375 -1.109375l-0.109375 0l-0.3125 1.28125l-1.078125 0l0 -14.171875l1.5 0l0 3.4375q0 1.15625 -0.0625 2.078125l0.0625 0q1.0625 -1.484375 3.140625 -1.484375zm-0.21875 1.265625q-1.546875 0 -2.234375 0.890625q-0.6875 0.875 -0.6875 2.984375q0 2.109375 0.703125 3.015625q0.703125 0.90625 2.25 0.90625q1.390625 0 2.078125 -1.015625q0.6875 -1.015625 0.6875 -2.921875q0 -1.953125 -0.6875 -2.90625q-0.6875 -0.953125 -2.109375 -0.953125zm15.619904 3.875q0 2.4375 -1.234375 3.8125q-1.21875 1.375 -3.390625 1.375q-1.34375 0 -2.390625 -0.625q-1.03125 -0.640625 -1.59375 -1.8125q-0.5625 -1.171875 -0.5625 -2.75q0 -2.4375 1.21875 -3.796875q1.21875 -1.375 3.390625 -1.375q2.09375 0 3.328125 1.40625q1.234375 1.390625 1.234375 3.765625zm-7.609375 0q0 1.90625 0.765625 2.921875q0.765625 1.0 2.25 1.0q1.484375 0 2.25 -1.0q0.78125 -1.0 0.78125 -2.921875q0 -1.90625 -0.78125 -2.890625q-0.765625 -0.984375 -2.265625 -0.984375q-1.484375 0 -2.25 0.96875q-0.75 0.96875 -0.75 2.90625zm14.909088 -5.140625q1.96875 0 3.046875 1.34375q1.09375 1.34375 1.09375 3.796875q0 2.453125 -1.09375 3.828125q-1.09375 1.359375 -3.046875 1.359375q-0.96875 0 -1.78125 -0.359375q-0.8125 -0.359375 -1.359375 -1.109375l-0.109375 0l-0.3125 1.28125l-1.078125 0l0 -14.171875l1.5 0l0 3.4375q0 1.15625 -0.0625 2.078125l0.0625 0q1.0625 -1.484375 3.140625 -1.484375zm-0.21875 1.265625q-1.546875 0 -2.234375 0.890625q-0.6875 0.875 -0.6875 2.984375q0 2.109375 0.703125 3.015625q0.703125 0.90625 2.25 0.90625q1.390625 0 2.078125 -1.015625q0.6875 -1.015625 0.6875 -2.921875q0 -1.953125 -0.6875 -2.90625q-0.6875 -0.953125 -2.109375 -0.953125z" fill-rule="nonzero"/><path fill="#000000" fill-opacity="0.0" d="m468.98163 116.296585l-200.0 20.094498" fill-rule="evenodd"/><path stroke="#595959" stroke-width="1.0" stroke-linejoin="round" stroke-linecap="butt" d="m468.98163 116.296585l-194.03006 19.494675" fill-rule="evenodd"/><path fill="#595959" stroke="#595959" stroke-width="1.0" stroke-linecap="butt" d="m274.78644 134.1478l-4.3502197 2.0971375l4.680481 1.1897888z" fill-rule="evenodd"/><path fill="#eeeeee" d="m582.7769 136.38846l172.40942 0l0 76.34645l-172.40942 0z" fill-rule="evenodd"/><path stroke="#595959" stroke-width="1.0" stroke-linejoin="round" stroke-linecap="butt" d="m582.7769 136.38846l172.40942 0l0 76.34645l-172.40942 0z" fill-rule="evenodd"/><path fill="#000000" d="m662.92523 180.51292q0 -0.609375 0.265625 -0.921875q0.28125 -0.3125 0.796875 -0.3125q0.53125 0 0.828125 0.3125q0.296875 0.3125 0.296875 0.921875q0 0.59375 -0.296875 0.921875q-0.296875 0.3125 -0.828125 0.3125q-0.453125 0 -0.765625 -0.28125q-0.296875 -0.296875 -0.296875 -0.953125zm4.9646606 0q0 -0.609375 0.265625 -0.921875q0.28125 -0.3125 0.796875 -0.3125q0.53125 0 0.828125 0.3125q0.296875 0.3125 0.296875 0.921875q0 0.59375 -0.296875 0.921875q-0.296875 0.3125 -0.828125 0.3125q-0.453125 0 -0.765625 -0.28125q-0.296875 -0.296875 -0.296875 -0.953125zm4.9647217 0q0 -0.609375 0.265625 -0.921875q0.28125 -0.3125 0.796875 -0.3125q0.53125 0 0.828125 0.3125q0.296875 0.3125 0.296875 0.921875q0 0.59375 -0.296875 0.921875q-0.296875 0.3125 -0.828125 0.3125q-0.453125 0 -0.765625 -0.28125q-0.296875 -0.296875 -0.296875 -0.953125z" fill-rule="nonzero"/><path fill="#000000" fill-opacity="0.0" d="m468.98163 116.296585l200.0 20.094498" fill-rule="evenodd"/><path stroke="#595959" stroke-width="1.0" stroke-linejoin="round" stroke-linecap="butt" d="m468.98163 116.296585l194.03003 19.494675" fill-rule="evenodd"/><path fill="#595959" stroke="#595959" stroke-width="1.0" stroke-linecap="butt" d="m662.84656 137.43472l4.680481 -1.1897888l-4.3502197 -2.0971375z" fill-rule="evenodd"/><path fill="#000000" fill-opacity="0.0" d="m468.98163 408.38846l-200.0 -195.65355" fill-rule="evenodd"/><path stroke="#595959" stroke-width="4.0" stroke-linejoin="round" stroke-linecap="butt" stroke-dasharray="16.0,12.0" d="m468.98163 408.38846l-182.84402 -178.87044" fill-rule="evenodd"/><path fill="#595959" stroke="#595959" stroke-width="4.0" stroke-linecap="butt" d="m290.75778 224.79518l-17.5961 -7.971054l8.355713 17.416748z" fill-rule="evenodd"/><path fill="#000000" fill-opacity="0.0" d="m468.98163 408.38846l0 -195.65355" fill-rule="evenodd"/><path stroke="#595959" stroke-width="4.0" stroke-linejoin="round" stroke-linecap="butt" stroke-dasharray="16.0,12.0" d="m468.98163 408.38846l0 -171.65355" fill-rule="evenodd"/><path fill="#595959" stroke="#595959" stroke-width="4.0" stroke-linecap="butt" d="m475.58856 236.73491l-6.6069336 -18.15239l-6.6069336 18.15239z" fill-rule="evenodd"/></g></svg>