<svg version="1.1" viewBox="0.0 0.0 960.0 540.0" fill="none" stroke="none" stroke-linecap="square" stroke-miterlimit="10" xmlns:xlink="http://www.w3.org/1999/xlink" xmlns="http://www.w3.org/2000/svg"><clipPath id="gd872feba9e_0_0.0"><path d="m0 0l960.0 0l0 540.0l-960.0 0l0 -540.0z" clip-rule="nonzero"/></clipPath><g clip-path="url(#gd872feba9e_0_0.0)"><path fill="#ffffff" d="m0 0l960.0 0l0 540.0l-960.0 0z" fill-rule="evenodd"/><path fill="#eeeeee" d="m371.0078 113.968185l217.98425 0l0 113.354324l-217.98425 0z" fill-rule="evenodd"/><path stroke="#595959" stroke-width="1.0" stroke-linejoin="round" stroke-linecap="butt" d="m371.0078 113.968185l217.98425 0l0 113.354324l-217.98425 0z" fill-rule="evenodd"/><path fill="#000000" d="m459.0232 170.7841q0 3.296875 -1.796875 5.046875q-1.796875 1.734375 -5.15625 1.734375l-3.6875 0l0 -13.3125l4.078125 0q3.109375 0 4.828125 1.71875q1.734375 1.71875 1.734375 4.8125zm-1.640625 0.046875q0 -2.609375 -1.3125 -3.921875q-1.3125 -1.328125 -3.890625 -1.328125l-2.25 0l0 10.640625l1.890625 0q2.765625 0 4.15625 -1.359375q1.40625 -1.359375 1.40625 -4.03125zm10.522339 6.734375l-0.3125 -1.421875l-0.0625 0q-0.75 0.9375 -1.5 1.28125q-0.734375 0.328125 -1.84375 0.328125q-1.484375 0 -2.328125 -0.765625q-0.84375 -0.765625 -0.84375 -2.1875q0 -3.015625 4.828125 -3.171875l1.703125 -0.046875l0 -0.625q0 -1.171875 -0.515625 -1.734375q-0.5 -0.5625 -1.609375 -0.5625q-1.25 0 -2.828125 0.765625l-0.453125 -1.15625q0.734375 -0.390625 1.609375 -0.609375q0.875 -0.234375 1.765625 -0.234375q1.78125 0 2.640625 0.796875q0.859375 0.78125 0.859375 2.53125l0 6.8125l-1.109375 0zm-3.421875 -1.0625q1.40625 0 2.203125 -0.765625q0.8125 -0.78125 0.8125 -2.1875l0 -0.890625l-1.5 0.0625q-1.8125 0.0625 -2.609375 0.5625q-0.796875 0.484375 -0.796875 1.546875q0 0.8125 0.5 1.25q0.5 0.421875 1.390625 0.421875zm10.875732 0q0.40625 0 0.765625 -0.0625q0.375 -0.0625 0.59375 -0.125l0 1.15625q-0.234375 0.125 -0.71875 0.203125q-0.484375 0.078125 -0.859375 0.078125q-2.890625 0 -2.890625 -3.0625l0 -5.9375l-1.4375 0l0 -0.71875l1.4375 -0.640625l0.625 -2.125l0.875 0l0 2.3125l2.90625 0l0 1.171875l-2.90625 0l0 5.875q0 0.90625 0.421875 1.390625q0.4375 0.484375 1.1875 0.484375zm9.508026 1.0625l-0.3125 -1.421875l-0.0625 0q-0.75 0.9375 -1.5 1.28125q-0.734375 0.328125 -1.84375 0.328125q-1.484375 0 -2.328125 -0.765625q-0.84375 -0.765625 -0.84375 -2.1875q0 -3.015625 4.828125 -3.171875l1.703125 -0.046875l0 -0.625q0 -1.171875 -0.515625 -1.734375q-0.5 -0.5625 -1.609375 -0.5625q-1.25 0 -2.828125 0.765625l-0.453125 -1.15625q0.734375 -0.390625 1.609375 -0.609375q0.875 -0.234375 1.765625 -0.234375q1.78125 0 2.640625 0.796875q0.859375 0.78125 0.859375 2.53125l0 6.8125l-1.109375 0zm-3.421875 -1.0625q1.40625 0 2.203125 -0.765625q0.8125 -0.78125 0.8125 -2.1875l0 -0.890625l-1.5 0.0625q-1.8125 0.0625 -2.609375 0.5625q-0.796875 0.484375 -0.796875 1.546875q0 0.8125 0.5 1.25q0.5 0.421875 1.390625 0.421875zm14.094482 -1.65625q0 1.390625 -1.046875 2.15625q-1.03125 0.75 -2.90625 0.75q-1.984375 0 -3.09375 -0.640625l0 -1.390625q0.71875 0.359375 1.53125 0.578125q0.828125 0.203125 1.59375 0.203125q1.1875 0 1.828125 -0.375q0.640625 -0.390625 0.640625 -1.15625q0 -0.578125 -0.515625 -1.0q-0.5 -0.421875 -1.96875 -0.984375q-1.390625 -0.515625 -1.984375 -0.890625q-0.578125 -0.390625 -0.875 -0.875q-0.28125 -0.5 -0.28125 -1.1875q0 -1.21875 0.984375 -1.921875q1.0 -0.71875 2.734375 -0.71875q1.609375 0 3.140625 0.65625l-0.53125 1.234375q-1.5 -0.625 -2.71875 -0.625q-1.078125 0 -1.625 0.34375q-0.546875 0.34375 -0.546875 0.921875q0 0.40625 0.203125 0.6875q0.203125 0.28125 0.65625 0.546875q0.453125 0.25 1.75 0.734375q1.78125 0.640625 2.40625 1.296875q0.625 0.65625 0.625 1.65625zm6.6812134 2.90625q-2.21875 0 -3.5 -1.34375q-1.28125 -1.359375 -1.28125 -3.75q0 -2.421875 1.1875 -3.84375q1.1875 -1.421875 3.1875 -1.421875q1.890625 0 2.96875 1.234375q1.09375 1.234375 1.09375 3.265625l0 0.953125l-6.875 0q0.046875 1.765625 0.890625 2.671875q0.84375 0.90625 2.375 0.90625q1.609375 0 3.1875 -0.671875l0 1.34375q-0.796875 0.34375 -1.515625 0.5q-0.71875 0.15625 -1.71875 0.15625zm-0.421875 -9.09375q-1.203125 0 -1.921875 0.796875q-0.703125 0.78125 -0.828125 2.15625l5.21875 0q0 -1.421875 -0.640625 -2.1875q-0.640625 -0.765625 -1.828125 -0.765625zm9.888672 7.84375q0.40628052 0 0.7656555 -0.0625q0.375 -0.0625 0.59375 -0.125l0 1.15625q-0.234375 0.125 -0.71875 0.203125q-0.48440552 0.078125 -0.8594055 0.078125q-2.890625 0 -2.890625 -3.0625l0 -5.9375l-1.4375 0l0 -0.71875l1.4375 -0.640625l0.625 -2.125l0.875 0l0 2.3125l2.9062805 0l0 1.171875l-2.9062805 0l0 5.875q0 0.90625 0.421875 1.390625q0.4375 0.484375 1.1875 0.484375z" fill-rule="nonzero"/><path fill="#eeeeee" d="m335.43286 298.00168l289.13385 0l0 128.0315l-289.13385 0z" fill-rule="evenodd"/><path stroke="#595959" stroke-width="1.0" stroke-linejoin="round" stroke-linecap="butt" d="m335.43286 298.00168l289.13385 0l0 128.0315l-289.13385 0z" fill-rule="evenodd"/><path fill="#000000" d="m457.34833 357.9374l-7.421875 0l0 -13.3125l7.421875 0l0 1.375l-5.875 0l0 4.28125l5.53125 0l0 1.375l-5.53125 0l0 4.890625l5.875 0l0 1.390625zm9.563202 0l0 -6.453125q0 -1.21875 -0.5625 -1.8125q-0.546875 -0.609375 -1.734375 -0.609375q-1.5625 0 -2.296875 0.84375q-0.734375 0.84375 -0.734375 2.796875l0 5.234375l-1.5 0l0 -9.984375l1.21875 0l0.25 1.359375l0.078125 0q0.453125 -0.734375 1.296875 -1.140625q0.84375 -0.40625 1.875 -0.40625q1.796875 0 2.703125 0.875q0.921875 0.875 0.921875 2.78125l0 6.515625l-1.515625 0zm7.841278 -1.0625q0.40625 0 0.765625 -0.0625q0.375 -0.0625 0.59375 -0.125l0 1.15625q-0.234375 0.125 -0.71875 0.203125q-0.484375 0.078125 -0.859375 0.078125q-2.890625 0 -2.890625 -3.0625l0 -5.9375l-1.4375 0l0 -0.71875l1.4375 -0.640625l0.625 -2.125l0.875 0l0 2.3125l2.90625 0l0 1.171875l-2.90625 0l0 5.875q0 0.90625 0.421875 1.390625q0.4375 0.484375 1.1875 0.484375zm4.867401 1.0625l-1.5 0l0 -9.984375l1.5 0l0 9.984375zm-1.640625 -12.6875q0 -0.515625 0.25 -0.75q0.265625 -0.25 0.65625 -0.25q0.359375 0 0.625 0.25q0.265625 0.234375 0.265625 0.75q0 0.515625 -0.265625 0.765625q-0.265625 0.25 -0.625 0.25q-0.390625 0 -0.65625 -0.25q-0.25 -0.25 -0.25 -0.765625zm8.0780945 11.625q0.40625 0 0.765625 -0.0625q0.375 -0.0625 0.59375 -0.125l0 1.15625q-0.234375 0.125 -0.71875 0.203125q-0.484375 0.078125 -0.859375 0.078125q-2.890625 0 -2.890625 -3.0625l0 -5.9375l-1.4375 0l0 -0.71875l1.4375 -0.640625l0.625 -2.125l0.875 0l0 2.3125l2.90625 0l0 1.171875l-2.90625 0l0 5.875q0 0.90625 0.421875 1.390625q0.4375 0.484375 1.1875 0.484375zm4.8674316 1.0625l-1.5 0l0 -9.984375l1.5 0l0 9.984375zm-1.640625 -12.6875q0 -0.515625 0.25 -0.75q0.265625 -0.25 0.65625 -0.25q0.359375 0 0.625 0.25q0.265625 0.234375 0.265625 0.75q0 0.515625 -0.265625 0.765625q-0.265625 0.25 -0.625 0.25q-0.390625 0 -0.65625 -0.25q-0.25 -0.25 -0.25 -0.765625zm9.0780945 12.875q-2.21875 0 -3.5 -1.34375q-1.28125 -1.359375 -1.28125 -3.75q0 -2.421875 1.1875 -3.84375q1.1875 -1.421875 3.1875 -1.421875q1.890625 0 2.96875 1.234375q1.09375 1.234375 1.09375 3.265625l0 0.953125l-6.875 0q0.046875 1.765625 0.890625 2.671875q0.84375 0.90625 2.375 0.90625q1.609375 0 3.1875 -0.671875l0 1.34375q-0.796875 0.34375 -1.515625 0.5q-0.71875 0.15625 -1.71875 0.15625zm-0.421875 -9.09375q-1.203125 0 -1.921875 0.796875q-0.703125 0.78125 -0.828125 2.15625l5.21875 0q0 -1.421875 -0.640625 -2.1875q-0.640625 -0.765625 -1.828125 -0.765625zm13.107422 6.1875q0 1.390625 -1.046875 2.15625q-1.03125 0.75 -2.90625 0.75q-1.984375 0 -3.09375 -0.640625l0 -1.390625q0.71875 0.359375 1.53125 0.578125q0.828125 0.203125 1.59375 0.203125q1.1875 0 1.828125 -0.375q0.640625 -0.390625 0.640625 -1.15625q0 -0.578125 -0.515625 -1.0q-0.5 -0.421875 -1.96875 -0.984375q-1.390625 -0.515625 -1.984375 -0.890625q-0.578125 -0.390625 -0.875 -0.875q-0.28125 -0.5 -0.28125 -1.1875q0 -1.21875 0.984375 -1.921875q1.0 -0.71875 2.734375 -0.71875q1.609375 0 3.140625 0.65625l-0.53125 1.234375q-1.5 -0.625 -2.71875 -0.625q-1.078125 0 -1.625 0.34375q-0.546875 0.34375 -0.546875 0.921875q0 0.40625 0.203125 0.6875q0.203125 0.28125 0.65625 0.546875q0.453125 0.25 1.75 0.734375q1.78125 0.640625 2.40625 1.296875q0.625 0.65625 0.625 1.65625z" fill-rule="nonzero"/><path fill="#000000" d="m420.56198 366.6249l3.765625 0q2.65625 0 3.828125 0.796875q1.1875 0.78125 1.1875 2.5q0 1.171875 -0.65625 1.953125q-0.65625 0.765625 -1.921875 1.0l0 0.078125q3.03125 0.53125 3.03125 3.1875q0 1.796875 -1.21875 2.796875q-1.203125 1.0 -3.359375 1.0l-4.65625 0l0 -13.3125zm1.546875 5.703125l2.5625 0q1.625 0 2.34375 -0.515625q0.734375 -0.515625 0.734375 -1.734375q0 -1.125 -0.8125 -1.625q-0.796875 -0.5 -2.546875 -0.5l-2.28125 0l0 4.375zm0 1.3125l0 4.96875l2.78125 0q1.609375 0 2.421875 -0.609375q0.828125 -0.625 0.828125 -1.96875q0 -1.234375 -0.84375 -1.8125q-0.828125 -0.578125 -2.53125 -0.578125l-2.65625 0zm14.869568 -3.875q0.671875 0 1.1875 0.109375l-0.203125 1.40625q-0.625 -0.140625 -1.09375 -0.140625q-1.203125 0 -2.078125 0.984375q-0.859375 0.984375 -0.859375 2.453125l0 5.359375l-1.5 0l0 -9.984375l1.234375 0l0.1875 1.84375l0.0625 0q0.5625 -0.96875 1.34375 -1.5q0.78125 -0.53125 1.71875 -0.53125zm4.5686646 10.171875l-1.5 0l0 -9.984375l1.5 0l0 9.984375zm-1.640625 -12.6875q0 -0.515625 0.25 -0.75q0.265625 -0.25 0.65625 -0.25q0.359375 0 0.625 0.25q0.265625 0.234375 0.265625 0.75q0 0.515625 -0.265625 0.765625q-0.265625 0.25 -0.625 0.25q-0.390625 0 -0.65625 -0.25q-0.25 -0.25 -0.25 -0.765625zm10.9999695 12.6875l-0.3125 -1.421875l-0.0625 0q-0.75 0.9375 -1.5 1.28125q-0.734375 0.328125 -1.84375 0.328125q-1.484375 0 -2.328125 -0.765625q-0.84375 -0.765625 -0.84375 -2.1875q0 -3.015625 4.828125 -3.171875l1.703125 -0.046875l0 -0.625q0 -1.171875 -0.515625 -1.734375q-0.5 -0.5625 -1.609375 -0.5625q-1.25 0 -2.828125 0.765625l-0.453125 -1.15625q0.734375 -0.390625 1.609375 -0.609375q0.875 -0.234375 1.765625 -0.234375q1.78125 0 2.640625 0.796875q0.859375 0.78125 0.859375 2.53125l0 6.8125l-1.109375 0zm-3.421875 -1.0625q1.40625 0 2.203125 -0.765625q0.8125 -0.78125 0.8125 -2.1875l0 -0.890625l-1.5 0.0625q-1.8125 0.0625 -2.609375 0.5625q-0.796875 0.484375 -0.796875 1.546875q0 0.8125 0.5 1.25q0.5 0.421875 1.390625 0.421875zm14.485077 1.0625l0 -6.453125q0 -1.21875 -0.5625 -1.8125q-0.546875 -0.609375 -1.734375 -0.609375q-1.5625 0 -2.296875 0.84375q-0.734375 0.84375 -0.734375 2.796875l0 5.234375l-1.5 0l0 -9.984375l1.21875 0l0.25 1.359375l0.078125 0q0.453125 -0.734375 1.296875 -1.140625q0.84375 -0.40625 1.875 -0.40625q1.796875 0 2.703125 0.875q0.921875 0.875 0.921875 2.78125l0 6.515625l-1.515625 0zm8.6250305 -4.3125l0 -1.375l4.46875 0l0 1.375l-4.46875 0zm22.55252 -2.46875q0 3.296875 -1.796875 5.046875q-1.796875 1.734375 -5.15625 1.734375l-3.6875 0l0 -13.3125l4.078125 0q3.109375 0 4.828125 1.71875q1.734375 1.71875 1.734375 4.8125zm-1.640625 0.046875q0 -2.609375 -1.3125 -3.921875q-1.3125 -1.328125 -3.890625 -1.328125l-2.25 0l0 10.640625l1.890625 0q2.765625 0 4.15625 -1.359375q1.40625 -1.359375 1.40625 -4.03125zm8.600494 6.921875q-2.21875 0 -3.5 -1.34375q-1.28125 -1.359375 -1.28125 -3.75q0 -2.421875 1.1875 -3.84375q1.1875 -1.421875 3.1875 -1.421875q1.890625 0 2.96875 1.234375q1.09375 1.234375 1.09375 3.265625l0 0.953125l-6.875 0q0.046875 1.765625 0.890625 2.671875q0.84375 0.90625 2.375 0.90625q1.609375 0 3.1875 -0.671875l0 1.34375q-0.796875 0.34375 -1.515625 0.5q-0.71875 0.15625 -1.71875 0.15625zm-0.421875 -9.09375q-1.203125 0 -1.921875 0.796875q-0.703125 0.78125 -0.828125 2.15625l5.21875 0q0 -1.421875 -0.640625 -2.1875q-0.640625 -0.765625 -1.828125 -0.765625zm13.498047 8.90625l0 -6.453125q0 -1.21875 -0.5625 -1.8125q-0.546875 -0.609375 -1.734375 -0.609375q-1.5625 0 -2.296875 0.84375q-0.734375 0.84375 -0.734375 2.796875l0 5.234375l-1.5 0l0 -9.984375l1.21875 0l0.25 1.359375l0.078125 0q0.453125 -0.734375 1.296875 -1.140625q0.84375 -0.40625 1.875 -0.40625q1.796875 0 2.703125 0.875q0.921875 0.875 0.921875 2.78125l0 6.515625l-1.515625 0zm11.450623 0l0 -6.453125q0 -1.21875 -0.5625 -1.8125q-0.546875 -0.609375 -1.734375 -0.609375q-1.5625 0 -2.296875 0.84375q-0.734375 0.84375 -0.734375 2.796875l0 5.234375l-1.5 0l0 -9.984375l1.21875 0l0.25 1.359375l0.078125 0q0.453125 -0.734375 1.296875 -1.140625q0.84375 -0.40625 1.875 -0.40625q1.796875 0 2.703125 0.875q0.921875 0.875 0.921875 2.78125l0 6.515625l-1.515625 0zm6.1224976 0l-1.5 0l0 -9.984375l1.5 0l0 9.984375zm-1.640625 -12.6875q0 -0.515625 0.25 -0.75q0.265625 -0.25 0.65625 -0.25q0.359375 0 0.625 0.25q0.265625 0.234375 0.265625 0.75q0 0.515625 -0.265625 0.765625q-0.265625 0.25 -0.625 0.25q-0.390625 0 -0.65625 -0.25q-0.25 -0.25 -0.25 -0.765625zm11.296875 9.96875q0 1.390625 -1.046875 2.15625q-1.03125 0.75 -2.90625 0.75q-1.984375 0 -3.09375 -0.640625l0 -1.390625q0.71875 0.359375 1.53125 0.578125q0.828125 0.203125 1.59375 0.203125q1.1875 0 1.828125 -0.375q0.640625 -0.390625 0.640625 -1.15625q0 -0.578125 -0.515625 -1.0q-0.5 -0.421875 -1.96875 -0.984375q-1.390625 -0.515625 -1.984375 -0.890625q-0.578125 -0.390625 -0.875 -0.875q-0.28125 -0.5 -0.28125 -1.1875q0 -1.21875 0.984375 -1.921875q1.0 -0.71875 2.734375 -0.71875q1.609375 0 3.140625 0.65625l-0.53125 1.234375q-1.5 -0.625 -2.71875 -0.625q-1.078125 0 -1.625 0.34375q-0.546875 0.34375 -0.546875 0.921875q0 0.40625 0.203125 0.6875q0.203125 0.28125 0.65625 0.546875q0.453125 0.25 1.75 0.734375q1.78125 0.640625 2.40625 1.296875q0.625 0.65625 0.625 1.65625z" fill-rule="nonzero"/><path fill="#000000" fill-opacity="0.0" d="m479.99994 227.32251l0 70.677155" fill-rule="evenodd"/><path stroke="#595959" stroke-width="1.0" stroke-linejoin="round" stroke-linecap="butt" d="m479.99997 227.32251l0 64.677155" fill-rule="evenodd"/><path fill="#595959" stroke="#595959" stroke-width="1.0" stroke-linecap="butt" d="m478.34824 291.99966l1.6517334 4.5381165l1.6517334 -4.5381165z" fill-rule="evenodd"/><path fill="#eeeeee" d="m8.829396 298.00168l289.13385 0l0 128.0315l-289.13385 0z" fill-rule="evenodd"/><path stroke="#595959" stroke-width="1.0" stroke-linejoin="round" stroke-linecap="butt" d="m8.829396 298.00168l289.13385 0l0 128.0315l-289.13385 0z" fill-rule="evenodd"/><path fill="#000000" d="m130.74486 357.9374l-7.4218674 0l0 -13.3125l7.4218674 0l0 1.375l-5.8749924 0l0 4.28125l5.5312424 0l0 1.375l-5.5312424 0l0 4.890625l5.8749924 0l0 1.390625zm9.563217 0l0 -6.453125q0 -1.21875 -0.5625 -1.8125q-0.546875 -0.609375 -1.734375 -0.609375q-1.5625 0 -2.296875 0.84375q-0.734375 0.84375 -0.734375 2.796875l0 5.234375l-1.5 0l0 -9.984375l1.21875 0l0.25 1.359375l0.078125 0q0.453125 -0.734375 1.296875 -1.140625q0.84375 -0.40625 1.875 -0.40625q1.796875 0 2.703125 0.875q0.921875 0.875 0.921875 2.78125l0 6.515625l-1.515625 0zm7.841263 -1.0625q0.40625 0 0.765625 -0.0625q0.375 -0.0625 0.59375 -0.125l0 1.15625q-0.234375 0.125 -0.71875 0.203125q-0.484375 0.078125 -0.859375 0.078125q-2.890625 0 -2.890625 -3.0625l0 -5.9375l-1.4375 0l0 -0.71875l1.4375 -0.640625l0.625 -2.125l0.875 0l0 2.3125l2.90625 0l0 1.171875l-2.90625 0l0 5.875q0 0.90625 0.421875 1.390625q0.4375 0.484375 1.1875 0.484375zm4.8674164 1.0625l-1.5 0l0 -9.984375l1.5 0l0 9.984375zm-1.640625 -12.6875q0 -0.515625 0.25 -0.75q0.265625 -0.25 0.65625 -0.25q0.359375 0 0.625 0.25q0.265625 0.234375 0.265625 0.75q0 0.515625 -0.265625 0.765625q-0.265625 0.25 -0.625 0.25q-0.390625 0 -0.65625 -0.25q-0.25 -0.25 -0.25 -0.765625zm8.0780945 11.625q0.40625 0 0.765625 -0.0625q0.375 -0.0625 0.59375 -0.125l0 1.15625q-0.234375 0.125 -0.71875 0.203125q-0.484375 0.078125 -0.859375 0.078125q-2.890625 0 -2.890625 -3.0625l0 -5.9375l-1.4375 0l0 -0.71875l1.4375 -0.640625l0.625 -2.125l0.875 0l0 2.3125l2.90625 0l0 1.171875l-2.90625 0l0 5.875q0 0.90625 0.421875 1.390625q0.4375 0.484375 1.1875 0.484375zm4.8674164 1.0625l-1.5 0l0 -9.984375l1.5 0l0 9.984375zm-1.640625 -12.6875q0 -0.515625 0.25 -0.75q0.265625 -0.25 0.65625 -0.25q0.359375 0 0.625 0.25q0.265625 0.234375 0.265625 0.75q0 0.515625 -0.265625 0.765625q-0.265625 0.25 -0.625 0.25q-0.390625 0 -0.65625 -0.25q-0.25 -0.25 -0.25 -0.765625zm9.0780945 12.875q-2.21875 0 -3.5 -1.34375q-1.28125 -1.359375 -1.28125 -3.75q0 -2.421875 1.1875 -3.84375q1.1875 -1.421875 3.1875 -1.421875q1.890625 0 2.96875 1.234375q1.09375 1.234375 1.09375 3.265625l0 0.953125l-6.875 0q0.046875 1.765625 0.890625 2.671875q0.84375 0.90625 2.375 0.90625q1.609375 0 3.1875 -0.671875l0 1.34375q-0.796875 0.34375 -1.515625 0.5q-0.71875 0.15625 -1.71875 0.15625zm-0.421875 -9.09375q-1.203125 0 -1.921875 0.796875q-0.703125 0.78125 -0.828125 2.15625l5.21875 0q0 -1.421875 -0.640625 -2.1875q-0.640625 -0.765625 -1.828125 -0.765625zm13.107437 6.1875q0 1.390625 -1.046875 2.15625q-1.03125 0.75 -2.90625 0.75q-1.984375 0 -3.09375 -0.640625l0 -1.390625q0.71875 0.359375 1.53125 0.578125q0.828125 0.203125 1.59375 0.203125q1.1875 0 1.828125 -0.375q0.640625 -0.390625 0.640625 -1.15625q0 -0.578125 -0.515625 -1.0q-0.5 -0.421875 -1.96875 -0.984375q-1.390625 -0.515625 -1.984375 -0.890625q-0.578125 -0.390625 -0.875 -0.875q-0.28125 -0.5 -0.28125 -1.1875q0 -1.21875 0.984375 -1.921875q1.0 -0.71875 2.734375 -0.71875q1.609375 0 3.140625 0.65625l-0.53125 1.234375q-1.5 -0.625 -2.71875 -0.625q-1.078125 0 -1.625 0.34375q-0.546875 0.34375 -0.546875 0.921875q0 0.40625 0.203125 0.6875q0.203125 0.28125 0.65625 0.546875q0.453125 0.25 1.75 0.734375q1.78125 0.640625 2.40625 1.296875q0.625 0.65625 0.625 1.65625z" fill-rule="nonzero"/><path fill="#000000" d="m118.06107 379.9374l-1.65625 -4.234375l-5.34375 0l-1.640625 4.234375l-1.5625 0l5.265625 -13.375l1.296875 0l5.25 13.375l-1.609375 0zm-2.140625 -5.625l-1.546875 -4.125q-0.296875 -0.796875 -0.625 -1.921875q-0.203125 0.875 -0.578125 1.921875l-1.5625 4.125l4.3125 0zm6.852783 5.625l-1.5 0l0 -14.171875l1.5 0l0 14.171875zm4.7187195 0l-1.5 0l0 -9.984375l1.5 0l0 9.984375zm-1.640625 -12.6875q0 -0.515625 0.25 -0.75q0.265625 -0.25 0.65625 -0.25q0.359375 0 0.625 0.25q0.265625 0.234375 0.265625 0.75q0 0.515625 -0.265625 0.765625q-0.265625 0.25 -0.625 0.25q-0.390625 0 -0.65625 -0.25q-0.25 -0.25 -0.25 -0.765625zm8.843712 12.875q-2.171875 0 -3.359375 -1.328125q-1.1875 -1.34375 -1.1875 -3.78125q0 -2.515625 1.203125 -3.875q1.21875 -1.375 3.4375 -1.375q0.71875 0 1.4375 0.15625q0.734375 0.15625 1.140625 0.375l-0.46875 1.28125q-0.5 -0.203125 -1.09375 -0.328125q-0.59375 -0.140625 -1.046875 -0.140625q-3.046875 0 -3.046875 3.875q0 1.84375 0.734375 2.828125q0.75 0.984375 2.21875 0.984375q1.25 0 2.546875 -0.53125l0 1.328125q-1.0 0.53125 -2.515625 0.53125zm9.116135 0q-2.21875 0 -3.5 -1.34375q-1.28125 -1.359375 -1.28125 -3.75q0 -2.421875 1.1875 -3.84375q1.1875 -1.421875 3.1875 -1.421875q1.890625 0 2.96875 1.234375q1.09375 1.234375 1.09375 3.265625l0 0.953125l-6.875 0q0.046875 1.765625 0.890625 2.671875q0.84375 0.90625 2.375 0.90625q1.609375 0 3.1875 -0.671875l0 1.34375q-0.796875 0.34375 -1.515625 0.5q-0.71875 0.15625 -1.71875 0.15625zm-0.421875 -9.09375q-1.203125 0 -1.921875 0.796875q-0.703125 0.78125 -0.828125 2.15625l5.21875 0q0 -1.421875 -0.640625 -2.1875q-0.640625 -0.765625 -1.828125 -0.765625zm10.67244 4.59375l0 -1.375l4.46875 0l0 1.375l-4.46875 0zm11.911911 -9.0l3.765625 0q2.65625 0 3.828125 0.796875q1.1875 0.78125 1.1875 2.5q0 1.171875 -0.65625 1.953125q-0.65625 0.765625 -1.921875 1.0l0 0.078125q3.03125 0.53125 3.03125 3.1875q0 1.796875 -1.21875 2.796875q-1.203125 1.0 -3.359375 1.0l-4.65625 0l0 -13.3125zm1.546875 5.703125l2.5625 0q1.625 0 2.34375 -0.515625q0.734375 -0.515625 0.734375 -1.734375q0 -1.125 -0.8125 -1.625q-0.796875 -0.5 -2.546875 -0.5l-2.28125 0l0 4.375zm0 1.3125l0 4.96875l2.78125 0q1.609375 0 2.421875 -0.609375q0.828125 -0.625 0.828125 -1.96875q0 -1.234375 -0.84375 -1.8125q-0.828125 -0.578125 -2.53125 -0.578125l-2.65625 0zm18.932053 1.296875q0 2.4375 -1.234375 3.8125q-1.21875 1.375 -3.390625 1.375q-1.34375 0 -2.390625 -0.625q-1.03125 -0.640625 -1.59375 -1.8125q-0.5625 -1.171875 -0.5625 -2.75q0 -2.4375 1.21875 -3.796875q1.21875 -1.375 3.390625 -1.375q2.09375 0 3.328125 1.40625q1.234375 1.390625 1.234375 3.765625zm-7.609375 0q0 1.90625 0.765625 2.921875q0.765625 1.0 2.25 1.0q1.484375 0 2.25 -1.0q0.78125 -1.0 0.78125 -2.921875q0 -1.90625 -0.78125 -2.890625q-0.765625 -0.984375 -2.265625 -0.984375q-1.484375 0 -2.25 0.96875q-0.75 0.96875 -0.75 2.90625zm14.909073 -5.140625q1.96875 0 3.046875 1.34375q1.09375 1.34375 1.09375 3.796875q0 2.453125 -1.09375 3.828125q-1.09375 1.359375 -3.046875 1.359375q-0.96875 0 -1.78125 -0.359375q-0.8125 -0.359375 -1.359375 -1.109375l-0.109375 0l-0.3125 1.28125l-1.078125 0l0 -14.171875l1.5 0l0 3.4375q0 1.15625 -0.0625 2.078125l0.0625 0q1.0625 -1.484375 3.140625 -1.484375zm-0.21875 1.265625q-1.546875 0 -2.234375 0.890625q-0.6875 0.875 -0.6875 2.984375q0 2.109375 0.703125 3.015625q0.703125 0.90625 2.25 0.90625q1.390625 0 2.078125 -1.015625q0.6875 -1.015625 0.6875 -2.921875q0 -1.953125 -0.6875 -2.90625q-0.6875 -0.953125 -2.109375 -0.953125z" fill-rule="nonzero"/><path fill="#000000" fill-opacity="0.0" d="m479.99994 227.32251l-326.61417 70.677155" fill-rule="evenodd"/><path stroke="#595959" stroke-width="1.0" stroke-linejoin="round" stroke-linecap="butt" d="m479.99997 227.32251l-320.74994 69.40817" fill-rule="evenodd"/><path fill="#595959" stroke="#595959" stroke-width="1.0" stroke-linecap="butt" d="m158.90071 295.1163l-4.0861053 2.5741882l4.784775 0.65457153z" fill-rule="evenodd"/><path fill="#eeeeee" d="m662.0363 298.00168l289.13385 0l0 128.0315l-289.13385 0z" fill-rule="evenodd"/><path stroke="#595959" stroke-width="1.0" stroke-linejoin="round" stroke-linecap="butt" d="m662.0363 298.00168l289.13385 0l0 128.0315l-289.13385 0z" fill-rule="evenodd"/><path fill="#000000" d="m800.5469 367.96866q0 -0.609375 0.265625 -0.921875q0.28125 -0.3125 0.796875 -0.3125q0.53125 0 0.828125 0.3125q0.296875 0.3125 0.296875 0.921875q0 0.59375 -0.296875 0.921875q-0.296875 0.3125 -0.828125 0.3125q-0.453125 0 -0.765625 -0.28125q-0.296875 -0.296875 -0.296875 -0.953125zm4.9646606 0q0 -0.609375 0.265625 -0.921875q0.28125 -0.3125 0.796875 -0.3125q0.53125 0 0.828125 0.3125q0.296875 0.3125 0.296875 0.921875q0 0.59375 -0.296875 0.921875q-0.296875 0.3125 -0.828125 0.3125q-0.453125 0 -0.765625 -0.28125q-0.296875 -0.296875 -0.296875 -0.953125zm4.9646606 0q0 -0.609375 0.265625 -0.921875q0.28125 -0.3125 0.796875 -0.3125q0.53125 0 0.828125 0.3125q0.296875 0.3125 0.296875 0.921875q0 0.59375 -0.296875 0.921875q-0.296875 0.3125 -0.828125 0.3125q-0.453125 0 -0.765625 -0.28125q-0.296875 -0.296875 -0.296875 -0.953125z" fill-rule="nonzero"/><path fill="#000000" fill-opacity="0.0" d="m479.99994 227.32251l326.6142 70.677155" fill-rule="evenodd"/><path stroke="#595959" stroke-width="1.0" stroke-linejoin="round" stroke-linecap="butt" d="m479.99997 227.32251l320.74985 69.40817" fill-rule="evenodd"/><path fill="#595959" stroke="#595959" stroke-width="1.0" stroke-linecap="butt" d="m800.4005 298.34506l4.784729 -0.65457153l-4.0860596 -2.5741882z" fill-rule="evenodd"/></g></svg>