<svg version="1.1" viewBox="0.0 0.0 960.0 540.0" fill="none" stroke="none" stroke-linecap="square" stroke-miterlimit="10" xmlns:xlink="http://www.w3.org/1999/xlink" xmlns="http://www.w3.org/2000/svg"><clipPath id="gd872feba9e_1_37.0"><path d="m0 0l960.0 0l0 540.0l-960.0 0l0 -540.0z" clip-rule="nonzero"/></clipPath><g clip-path="url(#gd872feba9e_1_37.0)"><path fill="#ffffff" d="m0 0l960.0 0l0 540.0l-960.0 0z" fill-rule="evenodd"/><path fill="#eeeeee" d="m377.768 138.55907l171.77954 0l0 80.8819l-171.77954 0z" fill-rule="evenodd"/><path stroke="#000000" stroke-width="2.0" stroke-linejoin="round" stroke-linecap="butt" d="m377.768 138.55907l171.77954 0l0 80.8819l-171.77954 0z" fill-rule="evenodd"/><path fill="#000000" d="m437.93512 180.84439l1.515625 0.375q-0.46875 1.875 -1.71875 2.859375q-1.234375 0.984375 -3.015625 0.984375q-1.859375 0 -3.015625 -0.75q-1.15625 -0.765625 -1.765625 -2.1875q-0.609375 -1.4375 -0.609375 -3.078125q0 -1.796875 0.6875 -3.125q0.6875 -1.328125 1.9375 -2.015625q1.265625 -0.703125 2.78125 -0.703125q1.71875 0 2.890625 0.875q1.171875 0.875 1.640625 2.46875l-1.5 0.34375q-0.390625 -1.25 -1.15625 -1.8125q-0.75 -0.578125 -1.90625 -0.578125q-1.3125 0 -2.203125 0.640625q-0.890625 0.625 -1.25 1.703125q-0.359375 1.0625 -0.359375 2.1875q0 1.46875 0.421875 2.5625q0.4375 1.078125 1.328125 1.625q0.90625 0.53125 1.953125 0.53125q1.265625 0 2.140625 -0.734375q0.890625 -0.734375 1.203125 -2.171875zm2.6796875 -0.140625q0 -2.296875 1.28125 -3.40625q1.078125 -0.921875 2.609375 -0.921875q1.71875 0 2.796875 1.125q1.09375 1.109375 1.09375 3.09375q0 1.59375 -0.484375 2.515625q-0.484375 0.921875 -1.40625 1.4375q-0.90625 0.5 -2.0 0.5q-1.734375 0 -2.8125 -1.109375q-1.078125 -1.125 -1.078125 -3.234375zm1.453125 0q0 1.59375 0.6875 2.390625q0.703125 0.796875 1.75 0.796875q1.046875 0 1.734375 -0.796875q0.703125 -0.796875 0.703125 -2.4375q0 -1.53125 -0.703125 -2.328125q-0.6875 -0.796875 -1.734375 -0.796875q-1.046875 0 -1.75 0.796875q-0.6875 0.78125 -0.6875 2.375zm7.9453125 4.15625l0 -11.453125l1.40625 0l0 11.453125l-1.40625 0zm3.5546875 0l0 -11.453125l1.40625 0l0 11.453125l-1.40625 0zm9.2578125 -2.671875l1.453125 0.171875q-0.34375 1.28125 -1.28125 1.984375q-0.921875 0.703125 -2.359375 0.703125q-1.828125 0 -2.890625 -1.125q-1.0625 -1.125 -1.0625 -3.140625q0 -2.09375 1.078125 -3.25q1.078125 -1.15625 2.796875 -1.15625q1.65625 0 2.703125 1.140625q1.0625 1.125 1.0625 3.171875q0 0.125 0 0.375l-6.1875 0q0.078125 1.375 0.765625 2.109375q0.703125 0.71875 1.734375 0.71875q0.78125 0 1.328125 -0.40625q0.546875 -0.40625 0.859375 -1.296875zm-4.609375 -2.28125l4.625 0q-0.09375 -1.046875 -0.53125 -1.5625q-0.671875 -0.8125 -1.734375 -0.8125q-0.96875 0 -1.640625 0.65625q-0.65625 0.640625 -0.71875 1.71875zm13.2421875 1.90625l1.390625 0.1875q-0.234375 1.421875 -1.171875 2.234375q-0.921875 0.8125 -2.28125 0.8125q-1.703125 0 -2.75 -1.109375q-1.03125 -1.125 -1.03125 -3.203125q0 -1.34375 0.4375 -2.34375q0.453125 -1.015625 1.359375 -1.515625q0.921875 -0.5 1.984375 -0.5q1.359375 0 2.21875 0.6875q0.859375 0.671875 1.09375 1.9375l-1.359375 0.203125q-0.203125 -0.828125 -0.703125 -1.25q-0.484375 -0.421875 -1.1875 -0.421875q-1.0625 0 -1.734375 0.765625q-0.65625 0.75 -0.65625 2.40625q0 1.671875 0.640625 2.4375q0.640625 0.75 1.671875 0.75q0.828125 0 1.375 -0.5q0.5625 -0.515625 0.703125 -1.578125zm5.65625 1.78125l0.203125 1.25q-0.59375 0.125 -1.0625 0.125q-0.765625 0 -1.1875 -0.234375q-0.421875 -0.25 -0.59375 -0.640625q-0.171875 -0.40625 -0.171875 -1.671875l0 -4.765625l-1.03125 0l0 -1.09375l1.03125 0l0 -2.0625l1.40625 -0.84375l0 2.90625l1.40625 0l0 1.09375l-1.40625 0l0 4.84375q0 0.609375 0.0625 0.78125q0.078125 0.171875 0.25 0.28125q0.171875 0.09375 0.484375 0.09375q0.234375 0 0.609375 -0.0625zm1.3828125 -8.578125l0 -1.609375l1.40625 0l0 1.609375l-1.40625 0zm0 9.84375l0 -8.296875l1.40625 0l0 8.296875l-1.40625 0zm3.0234375 -4.15625q0 -2.296875 1.28125 -3.40625q1.078125 -0.921875 2.609375 -0.921875q1.71875 0 2.796875 1.125q1.09375 1.109375 1.09375 3.09375q0 1.59375 -0.484375 2.515625q-0.484375 0.921875 -1.40625 1.4375q-0.90625 0.5 -2.0 0.5q-1.734375 0 -2.8125 -1.109375q-1.078125 -1.125 -1.078125 -3.234375zm1.453125 0q0 1.59375 0.6875 2.390625q0.703125 0.796875 1.75 0.796875q1.046875 0 1.734375 -0.796875q0.703125 -0.796875 0.703125 -2.4375q0 -1.53125 -0.703125 -2.328125q-0.6875 -0.796875 -1.734375 -0.796875q-1.046875 0 -1.75 0.796875q-0.6875 0.78125 -0.6875 2.375zm7.9765625 4.15625l0 -8.296875l1.265625 0l0 1.171875q0.90625 -1.359375 2.640625 -1.359375q0.75 0 1.375 0.265625q0.625 0.265625 0.9375 0.703125q0.3125 0.4375 0.4375 1.046875q0.078125 0.390625 0.078125 1.359375l0 5.109375l-1.40625 0l0 -5.046875q0 -0.859375 -0.171875 -1.28125q-0.15625 -0.4375 -0.578125 -0.6875q-0.40625 -0.25 -0.96875 -0.25q-0.90625 0 -1.5625 0.578125q-0.640625 0.5625 -0.640625 2.15625l0 4.53125l-1.40625 0z" fill-rule="nonzero"/><path fill="#eeeeee" d="m154.17596 320.55905l191.02362 0l0 80.8819l-191.02362 0z" fill-rule="evenodd"/><path stroke="#000000" stroke-width="2.0" stroke-linejoin="round" stroke-linecap="butt" d="m154.17596 320.55905l191.02362 0l0 80.8819l-191.02362 0z" fill-rule="evenodd"/><path fill="#000000" d="m181.22293 367.0631l3.328125 -11.859375l1.125 0l-3.3125 11.859375l-1.140625 0zm5.8359375 -0.203125l0 -7.203125l-1.234375 0l0 -1.09375l1.234375 0l0 -0.890625q0 -0.828125 0.15625 -1.234375q0.203125 -0.546875 0.703125 -0.890625q0.515625 -0.34375 1.4375 -0.34375q0.59375 0 1.3125 0.140625l-0.203125 1.234375q-0.4375 -0.078125 -0.828125 -0.078125q-0.640625 0 -0.90625 0.28125q-0.265625 0.265625 -0.265625 1.015625l0 0.765625l1.609375 0l0 1.09375l-1.609375 0l0 7.203125l-1.40625 0zm4.1015625 0l0 -8.296875l1.265625 0l0 1.25q0.484375 -0.875 0.890625 -1.15625q0.40625 -0.28125 0.90625 -0.28125q0.703125 0 1.4375 0.453125l-0.484375 1.296875q-0.515625 -0.296875 -1.03125 -0.296875q-0.453125 0 -0.828125 0.28125q-0.359375 0.265625 -0.515625 0.765625q-0.234375 0.75 -0.234375 1.640625l0 4.34375l-1.40625 0zm10.75 -1.03125q-0.78125 0.671875 -1.5 0.953125q-0.71875 0.265625 -1.546875 0.265625q-1.375 0 -2.109375 -0.671875q-0.734375 -0.671875 -0.734375 -1.703125q0 -0.609375 0.28125 -1.109375q0.28125 -0.515625 0.71875 -0.8125q0.453125 -0.3125 1.015625 -0.46875q0.421875 -0.109375 1.25 -0.203125q1.703125 -0.203125 2.515625 -0.484375q0 -0.296875 0 -0.375q0 -0.859375 -0.390625 -1.203125q-0.546875 -0.484375 -1.609375 -0.484375q-0.984375 0 -1.46875 0.359375q-0.46875 0.34375 -0.6875 1.21875l-1.375 -0.1875q0.1875 -0.875 0.609375 -1.421875q0.4375 -0.546875 1.25 -0.828125q0.8125 -0.296875 1.875 -0.296875q1.0625 0 1.71875 0.25q0.671875 0.25 0.984375 0.625q0.3125 0.375 0.4375 0.953125q0.078125 0.359375 0.078125 1.296875l0 1.875q0 1.96875 0.078125 2.484375q0.09375 0.515625 0.359375 1.0l-1.46875 0q-0.21875 -0.4375 -0.28125 -1.03125zm-0.109375 -3.140625q-0.765625 0.3125 -2.296875 0.53125q-0.875 0.125 -1.234375 0.28125q-0.359375 0.15625 -0.5625 0.46875q-0.1875 0.296875 -0.1875 0.65625q0 0.5625 0.421875 0.9375q0.4375 0.375 1.25 0.375q0.8125 0 1.4375 -0.34375q0.640625 -0.359375 0.9375 -0.984375q0.234375 -0.46875 0.234375 -1.40625l0 -0.515625zm3.3359375 4.859375l1.375 0.203125q0.078125 0.640625 0.46875 0.921875q0.53125 0.390625 1.4375 0.390625q0.96875 0 1.5 -0.390625q0.53125 -0.390625 0.71875 -1.09375q0.109375 -0.421875 0.109375 -1.8125q-0.921875 1.09375 -2.296875 1.09375q-1.71875 0 -2.65625 -1.234375q-0.9375 -1.234375 -0.9375 -2.96875q0 -1.1875 0.421875 -2.1875q0.4375 -1.0 1.25 -1.546875q0.828125 -0.546875 1.921875 -0.546875q1.46875 0 2.421875 1.1875l0 -1.0l1.296875 0l0 7.171875q0 1.9375 -0.390625 2.75q-0.390625 0.8125 -1.25 1.28125q-0.859375 0.46875 -2.109375 0.46875q-1.484375 0 -2.40625 -0.671875q-0.90625 -0.671875 -0.875 -2.015625zm1.171875 -4.984375q0 1.625 0.640625 2.375q0.65625 0.75 1.625 0.75q0.96875 0 1.625 -0.734375q0.65625 -0.75 0.65625 -2.34375q0 -1.53125 -0.671875 -2.296875q-0.671875 -0.78125 -1.625 -0.78125q-0.9375 0 -1.59375 0.765625q-0.65625 0.765625 -0.65625 2.265625zm6.9296875 4.5l3.328125 -11.859375l1.125 0l-3.3125 11.859375l-1.140625 0zm5.8359375 -0.203125l0 -7.203125l-1.234375 0l0 -1.09375l1.234375 0l0 -0.890625q0 -0.828125 0.15625 -1.234375q0.203125 -0.546875 0.703125 -0.890625q0.515625 -0.34375 1.4375 -0.34375q0.59375 0 1.3125 0.140625l-0.203125 1.234375q-0.4375 -0.078125 -0.828125 -0.078125q-0.640625 0 -0.90625 0.28125q-0.265625 0.265625 -0.265625 1.015625l0 0.765625l1.609375 0l0 1.09375l-1.609375 0l0 7.203125l-1.40625 0zm4.1171875 -9.84375l0 -1.609375l1.40625 0l0 1.609375l-1.40625 0zm0 9.84375l0 -8.296875l1.40625 0l0 8.296875l-1.40625 0zm3.5390625 0l0 -8.296875l1.265625 0l0 1.25q0.484375 -0.875 0.890625 -1.15625q0.40625 -0.28125 0.90625 -0.28125q0.703125 0 1.4375 0.453125l-0.484375 1.296875q-0.515625 -0.296875 -1.03125 -0.296875q-0.453125 0 -0.828125 0.28125q-0.359375 0.265625 -0.515625 0.765625q-0.234375 0.75 -0.234375 1.640625l0 4.34375l-1.40625 0zm4.78125 -2.484375l1.390625 -0.21875q0.109375 0.84375 0.640625 1.296875q0.546875 0.4375 1.5 0.4375q0.96875 0 1.4375 -0.390625q0.46875 -0.40625 0.46875 -0.9375q0 -0.46875 -0.40625 -0.75q-0.296875 -0.1875 -1.4375 -0.46875q-1.546875 -0.390625 -2.15625 -0.671875q-0.59375 -0.296875 -0.90625 -0.796875q-0.296875 -0.5 -0.296875 -1.109375q0 -0.5625 0.25 -1.03125q0.25 -0.46875 0.6875 -0.78125q0.328125 -0.25 0.890625 -0.40625q0.578125 -0.171875 1.21875 -0.171875q0.984375 0 1.71875 0.28125q0.734375 0.28125 1.078125 0.765625q0.359375 0.46875 0.5 1.28125l-1.375 0.1875q-0.09375 -0.640625 -0.546875 -1.0q-0.453125 -0.359375 -1.265625 -0.359375q-0.96875 0 -1.390625 0.328125q-0.40625 0.3125 -0.40625 0.734375q0 0.28125 0.171875 0.5q0.171875 0.21875 0.53125 0.375q0.21875 0.078125 1.25 0.359375q1.484375 0.390625 2.078125 0.65625q0.59375 0.25 0.921875 0.734375q0.34375 0.484375 0.34375 1.203125q0 0.703125 -0.421875 1.328125q-0.40625 0.609375 -1.1875 0.953125q-0.765625 0.34375 -1.734375 0.34375q-1.625 0 -2.46875 -0.671875q-0.84375 -0.671875 -1.078125 -2.0zm11.625 1.21875l0.203125 1.25q-0.59375 0.125 -1.0625 0.125q-0.765625 0 -1.1875 -0.234375q-0.421875 -0.25 -0.59375 -0.640625q-0.171875 -0.40625 -0.171875 -1.671875l0 -4.765625l-1.03125 0l0 -1.09375l1.03125 0l0 -2.0625l1.40625 -0.84375l0 2.90625l1.40625 0l0 1.09375l-1.40625 0l0 4.84375q0 0.609375 0.0625 0.78125q0.078125 0.171875 0.25 0.28125q0.171875 0.09375 0.484375 0.09375q0.234375 0 0.609375 -0.0625zm1.5390625 1.265625l0 -11.453125l1.5625 0l6.015625 8.984375l0 -8.984375l1.453125 0l0 11.453125l-1.5625 0l-6.015625 -9.0l0 9.0l-1.453125 0zm16.804688 -1.03125q-0.78125 0.671875 -1.5 0.953125q-0.71875 0.265625 -1.546875 0.265625q-1.375 0 -2.109375 -0.671875q-0.734375 -0.671875 -0.734375 -1.703125q0 -0.609375 0.28125 -1.109375q0.28125 -0.515625 0.71875 -0.8125q0.453125 -0.3125 1.015625 -0.46875q0.421875 -0.109375 1.25 -0.203125q1.703125 -0.203125 2.515625 -0.484375q0 -0.296875 0 -0.375q0 -0.859375 -0.390625 -1.203125q-0.546875 -0.484375 -1.609375 -0.484375q-0.984375 0 -1.46875 0.359375q-0.46875 0.34375 -0.6875 1.21875l-1.375 -0.1875q0.1875 -0.875 0.609375 -1.421875q0.4375 -0.546875 1.25 -0.828125q0.8125 -0.296875 1.875 -0.296875q1.0625 0 1.71875 0.25q0.671875 0.25 0.984375 0.625q0.3125 0.375 0.4375 0.953125q0.078125 0.359375 0.078125 1.296875l0 1.875q0 1.96875 0.078125 2.484375q0.09375 0.515625 0.359375 1.0l-1.46875 0q-0.21875 -0.4375 -0.28125 -1.03125zm-0.109375 -3.140625q-0.765625 0.3125 -2.296875 0.53125q-0.875 0.125 -1.234375 0.28125q-0.359375 0.15625 -0.5625 0.46875q-0.1875 0.296875 -0.1875 0.65625q0 0.5625 0.421875 0.9375q0.4375 0.375 1.25 0.375q0.8125 0 1.4375 -0.34375q0.640625 -0.359375 0.9375 -0.984375q0.234375 -0.46875 0.234375 -1.40625l0 -0.515625zm3.6015625 4.171875l0 -8.296875l1.25 0l0 1.15625q0.390625 -0.609375 1.03125 -0.96875q0.65625 -0.375 1.484375 -0.375q0.921875 0 1.515625 0.390625q0.59375 0.375 0.828125 1.0625q0.984375 -1.453125 2.5625 -1.453125q1.234375 0 1.890625 0.6875q0.671875 0.671875 0.671875 2.09375l0 5.703125l-1.390625 0l0 -5.234375q0 -0.84375 -0.140625 -1.203125q-0.140625 -0.375 -0.5 -0.59375q-0.359375 -0.234375 -0.84375 -0.234375q-0.875 0 -1.453125 0.578125q-0.578125 0.578125 -0.578125 1.859375l0 4.828125l-1.40625 0l0 -5.390625q0 -0.9375 -0.34375 -1.40625q-0.34375 -0.46875 -1.125 -0.46875q-0.59375 0 -1.09375 0.3125q-0.5 0.3125 -0.734375 0.921875q-0.21875 0.59375 -0.21875 1.71875l0 4.3125l-1.40625 0zm19.0 -2.671875l1.453125 0.171875q-0.34375 1.28125 -1.28125 1.984375q-0.921875 0.703125 -2.359375 0.703125q-1.828125 0 -2.890625 -1.125q-1.0625 -1.125 -1.0625 -3.140625q0 -2.09375 1.078125 -3.25q1.078125 -1.15625 2.796875 -1.15625q1.65625 0 2.703125 1.140625q1.0625 1.125 1.0625 3.171875q0 0.125 0 0.375l-6.1875 0q0.078125 1.375 0.765625 2.109375q0.703125 0.71875 1.734375 0.71875q0.78125 0 1.328125 -0.40625q0.546875 -0.40625 0.859375 -1.296875zm-4.609375 -2.28125l4.625 0q-0.09375 -1.046875 -0.53125 -1.5625q-0.671875 -0.8125 -1.734375 -0.8125q-0.96875 0 -1.640625 0.65625q-0.65625 0.640625 -0.71875 1.71875zm6.7734375 5.15625l3.328125 -11.859375l1.125 0l-3.3125 11.859375l-1.140625 0zm5.4921875 -0.203125l0 -8.296875l1.265625 0l0 1.25q0.484375 -0.875 0.890625 -1.15625q0.40625 -0.28125 0.90625 -0.28125q0.703125 0 1.4375 0.453125l-0.484375 1.296875q-0.515625 -0.296875 -1.03125 -0.296875q-0.453125 0 -0.828125 0.28125q-0.359375 0.265625 -0.515625 0.765625q-0.234375 0.75 -0.234375 1.640625l0 4.34375l-1.40625 0zm4.8125 -4.15625q0 -2.296875 1.28125 -3.40625q1.078125 -0.921875 2.609375 -0.921875q1.71875 0 2.796875 1.125q1.09375 1.109375 1.09375 3.09375q0 1.59375 -0.484375 2.515625q-0.484375 0.921875 -1.40625 1.4375q-0.90625 0.5 -2.0 0.5q-1.734375 0 -2.8125 -1.109375q-1.078125 -1.125 -1.078125 -3.234375zm1.453125 0q0 1.59375 0.6875 2.390625q0.703125 0.796875 1.75 0.796875q1.046875 0 1.734375 -0.796875q0.703125 -0.796875 0.703125 -2.4375q0 -1.53125 -0.703125 -2.328125q-0.6875 -0.796875 -1.734375 -0.796875q-1.046875 0 -1.75 0.796875q-0.6875 0.78125 -0.6875 2.375zm7.4453125 0q0 -2.296875 1.28125 -3.40625q1.078125 -0.921875 2.609375 -0.921875q1.71875 0 2.796875 1.125q1.09375 1.109375 1.09375 3.09375q0 1.59375 -0.484375 2.515625q-0.484375 0.921875 -1.40625 1.4375q-0.90625 0.5 -2.0 0.5q-1.734375 0 -2.8125 -1.109375q-1.078125 -1.125 -1.078125 -3.234375zm1.453125 0q0 1.59375 0.6875 2.390625q0.703125 0.796875 1.75 0.796875q1.046875 0 1.734375 -0.796875q0.703125 -0.796875 0.703125 -2.4375q0 -1.53125 -0.703125 -2.328125q-0.6875 -0.796875 -1.734375 -0.796875q-1.046875 0 -1.75 0.796875q-0.6875 0.78125 -0.6875 2.375zm11.0390625 2.890625l0.203125 1.25q-0.59375 0.125 -1.0625 0.125q-0.765625 0 -1.1875 -0.234375q-0.421875 -0.25 -0.59375 -0.640625q-0.171875 -0.40625 -0.171875 -1.671875l0 -4.765625l-1.03125 0l0 -1.09375l1.03125 0l0 -2.0625l1.40625 -0.84375l0 2.90625l1.40625 0l0 1.09375l-1.40625 0l0 4.84375q0 0.609375 0.0625 0.78125q0.078125 0.171875 0.25 0.28125q0.171875 0.09375 0.484375 0.09375q0.234375 0 0.609375 -0.0625z" fill-rule="nonzero"/><path fill="#eeeeee" d="m572.76385 320.55905l187.68506 0l0 80.8819l-187.68506 0z" fill-rule="evenodd"/><path stroke="#000000" stroke-width="2.0" stroke-linejoin="round" stroke-linecap="butt" d="m572.76385 320.55905l187.68506 0l0 80.8819l-187.68506 0z" fill-rule="evenodd"/><path fill="#000000" d="m590.13763 367.0631l3.328125 -11.859375l1.125 0l-3.3125 11.859375l-1.140625 0zm5.8359375 -0.203125l0 -7.203125l-1.234375 0l0 -1.09375l1.234375 0l0 -0.890625q0 -0.828125 0.15625 -1.234375q0.203125 -0.546875 0.703125 -0.890625q0.515625 -0.34375 1.4375 -0.34375q0.59375 0 1.3125 0.140625l-0.203125 1.234375q-0.4375 -0.078125 -0.828125 -0.078125q-0.640625 0 -0.90625 0.28125q-0.265625 0.265625 -0.265625 1.015625l0 0.765625l1.609375 0l0 1.09375l-1.609375 0l0 7.203125l-1.40625 0zm4.1015625 0l0 -8.296875l1.265625 0l0 1.25q0.484375 -0.875 0.890625 -1.15625q0.40625 -0.28125 0.90625 -0.28125q0.703125 0 1.4375 0.453125l-0.484375 1.296875q-0.515625 -0.296875 -1.03125 -0.296875q-0.453125 0 -0.828125 0.28125q-0.359375 0.265625 -0.515625 0.765625q-0.234375 0.75 -0.234375 1.640625l0 4.34375l-1.40625 0zm10.75 -1.03125q-0.78125 0.671875 -1.5 0.953125q-0.71875 0.265625 -1.546875 0.265625q-1.375 0 -2.109375 -0.671875q-0.734375 -0.671875 -0.734375 -1.703125q0 -0.609375 0.28125 -1.109375q0.28125 -0.515625 0.71875 -0.8125q0.453125 -0.3125 1.015625 -0.46875q0.421875 -0.109375 1.25 -0.203125q1.703125 -0.203125 2.515625 -0.484375q0 -0.296875 0 -0.375q0 -0.859375 -0.390625 -1.203125q-0.546875 -0.484375 -1.609375 -0.484375q-0.984375 0 -1.46875 0.359375q-0.46875 0.34375 -0.6875 1.21875l-1.375 -0.1875q0.1875 -0.875 0.609375 -1.421875q0.4375 -0.546875 1.25 -0.828125q0.8125 -0.296875 1.875 -0.296875q1.0625 0 1.71875 0.25q0.671875 0.25 0.984375 0.625q0.3125 0.375 0.4375 0.953125q0.078125 0.359375 0.078125 1.296875l0 1.875q0 1.96875 0.078125 2.484375q0.09375 0.515625 0.359375 1.0l-1.46875 0q-0.21875 -0.4375 -0.28125 -1.03125zm-0.109375 -3.140625q-0.765625 0.3125 -2.296875 0.53125q-0.875 0.125 -1.234375 0.28125q-0.359375 0.15625 -0.5625 0.46875q-0.1875 0.296875 -0.1875 0.65625q0 0.5625 0.421875 0.9375q0.4375 0.375 1.25 0.375q0.8125 0 1.4375 -0.34375q0.640625 -0.359375 0.9375 -0.984375q0.234375 -0.46875 0.234375 -1.40625l0 -0.515625zm3.3359375 4.859375l1.375 0.203125q0.078125 0.640625 0.46875 0.921875q0.53125 0.390625 1.4375 0.390625q0.96875 0 1.5 -0.390625q0.53125 -0.390625 0.71875 -1.09375q0.109375 -0.421875 0.109375 -1.8125q-0.921875 1.09375 -2.296875 1.09375q-1.71875 0 -2.65625 -1.234375q-0.9375 -1.234375 -0.9375 -2.96875q0 -1.1875 0.421875 -2.1875q0.4375 -1.0 1.25 -1.546875q0.828125 -0.546875 1.921875 -0.546875q1.46875 0 2.421875 1.1875l0 -1.0l1.296875 0l0 7.171875q0 1.9375 -0.390625 2.75q-0.390625 0.8125 -1.25 1.28125q-0.859375 0.46875 -2.109375 0.46875q-1.484375 0 -2.40625 -0.671875q-0.90625 -0.671875 -0.875 -2.015625zm1.171875 -4.984375q0 1.625 0.640625 2.375q0.65625 0.75 1.625 0.75q0.96875 0 1.625 -0.734375q0.65625 -0.75 0.65625 -2.34375q0 -1.53125 -0.671875 -2.296875q-0.671875 -0.78125 -1.625 -0.78125q-0.9375 0 -1.59375 0.765625q-0.65625 0.765625 -0.65625 2.265625zm6.9296875 4.5l3.328125 -11.859375l1.125 0l-3.3125 11.859375l-1.140625 0zm5.8359375 -0.203125l0 -7.203125l-1.234375 0l0 -1.09375l1.234375 0l0 -0.890625q0 -0.828125 0.15625 -1.234375q0.203125 -0.546875 0.703125 -0.890625q0.515625 -0.34375 1.4375 -0.34375q0.59375 0 1.3125 0.140625l-0.203125 1.234375q-0.4375 -0.078125 -0.828125 -0.078125q-0.640625 0 -0.90625 0.28125q-0.265625 0.265625 -0.265625 1.015625l0 0.765625l1.609375 0l0 1.09375l-1.609375 0l0 7.203125l-1.40625 0zm9.5234375 -1.03125q-0.78125 0.671875 -1.5 0.953125q-0.71875 0.265625 -1.546875 0.265625q-1.375 0 -2.109375 -0.671875q-0.734375 -0.671875 -0.734375 -1.703125q0 -0.609375 0.28125 -1.109375q0.28125 -0.515625 0.71875 -0.8125q0.453125 -0.3125 1.015625 -0.46875q0.421875 -0.109375 1.25 -0.203125q1.703125 -0.203125 2.515625 -0.484375q0 -0.296875 0 -0.375q0 -0.859375 -0.390625 -1.203125q-0.546875 -0.484375 -1.609375 -0.484375q-0.984375 0 -1.46875 0.359375q-0.46875 0.34375 -0.6875 1.21875l-1.375 -0.1875q0.1875 -0.875 0.609375 -1.421875q0.4375 -0.546875 1.25 -0.828125q0.8125 -0.296875 1.875 -0.296875q1.0625 0 1.71875 0.25q0.671875 0.25 0.984375 0.625q0.3125 0.375 0.4375 0.953125q0.078125 0.359375 0.078125 1.296875l0 1.875q0 1.96875 0.078125 2.484375q0.09375 0.515625 0.359375 1.0l-1.46875 0q-0.21875 -0.4375 -0.28125 -1.03125zm-0.109375 -3.140625q-0.765625 0.3125 -2.296875 0.53125q-0.875 0.125 -1.234375 0.28125q-0.359375 0.15625 -0.5625 0.46875q-0.1875 0.296875 -0.1875 0.65625q0 0.5625 0.421875 0.9375q0.4375 0.375 1.25 0.375q0.8125 0 1.4375 -0.34375q0.640625 -0.359375 0.9375 -0.984375q0.234375 -0.46875 0.234375 -1.40625l0 -0.515625zm3.6015625 4.171875l0 -8.296875l1.25 0l0 1.15625q0.390625 -0.609375 1.03125 -0.96875q0.65625 -0.375 1.484375 -0.375q0.921875 0 1.515625 0.390625q0.59375 0.375 0.828125 1.0625q0.984375 -1.453125 2.5625 -1.453125q1.234375 0 1.890625 0.6875q0.671875 0.671875 0.671875 2.09375l0 5.703125l-1.390625 0l0 -5.234375q0 -0.84375 -0.140625 -1.203125q-0.140625 -0.375 -0.5 -0.59375q-0.359375 -0.234375 -0.84375 -0.234375q-0.875 0 -1.453125 0.578125q-0.578125 0.578125 -0.578125 1.859375l0 4.828125l-1.40625 0l0 -5.390625q0 -0.9375 -0.34375 -1.40625q-0.34375 -0.46875 -1.125 -0.46875q-0.59375 0 -1.09375 0.3125q-0.5 0.3125 -0.734375 0.921875q-0.21875 0.59375 -0.21875 1.71875l0 4.3125l-1.40625 0zm13.328125 -9.84375l0 -1.609375l1.40625 0l0 1.609375l-1.40625 0zm0 9.84375l0 -8.296875l1.40625 0l0 8.296875l-1.40625 0zm3.5234375 0l0 -11.453125l1.40625 0l0 11.453125l-1.40625 0zm3.5234375 3.203125l-0.15625 -1.328125q0.453125 0.125 0.796875 0.125q0.46875 0 0.75 -0.15625q0.28125 -0.15625 0.46875 -0.4375q0.125 -0.203125 0.421875 -1.046875q0.046875 -0.109375 0.125 -0.34375l-3.140625 -8.3125l1.515625 0l1.71875 4.796875q0.34375 0.921875 0.609375 1.921875q0.234375 -0.96875 0.578125 -1.890625l1.765625 -4.828125l1.40625 0l-3.15625 8.4375q-0.5 1.375 -0.78125 1.890625q-0.375 0.6875 -0.859375 1.015625q-0.484375 0.328125 -1.15625 0.328125q-0.40625 0 -0.90625 -0.171875zm8.21875 -3.203125l0 -11.453125l1.5625 0l6.015625 8.984375l0 -8.984375l1.453125 0l0 11.453125l-1.5625 0l-6.015625 -9.0l0 9.0l-1.453125 0zm16.804688 -1.03125q-0.78125 0.671875 -1.5 0.953125q-0.71875 0.265625 -1.546875 0.265625q-1.375 0 -2.109375 -0.671875q-0.734375 -0.671875 -0.734375 -1.703125q0 -0.609375 0.28125 -1.109375q0.28125 -0.515625 0.71875 -0.8125q0.453125 -0.3125 1.015625 -0.46875q0.421875 -0.109375 1.25 -0.203125q1.703125 -0.203125 2.515625 -0.484375q0 -0.296875 0 -0.375q0 -0.859375 -0.390625 -1.203125q-0.546875 -0.484375 -1.609375 -0.484375q-0.984375 0 -1.46875 0.359375q-0.46875 0.34375 -0.6875 1.21875l-1.375 -0.1875q0.1875 -0.875 0.609375 -1.421875q0.4375 -0.546875 1.25 -0.828125q0.8125 -0.296875 1.875 -0.296875q1.0625 0 1.71875 0.25q0.671875 0.25 0.984375 0.625q0.3125 0.375 0.4375 0.953125q0.078125 0.359375 0.078125 1.296875l0 1.875q0 1.96875 0.078125 2.484375q0.09375 0.515625 0.359375 1.0l-1.46875 0q-0.21875 -0.4375 -0.28125 -1.03125zm-0.109375 -3.140625q-0.765625 0.3125 -2.296875 0.53125q-0.875 0.125 -1.234375 0.28125q-0.359375 0.15625 -0.5625 0.46875q-0.1875 0.296875 -0.1875 0.65625q0 0.5625 0.421875 0.9375q0.4375 0.375 1.25 0.375q0.8125 0 1.4375 -0.34375q0.640625 -0.359375 0.9375 -0.984375q0.234375 -0.46875 0.234375 -1.40625l0 -0.515625zm3.6015625 4.171875l0 -8.296875l1.25 0l0 1.15625q0.390625 -0.609375 1.03125 -0.96875q0.65625 -0.375 1.484375 -0.375q0.921875 0 1.515625 0.390625q0.59375 0.375 0.828125 1.0625q0.984375 -1.453125 2.5625 -1.453125q1.234375 0 1.890625 0.6875q0.671875 0.671875 0.671875 2.09375l0 5.703125l-1.390625 0l0 -5.234375q0 -0.84375 -0.140625 -1.203125q-0.140625 -0.375 -0.5 -0.59375q-0.359375 -0.234375 -0.84375 -0.234375q-0.875 0 -1.453125 0.578125q-0.578125 0.578125 -0.578125 1.859375l0 4.828125l-1.40625 0l0 -5.390625q0 -0.9375 -0.34375 -1.40625q-0.34375 -0.46875 -1.125 -0.46875q-0.59375 0 -1.09375 0.3125q-0.5 0.3125 -0.734375 0.921875q-0.21875 0.59375 -0.21875 1.71875l0 4.3125l-1.40625 0zm19.0 -2.671875l1.453125 0.171875q-0.34375 1.28125 -1.28125 1.984375q-0.921875 0.703125 -2.359375 0.703125q-1.828125 0 -2.890625 -1.125q-1.0625 -1.125 -1.0625 -3.140625q0 -2.09375 1.078125 -3.25q1.078125 -1.15625 2.796875 -1.15625q1.65625 0 2.703125 1.140625q1.0625 1.125 1.0625 3.171875q0 0.125 0 0.375l-6.1875 0q0.078125 1.375 0.765625 2.109375q0.703125 0.71875 1.734375 0.71875q0.78125 0 1.328125 -0.40625q0.546875 -0.40625 0.859375 -1.296875zm-4.609375 -2.28125l4.625 0q-0.09375 -1.046875 -0.53125 -1.5625q-0.671875 -0.8125 -1.734375 -0.8125q-0.96875 0 -1.640625 0.65625q-0.65625 0.640625 -0.71875 1.71875zm6.7734375 5.15625l3.328125 -11.859375l1.125 0l-3.3125 11.859375l-1.140625 0zm5.4921875 -0.203125l0 -8.296875l1.265625 0l0 1.25q0.484375 -0.875 0.890625 -1.15625q0.40625 -0.28125 0.90625 -0.28125q0.703125 0 1.4375 0.453125l-0.484375 1.296875q-0.515625 -0.296875 -1.03125 -0.296875q-0.453125 0 -0.828125 0.28125q-0.359375 0.265625 -0.515625 0.765625q-0.234375 0.75 -0.234375 1.640625l0 4.34375l-1.40625 0zm4.8125 -4.15625q0 -2.296875 1.28125 -3.40625q1.078125 -0.921875 2.609375 -0.921875q1.71875 0 2.796875 1.125q1.09375 1.109375 1.09375 3.09375q0 1.59375 -0.484375 2.515625q-0.484375 0.921875 -1.40625 1.4375q-0.90625 0.5 -2.0 0.5q-1.734375 0 -2.8125 -1.109375q-1.078125 -1.125 -1.078125 -3.234375zm1.453125 0q0 1.59375 0.6875 2.390625q0.703125 0.796875 1.75 0.796875q1.046875 0 1.734375 -0.796875q0.703125 -0.796875 0.703125 -2.4375q0 -1.53125 -0.703125 -2.328125q-0.6875 -0.796875 -1.734375 -0.796875q-1.046875 0 -1.75 0.796875q-0.6875 0.78125 -0.6875 2.375zm7.4453125 0q0 -2.296875 1.28125 -3.40625q1.078125 -0.921875 2.609375 -0.921875q1.71875 0 2.796875 1.125q1.09375 1.109375 1.09375 3.09375q0 1.59375 -0.484375 2.515625q-0.484375 0.921875 -1.40625 1.4375q-0.90625 0.5 -2.0 0.5q-1.734375 0 -2.8125 -1.109375q-1.078125 -1.125 -1.078125 -3.234375zm1.453125 0q0 1.59375 0.6875 2.390625q0.703125 0.796875 1.75 0.796875q1.046875 0 1.734375 -0.796875q0.703125 -0.796875 0.703125 -2.4375q0 -1.53125 -0.703125 -2.328125q-0.6875 -0.796875 -1.734375 -0.796875q-1.046875 0 -1.75 0.796875q-0.6875 0.78125 -0.6875 2.375zm11.0390625 2.890625l0.203125 1.25q-0.59375 0.125 -1.0625 0.125q-0.765625 0 -1.1875 -0.234375q-0.421875 -0.25 -0.59375 -0.640625q-0.171875 -0.40625 -0.171875 -1.671875l0 -4.765625l-1.03125 0l0 -1.09375l1.03125 0l0 -2.0625l1.40625 -0.84375l0 2.90625l1.40625 0l0 1.09375l-1.40625 0l0 4.84375q0 0.609375 0.0625 0.78125q0.078125 0.171875 0.25 0.28125q0.171875 0.09375 0.484375 0.09375q0.234375 0 0.609375 -0.0625z" fill-rule="nonzero"/><path fill="#000000" fill-opacity="0.0" d="m463.65778 219.44096l-213.98425 101.10234" fill-rule="evenodd"/><path stroke="#000000" stroke-width="2.0" stroke-linejoin="round" stroke-linecap="butt" d="m463.65778 219.44096l-203.13431 95.97603" fill-rule="evenodd"/><path fill="#000000" stroke="#000000" stroke-width="2.0" stroke-linecap="butt" d="m259.11224 312.43015l-6.7951202 6.8641663l9.617538 -0.8904419z" fill-rule="evenodd"/><path fill="#000000" fill-opacity="0.0" d="m463.65778 219.44096l202.96063 101.10234" fill-rule="evenodd"/><path stroke="#000000" stroke-width="2.0" stroke-linejoin="round" stroke-linecap="butt" d="m463.65778 219.44096l192.21954 95.751816" fill-rule="evenodd"/><path fill="#000000" stroke="#000000" stroke-width="2.0" stroke-linecap="butt" d="m654.40436 318.1497l9.596985 1.0899658l-6.651123 -7.003784z" fill-rule="evenodd"/><path fill="#000000" fill-opacity="0.0" d="m197.83191 219.44095l156.7244 0l0 56.251953l-156.7244 0z" fill-rule="evenodd"/><path fill="#000000" d="m246.43192 246.23595q-0.53125 0.140625 -1.109375 0.1875q-0.578125 0.0625 -1.171875 0.0625q-1.71875 0 -2.5625 -0.78125q-0.84375 -0.78125 -0.84375 -2.390625l0 -4.765625l-2.5625 0l0 -1.328125l2.5625 0l0 -2.515625l1.578125 -0.40625l0 2.921875l4.109375 0l0 1.328125l-4.109375 0l0 4.640625q0 0.984375 0.515625 1.46875q0.53125 0.484375 1.546875 0.484375q0.4375 0 0.953125 -0.0625q0.53125 -0.0625 1.09375 -0.21875l0 1.375zm3.2572937 -9.015625l1.453125 0l0.046875 1.6875q0.8125 -0.984375 1.59375 -1.421875q0.796875 -0.4375 1.59375 -0.4375q1.421875 0 2.15625 0.921875q0.734375 0.921875 0.671875 2.734375l-1.59375 0q0.015625 -1.203125 -0.359375 -1.734375q-0.375 -0.546875 -1.109375 -0.546875q-0.3125 0 -0.640625 0.109375q-0.328125 0.109375 -0.671875 0.359375q-0.328125 0.25 -0.71875 0.640625q-0.375 0.390625 -0.8125 0.953125l0 5.875l-1.609375 0l0 -9.140625zm17.616669 4.078125q0 0.34375 -0.015625 0.578125q0 0.21875 -0.03125 0.421875l-6.421875 0q0 1.40625 0.78125 2.15625q0.796875 0.75 2.265625 0.75q0.40625 0 0.796875 -0.03125q0.40625 -0.03125 0.78125 -0.078125q0.375 -0.0625 0.71875 -0.125q0.34375 -0.078125 0.625 -0.15625l0 1.296875q-0.640625 0.1875 -1.46875 0.296875q-0.8125 0.109375 -1.6875 0.109375q-1.171875 0 -2.015625 -0.3125q-0.84375 -0.3125 -1.390625 -0.921875q-0.546875 -0.609375 -0.8125 -1.484375q-0.25 -0.875 -0.25 -2.0q0 -0.953125 0.28125 -1.8125q0.28125 -0.859375 0.8125 -1.515625q0.53125 -0.65625 1.296875 -1.03125q0.78125 -0.390625 1.765625 -0.390625q0.953125 0 1.6875 0.3125q0.75 0.296875 1.25 0.84375q0.5 0.546875 0.765625 1.34375q0.265625 0.78125 0.265625 1.75zm-1.65625 -0.21875q0.03125 -0.609375 -0.125 -1.109375q-0.140625 -0.515625 -0.453125 -0.875q-0.296875 -0.375 -0.75 -0.578125q-0.453125 -0.203125 -1.0625 -0.203125q-0.515625 0 -0.953125 0.203125q-0.421875 0.203125 -0.734375 0.5625q-0.296875 0.359375 -0.5 0.875q-0.1875 0.515625 -0.234375 1.125l4.8125 0zm11.913544 0.21875q0 0.34375 -0.015625 0.578125q0 0.21875 -0.03125 0.421875l-6.421875 0q0 1.40625 0.78125 2.15625q0.796875 0.75 2.265625 0.75q0.40625 0 0.796875 -0.03125q0.40625 -0.03125 0.78125 -0.078125q0.375 -0.0625 0.71875 -0.125q0.34375 -0.078125 0.625 -0.15625l0 1.296875q-0.640625 0.1875 -1.46875 0.296875q-0.8125 0.109375 -1.6875 0.109375q-1.171875 0 -2.015625 -0.3125q-0.84375 -0.3125 -1.390625 -0.921875q-0.546875 -0.609375 -0.8125 -1.484375q-0.25 -0.875 -0.25 -2.0q0 -0.953125 0.28125 -1.8125q0.28125 -0.859375 0.8125 -1.515625q0.53125 -0.65625 1.296875 -1.03125q0.78125 -0.390625 1.765625 -0.390625q0.953125 0 1.6875 0.3125q0.75 0.296875 1.25 0.84375q0.5 0.546875 0.765625 1.34375q0.265625 0.78125 0.265625 1.75zm-1.65625 -0.21875q0.03125 -0.609375 -0.125 -1.109375q-0.140625 -0.515625 -0.453125 -0.875q-0.296875 -0.375 -0.75 -0.578125q-0.453125 -0.203125 -1.0625 -0.203125q-0.515625 0 -0.953125 0.203125q-0.421875 0.203125 -0.734375 0.5625q-0.296875 0.359375 -0.5 0.875q-0.1875 0.515625 -0.234375 1.125l4.8125 0zm7.8510437 -4.03125q0.28125 0 0.53125 0.125q0.265625 0.109375 0.453125 0.296875q0.1875 0.1875 0.296875 0.453125q0.125 0.25 0.125 0.53125q0 0.296875 -0.125 0.546875q-0.109375 0.25 -0.296875 0.4375q-0.1875 0.1875 -0.453125 0.296875q-0.25 0.109375 -0.53125 0.109375q-0.28125 0 -0.53125 -0.109375q-0.25 -0.109375 -0.453125 -0.296875q-0.1875 -0.1875 -0.296875 -0.4375q-0.109375 -0.25 -0.109375 -0.546875q0 -0.28125 0.109375 -0.53125q0.109375 -0.265625 0.296875 -0.453125q0.203125 -0.1875 0.453125 -0.296875q0.25 -0.125 0.53125 -0.125zm0 6.6875q0.28125 0 0.53125 0.109375q0.265625 0.109375 0.453125 0.3125q0.1875 0.1875 0.296875 0.4375q0.125 0.25 0.125 0.53125q0 0.296875 -0.125 0.546875q-0.109375 0.25 -0.296875 0.453125q-0.1875 0.1875 -0.453125 0.28125q-0.25 0.109375 -0.53125 0.109375q-0.28125 0 -0.53125 -0.109375q-0.25 -0.09375 -0.453125 -0.28125q-0.1875 -0.203125 -0.296875 -0.453125q-0.109375 -0.25 -0.109375 -0.546875q0 -0.28125 0.109375 -0.53125q0.109375 -0.25 0.296875 -0.4375q0.203125 -0.203125 0.453125 -0.3125q0.25 -0.109375 0.53125 -0.109375zm5.7260437 -6.515625l1.8125 0l2.234375 6.046875l0.484375 1.46875l0.5 -1.515625l2.234375 -6.0l1.734375 0l-3.59375 9.140625l-1.8125 0l-3.59375 -9.140625zm14.241669 1.3125l-2.703125 0l0 -1.3125l4.296875 0l0 7.8125l2.734375 0l0 1.328125l-7.34375 0l0 -1.328125l3.015625 0l0 -6.5zm0.546875 -5.15625q0.265625 0 0.484375 0.09375q0.234375 0.09375 0.40625 0.28125q0.171875 0.171875 0.265625 0.390625q0.09375 0.21875 0.09375 0.484375q0 0.25 -0.09375 0.484375q-0.09375 0.234375 -0.265625 0.40625q-0.171875 0.171875 -0.40625 0.265625q-0.21875 0.09375 -0.484375 0.09375q-0.265625 0 -0.5 -0.09375q-0.21875 -0.09375 -0.390625 -0.265625q-0.15625 -0.171875 -0.265625 -0.40625q-0.09375 -0.234375 -0.09375 -0.484375q0 -0.265625 0.09375 -0.484375q0.109375 -0.21875 0.265625 -0.390625q0.171875 -0.1875 0.390625 -0.28125q0.234375 -0.09375 0.5 -0.09375zm14.319794 7.921875q0 0.34375 -0.015625 0.578125q0 0.21875 -0.03125 0.421875l-6.421875 0q0 1.40625 0.78125 2.15625q0.796875 0.75 2.265625 0.75q0.40625 0 0.796875 -0.03125q0.40625 -0.03125 0.78125 -0.078125q0.375 -0.0625 0.71875 -0.125q0.34375 -0.078125 0.625 -0.15625l0 1.296875q-0.640625 0.1875 -1.46875 0.296875q-0.8125 0.109375 -1.6875 0.109375q-1.171875 0 -2.015625 -0.3125q-0.84375 -0.3125 -1.390625 -0.921875q-0.546875 -0.609375 -0.8125 -1.484375q-0.25 -0.875 -0.25 -2.0q0 -0.953125 0.28125 -1.8125q0.28125 -0.859375 0.8125 -1.515625q0.53125 -0.65625 1.296875 -1.03125q0.78125 -0.390625 1.765625 -0.390625q0.953125 0 1.6875 0.3125q0.75 0.296875 1.25 0.84375q0.5 0.546875 0.765625 1.34375q0.265625 0.78125 0.265625 1.75zm-1.65625 -0.21875q0.03125 -0.609375 -0.125 -1.109375q-0.140625 -0.515625 -0.453125 -0.875q-0.296875 -0.375 -0.75 -0.578125q-0.453125 -0.203125 -1.0625 -0.203125q-0.515625 0 -0.953125 0.203125q-0.421875 0.203125 -0.734375 0.5625q-0.296875 0.359375 -0.5 0.875q-0.1875 0.515625 -0.234375 1.125l4.8125 0zm12.647919 -3.859375l-1.328125 9.140625l-1.921875 0l-1.3125 -3.828125l-0.265625 -0.921875l-0.296875 0.984375l-1.265625 3.765625l-1.875 0l-1.3125 -9.140625l1.546875 0l0.765625 6.203125l0.15625 1.390625l0.390625 -1.21875l1.328125 -4.109375l1.140625 0l1.4375 4.0625l0.40625 1.203125l0.140625 -1.28125l0.703125 -6.25l1.5625 0z" fill-rule="nonzero"/><path fill="#000000" fill-opacity="0.0" d="m572.7635 219.44095l187.68506 0l0 56.251953l-187.68506 0z" fill-rule="evenodd"/><path fill="#000000" d="m590.5916 246.23595q-0.53125 0.140625 -1.109375 0.1875q-0.578125 0.0625 -1.171875 0.0625q-1.71875 0 -2.5625 -0.78125q-0.84375 -0.78125 -0.84375 -2.390625l0 -4.765625l-2.5625 0l0 -1.328125l2.5625 0l0 -2.515625l1.578125 -0.40625l0 2.921875l4.109375 0l0 1.328125l-4.109375 0l0 4.640625q0 0.984375 0.515625 1.46875q0.53125 0.484375 1.546875 0.484375q0.4375 0 0.953125 -0.0625q0.53125 -0.0625 1.09375 -0.21875l0 1.375zm3.2572632 -9.015625l1.453125 0l0.046875 1.6875q0.8125 -0.984375 1.59375 -1.421875q0.796875 -0.4375 1.59375 -0.4375q1.421875 0 2.15625 0.921875q0.734375 0.921875 0.671875 2.734375l-1.59375 0q0.015625 -1.203125 -0.359375 -1.734375q-0.375 -0.546875 -1.109375 -0.546875q-0.3125 0 -0.640625 0.109375q-0.328125 0.109375 -0.671875 0.359375q-0.328125 0.25 -0.71875 0.640625q-0.375 0.390625 -0.8125 0.953125l0 5.875l-1.609375 0l0 -9.140625zm17.6167 4.078125q0 0.34375 -0.015625 0.578125q0 0.21875 -0.03125 0.421875l-6.421875 0q0 1.40625 0.78125 2.15625q0.796875 0.75 2.265625 0.75q0.40625 0 0.796875 -0.03125q0.40625 -0.03125 0.78125 -0.078125q0.375 -0.0625 0.71875 -0.125q0.34375 -0.078125 0.625 -0.15625l0 1.296875q-0.640625 0.1875 -1.46875 0.296875q-0.8125 0.109375 -1.6875 0.109375q-1.171875 0 -2.015625 -0.3125q-0.84375 -0.3125 -1.390625 -0.921875q-0.546875 -0.609375 -0.8125 -1.484375q-0.25 -0.875 -0.25 -2.0q0 -0.953125 0.28125 -1.8125q0.28125 -0.859375 0.8125 -1.515625q0.53125 -0.65625 1.296875 -1.03125q0.78125 -0.390625 1.765625 -0.390625q0.953125 0 1.6875 0.3125q0.75 0.296875 1.25 0.84375q0.5 0.546875 0.765625 1.34375q0.265625 0.78125 0.265625 1.75zm-1.65625 -0.21875q0.03125 -0.609375 -0.125 -1.109375q-0.140625 -0.515625 -0.453125 -0.875q-0.296875 -0.375 -0.75 -0.578125q-0.453125 -0.203125 -1.0625 -0.203125q-0.515625 0 -0.953125 0.203125q-0.421875 0.203125 -0.734375 0.5625q-0.296875 0.359375 -0.5 0.875q-0.1875 0.515625 -0.234375 1.125l4.8125 0zm11.913513 0.21875q0 0.34375 -0.015625 0.578125q0 0.21875 -0.03125 0.421875l-6.421875 0q0 1.40625 0.78125 2.15625q0.796875 0.75 2.265625 0.75q0.40625 0 0.796875 -0.03125q0.40625 -0.03125 0.78125 -0.078125q0.375 -0.0625 0.71875 -0.125q0.34375 -0.078125 0.625 -0.15625l0 1.296875q-0.640625 0.1875 -1.46875 0.296875q-0.8125 0.109375 -1.6875 0.109375q-1.171875 0 -2.015625 -0.3125q-0.84375 -0.3125 -1.390625 -0.921875q-0.546875 -0.609375 -0.8125 -1.484375q-0.25 -0.875 -0.25 -2.0q0 -0.953125 0.28125 -1.8125q0.28125 -0.859375 0.8125 -1.515625q0.53125 -0.65625 1.296875 -1.03125q0.78125 -0.390625 1.765625 -0.390625q0.953125 0 1.6875 0.3125q0.75 0.296875 1.25 0.84375q0.5 0.546875 0.765625 1.34375q0.265625 0.78125 0.265625 1.75zm-1.65625 -0.21875q0.03125 -0.609375 -0.125 -1.109375q-0.140625 -0.515625 -0.453125 -0.875q-0.296875 -0.375 -0.75 -0.578125q-0.453125 -0.203125 -1.0625 -0.203125q-0.515625 0 -0.953125 0.203125q-0.421875 0.203125 -0.734375 0.5625q-0.296875 0.359375 -0.5 0.875q-0.1875 0.515625 -0.234375 1.125l4.8125 0zm7.851074 -4.03125q0.28125 0 0.53125 0.125q0.265625 0.109375 0.453125 0.296875q0.1875 0.1875 0.296875 0.453125q0.125 0.25 0.125 0.53125q0 0.296875 -0.125 0.546875q-0.109375 0.25 -0.296875 0.4375q-0.1875 0.1875 -0.453125 0.296875q-0.25 0.109375 -0.53125 0.109375q-0.28125 0 -0.53125 -0.109375q-0.25 -0.109375 -0.453125 -0.296875q-0.1875 -0.1875 -0.296875 -0.4375q-0.109375 -0.25 -0.109375 -0.546875q0 -0.28125 0.109375 -0.53125q0.109375 -0.265625 0.296875 -0.453125q0.203125 -0.1875 0.453125 -0.296875q0.25 -0.125 0.53125 -0.125zm0 6.6875q0.28125 0 0.53125 0.109375q0.265625 0.109375 0.453125 0.3125q0.1875 0.1875 0.296875 0.4375q0.125 0.25 0.125 0.53125q0 0.296875 -0.125 0.546875q-0.109375 0.25 -0.296875 0.453125q-0.1875 0.1875 -0.453125 0.28125q-0.25 0.109375 -0.53125 0.109375q-0.28125 0 -0.53125 -0.109375q-0.25 -0.09375 -0.453125 -0.28125q-0.1875 -0.203125 -0.296875 -0.453125q-0.109375 -0.25 -0.109375 -0.546875q0 -0.28125 0.109375 -0.53125q0.109375 -0.25 0.296875 -0.4375q0.203125 -0.203125 0.453125 -0.3125q0.25 -0.109375 0.53125 -0.109375zm5.726013 -6.515625l1.8125 0l2.234375 6.046875l0.484375 1.46875l0.5 -1.515625l2.234375 -6.0l1.734375 0l-3.59375 9.140625l-1.8125 0l-3.59375 -9.140625zm14.241699 1.3125l-2.703125 0l0 -1.3125l4.296875 0l0 7.8125l2.734375 0l0 1.328125l-7.34375 0l0 -1.328125l3.015625 0l0 -6.5zm0.546875 -5.15625q0.265625 0 0.484375 0.09375q0.234375 0.09375 0.40625 0.28125q0.171875 0.171875 0.265625 0.390625q0.09375 0.21875 0.09375 0.484375q0 0.25 -0.09375 0.484375q-0.09375 0.234375 -0.265625 0.40625q-0.171875 0.171875 -0.40625 0.265625q-0.21875 0.09375 -0.484375 0.09375q-0.265625 0 -0.5 -0.09375q-0.21875 -0.09375 -0.390625 -0.265625q-0.15625 -0.171875 -0.265625 -0.40625q-0.09375 -0.234375 -0.09375 -0.484375q0 -0.265625 0.09375 -0.484375q0.109375 -0.21875 0.265625 -0.390625q0.171875 -0.1875 0.390625 -0.28125q0.234375 -0.09375 0.5 -0.09375zm14.319763 7.921875q0 0.34375 -0.015625 0.578125q0 0.21875 -0.03125 0.421875l-6.421875 0q0 1.40625 0.78125 2.15625q0.796875 0.75 2.265625 0.75q0.40625 0 0.796875 -0.03125q0.40625 -0.03125 0.78125 -0.078125q0.375 -0.0625 0.71875 -0.125q0.34375 -0.078125 0.625 -0.15625l0 1.296875q-0.640625 0.1875 -1.46875 0.296875q-0.8125 0.109375 -1.6875 0.109375q-1.171875 0 -2.015625 -0.3125q-0.84375 -0.3125 -1.390625 -0.921875q-0.546875 -0.609375 -0.8125 -1.484375q-0.25 -0.875 -0.25 -2.0q0 -0.953125 0.28125 -1.8125q0.28125 -0.859375 0.8125 -1.515625q0.53125 -0.65625 1.296875 -1.03125q0.78125 -0.390625 1.765625 -0.390625q0.953125 0 1.6875 0.3125q0.75 0.296875 1.25 0.84375q0.5 0.546875 0.765625 1.34375q0.265625 0.78125 0.265625 1.75zm-1.65625 -0.21875q0.03125 -0.609375 -0.125 -1.109375q-0.140625 -0.515625 -0.453125 -0.875q-0.296875 -0.375 -0.75 -0.578125q-0.453125 -0.203125 -1.0625 -0.203125q-0.515625 0 -0.953125 0.203125q-0.421875 0.203125 -0.734375 0.5625q-0.296875 0.359375 -0.5 0.875q-0.1875 0.515625 -0.234375 1.125l4.8125 0zm12.647949 -3.859375l-1.328125 9.140625l-1.921875 0l-1.3125 -3.828125l-0.265625 -0.921875l-0.296875 0.984375l-1.265625 3.765625l-1.875 0l-1.3125 -9.140625l1.546875 0l0.765625 6.203125l0.15625 1.390625l0.390625 -1.21875l1.328125 -4.109375l1.140625 0l1.4375 4.0625l0.40625 1.203125l0.140625 -1.28125l0.703125 -6.25l1.5625 0z" fill-rule="nonzero"/></g></svg>