<?xml version="1.0" encoding="utf-8" standalone="no"?>
<!DOCTYPE svg PUBLIC "-//W3C//DTD SVG 1.1//EN"
  "http://www.w3.org/Graphics/SVG/1.1/DTD/svg11.dtd">
<!-- Created with matplotlib (https://matplotlib.org/) -->
<svg height="360pt" version="1.1" viewBox="0 0 1080 360" width="1080pt" xmlns="http://www.w3.org/2000/svg" xmlns:xlink="http://www.w3.org/1999/xlink">
 <defs>
  <style type="text/css">
*{stroke-linecap:butt;stroke-linejoin:round;}
  </style>
 </defs>
 <g id="figure_1">
  <g id="patch_1">
   <path d="M 0 360 
L 1080 360 
L 1080 0 
L 0 0 
z
" style="fill:#ffffff;" opacity="0" />
  </g>
  <g id="axes_1">
   <g id="patch_2">
    <path d="M 65.304 298.116 
L 384.674084 298.116 
L 384.674084 54 
L 65.304 54 
z
" style="fill:#ffffff;" opacity="0" />
   </g>
   <g id="matplotlib.axis_1">
    <g id="xtick_1">
     <g id="text_1">
      <!-- 0 -->
      <defs>
       <path d="M 4.15625 35.296875 
Q 4.15625 48 6.765625 55.734375 
Q 9.375 63.484375 14.515625 67.671875 
Q 19.671875 71.875 27.484375 71.875 
Q 33.25 71.875 37.59375 69.546875 
Q 41.9375 67.234375 44.765625 62.859375 
Q 47.609375 58.5 49.21875 52.21875 
Q 50.828125 45.953125 50.828125 35.296875 
Q 50.828125 22.703125 48.234375 14.96875 
Q 45.65625 7.234375 40.5 3 
Q 35.359375 -1.21875 27.484375 -1.21875 
Q 17.140625 -1.21875 11.234375 6.203125 
Q 4.15625 15.140625 4.15625 35.296875 
z
M 13.1875 35.296875 
Q 13.1875 17.671875 17.3125 11.828125 
Q 21.4375 6 27.484375 6 
Q 33.546875 6 37.671875 11.859375 
Q 41.796875 17.71875 41.796875 35.296875 
Q 41.796875 52.984375 37.671875 58.78125 
Q 33.546875 64.59375 27.390625 64.59375 
Q 21.34375 64.59375 17.71875 59.46875 
Q 13.1875 52.9375 13.1875 35.296875 
z
" id="ArialMT-48"/>
      </defs>
      <g style="fill:#262626;" transform="translate(61.022078 318.639031)scale(0.154 -0.154)">
       <use xlink:href="#ArialMT-48"/>
      </g>
     </g>
    </g>
    <g id="xtick_2">
     <g id="text_2">
      <!-- 25 -->
      <defs>
       <path d="M 50.34375 8.453125 
L 50.34375 0 
L 3.03125 0 
Q 2.9375 3.171875 4.046875 6.109375 
Q 5.859375 10.9375 9.828125 15.625 
Q 13.8125 20.3125 21.34375 26.46875 
Q 33.015625 36.03125 37.109375 41.625 
Q 41.21875 47.21875 41.21875 52.203125 
Q 41.21875 57.421875 37.46875 61 
Q 33.734375 64.59375 27.734375 64.59375 
Q 21.390625 64.59375 17.578125 60.78125 
Q 13.765625 56.984375 13.71875 50.25 
L 4.6875 51.171875 
Q 5.609375 61.28125 11.65625 66.578125 
Q 17.71875 71.875 27.9375 71.875 
Q 38.234375 71.875 44.234375 66.15625 
Q 50.25 60.453125 50.25 52 
Q 50.25 47.703125 48.484375 43.546875 
Q 46.734375 39.40625 42.65625 34.8125 
Q 38.578125 30.21875 29.109375 22.21875 
Q 21.1875 15.578125 18.9375 13.203125 
Q 16.703125 10.84375 15.234375 8.453125 
z
" id="ArialMT-50"/>
       <path d="M 4.15625 18.75 
L 13.375 19.53125 
Q 14.40625 12.796875 18.140625 9.390625 
Q 21.875 6 27.15625 6 
Q 33.5 6 37.890625 10.78125 
Q 42.28125 15.578125 42.28125 23.484375 
Q 42.28125 31 38.0625 35.34375 
Q 33.84375 39.703125 27 39.703125 
Q 22.75 39.703125 19.328125 37.765625 
Q 15.921875 35.84375 13.96875 32.765625 
L 5.71875 33.84375 
L 12.640625 70.609375 
L 48.25 70.609375 
L 48.25 62.203125 
L 19.671875 62.203125 
L 15.828125 42.96875 
Q 22.265625 47.46875 29.34375 47.46875 
Q 38.71875 47.46875 45.15625 40.96875 
Q 51.609375 34.46875 51.609375 24.265625 
Q 51.609375 14.546875 45.953125 7.46875 
Q 39.0625 -1.21875 27.15625 -1.21875 
Q 17.390625 -1.21875 11.203125 4.25 
Q 5.03125 9.71875 4.15625 18.75 
z
" id="ArialMT-53"/>
      </defs>
      <g style="fill:#262626;" transform="translate(109.968504 318.639031)scale(0.154 -0.154)">
       <use xlink:href="#ArialMT-50"/>
       <use x="55.615234" xlink:href="#ArialMT-53"/>
      </g>
     </g>
    </g>
    <g id="xtick_3">
     <g id="text_3">
      <!-- 50 -->
      <g style="fill:#262626;" transform="translate(163.196851 318.639031)scale(0.154 -0.154)">
       <use xlink:href="#ArialMT-53"/>
       <use x="55.615234" xlink:href="#ArialMT-48"/>
      </g>
     </g>
    </g>
    <g id="xtick_4">
     <g id="text_4">
      <!-- 75 -->
      <defs>
       <path d="M 4.734375 62.203125 
L 4.734375 70.65625 
L 51.078125 70.65625 
L 51.078125 63.8125 
Q 44.234375 56.546875 37.515625 44.484375 
Q 30.8125 32.421875 27.15625 19.671875 
Q 24.515625 10.6875 23.78125 0 
L 14.75 0 
Q 14.890625 8.453125 18.0625 20.40625 
Q 21.234375 32.375 27.171875 43.484375 
Q 33.109375 54.59375 39.796875 62.203125 
z
" id="ArialMT-55"/>
      </defs>
      <g style="fill:#262626;" transform="translate(216.425198 318.639031)scale(0.154 -0.154)">
       <use xlink:href="#ArialMT-55"/>
       <use x="55.615234" xlink:href="#ArialMT-53"/>
      </g>
     </g>
    </g>
    <g id="xtick_5">
     <g id="text_5">
      <!-- 100 -->
      <defs>
       <path d="M 37.25 0 
L 28.46875 0 
L 28.46875 56 
Q 25.296875 52.984375 20.140625 49.953125 
Q 14.984375 46.921875 10.890625 45.40625 
L 10.890625 53.90625 
Q 18.265625 57.375 23.78125 62.296875 
Q 29.296875 67.234375 31.59375 71.875 
L 37.25 71.875 
z
" id="ArialMT-49"/>
      </defs>
      <g style="fill:#262626;" transform="translate(265.371624 318.639031)scale(0.154 -0.154)">
       <use xlink:href="#ArialMT-49"/>
       <use x="55.615234" xlink:href="#ArialMT-48"/>
       <use x="111.230469" xlink:href="#ArialMT-48"/>
      </g>
     </g>
    </g>
    <g id="xtick_6">
     <g id="text_6">
      <!-- 125 -->
      <g style="fill:#262626;" transform="translate(318.599971 318.639031)scale(0.154 -0.154)">
       <use xlink:href="#ArialMT-49"/>
       <use x="55.615234" xlink:href="#ArialMT-50"/>
       <use x="111.230469" xlink:href="#ArialMT-53"/>
      </g>
     </g>
    </g>
    <g id="xtick_7">
     <g id="text_7">
      <!-- 150 -->
      <g style="fill:#262626;" transform="translate(371.828319 318.639031)scale(0.154 -0.154)">
       <use xlink:href="#ArialMT-49"/>
       <use x="55.615234" xlink:href="#ArialMT-53"/>
       <use x="111.230469" xlink:href="#ArialMT-48"/>
      </g>
     </g>
    </g>
    <g id="text_8">
     <!-- execution time (ms) -->
     <defs>
      <path d="M 42.09375 16.703125 
L 51.171875 15.578125 
Q 49.03125 7.625 43.21875 3.21875 
Q 37.40625 -1.171875 28.375 -1.171875 
Q 17 -1.171875 10.328125 5.828125 
Q 3.65625 12.84375 3.65625 25.484375 
Q 3.65625 38.578125 10.390625 45.796875 
Q 17.140625 53.03125 27.875 53.03125 
Q 38.28125 53.03125 44.875 45.953125 
Q 51.46875 38.875 51.46875 26.03125 
Q 51.46875 25.25 51.421875 23.6875 
L 12.75 23.6875 
Q 13.234375 15.140625 17.578125 10.59375 
Q 21.921875 6.0625 28.421875 6.0625 
Q 33.25 6.0625 36.671875 8.59375 
Q 40.09375 11.140625 42.09375 16.703125 
z
M 13.234375 30.90625 
L 42.1875 30.90625 
Q 41.609375 37.453125 38.875 40.71875 
Q 34.671875 45.796875 27.984375 45.796875 
Q 21.921875 45.796875 17.796875 41.75 
Q 13.671875 37.703125 13.234375 30.90625 
z
" id="ArialMT-101"/>
      <path d="M 0.734375 0 
L 19.671875 26.953125 
L 2.15625 51.859375 
L 13.140625 51.859375 
L 21.09375 39.703125 
Q 23.34375 36.234375 24.703125 33.890625 
Q 26.859375 37.109375 28.65625 39.59375 
L 37.40625 51.859375 
L 47.90625 51.859375 
L 29.984375 27.4375 
L 49.265625 0 
L 38.484375 0 
L 27.828125 16.109375 
L 25 20.453125 
L 11.375 0 
z
" id="ArialMT-120"/>
      <path d="M 40.4375 19 
L 49.078125 17.875 
Q 47.65625 8.9375 41.8125 3.875 
Q 35.984375 -1.171875 27.484375 -1.171875 
Q 16.84375 -1.171875 10.375 5.78125 
Q 3.90625 12.75 3.90625 25.734375 
Q 3.90625 34.125 6.6875 40.421875 
Q 9.46875 46.734375 15.15625 49.875 
Q 20.84375 53.03125 27.546875 53.03125 
Q 35.984375 53.03125 41.359375 48.75 
Q 46.734375 44.484375 48.25 36.625 
L 39.703125 35.296875 
Q 38.484375 40.53125 35.375 43.15625 
Q 32.28125 45.796875 27.875 45.796875 
Q 21.234375 45.796875 17.078125 41.03125 
Q 12.9375 36.28125 12.9375 25.984375 
Q 12.9375 15.53125 16.9375 10.796875 
Q 20.953125 6.0625 27.390625 6.0625 
Q 32.5625 6.0625 36.03125 9.234375 
Q 39.5 12.40625 40.4375 19 
z
" id="ArialMT-99"/>
      <path d="M 40.578125 0 
L 40.578125 7.625 
Q 34.515625 -1.171875 24.125 -1.171875 
Q 19.53125 -1.171875 15.546875 0.578125 
Q 11.578125 2.34375 9.640625 5 
Q 7.71875 7.671875 6.9375 11.53125 
Q 6.390625 14.109375 6.390625 19.734375 
L 6.390625 51.859375 
L 15.1875 51.859375 
L 15.1875 23.09375 
Q 15.1875 16.21875 15.71875 13.8125 
Q 16.546875 10.359375 19.234375 8.375 
Q 21.921875 6.390625 25.875 6.390625 
Q 29.828125 6.390625 33.296875 8.421875 
Q 36.765625 10.453125 38.203125 13.9375 
Q 39.65625 17.4375 39.65625 24.078125 
L 39.65625 51.859375 
L 48.4375 51.859375 
L 48.4375 0 
z
" id="ArialMT-117"/>
      <path d="M 25.78125 7.859375 
L 27.046875 0.09375 
Q 23.34375 -0.6875 20.40625 -0.6875 
Q 15.625 -0.6875 12.984375 0.828125 
Q 10.359375 2.34375 9.28125 4.8125 
Q 8.203125 7.28125 8.203125 15.1875 
L 8.203125 45.015625 
L 1.765625 45.015625 
L 1.765625 51.859375 
L 8.203125 51.859375 
L 8.203125 64.703125 
L 16.9375 69.96875 
L 16.9375 51.859375 
L 25.78125 51.859375 
L 25.78125 45.015625 
L 16.9375 45.015625 
L 16.9375 14.703125 
Q 16.9375 10.9375 17.40625 9.859375 
Q 17.875 8.796875 18.921875 8.15625 
Q 19.96875 7.515625 21.921875 7.515625 
Q 23.390625 7.515625 25.78125 7.859375 
z
" id="ArialMT-116"/>
      <path d="M 6.640625 61.46875 
L 6.640625 71.578125 
L 15.4375 71.578125 
L 15.4375 61.46875 
z
M 6.640625 0 
L 6.640625 51.859375 
L 15.4375 51.859375 
L 15.4375 0 
z
" id="ArialMT-105"/>
      <path d="M 3.328125 25.921875 
Q 3.328125 40.328125 11.328125 47.265625 
Q 18.015625 53.03125 27.640625 53.03125 
Q 38.328125 53.03125 45.109375 46.015625 
Q 51.90625 39.015625 51.90625 26.65625 
Q 51.90625 16.65625 48.90625 10.90625 
Q 45.90625 5.171875 40.15625 2 
Q 34.421875 -1.171875 27.640625 -1.171875 
Q 16.75 -1.171875 10.03125 5.8125 
Q 3.328125 12.796875 3.328125 25.921875 
z
M 12.359375 25.921875 
Q 12.359375 15.96875 16.703125 11.015625 
Q 21.046875 6.0625 27.640625 6.0625 
Q 34.1875 6.0625 38.53125 11.03125 
Q 42.875 16.015625 42.875 26.21875 
Q 42.875 35.84375 38.5 40.796875 
Q 34.125 45.75 27.640625 45.75 
Q 21.046875 45.75 16.703125 40.8125 
Q 12.359375 35.890625 12.359375 25.921875 
z
" id="ArialMT-111"/>
      <path d="M 6.59375 0 
L 6.59375 51.859375 
L 14.5 51.859375 
L 14.5 44.484375 
Q 20.21875 53.03125 31 53.03125 
Q 35.6875 53.03125 39.625 51.34375 
Q 43.5625 49.65625 45.515625 46.921875 
Q 47.46875 44.1875 48.25 40.4375 
Q 48.734375 37.984375 48.734375 31.890625 
L 48.734375 0 
L 39.9375 0 
L 39.9375 31.546875 
Q 39.9375 36.921875 38.90625 39.578125 
Q 37.890625 42.234375 35.28125 43.8125 
Q 32.671875 45.40625 29.15625 45.40625 
Q 23.53125 45.40625 19.453125 41.84375 
Q 15.375 38.28125 15.375 28.328125 
L 15.375 0 
z
" id="ArialMT-110"/>
      <path id="ArialMT-32"/>
      <path d="M 6.59375 0 
L 6.59375 51.859375 
L 14.453125 51.859375 
L 14.453125 44.578125 
Q 16.890625 48.390625 20.9375 50.703125 
Q 25 53.03125 30.171875 53.03125 
Q 35.9375 53.03125 39.625 50.640625 
Q 43.3125 48.25 44.828125 43.953125 
Q 50.984375 53.03125 60.84375 53.03125 
Q 68.5625 53.03125 72.703125 48.75 
Q 76.859375 44.484375 76.859375 35.59375 
L 76.859375 0 
L 68.109375 0 
L 68.109375 32.671875 
Q 68.109375 37.9375 67.25 40.25 
Q 66.40625 42.578125 64.15625 43.984375 
Q 61.921875 45.40625 58.890625 45.40625 
Q 53.421875 45.40625 49.796875 41.765625 
Q 46.1875 38.140625 46.1875 30.125 
L 46.1875 0 
L 37.40625 0 
L 37.40625 33.6875 
Q 37.40625 39.546875 35.25 42.46875 
Q 33.109375 45.40625 28.21875 45.40625 
Q 24.515625 45.40625 21.359375 43.453125 
Q 18.21875 41.5 16.796875 37.734375 
Q 15.375 33.984375 15.375 26.90625 
L 15.375 0 
z
" id="ArialMT-109"/>
      <path d="M 23.390625 -21.046875 
Q 16.109375 -11.859375 11.078125 0.4375 
Q 6.0625 12.75 6.0625 25.921875 
Q 6.0625 37.546875 9.8125 48.1875 
Q 14.203125 60.546875 23.390625 72.796875 
L 29.6875 72.796875 
Q 23.78125 62.640625 21.875 58.296875 
Q 18.890625 51.5625 17.1875 44.234375 
Q 15.09375 35.109375 15.09375 25.875 
Q 15.09375 2.390625 29.6875 -21.046875 
z
" id="ArialMT-40"/>
      <path d="M 3.078125 15.484375 
L 11.765625 16.84375 
Q 12.5 11.625 15.84375 8.84375 
Q 19.1875 6.0625 25.203125 6.0625 
Q 31.25 6.0625 34.171875 8.515625 
Q 37.109375 10.984375 37.109375 14.3125 
Q 37.109375 17.28125 34.515625 19 
Q 32.71875 20.171875 25.53125 21.96875 
Q 15.875 24.421875 12.140625 26.203125 
Q 8.40625 27.984375 6.46875 31.125 
Q 4.546875 34.28125 4.546875 38.09375 
Q 4.546875 41.546875 6.125 44.5 
Q 7.71875 47.46875 10.453125 49.421875 
Q 12.5 50.921875 16.03125 51.96875 
Q 19.578125 53.03125 23.640625 53.03125 
Q 29.734375 53.03125 34.34375 51.265625 
Q 38.96875 49.515625 41.15625 46.5 
Q 43.359375 43.5 44.1875 38.484375 
L 35.59375 37.3125 
Q 35.015625 41.3125 32.203125 43.546875 
Q 29.390625 45.796875 24.265625 45.796875 
Q 18.21875 45.796875 15.625 43.796875 
Q 13.03125 41.796875 13.03125 39.109375 
Q 13.03125 37.40625 14.109375 36.03125 
Q 15.1875 34.625 17.484375 33.6875 
Q 18.796875 33.203125 25.25 31.453125 
Q 34.578125 28.953125 38.25 27.359375 
Q 41.9375 25.78125 44.03125 22.75 
Q 46.140625 19.734375 46.140625 15.234375 
Q 46.140625 10.84375 43.578125 6.953125 
Q 41.015625 3.078125 36.171875 0.953125 
Q 31.34375 -1.171875 25.25 -1.171875 
Q 15.140625 -1.171875 9.84375 3.03125 
Q 4.546875 7.234375 3.078125 15.484375 
z
" id="ArialMT-115"/>
      <path d="M 12.359375 -21.046875 
L 6.0625 -21.046875 
Q 20.65625 2.390625 20.65625 25.875 
Q 20.65625 35.0625 18.5625 44.09375 
Q 16.890625 51.421875 13.921875 58.15625 
Q 12.015625 62.546875 6.0625 72.796875 
L 12.359375 72.796875 
Q 21.53125 60.546875 25.921875 48.1875 
Q 29.6875 37.546875 29.6875 25.921875 
Q 29.6875 12.75 24.625 0.4375 
Q 19.578125 -11.859375 12.359375 -21.046875 
z
" id="ArialMT-41"/>
     </defs>
     <g style="fill:#262626;" transform="translate(151.706917 337.929656)scale(0.168 -0.168)">
      <use xlink:href="#ArialMT-101"/>
      <use x="55.615234" xlink:href="#ArialMT-120"/>
      <use x="105.615234" xlink:href="#ArialMT-101"/>
      <use x="161.230469" xlink:href="#ArialMT-99"/>
      <use x="211.230469" xlink:href="#ArialMT-117"/>
      <use x="266.845703" xlink:href="#ArialMT-116"/>
      <use x="294.628906" xlink:href="#ArialMT-105"/>
      <use x="316.845703" xlink:href="#ArialMT-111"/>
      <use x="372.460938" xlink:href="#ArialMT-110"/>
      <use x="428.076172" xlink:href="#ArialMT-32"/>
      <use x="455.859375" xlink:href="#ArialMT-116"/>
      <use x="483.642578" xlink:href="#ArialMT-105"/>
      <use x="505.859375" xlink:href="#ArialMT-109"/>
      <use x="589.160156" xlink:href="#ArialMT-101"/>
      <use x="644.775391" xlink:href="#ArialMT-32"/>
      <use x="672.558594" xlink:href="#ArialMT-40"/>
      <use x="705.859375" xlink:href="#ArialMT-109"/>
      <use x="789.160156" xlink:href="#ArialMT-115"/>
      <use x="839.160156" xlink:href="#ArialMT-41"/>
     </g>
    </g>
   </g>
   <g id="matplotlib.axis_2">
    <g id="ytick_1">
     <g id="line2d_1">
      <path clip-path="url(#pcae84b5b02)" d="M 65.304 298.116 
L 384.674084 298.116 
" style="fill:none;stroke:#cccccc;stroke-linecap:round;"/>
     </g>
     <g id="text_9">
      <!-- 0 -->
      <g style="fill:#262626;" transform="translate(47.240156 303.627516)scale(0.154 -0.154)">
       <use xlink:href="#ArialMT-48"/>
      </g>
     </g>
    </g>
    <g id="ytick_2">
     <g id="line2d_2">
      <path clip-path="url(#pcae84b5b02)" d="M 65.304 249.2928 
L 384.674084 249.2928 
" style="fill:none;stroke:#cccccc;stroke-linecap:round;"/>
     </g>
     <g id="text_10">
      <!-- 5 -->
      <g style="fill:#262626;" transform="translate(47.240156 254.804316)scale(0.154 -0.154)">
       <use xlink:href="#ArialMT-53"/>
      </g>
     </g>
    </g>
    <g id="ytick_3">
     <g id="line2d_3">
      <path clip-path="url(#pcae84b5b02)" d="M 65.304 200.4696 
L 384.674084 200.4696 
" style="fill:none;stroke:#cccccc;stroke-linecap:round;"/>
     </g>
     <g id="text_11">
      <!-- 10 -->
      <g style="fill:#262626;" transform="translate(38.676312 205.981116)scale(0.154 -0.154)">
       <use xlink:href="#ArialMT-49"/>
       <use x="55.615234" xlink:href="#ArialMT-48"/>
      </g>
     </g>
    </g>
    <g id="ytick_4">
     <g id="line2d_4">
      <path clip-path="url(#pcae84b5b02)" d="M 65.304 151.6464 
L 384.674084 151.6464 
" style="fill:none;stroke:#cccccc;stroke-linecap:round;"/>
     </g>
     <g id="text_12">
      <!-- 15 -->
      <g style="fill:#262626;" transform="translate(38.676312 157.157916)scale(0.154 -0.154)">
       <use xlink:href="#ArialMT-49"/>
       <use x="55.615234" xlink:href="#ArialMT-53"/>
      </g>
     </g>
    </g>
    <g id="ytick_5">
     <g id="line2d_5">
      <path clip-path="url(#pcae84b5b02)" d="M 65.304 102.8232 
L 384.674084 102.8232 
" style="fill:none;stroke:#cccccc;stroke-linecap:round;"/>
     </g>
     <g id="text_13">
      <!-- 20 -->
      <g style="fill:#262626;" transform="translate(38.676312 108.334716)scale(0.154 -0.154)">
       <use xlink:href="#ArialMT-50"/>
       <use x="55.615234" xlink:href="#ArialMT-48"/>
      </g>
     </g>
    </g>
    <g id="ytick_6">
     <g id="line2d_6">
      <path clip-path="url(#pcae84b5b02)" d="M 65.304 54 
L 384.674084 54 
" style="fill:none;stroke:#cccccc;stroke-linecap:round;"/>
     </g>
     <g id="text_14">
      <!-- 25 -->
      <g style="fill:#262626;" transform="translate(38.676312 59.511516)scale(0.154 -0.154)">
       <use xlink:href="#ArialMT-50"/>
       <use x="55.615234" xlink:href="#ArialMT-53"/>
      </g>
     </g>
    </g>
    <g id="text_15">
     <!-- results retrieved -->
     <defs>
      <path d="M 6.5 0 
L 6.5 51.859375 
L 14.40625 51.859375 
L 14.40625 44 
Q 17.4375 49.515625 20 51.265625 
Q 22.5625 53.03125 25.640625 53.03125 
Q 30.078125 53.03125 34.671875 50.203125 
L 31.640625 42.046875 
Q 28.421875 43.953125 25.203125 43.953125 
Q 22.3125 43.953125 20.015625 42.21875 
Q 17.71875 40.484375 16.75 37.40625 
Q 15.28125 32.71875 15.28125 27.15625 
L 15.28125 0 
z
" id="ArialMT-114"/>
      <path d="M 6.390625 0 
L 6.390625 71.578125 
L 15.1875 71.578125 
L 15.1875 0 
z
" id="ArialMT-108"/>
      <path d="M 21 0 
L 1.265625 51.859375 
L 10.546875 51.859375 
L 21.6875 20.796875 
Q 23.484375 15.765625 25 10.359375 
Q 26.171875 14.453125 28.265625 20.21875 
L 39.796875 51.859375 
L 48.828125 51.859375 
L 29.203125 0 
z
" id="ArialMT-118"/>
      <path d="M 40.234375 0 
L 40.234375 6.546875 
Q 35.296875 -1.171875 25.734375 -1.171875 
Q 19.53125 -1.171875 14.328125 2.25 
Q 9.125 5.671875 6.265625 11.796875 
Q 3.421875 17.921875 3.421875 25.875 
Q 3.421875 33.640625 6 39.96875 
Q 8.59375 46.296875 13.765625 49.65625 
Q 18.953125 53.03125 25.34375 53.03125 
Q 30.03125 53.03125 33.6875 51.046875 
Q 37.359375 49.078125 39.65625 45.90625 
L 39.65625 71.578125 
L 48.390625 71.578125 
L 48.390625 0 
z
M 12.453125 25.875 
Q 12.453125 15.921875 16.640625 10.984375 
Q 20.84375 6.0625 26.5625 6.0625 
Q 32.328125 6.0625 36.34375 10.765625 
Q 40.375 15.484375 40.375 25.140625 
Q 40.375 35.796875 36.265625 40.765625 
Q 32.171875 45.75 26.171875 45.75 
Q 20.3125 45.75 16.375 40.96875 
Q 12.453125 36.1875 12.453125 25.875 
z
" id="ArialMT-100"/>
     </defs>
     <g style="fill:#262626;" transform="translate(31.337312 235.809562)rotate(-90)scale(0.168 -0.168)">
      <use xlink:href="#ArialMT-114"/>
      <use x="33.300781" xlink:href="#ArialMT-101"/>
      <use x="88.916016" xlink:href="#ArialMT-115"/>
      <use x="138.916016" xlink:href="#ArialMT-117"/>
      <use x="194.53125" xlink:href="#ArialMT-108"/>
      <use x="216.748047" xlink:href="#ArialMT-116"/>
      <use x="244.53125" xlink:href="#ArialMT-115"/>
      <use x="294.53125" xlink:href="#ArialMT-32"/>
      <use x="322.314453" xlink:href="#ArialMT-114"/>
      <use x="355.615234" xlink:href="#ArialMT-101"/>
      <use x="411.230469" xlink:href="#ArialMT-116"/>
      <use x="439.013672" xlink:href="#ArialMT-114"/>
      <use x="472.314453" xlink:href="#ArialMT-105"/>
      <use x="494.53125" xlink:href="#ArialMT-101"/>
      <use x="550.146484" xlink:href="#ArialMT-118"/>
      <use x="600.146484" xlink:href="#ArialMT-101"/>
      <use x="655.761719" xlink:href="#ArialMT-100"/>
     </g>
    </g>
   </g>
   <g id="line2d_7">
    <path clip-path="url(#pcae84b5b02)" d="M 65.304 298.116 
L 67.433134 295.723663 
L 69.562268 295.460018 
L 71.691402 292.911447 
L 73.820536 291.925218 
L 75.949669 289.347353 
L 78.078803 288.370889 
L 80.207937 287.140545 
L 82.337071 286.505843 
L 84.466205 285.587967 
L 86.595339 284.1428 
L 90.853607 283.254218 
L 95.111875 281.555171 
L 97.241008 281.223173 
L 99.370142 280.178356 
L 103.62841 279.280009 
L 112.144946 277.922724 
L 114.27408 277.190376 
L 118.532347 276.907202 
L 120.661481 276.458028 
L 124.919749 275.969796 
L 133.436285 274.846863 
L 135.565419 274.680864 
L 137.694552 274.280514 
L 139.823686 273.665341 
L 146.211088 272.073705 
L 148.340222 271.53665 
L 152.59849 269.564193 
L 154.727624 268.958785 
L 156.856757 268.070203 
L 161.115025 266.898446 
L 163.244159 266.048922 
L 171.760695 263.637056 
L 173.889829 263.412469 
L 176.018963 263.051178 
L 178.148096 262.543416 
L 180.27723 262.377418 
L 182.406364 262.025891 
L 186.664632 261.108014 
L 188.793766 260.883428 
L 190.9229 260.844369 
L 201.568569 259.85814 
L 207.955971 259.340615 
L 210.085105 258.920735 
L 212.214239 258.735207 
L 216.472507 258.120035 
L 222.859908 257.329099 
L 224.989042 256.684632 
L 227.118176 256.235459 
L 229.24731 255.239466 
L 231.376444 254.829351 
L 233.505578 254.243472 
L 235.634712 253.247479 
L 237.763845 252.769012 
L 239.892979 252.075722 
L 246.280381 250.308323 
L 248.409515 249.341623 
L 250.538649 248.638569 
L 252.667783 248.111279 
L 254.796917 246.97858 
L 261.184318 245.845882 
L 263.313452 245.289298 
L 265.442586 244.517891 
L 267.57172 244.019894 
L 273.959122 243.014136 
L 276.088256 242.408729 
L 278.217389 242.311082 
L 280.346523 242.057202 
L 282.475657 241.998614 
L 284.604791 241.734969 
L 286.733925 241.227207 
L 288.863059 240.865916 
L 290.992193 240.387448 
L 295.250461 239.703924 
L 297.379595 239.069222 
L 299.508728 238.766518 
L 301.637862 238.043935 
L 303.766996 237.526409 
L 305.89613 237.194411 
L 310.154398 235.759009 
L 314.412666 234.821604 
L 316.5418 234.684899 
L 318.670933 234.343136 
L 320.800067 233.308084 
L 322.929201 232.868676 
L 325.058335 231.960564 
L 327.187469 231.433273 
L 329.316603 230.212693 
L 331.445737 229.441287 
L 333.574871 228.171884 
L 337.833139 227.04895 
L 339.962272 225.896723 
L 342.091406 225.15461 
L 344.22054 224.598025 
L 346.349674 223.855913 
L 348.478808 223.38721 
L 352.737076 221.570987 
L 354.86621 220.311348 
L 356.995344 219.666882 
L 359.124477 219.188415 
L 361.253611 218.50489 
L 367.641013 217.147605 
L 369.770147 216.356669 
L 371.899281 215.751262 
L 374.028415 215.302088 
L 378.286683 214.657622 
L 380.415816 213.944803 
L 382.54495 213.34916 
L 382.54495 213.34916 
" style="fill:none;stroke:#e41a1c;stroke-linecap:round;stroke-width:2.5;"/>
   </g>
   <g id="line2d_8">
    <path clip-path="url(#pcae84b5b02)" d="M 65.304 298.116 
L 82.337071 298.116 
L 84.466205 297.940236 
L 86.595339 289.562175 
L 90.853607 288.107244 
L 92.982741 287.990068 
L 95.111875 287.413955 
L 97.241008 287.179603 
L 99.370142 287.072192 
L 101.499276 286.466784 
L 103.62841 285.675849 
L 105.757544 280.764235 
L 107.886678 279.543655 
L 110.015812 278.58672 
L 112.144946 278.147311 
L 116.403213 277.629785 
L 118.532347 277.053672 
L 120.661481 276.721674 
L 124.919749 276.643557 
L 127.048883 276.282265 
L 131.307151 276.116266 
L 137.694552 276.067443 
L 139.823686 275.667093 
L 144.081954 275.510858 
L 148.340222 274.290278 
L 150.469356 274.007104 
L 152.59849 273.548166 
L 154.727624 273.323579 
L 156.856757 272.561937 
L 158.985891 272.093234 
L 161.115025 271.009359 
L 163.244159 270.413716 
L 165.373293 268.909962 
L 167.502427 268.206908 
L 171.760695 266.029393 
L 173.889829 265.619278 
L 176.018963 264.437757 
L 178.148096 263.920231 
L 180.27723 263.53941 
L 182.406364 262.660592 
L 184.535498 262.055184 
L 186.664632 260.541665 
L 188.793766 260.170609 
L 190.9229 259.135557 
L 197.310301 258.090741 
L 199.439435 257.670861 
L 201.568569 257.124041 
L 205.826837 256.626045 
L 207.955971 256.147577 
L 216.472507 255.659345 
L 220.730774 255.12229 
L 222.859908 255.083232 
L 227.118176 254.311825 
L 229.24731 253.979827 
L 233.505578 253.530654 
L 235.634712 253.179127 
L 237.763845 253.013128 
L 239.892979 252.515131 
L 244.151247 251.841371 
L 246.280381 251.450785 
L 252.667783 249.663856 
L 254.796917 249.458799 
L 256.926051 248.814333 
L 263.313452 247.457048 
L 265.442586 247.173873 
L 267.57172 247.007874 
L 271.829988 245.513884 
L 273.959122 245.162357 
L 276.088256 244.654596 
L 278.217389 244.332363 
L 280.346523 243.619544 
L 284.604791 242.984843 
L 295.250461 242.272024 
L 299.508728 242.018143 
L 308.025264 241.16862 
L 310.154398 240.719446 
L 312.283532 239.938275 
L 316.5418 238.834871 
L 322.929201 238.053699 
L 325.058335 237.340881 
L 327.187469 236.969824 
L 329.316603 236.198418 
L 331.445737 235.153601 
L 333.574871 234.723957 
L 335.704005 234.49937 
L 337.833139 234.030668 
L 339.962272 233.308084 
L 342.091406 232.399973 
L 344.22054 231.755507 
L 346.349674 230.730219 
L 348.478808 229.900225 
L 350.607942 228.923761 
L 352.737076 228.513646 
L 356.995344 227.273537 
L 359.124477 226.814599 
L 361.253611 226.550953 
L 363.382745 225.896723 
L 365.511879 225.037434 
L 374.028415 224.012147 
L 378.286683 223.299328 
L 380.415816 222.430275 
L 382.54495 221.922514 
L 382.54495 221.922514 
" style="fill:none;stroke:#377eb8;stroke-linecap:round;stroke-width:2.5;"/>
   </g>
   <g id="line2d_9">
    <path clip-path="url(#pcae84b5b02)" d="M 65.304 298.116 
L 67.433134 295.596723 
L 82.337071 295.596723 
L 84.466205 293.565678 
L 86.595339 292.970035 
L 88.724473 292.735683 
L 92.982741 292.68686 
L 95.111875 291.485809 
L 97.241008 283.498334 
L 99.370142 283.449511 
L 101.499276 283.215159 
L 103.62841 283.156572 
L 105.757544 282.150814 
L 107.886678 282.131284 
L 110.015812 281.311055 
L 112.144946 280.725176 
L 116.403213 280.666588 
L 118.532347 280.305297 
L 120.661481 280.20765 
L 122.790615 279.944005 
L 124.919749 279.455773 
L 127.048883 278.782013 
L 129.178017 277.981312 
L 131.307151 276.829085 
L 133.436285 276.311559 
L 135.565419 275.237448 
L 137.694552 273.372402 
L 141.95282 271.429239 
L 146.211088 270.413716 
L 148.340222 270.159836 
L 152.59849 268.753728 
L 154.727624 267.630794 
L 156.856757 267.152327 
L 161.115025 266.917975 
L 167.502427 265.482573 
L 169.631561 265.365397 
L 171.760695 264.974812 
L 173.889829 264.867401 
L 176.018963 264.164347 
L 178.148096 263.920231 
L 180.27723 263.256235 
L 182.406364 263.080472 
L 184.535498 262.611769 
L 186.664632 261.713422 
L 188.793766 261.488835 
L 190.9229 260.834604 
L 193.052034 260.463548 
L 197.310301 260.102256 
L 199.439435 259.721436 
L 201.568569 259.662848 
L 203.697703 258.588737 
L 212.214239 257.153335 
L 214.343373 256.381929 
L 216.472507 256.059696 
L 220.730774 255.141819 
L 222.859908 255.132055 
L 227.118176 254.165355 
L 229.24731 253.022892 
L 233.505578 251.782783 
L 239.892979 249.683386 
L 244.151247 248.74598 
L 248.409515 246.744229 
L 254.796917 244.840124 
L 256.926051 243.639073 
L 261.184318 242.36967 
L 263.313452 241.529911 
L 265.442586 239.957804 
L 269.700854 238.698166 
L 278.217389 236.403475 
L 280.346523 236.178888 
L 282.475657 235.524658 
L 284.604791 235.261012 
L 286.733925 234.655605 
L 288.863059 234.597017 
L 297.379595 233.776787 
L 299.508728 233.366672 
L 305.89613 232.47809 
L 310.154398 231.521155 
L 314.412666 231.277039 
L 318.670933 230.017401 
L 322.929201 229.421758 
L 325.058335 228.835879 
L 327.187469 228.386706 
L 329.316603 228.074237 
L 331.445737 227.566476 
L 333.574871 226.814599 
L 337.833139 225.652607 
L 339.962272 225.457314 
L 342.091406 224.519908 
L 344.22054 222.98686 
L 346.349674 222.400981 
L 350.607942 220.955815 
L 354.86621 220.086762 
L 356.995344 219.608294 
L 359.124477 219.276297 
L 363.382745 218.036187 
L 367.641013 216.571491 
L 369.770147 215.223971 
L 374.028415 213.964332 
L 380.415816 212.157874 
L 382.54495 211.415761 
L 382.54495 211.415761 
" style="fill:none;stroke:#4daf4a;stroke-linecap:round;stroke-width:2.5;"/>
   </g>
   <g id="line2d_10">
    <path clip-path="url(#pcae84b5b02)" d="M 65.304 298.116 
L 127.048883 298.116 
L 129.178017 296.534128 
L 131.307151 292.784507 
L 133.436285 290.304288 
L 137.694552 288.4783 
L 139.823686 288.283008 
L 141.95282 287.560424 
L 144.081954 287.413955 
L 146.211088 286.691371 
L 152.59849 283.547157 
L 154.727624 282.931985 
L 158.985891 281.184114 
L 161.115025 280.178356 
L 163.244159 278.420721 
L 165.373293 277.170847 
L 167.502427 276.301794 
L 169.631561 275.59874 
L 173.889829 275.452271 
L 176.018963 274.92498 
L 178.148096 273.860634 
L 180.27723 273.762988 
L 182.406364 273.30405 
L 184.535498 272.190881 
L 188.793766 270.882419 
L 190.9229 269.515369 
L 193.052034 268.343613 
L 197.310301 267.347619 
L 199.439435 267.103503 
L 203.697703 266.332097 
L 205.826837 266.127039 
L 207.955971 265.736454 
L 210.085105 265.228692 
L 212.214239 265.199399 
L 214.343373 264.711167 
L 216.472507 264.642814 
L 220.730774 263.744467 
L 222.859908 263.060942 
L 229.24731 262.59224 
L 231.376444 261.967303 
L 233.505578 261.62554 
L 235.634712 260.981074 
L 239.892979 260.883428 
L 242.022113 260.736958 
L 244.151247 260.014375 
L 246.280381 259.87767 
L 252.667783 258.803559 
L 254.796917 257.729449 
L 259.055184 255.952284 
L 261.184318 255.044173 
L 263.313452 254.263002 
L 265.442586 252.759247 
L 267.57172 251.685137 
L 269.700854 251.216434 
L 271.829988 250.923495 
L 273.959122 250.161853 
L 276.088256 249.068213 
L 278.217389 248.267513 
L 280.346523 247.974574 
L 282.475657 247.242226 
L 284.604791 246.373173 
L 286.733925 246.002116 
L 290.992193 244.713184 
L 293.121327 244.322598 
L 297.379595 242.203671 
L 299.508728 241.813086 
L 301.637862 241.100267 
L 303.766996 240.709681 
L 308.025264 239.576983 
L 310.154398 238.8544 
L 312.283532 237.838877 
L 316.5418 236.423004 
L 320.800067 234.704428 
L 322.929201 233.640082 
L 325.058335 233.161615 
L 327.187469 233.073733 
L 329.316603 232.126563 
L 335.704005 230.144341 
L 339.962272 229.304582 
L 342.091406 229.138583 
L 344.22054 228.54294 
L 346.349674 228.171884 
L 348.478808 227.4493 
L 350.607942 226.990362 
L 359.124477 225.672136 
L 361.253611 225.242492 
L 365.511879 223.680149 
L 367.641013 223.279799 
L 369.770147 222.449805 
L 371.899281 222.049454 
L 374.028415 221.951808 
L 376.157549 221.424517 
L 378.286683 221.07299 
L 382.54495 220.12582 
L 382.54495 220.12582 
" style="fill:none;stroke:#984ea3;stroke-linecap:round;stroke-width:2.5;"/>
   </g>
   <g id="patch_3">
    <path d="M 65.304 298.116 
L 65.304 54 
" style="fill:none;stroke:#cccccc;stroke-linecap:square;stroke-linejoin:miter;stroke-width:1.25;"/>
   </g>
   <g id="patch_4">
    <path d="M 65.304 298.116 
L 384.674084 298.116 
" style="fill:none;stroke:#cccccc;stroke-linecap:square;stroke-linejoin:miter;stroke-width:1.25;"/>
   </g>
   <g id="text_16">
    <!-- query 1 -->
    <defs>
     <path d="M 39.65625 -19.875 
L 39.65625 5.515625 
Q 37.59375 2.640625 33.90625 0.734375 
Q 30.21875 -1.171875 26.078125 -1.171875 
Q 16.84375 -1.171875 10.171875 6.203125 
Q 3.515625 13.578125 3.515625 26.421875 
Q 3.515625 34.234375 6.21875 40.421875 
Q 8.9375 46.625 14.078125 49.828125 
Q 19.234375 53.03125 25.390625 53.03125 
Q 35.015625 53.03125 40.53125 44.921875 
L 40.53125 51.859375 
L 48.4375 51.859375 
L 48.4375 -19.875 
z
M 12.546875 26.078125 
Q 12.546875 16.0625 16.75 11.0625 
Q 20.953125 6.0625 26.8125 6.0625 
Q 32.421875 6.0625 36.46875 10.8125 
Q 40.53125 15.578125 40.53125 25.296875 
Q 40.53125 35.640625 36.25 40.859375 
Q 31.984375 46.09375 26.21875 46.09375 
Q 20.515625 46.09375 16.53125 41.234375 
Q 12.546875 36.375 12.546875 26.078125 
z
" id="ArialMT-113"/>
     <path d="M 6.203125 -19.96875 
L 5.21875 -11.71875 
Q 8.109375 -12.5 10.25 -12.5 
Q 13.1875 -12.5 14.9375 -11.515625 
Q 16.703125 -10.546875 17.828125 -8.796875 
Q 18.65625 -7.46875 20.515625 -2.25 
Q 20.75 -1.515625 21.296875 -0.09375 
L 1.609375 51.859375 
L 11.078125 51.859375 
L 21.875 21.828125 
Q 23.96875 16.109375 25.640625 9.8125 
Q 27.15625 15.875 29.25 21.625 
L 40.328125 51.859375 
L 49.125 51.859375 
L 29.390625 -0.875 
Q 26.21875 -9.421875 24.46875 -12.640625 
Q 22.125 -17 19.09375 -19.015625 
Q 16.0625 -21.046875 11.859375 -21.046875 
Q 9.328125 -21.046875 6.203125 -19.96875 
z
" id="ArialMT-121"/>
    </defs>
    <g style="fill:#262626;" transform="translate(196.97373 48)scale(0.168 -0.168)">
     <use xlink:href="#ArialMT-113"/>
     <use x="55.615234" xlink:href="#ArialMT-117"/>
     <use x="111.230469" xlink:href="#ArialMT-101"/>
     <use x="166.845703" xlink:href="#ArialMT-114"/>
     <use x="200.146484" xlink:href="#ArialMT-121"/>
     <use x="250.146484" xlink:href="#ArialMT-32"/>
     <use x="277.929688" xlink:href="#ArialMT-49"/>
    </g>
   </g>
  </g>
  <g id="axes_2">
   <g id="patch_5">
    <path d="M 403.536 298.116 
L 722.906084 298.116 
L 722.906084 54 
L 403.536 54 
z
" style="fill:#ffffff;" opacity="0" />
   </g>
   <g id="matplotlib.axis_3">
    <g id="xtick_8">
     <g id="text_17">
      <!-- 0 -->
      <g style="fill:#262626;" transform="translate(399.254078 318.639031)scale(0.154 -0.154)">
       <use xlink:href="#ArialMT-48"/>
      </g>
     </g>
    </g>
    <g id="xtick_9">
     <g id="text_18">
      <!-- 25 -->
      <g style="fill:#262626;" transform="translate(448.200504 318.639031)scale(0.154 -0.154)">
       <use xlink:href="#ArialMT-50"/>
       <use x="55.615234" xlink:href="#ArialMT-53"/>
      </g>
     </g>
    </g>
    <g id="xtick_10">
     <g id="text_19">
      <!-- 50 -->
      <g style="fill:#262626;" transform="translate(501.428851 318.639031)scale(0.154 -0.154)">
       <use xlink:href="#ArialMT-53"/>
       <use x="55.615234" xlink:href="#ArialMT-48"/>
      </g>
     </g>
    </g>
    <g id="xtick_11">
     <g id="text_20">
      <!-- 75 -->
      <g style="fill:#262626;" transform="translate(554.657198 318.639031)scale(0.154 -0.154)">
       <use xlink:href="#ArialMT-55"/>
       <use x="55.615234" xlink:href="#ArialMT-53"/>
      </g>
     </g>
    </g>
    <g id="xtick_12">
     <g id="text_21">
      <!-- 100 -->
      <g style="fill:#262626;" transform="translate(603.603624 318.639031)scale(0.154 -0.154)">
       <use xlink:href="#ArialMT-49"/>
       <use x="55.615234" xlink:href="#ArialMT-48"/>
       <use x="111.230469" xlink:href="#ArialMT-48"/>
      </g>
     </g>
    </g>
    <g id="xtick_13">
     <g id="text_22">
      <!-- 125 -->
      <g style="fill:#262626;" transform="translate(656.831971 318.639031)scale(0.154 -0.154)">
       <use xlink:href="#ArialMT-49"/>
       <use x="55.615234" xlink:href="#ArialMT-50"/>
       <use x="111.230469" xlink:href="#ArialMT-53"/>
      </g>
     </g>
    </g>
    <g id="xtick_14">
     <g id="text_23">
      <!-- 150 -->
      <g style="fill:#262626;" transform="translate(710.060319 318.639031)scale(0.154 -0.154)">
       <use xlink:href="#ArialMT-49"/>
       <use x="55.615234" xlink:href="#ArialMT-53"/>
       <use x="111.230469" xlink:href="#ArialMT-48"/>
      </g>
     </g>
    </g>
    <g id="text_24">
     <!-- execution time (ms) -->
     <g style="fill:#262626;" transform="translate(489.938917 337.929656)scale(0.168 -0.168)">
      <use xlink:href="#ArialMT-101"/>
      <use x="55.615234" xlink:href="#ArialMT-120"/>
      <use x="105.615234" xlink:href="#ArialMT-101"/>
      <use x="161.230469" xlink:href="#ArialMT-99"/>
      <use x="211.230469" xlink:href="#ArialMT-117"/>
      <use x="266.845703" xlink:href="#ArialMT-116"/>
      <use x="294.628906" xlink:href="#ArialMT-105"/>
      <use x="316.845703" xlink:href="#ArialMT-111"/>
      <use x="372.460938" xlink:href="#ArialMT-110"/>
      <use x="428.076172" xlink:href="#ArialMT-32"/>
      <use x="455.859375" xlink:href="#ArialMT-116"/>
      <use x="483.642578" xlink:href="#ArialMT-105"/>
      <use x="505.859375" xlink:href="#ArialMT-109"/>
      <use x="589.160156" xlink:href="#ArialMT-101"/>
      <use x="644.775391" xlink:href="#ArialMT-32"/>
      <use x="672.558594" xlink:href="#ArialMT-40"/>
      <use x="705.859375" xlink:href="#ArialMT-109"/>
      <use x="789.160156" xlink:href="#ArialMT-115"/>
      <use x="839.160156" xlink:href="#ArialMT-41"/>
     </g>
    </g>
   </g>
   <g id="matplotlib.axis_4">
    <g id="ytick_7">
     <g id="line2d_11">
      <path clip-path="url(#p0ceb61c195)" d="M 403.536 298.116 
L 722.906084 298.116 
" style="fill:none;stroke:#cccccc;stroke-linecap:round;"/>
     </g>
    </g>
    <g id="ytick_8">
     <g id="line2d_12">
      <path clip-path="url(#p0ceb61c195)" d="M 403.536 249.2928 
L 722.906084 249.2928 
" style="fill:none;stroke:#cccccc;stroke-linecap:round;"/>
     </g>
    </g>
    <g id="ytick_9">
     <g id="line2d_13">
      <path clip-path="url(#p0ceb61c195)" d="M 403.536 200.4696 
L 722.906084 200.4696 
" style="fill:none;stroke:#cccccc;stroke-linecap:round;"/>
     </g>
    </g>
    <g id="ytick_10">
     <g id="line2d_14">
      <path clip-path="url(#p0ceb61c195)" d="M 403.536 151.6464 
L 722.906084 151.6464 
" style="fill:none;stroke:#cccccc;stroke-linecap:round;"/>
     </g>
    </g>
    <g id="ytick_11">
     <g id="line2d_15">
      <path clip-path="url(#p0ceb61c195)" d="M 403.536 102.8232 
L 722.906084 102.8232 
" style="fill:none;stroke:#cccccc;stroke-linecap:round;"/>
     </g>
    </g>
    <g id="ytick_12">
     <g id="line2d_16">
      <path clip-path="url(#p0ceb61c195)" d="M 403.536 54 
L 722.906084 54 
" style="fill:none;stroke:#cccccc;stroke-linecap:round;"/>
     </g>
    </g>
   </g>
   <g id="line2d_17">
    <path clip-path="url(#p0ceb61c195)" d="M 403.536 298.10207 
L 405.665134 297.419521 
L 407.794268 297.238436 
L 412.052536 295.984773 
L 414.181669 294.717181 
L 416.310803 293.672462 
L 420.569071 291.095489 
L 422.698205 289.201065 
L 424.827339 286.930542 
L 426.956473 285.523654 
L 433.343875 279.92396 
L 435.473008 278.656368 
L 437.602142 276.720155 
L 439.731276 275.285408 
L 441.86041 274.129252 
L 446.118678 271.482631 
L 448.247812 270.201109 
L 450.376946 269.072813 
L 454.635213 266.008304 
L 456.764347 265.172528 
L 461.022615 261.578695 
L 465.280883 259.753919 
L 467.410017 258.305242 
L 469.539151 257.316242 
L 471.668285 256.577974 
L 473.797419 256.132227 
L 475.926552 255.226804 
L 478.055686 253.694549 
L 480.18482 252.426957 
L 482.313954 251.479745 
L 484.443088 250.922562 
L 492.959624 246.910841 
L 495.088757 246.325798 
L 507.863561 240.19678 
L 512.121829 237.452652 
L 514.250963 236.352214 
L 516.380096 234.388143 
L 518.50923 233.287705 
L 520.638364 232.312634 
L 522.767498 231.644014 
L 524.896632 231.253986 
L 527.025766 230.696802 
L 531.284034 228.899886 
L 533.413168 228.468068 
L 535.542301 227.39549 
L 537.671435 226.866166 
L 544.058837 224.72101 
L 546.187971 224.498136 
L 548.317105 223.606643 
L 552.575373 221.00181 
L 554.704507 220.68143 
L 556.83364 219.901373 
L 558.962774 218.229823 
L 561.091908 217.700498 
L 565.350176 216.126455 
L 567.47931 215.778215 
L 569.608444 215.137454 
L 571.737578 213.340538 
L 580.254113 208.256239 
L 582.383247 207.183661 
L 584.512381 206.250378 
L 586.641515 205.470321 
L 588.770649 203.561968 
L 590.899783 202.628686 
L 593.028917 201.375023 
L 595.158051 200.608896 
L 597.287184 200.107431 
L 599.416318 199.271656 
L 605.80372 196.09571 
L 607.932854 194.74454 
L 610.061988 193.839117 
L 612.191122 192.641172 
L 616.449389 190.927833 
L 618.578523 189.660241 
L 622.836791 188.197634 
L 624.965925 186.693239 
L 627.095059 186.31714 
L 633.482461 183.336209 
L 635.611595 181.94325 
L 641.998996 179.519502 
L 646.257264 177.081825 
L 648.386398 176.454993 
L 652.644666 174.755584 
L 654.7738 173.808372 
L 659.032067 171.398553 
L 661.161201 170.757792 
L 663.290335 169.587707 
L 665.419469 168.584777 
L 667.548603 167.832579 
L 669.677737 166.718212 
L 671.806871 165.46455 
L 673.936005 165.060592 
L 678.194272 163.500478 
L 680.323406 162.497548 
L 682.45254 161.73142 
L 686.710808 159.600194 
L 688.839942 157.775418 
L 690.969076 157.315742 
L 695.227344 156.117797 
L 697.356477 155.713839 
L 701.614745 154.599472 
L 703.743879 153.526894 
L 705.873013 152.718978 
L 708.002147 152.287161 
L 710.131281 151.228512 
L 712.260415 150.573822 
L 714.389549 149.264441 
L 716.518683 148.651539 
L 718.647816 147.634679 
L 720.77695 147.007848 
L 720.77695 147.007848 
" style="fill:none;stroke:#e41a1c;stroke-linecap:round;stroke-width:2.5;"/>
   </g>
   <g id="line2d_18">
    <path clip-path="url(#p0ceb61c195)" d="M 403.536 298.116 
L 422.698205 298.074211 
L 424.827339 296.374802 
L 426.956473 295.789759 
L 429.085607 295.525097 
L 433.343875 295.274364 
L 437.602142 294.731111 
L 439.731276 294.285364 
L 441.86041 293.39387 
L 443.989544 287.891684 
L 446.118678 285.231133 
L 448.247812 284.534653 
L 452.50608 282.598441 
L 454.635213 282.208412 
L 456.764347 281.247271 
L 458.893481 280.634369 
L 461.022615 279.520002 
L 463.151749 279.380706 
L 465.280883 278.92103 
L 467.410017 278.308128 
L 469.539151 277.9181 
L 471.668285 277.90417 
L 478.055686 277.388776 
L 480.18482 277.068395 
L 484.443088 276.970888 
L 486.572222 276.330127 
L 488.701356 275.257549 
L 490.83049 274.54714 
L 492.959624 273.558139 
L 495.088757 272.805942 
L 497.217891 271.009025 
L 499.347025 269.643926 
L 501.476159 267.665924 
L 503.605293 266.077951 
L 505.734427 263.612415 
L 507.863561 262.177667 
L 509.992695 260.338962 
L 512.121829 259.07137 
L 514.250963 257.232664 
L 516.380096 256.104368 
L 518.50923 254.098507 
L 520.638364 252.301591 
L 522.767498 251.173294 
L 524.896632 249.877843 
L 527.025766 248.791335 
L 529.1549 248.192363 
L 531.284034 247.468024 
L 533.413168 246.25615 
L 541.929703 244.013487 
L 544.058837 243.762754 
L 548.317105 242.132993 
L 552.575373 242.063345 
L 556.83364 240.642527 
L 558.962774 239.20778 
L 563.221042 237.954117 
L 565.350176 237.647666 
L 569.608444 236.435792 
L 571.737578 236.352214 
L 573.866712 235.363214 
L 575.995845 234.764241 
L 578.124979 234.360283 
L 584.512381 232.633015 
L 586.641515 231.685803 
L 588.770649 231.003253 
L 590.899783 230.557506 
L 593.028917 229.42921 
L 595.158051 228.09197 
L 597.287184 227.660152 
L 601.545452 226.336842 
L 603.674586 225.111038 
L 607.932854 223.885235 
L 610.061988 222.924093 
L 614.320256 222.478346 
L 616.449389 221.851515 
L 618.578523 220.973951 
L 620.707657 220.361049 
L 622.836791 219.385978 
L 624.965925 218.954161 
L 631.353327 218.006949 
L 633.482461 217.951231 
L 635.611595 217.129385 
L 637.740728 216.558272 
L 641.998996 214.984229 
L 644.12813 213.772355 
L 646.257264 212.908721 
L 648.386398 212.518692 
L 652.644666 210.735705 
L 656.902933 209.677057 
L 659.032067 209.064155 
L 667.548603 204.676335 
L 669.677737 204.342025 
L 671.806871 203.743053 
L 673.936005 201.305375 
L 676.065139 200.553178 
L 678.194272 200.037783 
L 682.45254 197.683683 
L 684.581674 197.224006 
L 688.839942 195.120639 
L 690.969076 192.989412 
L 693.09821 192.543665 
L 695.227344 192.334722 
L 697.356477 190.913904 
L 699.485611 190.35672 
L 703.743879 189.520945 
L 705.873013 187.919043 
L 708.002147 187.041479 
L 712.260415 185.843534 
L 714.389549 184.938111 
L 716.518683 183.559082 
L 718.647816 182.876532 
L 720.77695 182.570082 
L 720.77695 182.570082 
" style="fill:none;stroke:#377eb8;stroke-linecap:round;stroke-width:2.5;"/>
   </g>
   <g id="line2d_19">
    <path clip-path="url(#p0ceb61c195)" d="M 403.536 298.116 
L 405.665134 297.391662 
L 409.923402 297.308084 
L 418.439937 297.308084 
L 420.569071 297.126999 
L 422.698205 294.74504 
L 424.827339 293.39387 
L 426.956473 292.934194 
L 429.085607 292.920264 
L 431.214741 292.767039 
L 435.473008 289.716459 
L 439.731276 289.256783 
L 441.86041 288.741388 
L 443.989544 287.432007 
L 446.118678 286.735528 
L 448.247812 285.844034 
L 450.376946 284.562513 
L 452.50608 283.768526 
L 454.635213 283.559582 
L 456.764347 282.877033 
L 458.893481 281.888032 
L 461.022615 281.386567 
L 463.151749 280.550792 
L 465.280883 279.520002 
L 467.410017 277.58379 
L 469.539151 276.734085 
L 473.797419 274.53321 
L 478.055686 272.109462 
L 480.18482 270.479701 
L 488.701356 266.997304 
L 492.959624 264.754641 
L 495.088757 263.695992 
L 497.217891 262.971654 
L 501.476159 261.119019 
L 503.605293 259.962863 
L 505.734427 259.154947 
L 507.863561 256.731199 
L 509.992695 255.157156 
L 512.121829 254.558184 
L 514.250963 253.819916 
L 516.380096 252.399098 
L 518.50923 249.863913 
L 520.638364 248.512743 
L 522.767498 247.899841 
L 524.896632 247.077996 
L 527.025766 246.855122 
L 529.1549 245.434305 
L 531.284034 244.445304 
L 533.413168 243.177712 
L 535.542301 241.715105 
L 539.800569 240.127132 
L 541.929703 239.277427 
L 544.058837 238.246638 
L 546.187971 237.814821 
L 548.317105 237.243708 
L 550.446239 237.006905 
L 552.575373 235.669665 
L 554.704507 234.499579 
L 558.962774 234.012044 
L 563.221042 233.092691 
L 565.350176 231.79724 
L 567.47931 230.710732 
L 569.608444 230.418211 
L 571.737578 229.345632 
L 573.866712 228.830238 
L 575.995845 228.440209 
L 580.254113 226.643293 
L 582.383247 224.609573 
L 584.512381 223.787727 
L 586.641515 223.411629 
L 588.770649 222.68729 
L 590.899783 221.391839 
L 593.028917 221.01574 
L 595.158051 219.706359 
L 597.287184 219.107386 
L 599.416318 217.770146 
L 601.545452 217.212963 
L 603.674586 216.460765 
L 605.80372 214.886722 
L 610.061988 213.034087 
L 614.320256 211.111804 
L 618.578523 209.454183 
L 620.707657 208.910929 
L 624.965925 208.520901 
L 627.095059 208.144802 
L 629.224193 207.629407 
L 631.353327 206.459322 
L 635.611595 205.136011 
L 637.740728 205.108152 
L 639.869862 204.244518 
L 641.998996 203.812701 
L 644.12813 202.851559 
L 646.257264 202.280446 
L 648.386398 201.960066 
L 650.515532 201.402882 
L 652.644666 201.082502 
L 654.7738 199.940276 
L 656.902933 199.605966 
L 659.032067 199.13236 
L 661.161201 198.213007 
L 663.290335 197.76726 
L 665.419469 196.959344 
L 667.548603 196.513597 
L 669.677737 195.441019 
L 671.806871 194.605244 
L 676.065139 193.546596 
L 678.194272 192.251144 
L 682.45254 190.398509 
L 684.581674 189.6881 
L 686.710808 188.601592 
L 690.969076 186.99969 
L 693.09821 186.818605 
L 695.227344 186.400718 
L 701.614745 184.29735 
L 703.743879 183.907322 
L 708.002147 182.890462 
L 710.131281 182.193983 
L 712.260415 180.59208 
L 714.389549 179.867742 
L 716.518683 178.836952 
L 720.77695 177.388275 
L 720.77695 177.388275 
" style="fill:none;stroke:#4daf4a;stroke-linecap:round;stroke-width:2.5;"/>
   </g>
   <g id="line2d_20">
    <path clip-path="url(#p0ceb61c195)" d="M 403.536 298.116 
L 463.151749 298.088141 
L 467.410017 297.544887 
L 469.539151 296.249435 
L 475.926552 294.661463 
L 480.18482 294.146068 
L 482.313954 293.895335 
L 484.443088 293.198856 
L 488.701356 292.223785 
L 492.959624 290.71939 
L 495.088757 289.674671 
L 497.217891 288.866755 
L 499.347025 287.919543 
L 501.476159 286.31764 
L 503.605293 285.245062 
L 505.734427 283.657089 
L 507.863561 282.514863 
L 509.992695 281.135834 
L 512.121829 280.28613 
L 514.250963 278.015607 
L 516.380096 275.912239 
L 518.50923 274.171041 
L 520.638364 272.931308 
L 522.767498 272.095533 
L 527.025766 269.894658 
L 529.1549 268.543488 
L 531.284034 267.443051 
L 533.413168 265.771501 
L 535.542301 265.270035 
L 537.671435 264.336753 
L 539.800569 262.706992 
L 541.929703 261.314033 
L 544.058837 259.168877 
L 546.187971 257.831636 
L 548.317105 257.176946 
L 552.575373 253.847775 
L 556.83364 252.510534 
L 558.962774 251.270801 
L 563.221042 249.863913 
L 565.350176 248.317729 
L 567.47931 246.242221 
L 571.737578 243.303078 
L 573.866712 242.968768 
L 575.995845 242.425514 
L 578.124979 241.394725 
L 580.254113 240.8654 
L 582.383247 239.458512 
L 584.512381 238.720244 
L 586.641515 237.480511 
L 588.770649 235.669665 
L 590.899783 234.248847 
L 593.028917 233.677734 
L 599.416318 230.863957 
L 601.545452 228.983463 
L 603.674586 228.858097 
L 605.80372 227.284054 
L 607.932854 226.7408 
L 610.061988 225.835377 
L 612.191122 224.02453 
L 614.320256 223.146967 
L 618.578523 222.770868 
L 624.965925 220.152105 
L 627.095059 219.98495 
L 629.224193 219.622781 
L 631.353327 219.455626 
L 635.611595 218.64771 
L 637.740728 218.201963 
L 641.998996 216.809005 
L 644.12813 216.210033 
L 646.257264 216.042877 
L 648.386398 215.109595 
L 650.515532 214.580271 
L 652.644666 213.340538 
L 654.7738 212.57441 
L 656.902933 212.2401 
L 659.032067 211.292889 
L 661.161201 210.721776 
L 663.290335 210.666057 
L 665.419469 209.983507 
L 667.548603 209.482042 
L 669.677737 208.506971 
L 673.936005 207.364745 
L 676.065139 207.155801 
L 678.194272 206.027505 
L 680.323406 206.027505 
L 682.45254 205.734984 
L 684.581674 204.286307 
L 690.969076 202.726193 
L 695.227344 202.517249 
L 697.356477 201.500389 
L 699.485611 201.012854 
L 701.614745 199.814909 
L 703.743879 198.867698 
L 705.873013 198.366232 
L 708.002147 197.697612 
L 710.131281 197.363302 
L 716.518683 196.861837 
L 718.647816 195.928555 
L 720.77695 195.663893 
L 720.77695 195.663893 
" style="fill:none;stroke:#984ea3;stroke-linecap:round;stroke-width:2.5;"/>
   </g>
   <g id="patch_6">
    <path d="M 403.536 298.116 
L 403.536 54 
" style="fill:none;stroke:#cccccc;stroke-linecap:square;stroke-linejoin:miter;stroke-width:1.25;"/>
   </g>
   <g id="patch_7">
    <path d="M 403.536 298.116 
L 722.906084 298.116 
" style="fill:none;stroke:#cccccc;stroke-linecap:square;stroke-linejoin:miter;stroke-width:1.25;"/>
   </g>
   <g id="text_25">
    <!-- query 2 -->
    <g style="fill:#262626;" transform="translate(535.20573 48)scale(0.168 -0.168)">
     <use xlink:href="#ArialMT-113"/>
     <use x="55.615234" xlink:href="#ArialMT-117"/>
     <use x="111.230469" xlink:href="#ArialMT-101"/>
     <use x="166.845703" xlink:href="#ArialMT-114"/>
     <use x="200.146484" xlink:href="#ArialMT-121"/>
     <use x="250.146484" xlink:href="#ArialMT-32"/>
     <use x="277.929688" xlink:href="#ArialMT-50"/>
    </g>
   </g>
  </g>
  <g id="axes_3">
   <g id="patch_8">
    <path d="M 741.768 298.116 
L 1061.138084 298.116 
L 1061.138084 54 
L 741.768 54 
z
" style="fill:#ffffff;" opacity="0" />
   </g>
   <g id="matplotlib.axis_5">
    <g id="xtick_15">
     <g id="text_26">
      <!-- 0 -->
      <g style="fill:#262626;" transform="translate(737.486078 318.639031)scale(0.154 -0.154)">
       <use xlink:href="#ArialMT-48"/>
      </g>
     </g>
    </g>
    <g id="xtick_16">
     <g id="text_27">
      <!-- 25 -->
      <g style="fill:#262626;" transform="translate(786.432504 318.639031)scale(0.154 -0.154)">
       <use xlink:href="#ArialMT-50"/>
       <use x="55.615234" xlink:href="#ArialMT-53"/>
      </g>
     </g>
    </g>
    <g id="xtick_17">
     <g id="text_28">
      <!-- 50 -->
      <g style="fill:#262626;" transform="translate(839.660851 318.639031)scale(0.154 -0.154)">
       <use xlink:href="#ArialMT-53"/>
       <use x="55.615234" xlink:href="#ArialMT-48"/>
      </g>
     </g>
    </g>
    <g id="xtick_18">
     <g id="text_29">
      <!-- 75 -->
      <g style="fill:#262626;" transform="translate(892.889198 318.639031)scale(0.154 -0.154)">
       <use xlink:href="#ArialMT-55"/>
       <use x="55.615234" xlink:href="#ArialMT-53"/>
      </g>
     </g>
    </g>
    <g id="xtick_19">
     <g id="text_30">
      <!-- 100 -->
      <g style="fill:#262626;" transform="translate(941.835624 318.639031)scale(0.154 -0.154)">
       <use xlink:href="#ArialMT-49"/>
       <use x="55.615234" xlink:href="#ArialMT-48"/>
       <use x="111.230469" xlink:href="#ArialMT-48"/>
      </g>
     </g>
    </g>
    <g id="xtick_20">
     <g id="text_31">
      <!-- 125 -->
      <g style="fill:#262626;" transform="translate(995.063971 318.639031)scale(0.154 -0.154)">
       <use xlink:href="#ArialMT-49"/>
       <use x="55.615234" xlink:href="#ArialMT-50"/>
       <use x="111.230469" xlink:href="#ArialMT-53"/>
      </g>
     </g>
    </g>
    <g id="xtick_21">
     <g id="text_32">
      <!-- 150 -->
      <g style="fill:#262626;" transform="translate(1048.292319 318.639031)scale(0.154 -0.154)">
       <use xlink:href="#ArialMT-49"/>
       <use x="55.615234" xlink:href="#ArialMT-53"/>
       <use x="111.230469" xlink:href="#ArialMT-48"/>
      </g>
     </g>
    </g>
    <g id="text_33">
     <!-- execution time (ms) -->
     <g style="fill:#262626;" transform="translate(828.170917 337.929656)scale(0.168 -0.168)">
      <use xlink:href="#ArialMT-101"/>
      <use x="55.615234" xlink:href="#ArialMT-120"/>
      <use x="105.615234" xlink:href="#ArialMT-101"/>
      <use x="161.230469" xlink:href="#ArialMT-99"/>
      <use x="211.230469" xlink:href="#ArialMT-117"/>
      <use x="266.845703" xlink:href="#ArialMT-116"/>
      <use x="294.628906" xlink:href="#ArialMT-105"/>
      <use x="316.845703" xlink:href="#ArialMT-111"/>
      <use x="372.460938" xlink:href="#ArialMT-110"/>
      <use x="428.076172" xlink:href="#ArialMT-32"/>
      <use x="455.859375" xlink:href="#ArialMT-116"/>
      <use x="483.642578" xlink:href="#ArialMT-105"/>
      <use x="505.859375" xlink:href="#ArialMT-109"/>
      <use x="589.160156" xlink:href="#ArialMT-101"/>
      <use x="644.775391" xlink:href="#ArialMT-32"/>
      <use x="672.558594" xlink:href="#ArialMT-40"/>
      <use x="705.859375" xlink:href="#ArialMT-109"/>
      <use x="789.160156" xlink:href="#ArialMT-115"/>
      <use x="839.160156" xlink:href="#ArialMT-41"/>
     </g>
    </g>
   </g>
   <g id="matplotlib.axis_6">
    <g id="ytick_13">
     <g id="line2d_21">
      <path clip-path="url(#p24f9c58ffb)" d="M 741.768 298.116 
L 1061.138084 298.116 
" style="fill:none;stroke:#cccccc;stroke-linecap:round;"/>
     </g>
    </g>
    <g id="ytick_14">
     <g id="line2d_22">
      <path clip-path="url(#p24f9c58ffb)" d="M 741.768 249.2928 
L 1061.138084 249.2928 
" style="fill:none;stroke:#cccccc;stroke-linecap:round;"/>
     </g>
    </g>
    <g id="ytick_15">
     <g id="line2d_23">
      <path clip-path="url(#p24f9c58ffb)" d="M 741.768 200.4696 
L 1061.138084 200.4696 
" style="fill:none;stroke:#cccccc;stroke-linecap:round;"/>
     </g>
    </g>
    <g id="ytick_16">
     <g id="line2d_24">
      <path clip-path="url(#p24f9c58ffb)" d="M 741.768 151.6464 
L 1061.138084 151.6464 
" style="fill:none;stroke:#cccccc;stroke-linecap:round;"/>
     </g>
    </g>
    <g id="ytick_17">
     <g id="line2d_25">
      <path clip-path="url(#p24f9c58ffb)" d="M 741.768 102.8232 
L 1061.138084 102.8232 
" style="fill:none;stroke:#cccccc;stroke-linecap:round;"/>
     </g>
    </g>
    <g id="ytick_18">
     <g id="line2d_26">
      <path clip-path="url(#p24f9c58ffb)" d="M 741.768 54 
L 1061.138084 54 
" style="fill:none;stroke:#cccccc;stroke-linecap:round;"/>
     </g>
    </g>
   </g>
   <g id="line2d_27">
    <path clip-path="url(#p24f9c58ffb)" d="M 741.768 298.098656 
L 743.897134 297.560994 
L 746.026268 297.335523 
L 748.155402 296.953956 
L 750.284536 296.294886 
L 752.413669 295.132842 
L 754.542803 293.832046 
L 756.671937 292.288435 
L 758.801071 290.536697 
L 765.188473 283.113489 
L 767.317607 280.165019 
L 769.446741 277.494052 
L 771.575875 275.447466 
L 773.705008 272.759155 
L 775.834142 271.007417 
L 777.963276 268.82208 
L 780.09241 267.382533 
L 786.479812 259.386975 
L 788.608946 257.271014 
L 790.73808 255.727403 
L 792.867213 252.657525 
L 794.996347 251.079226 
L 797.125481 248.980609 
L 799.254615 247.332934 
L 801.383749 245.286349 
L 803.512883 243.499923 
L 805.642017 240.204574 
L 809.900285 236.250155 
L 812.029419 234.827951 
L 816.287686 231.549946 
L 818.41682 228.965699 
L 820.545954 227.543495 
L 822.675088 225.063311 
L 824.804222 223.03407 
L 826.933356 221.681242 
L 829.06249 219.149027 
L 833.320757 214.396786 
L 835.449891 213.165366 
L 837.579025 212.246137 
L 839.708159 210.216896 
L 841.837293 209.054852 
L 843.966427 207.441865 
L 846.095561 206.609356 
L 850.353829 203.764949 
L 852.482963 201.857115 
L 854.612096 201.024606 
L 856.74123 199.89725 
L 858.870364 199.030053 
L 860.999498 198.440359 
L 863.128632 196.567213 
L 865.257766 195.283761 
L 869.516034 193.670774 
L 871.645168 193.393271 
L 873.774301 192.872953 
L 878.032569 190.756992 
L 880.161703 189.855107 
L 882.290837 189.334788 
L 886.549105 187.218827 
L 888.678239 186.819917 
L 890.807373 185.69256 
L 892.936507 184.270357 
L 895.06564 183.767383 
L 897.194774 183.143001 
L 899.323908 182.813466 
L 901.453042 182.362523 
L 903.582176 181.079072 
L 905.71131 180.576097 
L 909.969578 178.841703 
L 916.356979 177.575595 
L 918.486113 176.795118 
L 920.615247 176.136048 
L 922.744381 176.066672 
L 924.873515 175.338226 
L 927.002649 174.193526 
L 929.131783 173.274297 
L 933.390051 172.094909 
L 935.519184 171.782718 
L 937.648318 170.898177 
L 939.777452 170.343171 
L 944.03572 169.736133 
L 946.164854 168.903623 
L 950.423122 168.036426 
L 952.552256 167.342669 
L 954.681389 166.440784 
L 956.810523 165.920465 
L 958.939657 164.897173 
L 961.068791 164.082007 
L 963.197925 164.082007 
L 965.327059 163.70044 
L 967.456193 162.451677 
L 969.585327 161.948702 
L 973.843595 160.491811 
L 978.101862 159.780709 
L 982.36013 159.43383 
L 984.489264 158.653353 
L 988.747532 157.508653 
L 990.876666 157.369901 
L 993.0058 156.606768 
L 995.134933 155.16722 
L 997.264067 154.855029 
L 1001.522335 153.762361 
L 1007.909737 151.993279 
L 1010.038871 150.831235 
L 1012.168005 150.380292 
L 1014.297139 149.547783 
L 1016.426272 149.322312 
L 1020.68454 148.073548 
L 1022.813674 148.056204 
L 1024.942808 147.570573 
L 1029.201076 146.304466 
L 1031.33021 145.281173 
L 1033.459344 144.535383 
L 1035.588477 143.650842 
L 1037.717611 143.286619 
L 1041.975879 142.072543 
L 1044.105013 141.88176 
L 1048.363281 141.292066 
L 1050.492415 140.424869 
L 1052.621549 139.800487 
L 1054.750683 139.575016 
L 1056.879816 138.811882 
L 1059.00895 138.395627 
L 1059.00895 138.395627 
" style="fill:none;stroke:#e41a1c;stroke-linecap:round;stroke-width:2.5;"/>
   </g>
   <g id="line2d_28">
    <path clip-path="url(#p24f9c58ffb)" d="M 741.768 298.116 
L 758.801071 298.116 
L 760.930205 297.474274 
L 763.059339 296.555045 
L 767.317607 296.364262 
L 769.446741 296.329574 
L 771.575875 296.069415 
L 773.705008 295.393001 
L 775.834142 295.098154 
L 777.963276 291.178423 
L 780.09241 288.576831 
L 782.221544 286.339463 
L 784.350678 284.674444 
L 788.608946 284.08475 
L 790.73808 282.974738 
L 792.867213 281.465815 
L 794.996347 280.615961 
L 797.125481 280.217051 
L 799.254615 279.07235 
L 801.383749 278.430625 
L 803.512883 278.135777 
L 805.642017 277.962338 
L 807.771151 277.546083 
L 818.41682 277.112485 
L 820.545954 276.852326 
L 822.675088 276.418727 
L 826.933356 272.533684 
L 829.06249 270.192252 
L 831.191624 269.082239 
L 833.320757 267.469252 
L 837.579025 262.231382 
L 839.708159 261.138713 
L 841.837293 258.346338 
L 843.966427 256.213033 
L 846.095561 254.478639 
L 848.224695 253.836913 
L 850.353829 251.061882 
L 854.612096 246.934024 
L 865.257766 237.863141 
L 867.3869 235.643117 
L 869.516034 233.94341 
L 871.645168 232.694646 
L 873.774301 231.775417 
L 875.903435 230.058367 
L 878.032569 228.098501 
L 880.161703 227.664903 
L 882.290837 226.103948 
L 884.419971 225.49691 
L 886.549105 224.664401 
L 888.678239 223.571732 
L 890.807373 222.860631 
L 892.936507 221.507803 
L 895.06564 220.814045 
L 897.194774 220.293727 
L 899.323908 219.495906 
L 901.453042 218.871524 
L 905.71131 218.420581 
L 907.840444 217.934951 
L 909.969578 217.258537 
L 912.098712 216.165869 
L 914.227845 214.674289 
L 916.356979 213.997876 
L 918.486113 212.7838 
L 922.744381 211.361596 
L 927.002649 208.326406 
L 929.131783 207.615305 
L 931.260917 206.123725 
L 933.390051 205.551375 
L 935.519184 204.476051 
L 939.777452 203.50479 
L 944.03572 201.874459 
L 946.164854 201.302109 
L 948.293988 200.4696 
L 950.423122 200.452256 
L 952.552256 199.585059 
L 954.681389 198.527078 
L 956.810523 198.128168 
L 958.939657 197.555818 
L 961.068791 197.313002 
L 963.197925 196.77534 
L 965.327059 196.428461 
L 969.585327 194.954226 
L 971.714461 194.22578 
L 973.843595 193.792182 
L 975.972728 193.670774 
L 978.101862 193.271864 
L 980.230996 192.716857 
L 982.36013 191.93638 
L 984.489264 191.27731 
L 986.618398 190.427457 
L 988.747532 190.201986 
L 990.876666 189.664323 
L 993.0058 189.265413 
L 995.134933 187.895241 
L 997.264067 187.531018 
L 999.393201 187.028044 
L 1001.522335 186.785229 
L 1003.651469 185.29365 
L 1005.780603 185.102866 
L 1007.909737 184.599892 
L 1010.038871 183.906134 
L 1014.297139 181.738141 
L 1016.426272 180.975008 
L 1020.68454 180.28125 
L 1022.813674 180.246562 
L 1024.942808 179.656868 
L 1027.071942 179.257958 
L 1031.33021 178.217321 
L 1033.459344 177.957162 
L 1039.846745 176.413551 
L 1044.105013 175.008691 
L 1046.234147 174.453685 
L 1048.363281 173.759928 
L 1050.492415 172.424444 
L 1052.621549 171.852094 
L 1054.750683 171.800062 
L 1056.879816 171.505215 
L 1059.00895 169.840196 
L 1059.00895 169.840196 
" style="fill:none;stroke:#377eb8;stroke-linecap:round;stroke-width:2.5;"/>
   </g>
   <g id="line2d_29">
    <path clip-path="url(#p24f9c58ffb)" d="M 741.768 298.116 
L 743.897134 297.404898 
L 756.671937 297.387554 
L 758.801071 295.774568 
L 760.930205 294.543148 
L 763.059339 293.814702 
L 765.188473 293.675951 
L 767.317607 293.675951 
L 769.446741 293.19032 
L 771.575875 291.785461 
L 773.705008 291.612021 
L 775.834142 291.213111 
L 777.963276 289.756219 
L 780.09241 289.409341 
L 784.350678 285.680393 
L 786.479812 284.813196 
L 792.867213 284.119438 
L 794.996347 283.651151 
L 797.125481 281.934101 
L 799.254615 281.275031 
L 801.383749 280.373146 
L 805.642017 277.702179 
L 809.900285 275.759657 
L 812.029419 273.903855 
L 814.158552 272.221493 
L 816.287686 269.602557 
L 818.41682 267.972227 
L 820.545954 267.660036 
L 822.675088 266.619399 
L 824.804222 265.249228 
L 829.06249 262.17935 
L 831.191624 260.982618 
L 833.320757 258.814625 
L 835.449891 257.843364 
L 837.579025 256.5946 
L 839.708159 254.04504 
L 841.837293 251.807672 
L 843.966427 250.576252 
L 846.095561 248.425603 
L 848.224695 247.714501 
L 850.353829 246.25761 
L 852.482963 244.245713 
L 854.612096 241.869592 
L 856.74123 240.603484 
L 858.870364 238.418148 
L 863.128632 235.851244 
L 865.257766 234.966703 
L 867.3869 233.787315 
L 871.645168 232.13964 
L 873.774301 230.110399 
L 875.903435 229.069762 
L 878.032569 228.393348 
L 880.161703 227.907718 
L 882.290837 227.127241 
L 886.549105 225.028624 
L 888.678239 223.172822 
L 890.807373 222.149529 
L 892.936507 221.594523 
L 895.06564 220.120288 
L 897.194774 219.738721 
L 899.323908 218.906212 
L 901.453042 218.437925 
L 903.582176 216.200556 
L 905.71131 215.992429 
L 907.840444 214.969136 
L 909.969578 214.552882 
L 912.098712 212.61036 
L 916.356979 210.841278 
L 918.486113 210.771902 
L 920.615247 210.043457 
L 922.744381 208.118279 
L 927.002649 207.719368 
L 929.131783 207.632649 
L 931.260917 205.655439 
L 933.390051 204.73621 
L 935.519184 203.331351 
L 937.648318 202.481497 
L 939.777452 201.857115 
L 941.906586 200.504288 
L 946.164854 198.995365 
L 948.293988 197.399722 
L 950.423122 195.405169 
L 952.552256 194.243124 
L 954.681389 193.219832 
L 956.810523 191.780284 
L 958.939657 191.27731 
L 961.068791 190.965119 
L 963.197925 190.358081 
L 965.327059 189.005254 
L 967.456193 188.571655 
L 969.585327 187.947273 
L 971.714461 187.114764 
L 973.843595 185.605841 
L 975.972728 184.825363 
L 978.101862 183.247064 
L 980.230996 181.963613 
L 982.36013 181.356575 
L 986.618398 178.442792 
L 988.747532 177.99185 
L 990.876666 177.922474 
L 993.0058 177.33278 
L 995.134933 176.413551 
L 997.264067 175.910576 
L 999.393201 175.650417 
L 1001.522335 174.384309 
L 1005.780603 172.49382 
L 1007.909737 171.904126 
L 1010.038871 171.695998 
L 1012.168005 171.678654 
L 1014.297139 170.291139 
L 1016.426272 169.736133 
L 1018.555406 169.389254 
L 1020.68454 169.28519 
L 1022.813674 168.071114 
L 1024.942808 167.307981 
L 1027.071942 167.099853 
L 1029.201076 166.232656 
L 1031.33021 164.584982 
L 1033.459344 163.769816 
L 1035.588477 163.735128 
L 1037.717611 163.284186 
L 1039.846745 163.006683 
L 1041.975879 162.416989 
L 1044.105013 161.619167 
L 1046.234147 160.196964 
L 1050.492415 158.583977 
L 1054.750683 158.046315 
L 1056.879816 157.404589 
L 1059.00895 155.652851 
L 1059.00895 155.652851 
" style="fill:none;stroke:#4daf4a;stroke-linecap:round;stroke-width:2.5;"/>
   </g>
   <g id="line2d_30">
    <path clip-path="url(#p24f9c58ffb)" d="M 741.768 298.116 
L 799.254615 298.116 
L 801.383749 297.855841 
L 803.512883 296.589733 
L 809.900285 295.618472 
L 818.41682 294.456428 
L 820.545954 294.109549 
L 822.675088 293.172976 
L 824.804222 292.565938 
L 826.933356 291.820149 
L 829.06249 290.658104 
L 831.191624 290.15513 
L 835.449891 287.310723 
L 837.579025 286.443526 
L 839.708159 285.108043 
L 843.966427 281.639254 
L 846.095561 280.667993 
L 848.224695 279.141726 
L 850.353829 276.904358 
L 854.612096 274.337454 
L 856.74123 271.891958 
L 858.870364 270.469755 
L 860.999498 269.446462 
L 863.128632 267.261125 
L 867.3869 265.717514 
L 869.516034 264.260623 
L 873.774301 261.728407 
L 875.903435 261.329497 
L 880.161703 257.635237 
L 882.290837 255.397868 
L 884.419971 254.010353 
L 886.549105 252.90034 
L 888.678239 252.085175 
L 892.936507 248.685762 
L 895.06564 246.691209 
L 897.194774 246.17089 
L 899.323908 244.887438 
L 901.453042 243.898834 
L 903.582176 242.65007 
L 905.71131 242.164439 
L 907.840444 240.933019 
L 909.969578 240.065822 
L 912.098712 238.712995 
L 914.227845 238.504867 
L 916.356979 236.787817 
L 918.486113 236.024683 
L 920.615247 234.671856 
L 922.744381 233.769971 
L 924.873515 232.486519 
L 927.002649 230.786813 
L 929.131783 230.006335 
L 931.260917 228.410692 
L 933.390051 226.988489 
L 935.519184 225.947853 
L 939.777452 224.334866 
L 941.906586 223.675796 
L 944.03572 222.479064 
L 946.164854 221.941402 
L 948.293988 220.172319 
L 950.423122 219.201059 
L 952.552256 218.576677 
L 954.681389 218.299174 
L 963.197925 214.726321 
L 965.327059 214.153971 
L 969.585327 213.26943 
L 971.714461 212.645048 
L 973.843595 211.014717 
L 975.972728 210.442367 
L 978.101862 209.731266 
L 980.230996 209.679234 
L 982.36013 208.239687 
L 984.489264 208.014215 
L 986.618398 206.765451 
L 988.747532 205.759503 
L 990.876666 205.135121 
L 993.0058 205.117777 
L 995.134933 204.701522 
L 997.264067 203.938389 
L 999.393201 202.776344 
L 1001.522335 201.371485 
L 1003.651469 200.591008 
L 1005.780603 199.463651 
L 1007.909737 199.116772 
L 1010.038871 198.925989 
L 1012.168005 196.705964 
L 1016.426272 194.624691 
L 1018.555406 194.121717 
L 1024.942808 191.329342 
L 1033.459344 188.346184 
L 1035.588477 188.068681 
L 1037.717611 187.09742 
L 1039.846745 186.282254 
L 1041.975879 185.657873 
L 1044.105013 185.623185 
L 1046.234147 185.397713 
L 1048.363281 184.495828 
L 1052.621549 183.281752 
L 1054.750683 183.177689 
L 1056.879816 182.501275 
L 1059.00895 180.714849 
L 1059.00895 180.714849 
" style="fill:none;stroke:#984ea3;stroke-linecap:round;stroke-width:2.5;"/>
   </g>
   <g id="patch_9">
    <path d="M 741.768 298.116 
L 741.768 54 
" style="fill:none;stroke:#cccccc;stroke-linecap:square;stroke-linejoin:miter;stroke-width:1.25;"/>
   </g>
   <g id="patch_10">
    <path d="M 741.768 298.116 
L 1061.138084 298.116 
" style="fill:none;stroke:#cccccc;stroke-linecap:square;stroke-linejoin:miter;stroke-width:1.25;"/>
   </g>
   <g id="text_34">
    <!-- query 3 -->
    <defs>
     <path d="M 4.203125 18.890625 
L 12.984375 20.0625 
Q 14.5 12.59375 18.140625 9.296875 
Q 21.78125 6 27 6 
Q 33.203125 6 37.46875 10.296875 
Q 41.75 14.59375 41.75 20.953125 
Q 41.75 27 37.796875 30.921875 
Q 33.84375 34.859375 27.734375 34.859375 
Q 25.25 34.859375 21.53125 33.890625 
L 22.515625 41.609375 
Q 23.390625 41.5 23.921875 41.5 
Q 29.546875 41.5 34.03125 44.421875 
Q 38.53125 47.359375 38.53125 53.46875 
Q 38.53125 58.296875 35.25 61.46875 
Q 31.984375 64.65625 26.8125 64.65625 
Q 21.6875 64.65625 18.265625 61.421875 
Q 14.84375 58.203125 13.875 51.765625 
L 5.078125 53.328125 
Q 6.6875 62.15625 12.390625 67.015625 
Q 18.109375 71.875 26.609375 71.875 
Q 32.46875 71.875 37.390625 69.359375 
Q 42.328125 66.84375 44.9375 62.5 
Q 47.5625 58.15625 47.5625 53.265625 
Q 47.5625 48.640625 45.0625 44.828125 
Q 42.578125 41.015625 37.703125 38.765625 
Q 44.046875 37.3125 47.5625 32.6875 
Q 51.078125 28.078125 51.078125 21.140625 
Q 51.078125 11.765625 44.234375 5.25 
Q 37.40625 -1.265625 26.953125 -1.265625 
Q 17.53125 -1.265625 11.296875 4.34375 
Q 5.078125 9.96875 4.203125 18.890625 
z
" id="ArialMT-51"/>
    </defs>
    <g style="fill:#262626;" transform="translate(873.43773 48)scale(0.168 -0.168)">
     <use xlink:href="#ArialMT-113"/>
     <use x="55.615234" xlink:href="#ArialMT-117"/>
     <use x="111.230469" xlink:href="#ArialMT-101"/>
     <use x="166.845703" xlink:href="#ArialMT-114"/>
     <use x="200.146484" xlink:href="#ArialMT-121"/>
     <use x="250.146484" xlink:href="#ArialMT-32"/>
     <use x="277.929688" xlink:href="#ArialMT-51"/>
    </g>
   </g>
   <g id="legend_1">
    <g id="patch_11">
     <path d="M 1044.198084 74.02 
L 1050.358084 74.02 
Q 1053.438084 74.02 1053.438084 70.94 
L 1053.438084 64.78 
Q 1053.438084 61.7 1050.358084 61.7 
L 1044.198084 61.7 
Q 1041.118084 61.7 1041.118084 64.78 
L 1041.118084 70.94 
Q 1041.118084 74.02 1044.198084 74.02 
z
" style="fill:#ffffff;opacity:0.8;stroke:#cccccc;stroke-linejoin:miter;"/>
    </g>
   </g>
  </g>
  <g id="text_35">
   <!-- Average query results in 150ms over subsequent queries in a series -->
   <defs>
    <path d="M -0.140625 0 
L 27.34375 71.578125 
L 37.546875 71.578125 
L 66.84375 0 
L 56.0625 0 
L 47.703125 21.6875 
L 17.78125 21.6875 
L 9.90625 0 
z
M 20.515625 29.390625 
L 44.78125 29.390625 
L 37.3125 49.21875 
Q 33.890625 58.25 32.234375 64.0625 
Q 30.859375 57.171875 28.375 50.390625 
z
" id="ArialMT-65"/>
    <path d="M 40.4375 6.390625 
Q 35.546875 2.25 31.03125 0.53125 
Q 26.515625 -1.171875 21.34375 -1.171875 
Q 12.796875 -1.171875 8.203125 3 
Q 3.609375 7.171875 3.609375 13.671875 
Q 3.609375 17.484375 5.34375 20.625 
Q 7.078125 23.78125 9.890625 25.6875 
Q 12.703125 27.59375 16.21875 28.5625 
Q 18.796875 29.25 24.03125 29.890625 
Q 34.671875 31.15625 39.703125 32.90625 
Q 39.75 34.71875 39.75 35.203125 
Q 39.75 40.578125 37.25 42.78125 
Q 33.890625 45.75 27.25 45.75 
Q 21.046875 45.75 18.09375 43.578125 
Q 15.140625 41.40625 13.71875 35.890625 
L 5.125 37.0625 
Q 6.296875 42.578125 8.984375 45.96875 
Q 11.671875 49.359375 16.75 51.1875 
Q 21.828125 53.03125 28.515625 53.03125 
Q 35.15625 53.03125 39.296875 51.46875 
Q 43.453125 49.90625 45.40625 47.53125 
Q 47.359375 45.171875 48.140625 41.546875 
Q 48.578125 39.3125 48.578125 33.453125 
L 48.578125 21.734375 
Q 48.578125 9.46875 49.140625 6.21875 
Q 49.703125 2.984375 51.375 0 
L 42.1875 0 
Q 40.828125 2.734375 40.4375 6.390625 
z
M 39.703125 26.03125 
Q 34.90625 24.078125 25.34375 22.703125 
Q 19.921875 21.921875 17.671875 20.9375 
Q 15.4375 19.96875 14.203125 18.09375 
Q 12.984375 16.21875 12.984375 13.921875 
Q 12.984375 10.40625 15.640625 8.0625 
Q 18.3125 5.71875 23.4375 5.71875 
Q 28.515625 5.71875 32.46875 7.9375 
Q 36.421875 10.15625 38.28125 14.015625 
Q 39.703125 17 39.703125 22.796875 
z
" id="ArialMT-97"/>
    <path d="M 4.984375 -4.296875 
L 13.53125 -5.5625 
Q 14.0625 -9.515625 16.5 -11.328125 
Q 19.78125 -13.765625 25.4375 -13.765625 
Q 31.546875 -13.765625 34.859375 -11.328125 
Q 38.1875 -8.890625 39.359375 -4.5 
Q 40.046875 -1.8125 39.984375 6.78125 
Q 34.234375 0 25.640625 0 
Q 14.9375 0 9.078125 7.71875 
Q 3.21875 15.4375 3.21875 26.21875 
Q 3.21875 33.640625 5.90625 39.90625 
Q 8.59375 46.1875 13.6875 49.609375 
Q 18.796875 53.03125 25.6875 53.03125 
Q 34.859375 53.03125 40.828125 45.609375 
L 40.828125 51.859375 
L 48.921875 51.859375 
L 48.921875 7.03125 
Q 48.921875 -5.078125 46.453125 -10.125 
Q 44 -15.1875 38.640625 -18.109375 
Q 33.296875 -21.046875 25.484375 -21.046875 
Q 16.21875 -21.046875 10.5 -16.875 
Q 4.78125 -12.703125 4.984375 -4.296875 
z
M 12.25 26.859375 
Q 12.25 16.65625 16.296875 11.96875 
Q 20.359375 7.28125 26.46875 7.28125 
Q 32.515625 7.28125 36.609375 11.9375 
Q 40.71875 16.609375 40.71875 26.5625 
Q 40.71875 36.078125 36.5 40.90625 
Q 32.28125 45.75 26.3125 45.75 
Q 20.453125 45.75 16.34375 40.984375 
Q 12.25 36.234375 12.25 26.859375 
z
" id="ArialMT-103"/>
    <path d="M 14.703125 0 
L 6.546875 0 
L 6.546875 71.578125 
L 15.328125 71.578125 
L 15.328125 46.046875 
Q 20.90625 53.03125 29.546875 53.03125 
Q 34.328125 53.03125 38.59375 51.09375 
Q 42.875 49.171875 45.625 45.671875 
Q 48.390625 42.1875 49.953125 37.25 
Q 51.515625 32.328125 51.515625 26.703125 
Q 51.515625 13.375 44.921875 6.09375 
Q 38.328125 -1.171875 29.109375 -1.171875 
Q 19.921875 -1.171875 14.703125 6.5 
z
M 14.59375 26.3125 
Q 14.59375 17 17.140625 12.84375 
Q 21.296875 6.0625 28.375 6.0625 
Q 34.125 6.0625 38.328125 11.0625 
Q 42.53125 16.0625 42.53125 25.984375 
Q 42.53125 36.140625 38.5 40.96875 
Q 34.46875 45.796875 28.765625 45.796875 
Q 23 45.796875 18.796875 40.796875 
Q 14.59375 35.796875 14.59375 26.3125 
z
" id="ArialMT-98"/>
   </defs>
   <g style="fill:#262626;" transform="translate(236.338425 21.69)scale(0.2016 -0.2016)">
    <use xlink:href="#ArialMT-65"/>
    <use x="66.683594" xlink:href="#ArialMT-118"/>
    <use x="116.683594" xlink:href="#ArialMT-101"/>
    <use x="172.298828" xlink:href="#ArialMT-114"/>
    <use x="205.599609" xlink:href="#ArialMT-97"/>
    <use x="261.214844" xlink:href="#ArialMT-103"/>
    <use x="316.830078" xlink:href="#ArialMT-101"/>
    <use x="372.445312" xlink:href="#ArialMT-32"/>
    <use x="400.228516" xlink:href="#ArialMT-113"/>
    <use x="455.84375" xlink:href="#ArialMT-117"/>
    <use x="511.458984" xlink:href="#ArialMT-101"/>
    <use x="567.074219" xlink:href="#ArialMT-114"/>
    <use x="600.375" xlink:href="#ArialMT-121"/>
    <use x="650.375" xlink:href="#ArialMT-32"/>
    <use x="678.158203" xlink:href="#ArialMT-114"/>
    <use x="711.458984" xlink:href="#ArialMT-101"/>
    <use x="767.074219" xlink:href="#ArialMT-115"/>
    <use x="817.074219" xlink:href="#ArialMT-117"/>
    <use x="872.689453" xlink:href="#ArialMT-108"/>
    <use x="894.90625" xlink:href="#ArialMT-116"/>
    <use x="922.689453" xlink:href="#ArialMT-115"/>
    <use x="972.689453" xlink:href="#ArialMT-32"/>
    <use x="1000.472656" xlink:href="#ArialMT-105"/>
    <use x="1022.689453" xlink:href="#ArialMT-110"/>
    <use x="1078.304688" xlink:href="#ArialMT-32"/>
    <use x="1106.087891" xlink:href="#ArialMT-49"/>
    <use x="1161.703125" xlink:href="#ArialMT-53"/>
    <use x="1217.318359" xlink:href="#ArialMT-48"/>
    <use x="1272.933594" xlink:href="#ArialMT-109"/>
    <use x="1356.234375" xlink:href="#ArialMT-115"/>
    <use x="1406.234375" xlink:href="#ArialMT-32"/>
    <use x="1434.017578" xlink:href="#ArialMT-111"/>
    <use x="1489.632812" xlink:href="#ArialMT-118"/>
    <use x="1539.632812" xlink:href="#ArialMT-101"/>
    <use x="1595.248047" xlink:href="#ArialMT-114"/>
    <use x="1628.548828" xlink:href="#ArialMT-32"/>
    <use x="1656.332031" xlink:href="#ArialMT-115"/>
    <use x="1706.332031" xlink:href="#ArialMT-117"/>
    <use x="1761.947266" xlink:href="#ArialMT-98"/>
    <use x="1817.5625" xlink:href="#ArialMT-115"/>
    <use x="1867.5625" xlink:href="#ArialMT-101"/>
    <use x="1923.177734" xlink:href="#ArialMT-113"/>
    <use x="1978.792969" xlink:href="#ArialMT-117"/>
    <use x="2034.408203" xlink:href="#ArialMT-101"/>
    <use x="2090.023438" xlink:href="#ArialMT-110"/>
    <use x="2145.638672" xlink:href="#ArialMT-116"/>
    <use x="2173.421875" xlink:href="#ArialMT-32"/>
    <use x="2201.205078" xlink:href="#ArialMT-113"/>
    <use x="2256.820312" xlink:href="#ArialMT-117"/>
    <use x="2312.435547" xlink:href="#ArialMT-101"/>
    <use x="2368.050781" xlink:href="#ArialMT-114"/>
    <use x="2401.351562" xlink:href="#ArialMT-105"/>
    <use x="2423.568359" xlink:href="#ArialMT-101"/>
    <use x="2479.183594" xlink:href="#ArialMT-115"/>
    <use x="2529.183594" xlink:href="#ArialMT-32"/>
    <use x="2556.966797" xlink:href="#ArialMT-105"/>
    <use x="2579.183594" xlink:href="#ArialMT-110"/>
    <use x="2634.798828" xlink:href="#ArialMT-32"/>
    <use x="2662.582031" xlink:href="#ArialMT-97"/>
    <use x="2718.197266" xlink:href="#ArialMT-32"/>
    <use x="2745.980469" xlink:href="#ArialMT-115"/>
    <use x="2795.980469" xlink:href="#ArialMT-101"/>
    <use x="2851.595703" xlink:href="#ArialMT-114"/>
    <use x="2884.896484" xlink:href="#ArialMT-105"/>
    <use x="2907.113281" xlink:href="#ArialMT-101"/>
    <use x="2962.728516" xlink:href="#ArialMT-115"/>
   </g>
  </g>
 </g>
 <defs>
  <clipPath id="pcae84b5b02">
   <rect height="244.116" width="319.370084" x="65.304" y="54"/>
  </clipPath>
  <clipPath id="p0ceb61c195">
   <rect height="244.116" width="319.370084" x="403.536" y="54"/>
  </clipPath>
  <clipPath id="p24f9c58ffb">
   <rect height="244.116" width="319.370084" x="741.768" y="54"/>
  </clipPath>
 </defs>
</svg>
