<?xml version="1.0" encoding="utf-8" standalone="no"?>
<!DOCTYPE svg PUBLIC "-//W3C//DTD SVG 1.1//EN"
  "http://www.w3.org/Graphics/SVG/1.1/DTD/svg11.dtd">
<!-- Created with matplotlib (https://matplotlib.org/) -->
<svg height="360pt" version="1.1" viewBox="0 0 1080 360" width="1080pt" xmlns="http://www.w3.org/2000/svg" xmlns:xlink="http://www.w3.org/1999/xlink">
 <defs>
  <style type="text/css">
*{stroke-linecap:butt;stroke-linejoin:round;}
  </style>
 </defs>
 <g id="figure_1">
  <g id="patch_1">
   <path d="M 0 360 
L 1080 360 
L 1080 0 
L 0 0 
z
" style="fill:#ffffff;" opacity="0" />
  </g>
  <g id="axes_1">
   <g id="patch_2">
    <path d="M 65.304 298.116 
L 384.674084 298.116 
L 384.674084 54 
L 65.304 54 
z
" style="fill:#ffffff;"  opacity="0" />
   </g>
   <g id="matplotlib.axis_1">
    <g id="xtick_1">
     <g id="text_1">
      <!-- 0 -->
      <defs>
       <path d="M 4.15625 35.296875 
Q 4.15625 48 6.765625 55.734375 
Q 9.375 63.484375 14.515625 67.671875 
Q 19.671875 71.875 27.484375 71.875 
Q 33.25 71.875 37.59375 69.546875 
Q 41.9375 67.234375 44.765625 62.859375 
Q 47.609375 58.5 49.21875 52.21875 
Q 50.828125 45.953125 50.828125 35.296875 
Q 50.828125 22.703125 48.234375 14.96875 
Q 45.65625 7.234375 40.5 3 
Q 35.359375 -1.21875 27.484375 -1.21875 
Q 17.140625 -1.21875 11.234375 6.203125 
Q 4.15625 15.140625 4.15625 35.296875 
z
M 13.1875 35.296875 
Q 13.1875 17.671875 17.3125 11.828125 
Q 21.4375 6 27.484375 6 
Q 33.546875 6 37.671875 11.859375 
Q 41.796875 17.71875 41.796875 35.296875 
Q 41.796875 52.984375 37.671875 58.78125 
Q 33.546875 64.59375 27.390625 64.59375 
Q 21.34375 64.59375 17.71875 59.46875 
Q 13.1875 52.9375 13.1875 35.296875 
z
" id="ArialMT-48"/>
      </defs>
      <g style="fill:#262626;" transform="translate(61.022078 318.639031)scale(0.154 -0.154)">
       <use xlink:href="#ArialMT-48"/>
      </g>
     </g>
    </g>
    <g id="xtick_2">
     <g id="text_2">
      <!-- 25 -->
      <defs>
       <path d="M 50.34375 8.453125 
L 50.34375 0 
L 3.03125 0 
Q 2.9375 3.171875 4.046875 6.109375 
Q 5.859375 10.9375 9.828125 15.625 
Q 13.8125 20.3125 21.34375 26.46875 
Q 33.015625 36.03125 37.109375 41.625 
Q 41.21875 47.21875 41.21875 52.203125 
Q 41.21875 57.421875 37.46875 61 
Q 33.734375 64.59375 27.734375 64.59375 
Q 21.390625 64.59375 17.578125 60.78125 
Q 13.765625 56.984375 13.71875 50.25 
L 4.6875 51.171875 
Q 5.609375 61.28125 11.65625 66.578125 
Q 17.71875 71.875 27.9375 71.875 
Q 38.234375 71.875 44.234375 66.15625 
Q 50.25 60.453125 50.25 52 
Q 50.25 47.703125 48.484375 43.546875 
Q 46.734375 39.40625 42.65625 34.8125 
Q 38.578125 30.21875 29.109375 22.21875 
Q 21.1875 15.578125 18.9375 13.203125 
Q 16.703125 10.84375 15.234375 8.453125 
z
" id="ArialMT-50"/>
       <path d="M 4.15625 18.75 
L 13.375 19.53125 
Q 14.40625 12.796875 18.140625 9.390625 
Q 21.875 6 27.15625 6 
Q 33.5 6 37.890625 10.78125 
Q 42.28125 15.578125 42.28125 23.484375 
Q 42.28125 31 38.0625 35.34375 
Q 33.84375 39.703125 27 39.703125 
Q 22.75 39.703125 19.328125 37.765625 
Q 15.921875 35.84375 13.96875 32.765625 
L 5.71875 33.84375 
L 12.640625 70.609375 
L 48.25 70.609375 
L 48.25 62.203125 
L 19.671875 62.203125 
L 15.828125 42.96875 
Q 22.265625 47.46875 29.34375 47.46875 
Q 38.71875 47.46875 45.15625 40.96875 
Q 51.609375 34.46875 51.609375 24.265625 
Q 51.609375 14.546875 45.953125 7.46875 
Q 39.0625 -1.21875 27.15625 -1.21875 
Q 17.390625 -1.21875 11.203125 4.25 
Q 5.03125 9.71875 4.15625 18.75 
z
" id="ArialMT-53"/>
      </defs>
      <g style="fill:#262626;" transform="translate(109.968504 318.639031)scale(0.154 -0.154)">
       <use xlink:href="#ArialMT-50"/>
       <use x="55.615234" xlink:href="#ArialMT-53"/>
      </g>
     </g>
    </g>
    <g id="xtick_3">
     <g id="text_3">
      <!-- 50 -->
      <g style="fill:#262626;" transform="translate(163.196851 318.639031)scale(0.154 -0.154)">
       <use xlink:href="#ArialMT-53"/>
       <use x="55.615234" xlink:href="#ArialMT-48"/>
      </g>
     </g>
    </g>
    <g id="xtick_4">
     <g id="text_4">
      <!-- 75 -->
      <defs>
       <path d="M 4.734375 62.203125 
L 4.734375 70.65625 
L 51.078125 70.65625 
L 51.078125 63.8125 
Q 44.234375 56.546875 37.515625 44.484375 
Q 30.8125 32.421875 27.15625 19.671875 
Q 24.515625 10.6875 23.78125 0 
L 14.75 0 
Q 14.890625 8.453125 18.0625 20.40625 
Q 21.234375 32.375 27.171875 43.484375 
Q 33.109375 54.59375 39.796875 62.203125 
z
" id="ArialMT-55"/>
      </defs>
      <g style="fill:#262626;" transform="translate(216.425198 318.639031)scale(0.154 -0.154)">
       <use xlink:href="#ArialMT-55"/>
       <use x="55.615234" xlink:href="#ArialMT-53"/>
      </g>
     </g>
    </g>
    <g id="xtick_5">
     <g id="text_5">
      <!-- 100 -->
      <defs>
       <path d="M 37.25 0 
L 28.46875 0 
L 28.46875 56 
Q 25.296875 52.984375 20.140625 49.953125 
Q 14.984375 46.921875 10.890625 45.40625 
L 10.890625 53.90625 
Q 18.265625 57.375 23.78125 62.296875 
Q 29.296875 67.234375 31.59375 71.875 
L 37.25 71.875 
z
" id="ArialMT-49"/>
      </defs>
      <g style="fill:#262626;" transform="translate(265.371624 318.639031)scale(0.154 -0.154)">
       <use xlink:href="#ArialMT-49"/>
       <use x="55.615234" xlink:href="#ArialMT-48"/>
       <use x="111.230469" xlink:href="#ArialMT-48"/>
      </g>
     </g>
    </g>
    <g id="xtick_6">
     <g id="text_6">
      <!-- 125 -->
      <g style="fill:#262626;" transform="translate(318.599971 318.639031)scale(0.154 -0.154)">
       <use xlink:href="#ArialMT-49"/>
       <use x="55.615234" xlink:href="#ArialMT-50"/>
       <use x="111.230469" xlink:href="#ArialMT-53"/>
      </g>
     </g>
    </g>
    <g id="xtick_7">
     <g id="text_7">
      <!-- 150 -->
      <g style="fill:#262626;" transform="translate(371.828319 318.639031)scale(0.154 -0.154)">
       <use xlink:href="#ArialMT-49"/>
       <use x="55.615234" xlink:href="#ArialMT-53"/>
       <use x="111.230469" xlink:href="#ArialMT-48"/>
      </g>
     </g>
    </g>
    <g id="text_8">
     <!-- execution time (ms) -->
     <defs>
      <path d="M 42.09375 16.703125 
L 51.171875 15.578125 
Q 49.03125 7.625 43.21875 3.21875 
Q 37.40625 -1.171875 28.375 -1.171875 
Q 17 -1.171875 10.328125 5.828125 
Q 3.65625 12.84375 3.65625 25.484375 
Q 3.65625 38.578125 10.390625 45.796875 
Q 17.140625 53.03125 27.875 53.03125 
Q 38.28125 53.03125 44.875 45.953125 
Q 51.46875 38.875 51.46875 26.03125 
Q 51.46875 25.25 51.421875 23.6875 
L 12.75 23.6875 
Q 13.234375 15.140625 17.578125 10.59375 
Q 21.921875 6.0625 28.421875 6.0625 
Q 33.25 6.0625 36.671875 8.59375 
Q 40.09375 11.140625 42.09375 16.703125 
z
M 13.234375 30.90625 
L 42.1875 30.90625 
Q 41.609375 37.453125 38.875 40.71875 
Q 34.671875 45.796875 27.984375 45.796875 
Q 21.921875 45.796875 17.796875 41.75 
Q 13.671875 37.703125 13.234375 30.90625 
z
" id="ArialMT-101"/>
      <path d="M 0.734375 0 
L 19.671875 26.953125 
L 2.15625 51.859375 
L 13.140625 51.859375 
L 21.09375 39.703125 
Q 23.34375 36.234375 24.703125 33.890625 
Q 26.859375 37.109375 28.65625 39.59375 
L 37.40625 51.859375 
L 47.90625 51.859375 
L 29.984375 27.4375 
L 49.265625 0 
L 38.484375 0 
L 27.828125 16.109375 
L 25 20.453125 
L 11.375 0 
z
" id="ArialMT-120"/>
      <path d="M 40.4375 19 
L 49.078125 17.875 
Q 47.65625 8.9375 41.8125 3.875 
Q 35.984375 -1.171875 27.484375 -1.171875 
Q 16.84375 -1.171875 10.375 5.78125 
Q 3.90625 12.75 3.90625 25.734375 
Q 3.90625 34.125 6.6875 40.421875 
Q 9.46875 46.734375 15.15625 49.875 
Q 20.84375 53.03125 27.546875 53.03125 
Q 35.984375 53.03125 41.359375 48.75 
Q 46.734375 44.484375 48.25 36.625 
L 39.703125 35.296875 
Q 38.484375 40.53125 35.375 43.15625 
Q 32.28125 45.796875 27.875 45.796875 
Q 21.234375 45.796875 17.078125 41.03125 
Q 12.9375 36.28125 12.9375 25.984375 
Q 12.9375 15.53125 16.9375 10.796875 
Q 20.953125 6.0625 27.390625 6.0625 
Q 32.5625 6.0625 36.03125 9.234375 
Q 39.5 12.40625 40.4375 19 
z
" id="ArialMT-99"/>
      <path d="M 40.578125 0 
L 40.578125 7.625 
Q 34.515625 -1.171875 24.125 -1.171875 
Q 19.53125 -1.171875 15.546875 0.578125 
Q 11.578125 2.34375 9.640625 5 
Q 7.71875 7.671875 6.9375 11.53125 
Q 6.390625 14.109375 6.390625 19.734375 
L 6.390625 51.859375 
L 15.1875 51.859375 
L 15.1875 23.09375 
Q 15.1875 16.21875 15.71875 13.8125 
Q 16.546875 10.359375 19.234375 8.375 
Q 21.921875 6.390625 25.875 6.390625 
Q 29.828125 6.390625 33.296875 8.421875 
Q 36.765625 10.453125 38.203125 13.9375 
Q 39.65625 17.4375 39.65625 24.078125 
L 39.65625 51.859375 
L 48.4375 51.859375 
L 48.4375 0 
z
" id="ArialMT-117"/>
      <path d="M 25.78125 7.859375 
L 27.046875 0.09375 
Q 23.34375 -0.6875 20.40625 -0.6875 
Q 15.625 -0.6875 12.984375 0.828125 
Q 10.359375 2.34375 9.28125 4.8125 
Q 8.203125 7.28125 8.203125 15.1875 
L 8.203125 45.015625 
L 1.765625 45.015625 
L 1.765625 51.859375 
L 8.203125 51.859375 
L 8.203125 64.703125 
L 16.9375 69.96875 
L 16.9375 51.859375 
L 25.78125 51.859375 
L 25.78125 45.015625 
L 16.9375 45.015625 
L 16.9375 14.703125 
Q 16.9375 10.9375 17.40625 9.859375 
Q 17.875 8.796875 18.921875 8.15625 
Q 19.96875 7.515625 21.921875 7.515625 
Q 23.390625 7.515625 25.78125 7.859375 
z
" id="ArialMT-116"/>
      <path d="M 6.640625 61.46875 
L 6.640625 71.578125 
L 15.4375 71.578125 
L 15.4375 61.46875 
z
M 6.640625 0 
L 6.640625 51.859375 
L 15.4375 51.859375 
L 15.4375 0 
z
" id="ArialMT-105"/>
      <path d="M 3.328125 25.921875 
Q 3.328125 40.328125 11.328125 47.265625 
Q 18.015625 53.03125 27.640625 53.03125 
Q 38.328125 53.03125 45.109375 46.015625 
Q 51.90625 39.015625 51.90625 26.65625 
Q 51.90625 16.65625 48.90625 10.90625 
Q 45.90625 5.171875 40.15625 2 
Q 34.421875 -1.171875 27.640625 -1.171875 
Q 16.75 -1.171875 10.03125 5.8125 
Q 3.328125 12.796875 3.328125 25.921875 
z
M 12.359375 25.921875 
Q 12.359375 15.96875 16.703125 11.015625 
Q 21.046875 6.0625 27.640625 6.0625 
Q 34.1875 6.0625 38.53125 11.03125 
Q 42.875 16.015625 42.875 26.21875 
Q 42.875 35.84375 38.5 40.796875 
Q 34.125 45.75 27.640625 45.75 
Q 21.046875 45.75 16.703125 40.8125 
Q 12.359375 35.890625 12.359375 25.921875 
z
" id="ArialMT-111"/>
      <path d="M 6.59375 0 
L 6.59375 51.859375 
L 14.5 51.859375 
L 14.5 44.484375 
Q 20.21875 53.03125 31 53.03125 
Q 35.6875 53.03125 39.625 51.34375 
Q 43.5625 49.65625 45.515625 46.921875 
Q 47.46875 44.1875 48.25 40.4375 
Q 48.734375 37.984375 48.734375 31.890625 
L 48.734375 0 
L 39.9375 0 
L 39.9375 31.546875 
Q 39.9375 36.921875 38.90625 39.578125 
Q 37.890625 42.234375 35.28125 43.8125 
Q 32.671875 45.40625 29.15625 45.40625 
Q 23.53125 45.40625 19.453125 41.84375 
Q 15.375 38.28125 15.375 28.328125 
L 15.375 0 
z
" id="ArialMT-110"/>
      <path id="ArialMT-32"/>
      <path d="M 6.59375 0 
L 6.59375 51.859375 
L 14.453125 51.859375 
L 14.453125 44.578125 
Q 16.890625 48.390625 20.9375 50.703125 
Q 25 53.03125 30.171875 53.03125 
Q 35.9375 53.03125 39.625 50.640625 
Q 43.3125 48.25 44.828125 43.953125 
Q 50.984375 53.03125 60.84375 53.03125 
Q 68.5625 53.03125 72.703125 48.75 
Q 76.859375 44.484375 76.859375 35.59375 
L 76.859375 0 
L 68.109375 0 
L 68.109375 32.671875 
Q 68.109375 37.9375 67.25 40.25 
Q 66.40625 42.578125 64.15625 43.984375 
Q 61.921875 45.40625 58.890625 45.40625 
Q 53.421875 45.40625 49.796875 41.765625 
Q 46.1875 38.140625 46.1875 30.125 
L 46.1875 0 
L 37.40625 0 
L 37.40625 33.6875 
Q 37.40625 39.546875 35.25 42.46875 
Q 33.109375 45.40625 28.21875 45.40625 
Q 24.515625 45.40625 21.359375 43.453125 
Q 18.21875 41.5 16.796875 37.734375 
Q 15.375 33.984375 15.375 26.90625 
L 15.375 0 
z
" id="ArialMT-109"/>
      <path d="M 23.390625 -21.046875 
Q 16.109375 -11.859375 11.078125 0.4375 
Q 6.0625 12.75 6.0625 25.921875 
Q 6.0625 37.546875 9.8125 48.1875 
Q 14.203125 60.546875 23.390625 72.796875 
L 29.6875 72.796875 
Q 23.78125 62.640625 21.875 58.296875 
Q 18.890625 51.5625 17.1875 44.234375 
Q 15.09375 35.109375 15.09375 25.875 
Q 15.09375 2.390625 29.6875 -21.046875 
z
" id="ArialMT-40"/>
      <path d="M 3.078125 15.484375 
L 11.765625 16.84375 
Q 12.5 11.625 15.84375 8.84375 
Q 19.1875 6.0625 25.203125 6.0625 
Q 31.25 6.0625 34.171875 8.515625 
Q 37.109375 10.984375 37.109375 14.3125 
Q 37.109375 17.28125 34.515625 19 
Q 32.71875 20.171875 25.53125 21.96875 
Q 15.875 24.421875 12.140625 26.203125 
Q 8.40625 27.984375 6.46875 31.125 
Q 4.546875 34.28125 4.546875 38.09375 
Q 4.546875 41.546875 6.125 44.5 
Q 7.71875 47.46875 10.453125 49.421875 
Q 12.5 50.921875 16.03125 51.96875 
Q 19.578125 53.03125 23.640625 53.03125 
Q 29.734375 53.03125 34.34375 51.265625 
Q 38.96875 49.515625 41.15625 46.5 
Q 43.359375 43.5 44.1875 38.484375 
L 35.59375 37.3125 
Q 35.015625 41.3125 32.203125 43.546875 
Q 29.390625 45.796875 24.265625 45.796875 
Q 18.21875 45.796875 15.625 43.796875 
Q 13.03125 41.796875 13.03125 39.109375 
Q 13.03125 37.40625 14.109375 36.03125 
Q 15.1875 34.625 17.484375 33.6875 
Q 18.796875 33.203125 25.25 31.453125 
Q 34.578125 28.953125 38.25 27.359375 
Q 41.9375 25.78125 44.03125 22.75 
Q 46.140625 19.734375 46.140625 15.234375 
Q 46.140625 10.84375 43.578125 6.953125 
Q 41.015625 3.078125 36.171875 0.953125 
Q 31.34375 -1.171875 25.25 -1.171875 
Q 15.140625 -1.171875 9.84375 3.03125 
Q 4.546875 7.234375 3.078125 15.484375 
z
" id="ArialMT-115"/>
      <path d="M 12.359375 -21.046875 
L 6.0625 -21.046875 
Q 20.65625 2.390625 20.65625 25.875 
Q 20.65625 35.0625 18.5625 44.09375 
Q 16.890625 51.421875 13.921875 58.15625 
Q 12.015625 62.546875 6.0625 72.796875 
L 12.359375 72.796875 
Q 21.53125 60.546875 25.921875 48.1875 
Q 29.6875 37.546875 29.6875 25.921875 
Q 29.6875 12.75 24.625 0.4375 
Q 19.578125 -11.859375 12.359375 -21.046875 
z
" id="ArialMT-41"/>
     </defs>
     <g style="fill:#262626;" transform="translate(151.706917 337.929656)scale(0.168 -0.168)">
      <use xlink:href="#ArialMT-101"/>
      <use x="55.615234" xlink:href="#ArialMT-120"/>
      <use x="105.615234" xlink:href="#ArialMT-101"/>
      <use x="161.230469" xlink:href="#ArialMT-99"/>
      <use x="211.230469" xlink:href="#ArialMT-117"/>
      <use x="266.845703" xlink:href="#ArialMT-116"/>
      <use x="294.628906" xlink:href="#ArialMT-105"/>
      <use x="316.845703" xlink:href="#ArialMT-111"/>
      <use x="372.460938" xlink:href="#ArialMT-110"/>
      <use x="428.076172" xlink:href="#ArialMT-32"/>
      <use x="455.859375" xlink:href="#ArialMT-116"/>
      <use x="483.642578" xlink:href="#ArialMT-105"/>
      <use x="505.859375" xlink:href="#ArialMT-109"/>
      <use x="589.160156" xlink:href="#ArialMT-101"/>
      <use x="644.775391" xlink:href="#ArialMT-32"/>
      <use x="672.558594" xlink:href="#ArialMT-40"/>
      <use x="705.859375" xlink:href="#ArialMT-109"/>
      <use x="789.160156" xlink:href="#ArialMT-115"/>
      <use x="839.160156" xlink:href="#ArialMT-41"/>
     </g>
    </g>
   </g>
   <g id="matplotlib.axis_2">
    <g id="ytick_1">
     <g id="line2d_1">
      <path clip-path="url(#p74079d7b25)" d="M 65.304 298.116 
L 384.674084 298.116 
" style="fill:none;stroke:#cccccc;stroke-linecap:round;"/>
     </g>
     <g id="text_9">
      <!-- 0 -->
      <g style="fill:#262626;" transform="translate(47.240156 303.627516)scale(0.154 -0.154)">
       <use xlink:href="#ArialMT-48"/>
      </g>
     </g>
    </g>
    <g id="ytick_2">
     <g id="line2d_2">
      <path clip-path="url(#p74079d7b25)" d="M 65.304 249.2928 
L 384.674084 249.2928 
" style="fill:none;stroke:#cccccc;stroke-linecap:round;"/>
     </g>
     <g id="text_10">
      <!-- 5 -->
      <g style="fill:#262626;" transform="translate(47.240156 254.804316)scale(0.154 -0.154)">
       <use xlink:href="#ArialMT-53"/>
      </g>
     </g>
    </g>
    <g id="ytick_3">
     <g id="line2d_3">
      <path clip-path="url(#p74079d7b25)" d="M 65.304 200.4696 
L 384.674084 200.4696 
" style="fill:none;stroke:#cccccc;stroke-linecap:round;"/>
     </g>
     <g id="text_11">
      <!-- 10 -->
      <g style="fill:#262626;" transform="translate(38.676312 205.981116)scale(0.154 -0.154)">
       <use xlink:href="#ArialMT-49"/>
       <use x="55.615234" xlink:href="#ArialMT-48"/>
      </g>
     </g>
    </g>
    <g id="ytick_4">
     <g id="line2d_4">
      <path clip-path="url(#p74079d7b25)" d="M 65.304 151.6464 
L 384.674084 151.6464 
" style="fill:none;stroke:#cccccc;stroke-linecap:round;"/>
     </g>
     <g id="text_12">
      <!-- 15 -->
      <g style="fill:#262626;" transform="translate(38.676312 157.157916)scale(0.154 -0.154)">
       <use xlink:href="#ArialMT-49"/>
       <use x="55.615234" xlink:href="#ArialMT-53"/>
      </g>
     </g>
    </g>
    <g id="ytick_5">
     <g id="line2d_5">
      <path clip-path="url(#p74079d7b25)" d="M 65.304 102.8232 
L 384.674084 102.8232 
" style="fill:none;stroke:#cccccc;stroke-linecap:round;"/>
     </g>
     <g id="text_13">
      <!-- 20 -->
      <g style="fill:#262626;" transform="translate(38.676312 108.334716)scale(0.154 -0.154)">
       <use xlink:href="#ArialMT-50"/>
       <use x="55.615234" xlink:href="#ArialMT-48"/>
      </g>
     </g>
    </g>
    <g id="ytick_6">
     <g id="line2d_6">
      <path clip-path="url(#p74079d7b25)" d="M 65.304 54 
L 384.674084 54 
" style="fill:none;stroke:#cccccc;stroke-linecap:round;"/>
     </g>
     <g id="text_14">
      <!-- 25 -->
      <g style="fill:#262626;" transform="translate(38.676312 59.511516)scale(0.154 -0.154)">
       <use xlink:href="#ArialMT-50"/>
       <use x="55.615234" xlink:href="#ArialMT-53"/>
      </g>
     </g>
    </g>
    <g id="text_15">
     <!-- results retrieved -->
     <defs>
      <path d="M 6.5 0 
L 6.5 51.859375 
L 14.40625 51.859375 
L 14.40625 44 
Q 17.4375 49.515625 20 51.265625 
Q 22.5625 53.03125 25.640625 53.03125 
Q 30.078125 53.03125 34.671875 50.203125 
L 31.640625 42.046875 
Q 28.421875 43.953125 25.203125 43.953125 
Q 22.3125 43.953125 20.015625 42.21875 
Q 17.71875 40.484375 16.75 37.40625 
Q 15.28125 32.71875 15.28125 27.15625 
L 15.28125 0 
z
" id="ArialMT-114"/>
      <path d="M 6.390625 0 
L 6.390625 71.578125 
L 15.1875 71.578125 
L 15.1875 0 
z
" id="ArialMT-108"/>
      <path d="M 21 0 
L 1.265625 51.859375 
L 10.546875 51.859375 
L 21.6875 20.796875 
Q 23.484375 15.765625 25 10.359375 
Q 26.171875 14.453125 28.265625 20.21875 
L 39.796875 51.859375 
L 48.828125 51.859375 
L 29.203125 0 
z
" id="ArialMT-118"/>
      <path d="M 40.234375 0 
L 40.234375 6.546875 
Q 35.296875 -1.171875 25.734375 -1.171875 
Q 19.53125 -1.171875 14.328125 2.25 
Q 9.125 5.671875 6.265625 11.796875 
Q 3.421875 17.921875 3.421875 25.875 
Q 3.421875 33.640625 6 39.96875 
Q 8.59375 46.296875 13.765625 49.65625 
Q 18.953125 53.03125 25.34375 53.03125 
Q 30.03125 53.03125 33.6875 51.046875 
Q 37.359375 49.078125 39.65625 45.90625 
L 39.65625 71.578125 
L 48.390625 71.578125 
L 48.390625 0 
z
M 12.453125 25.875 
Q 12.453125 15.921875 16.640625 10.984375 
Q 20.84375 6.0625 26.5625 6.0625 
Q 32.328125 6.0625 36.34375 10.765625 
Q 40.375 15.484375 40.375 25.140625 
Q 40.375 35.796875 36.265625 40.765625 
Q 32.171875 45.75 26.171875 45.75 
Q 20.3125 45.75 16.375 40.96875 
Q 12.453125 36.1875 12.453125 25.875 
z
" id="ArialMT-100"/>
     </defs>
     <g style="fill:#262626;" transform="translate(31.337312 235.809562)rotate(-90)scale(0.168 -0.168)">
      <use xlink:href="#ArialMT-114"/>
      <use x="33.300781" xlink:href="#ArialMT-101"/>
      <use x="88.916016" xlink:href="#ArialMT-115"/>
      <use x="138.916016" xlink:href="#ArialMT-117"/>
      <use x="194.53125" xlink:href="#ArialMT-108"/>
      <use x="216.748047" xlink:href="#ArialMT-116"/>
      <use x="244.53125" xlink:href="#ArialMT-115"/>
      <use x="294.53125" xlink:href="#ArialMT-32"/>
      <use x="322.314453" xlink:href="#ArialMT-114"/>
      <use x="355.615234" xlink:href="#ArialMT-101"/>
      <use x="411.230469" xlink:href="#ArialMT-116"/>
      <use x="439.013672" xlink:href="#ArialMT-114"/>
      <use x="472.314453" xlink:href="#ArialMT-105"/>
      <use x="494.53125" xlink:href="#ArialMT-101"/>
      <use x="550.146484" xlink:href="#ArialMT-118"/>
      <use x="600.146484" xlink:href="#ArialMT-101"/>
      <use x="655.761719" xlink:href="#ArialMT-100"/>
     </g>
    </g>
   </g>
   <g id="line2d_7">
    <path clip-path="url(#p74079d7b25)" d="M 65.304 297.905914 
L 67.433134 296.430932 
L 69.562268 292.386769 
L 71.691402 287.633565 
L 75.949669 263.267921 
L 78.078803 258.365906 
L 80.207937 254.492438 
L 84.466205 248.999554 
L 86.595339 246.255301 
L 88.724473 244.106292 
L 90.853607 242.740731 
L 97.241008 240.972504 
L 101.499276 239.987724 
L 103.62841 239.620073 
L 105.757544 239.466885 
L 107.886678 239.18677 
L 118.532347 238.595902 
L 122.790615 238.486482 
L 124.919749 238.372685 
L 127.048883 238.031295 
L 129.178017 237.571731 
L 131.307151 237.234717 
L 135.565419 235.532142 
L 137.694552 235.094462 
L 139.823686 234.398551 
L 150.469356 229.942969 
L 152.59849 229.308333 
L 156.856757 227.597004 
L 158.985891 226.866079 
L 161.115025 226.275211 
L 167.502427 225.430488 
L 169.631561 225.307938 
L 171.760695 224.944664 
L 176.018963 224.712693 
L 184.535498 224.524491 
L 188.793766 224.327535 
L 193.052034 223.907362 
L 199.439435 222.563685 
L 201.568569 222.095367 
L 210.085105 219.267954 
L 218.60164 215.775268 
L 220.730774 214.781735 
L 224.989042 213.521217 
L 227.118176 212.663364 
L 231.376444 211.297802 
L 244.151247 208.037087 
L 248.409515 207.314915 
L 252.667783 207.06106 
L 254.796917 206.592743 
L 259.055184 206.330135 
L 263.313452 205.642977 
L 265.442586 205.052109 
L 267.57172 204.758864 
L 269.700854 203.896634 
L 271.829988 203.441447 
L 273.959122 202.679884 
L 276.088256 202.058378 
L 278.217389 201.318699 
L 280.346523 200.850382 
L 284.604791 199.274734 
L 288.863059 196.963783 
L 290.992193 196.442944 
L 293.121327 195.033615 
L 297.379595 193.160345 
L 301.637862 191.707247 
L 303.766996 190.862525 
L 308.025264 188.901719 
L 310.154398 187.938823 
L 312.283532 187.155375 
L 314.412666 186.048045 
L 316.5418 185.724162 
L 322.929201 183.185618 
L 325.058335 182.568489 
L 327.187469 181.806926 
L 329.316603 181.456782 
L 331.445737 180.520147 
L 339.962272 179.115195 
L 342.091406 178.668761 
L 350.607942 176.445347 
L 354.86621 175.263611 
L 361.253611 172.620024 
L 363.382745 172.03791 
L 365.511879 171.648374 
L 367.641013 170.84742 
L 369.770147 170.256552 
L 371.899281 169.442467 
L 374.028415 169.066063 
L 378.286683 167.464154 
L 380.415816 167.030851 
L 382.54495 165.730941 
L 382.54495 165.730941 
" style="fill:none;stroke:#e41a1c;stroke-linecap:round;stroke-width:2.5;"/>
   </g>
   <g id="line2d_8">
    <path clip-path="url(#p74079d7b25)" d="M 65.304 298.00658 
L 67.433134 296.654149 
L 69.562268 292.824449 
L 71.691402 290.903034 
L 73.820536 287.419102 
L 75.949669 278.402894 
L 80.207937 256.488259 
L 82.337071 253.078732 
L 84.466205 251.249229 
L 88.724473 249.572915 
L 90.853607 249.038946 
L 92.982741 247.848456 
L 95.111875 245.760723 
L 97.241008 242.784499 
L 99.370142 240.092767 
L 101.499276 238.731582 
L 103.62841 238.302656 
L 107.886678 237.007123 
L 110.015812 236.604458 
L 112.144946 236.368111 
L 120.661481 236.280575 
L 124.919749 236.109879 
L 127.048883 235.90417 
L 129.178017 235.56278 
L 131.307151 235.081332 
L 133.436285 234.254116 
L 135.565419 233.70264 
L 137.694552 232.604063 
L 139.823686 231.982557 
L 141.95282 230.805198 
L 144.081954 229.907954 
L 148.340222 227.653903 
L 150.469356 226.065124 
L 158.985891 221.320673 
L 161.115025 220.528473 
L 163.244159 219.469287 
L 165.373293 218.716478 
L 167.502427 217.521611 
L 169.631561 217.259003 
L 171.760695 216.781932 
L 176.018963 216.25234 
L 178.148096 216.081644 
L 180.27723 215.578312 
L 184.535498 214.886778 
L 195.181168 213.713796 
L 197.310301 213.153565 
L 203.697703 212.090003 
L 210.085105 210.216733 
L 212.214239 209.12691 
L 214.343373 208.229666 
L 216.472507 206.999785 
L 218.60164 205.62547 
L 227.118176 199.169691 
L 229.24731 197.95294 
L 231.376444 196.20222 
L 233.505578 195.055499 
L 235.634712 194.061965 
L 237.763845 192.643882 
L 242.022113 190.551772 
L 244.151247 189.777078 
L 246.280381 188.739777 
L 248.409515 187.934446 
L 250.538649 187.382969 
L 252.667783 186.682681 
L 254.796917 186.271262 
L 256.926051 185.654133 
L 261.184318 185.242714 
L 263.313452 184.717498 
L 265.442586 184.616832 
L 267.57172 184.262311 
L 271.829988 182.870489 
L 273.959122 182.502837 
L 278.217389 181.605594 
L 280.346523 181.307971 
L 282.475657 180.887798 
L 284.604791 180.126235 
L 286.733925 179.062673 
L 290.992193 177.968473 
L 293.121327 177.128128 
L 297.379595 175.79758 
L 299.508728 174.930974 
L 301.637862 174.191295 
L 305.89613 171.784055 
L 312.283532 168.234471 
L 314.412666 167.310966 
L 320.800067 165.179464 
L 325.058335 163.082977 
L 327.187469 162.680312 
L 329.316603 162.159473 
L 331.445737 161.187823 
L 335.704005 159.704088 
L 337.833139 159.393335 
L 339.962272 159.205133 
L 342.091406 158.763076 
L 346.349674 158.250991 
L 348.478808 157.734528 
L 354.86621 156.544039 
L 359.124477 155.764968 
L 361.253611 155.125956 
L 365.511879 154.513204 
L 367.641013 154.346885 
L 369.770147 153.979234 
L 371.899281 153.817293 
L 374.028415 153.344598 
L 376.157549 153.121381 
L 378.286683 152.635557 
L 380.415816 152.368572 
L 382.54495 151.843356 
L 382.54495 151.843356 
" style="fill:none;stroke:#377eb8;stroke-linecap:round;stroke-width:2.5;"/>
   </g>
   <g id="line2d_9">
    <path clip-path="url(#p74079d7b25)" d="M 65.304 297.770233 
L 71.691402 297.770233 
L 73.820536 292.53558 
L 75.949669 292.189813 
L 78.078803 291.323207 
L 80.207937 285.051253 
L 82.337071 279.348283 
L 84.466205 271.067378 
L 86.595339 265.32064 
L 88.724473 258.370282 
L 90.853607 255.065799 
L 92.982741 253.35447 
L 95.111875 252.737341 
L 97.241008 252.417835 
L 103.62841 250.999752 
L 105.757544 250.268826 
L 107.886678 248.96454 
L 110.015812 246.706111 
L 112.144946 243.913713 
L 114.27408 240.241578 
L 116.403213 237.282862 
L 118.532347 235.396461 
L 120.661481 233.737654 
L 122.790615 232.787889 
L 124.919749 232.113861 
L 137.694552 230.897111 
L 141.95282 230.490069 
L 146.211088 229.137638 
L 148.340222 227.68454 
L 150.469356 226.704137 
L 152.59849 225.202895 
L 154.727624 222.445511 
L 158.985891 219.097259 
L 161.115025 217.237119 
L 165.373293 213.757564 
L 167.502427 212.330727 
L 169.631561 210.733195 
L 171.760695 209.376387 
L 173.889829 208.623578 
L 176.018963 207.673812 
L 178.148096 206.360772 
L 180.27723 205.577325 
L 182.406364 204.172372 
L 186.664632 201.791393 
L 188.793766 200.898526 
L 190.9229 200.325166 
L 193.052034 198.972735 
L 195.181168 198.473779 
L 197.310301 197.808506 
L 199.439435 196.775581 
L 201.568569 196.416684 
L 203.697703 195.501932 
L 205.826837 194.845412 
L 207.955971 194.320197 
L 210.085105 193.935038 
L 212.214239 193.33104 
L 214.343373 193.138461 
L 218.60164 192.245593 
L 220.730774 191.383364 
L 222.859908 190.91067 
L 224.989042 190.297918 
L 227.118176 189.51447 
L 229.24731 188.323981 
L 231.376444 187.400476 
L 233.505578 186.704565 
L 237.763845 185.54909 
L 239.892979 184.861932 
L 242.022113 184.594948 
L 244.151247 184.065355 
L 246.280381 183.049937 
L 248.409515 182.319012 
L 250.538649 181.413014 
L 252.667783 180.725857 
L 254.796917 180.371336 
L 256.926051 179.714816 
L 259.055184 178.830703 
L 263.313452 177.880937 
L 265.442586 177.224417 
L 269.700854 176.419086 
L 273.959122 174.734018 
L 278.217389 173.027066 
L 280.346523 172.029156 
L 284.604791 171.320114 
L 286.733925 170.265306 
L 290.992193 169.009164 
L 293.121327 168.020007 
L 297.379595 166.88204 
L 303.766996 164.352249 
L 308.025264 162.413327 
L 310.154398 161.305997 
L 312.283532 160.575071 
L 314.412666 159.581538 
L 318.670933 158.259744 
L 322.929201 156.333952 
L 327.187469 155.511114 
L 331.445737 154.591986 
L 337.833139 152.604919 
L 339.962272 151.913385 
L 342.091406 151.589502 
L 346.349674 150.477794 
L 348.478808 150.232694 
L 350.607942 149.641826 
L 352.737076 149.282928 
L 356.995344 148.311279 
L 361.253611 147.702904 
L 365.511879 146.875688 
L 369.770147 146.385487 
L 371.899281 146.144763 
L 374.028415 145.781488 
L 376.157549 145.623924 
L 378.286683 145.317548 
L 380.415816 145.243142 
L 382.54495 144.984911 
L 382.54495 144.984911 
" style="fill:none;stroke:#4daf4a;stroke-linecap:round;stroke-width:2.5;"/>
   </g>
   <g id="line2d_10">
    <path clip-path="url(#p74079d7b25)" d="M 65.304 298.116 
L 71.691402 298.010957 
L 73.820536 295.468036 
L 75.949669 295.008472 
L 78.078803 294.807139 
L 80.207937 294.378213 
L 82.337071 293.231492 
L 84.466205 291.629583 
L 86.595339 285.480179 
L 90.853607 271.246827 
L 92.982741 267.294577 
L 95.111875 261.849838 
L 97.241008 258.689789 
L 99.370142 253.310702 
L 103.62841 244.386408 
L 105.757544 241.856617 
L 107.886678 238.342047 
L 110.015812 236.985239 
L 112.144946 235.448983 
L 114.27408 234.424812 
L 116.403213 234.048407 
L 122.790615 232.030702 
L 124.919749 231.62366 
L 131.307151 231.326037 
L 133.436285 230.901488 
L 146.211088 229.21642 
L 148.340222 228.800624 
L 152.59849 228.135351 
L 154.727624 227.378164 
L 156.856757 226.078255 
L 161.115025 222.95322 
L 163.244159 221.950933 
L 165.373293 220.055778 
L 167.502427 217.188975 
L 169.631561 213.836346 
L 171.760695 210.693804 
L 176.018963 205.476659 
L 178.148096 203.332027 
L 180.27723 200.504614 
L 182.406364 198.556939 
L 186.664632 194.337704 
L 188.793766 193.239127 
L 190.9229 192.271854 
L 193.052034 190.573656 
L 195.181168 189.300007 
L 199.439435 187.741867 
L 201.568569 187.404853 
L 203.697703 186.923405 
L 205.826837 186.157465 
L 210.085105 185.461554 
L 216.472507 185.194569 
L 218.60164 184.752512 
L 222.859908 184.205413 
L 224.989042 183.627675 
L 231.376444 182.397794 
L 235.634712 180.620814 
L 242.022113 176.668564 
L 244.151247 174.917844 
L 246.280381 172.803849 
L 248.409515 171.525824 
L 250.538649 169.477482 
L 252.667783 166.952068 
L 256.926051 163.49002 
L 259.055184 161.511706 
L 261.184318 160.579448 
L 265.442586 157.843948 
L 267.57172 156.89856 
L 269.700854 155.537375 
L 271.829988 154.434421 
L 273.959122 153.563438 
L 276.088256 152.924425 
L 280.346523 151.278749 
L 284.604791 150.097013 
L 290.992193 149.278551 
L 293.121327 148.994059 
L 295.250461 148.902147 
L 297.379595 148.587017 
L 299.508728 148.14496 
L 305.89613 147.457803 
L 308.025264 146.910703 
L 310.154398 146.704993 
L 314.412666 146.608704 
L 318.670933 146.311081 
L 320.800067 146.25856 
L 325.058335 145.707083 
L 335.704005 143.628103 
L 337.833139 143.186046 
L 339.962272 142.958453 
L 342.091406 142.590802 
L 344.22054 142.039325 
L 352.737076 141.290892 
L 354.86621 140.581851 
L 356.995344 140.205446 
L 361.253611 139.955968 
L 371.899281 139.006203 
L 374.028415 139.006203 
L 376.157549 138.879275 
L 378.286683 138.879275 
L 382.54495 138.739218 
L 382.54495 138.739218 
" style="fill:none;stroke:#984ea3;stroke-linecap:round;stroke-width:2.5;"/>
   </g>
   <g id="patch_3">
    <path d="M 65.304 298.116 
L 65.304 54 
" style="fill:none;stroke:#cccccc;stroke-linecap:square;stroke-linejoin:miter;stroke-width:1.25;"/>
   </g>
   <g id="patch_4">
    <path d="M 65.304 298.116 
L 384.674084 298.116 
" style="fill:none;stroke:#cccccc;stroke-linecap:square;stroke-linejoin:miter;stroke-width:1.25;"/>
   </g>
   <g id="text_16">
    <!-- query 1 -->
    <defs>
     <path d="M 39.65625 -19.875 
L 39.65625 5.515625 
Q 37.59375 2.640625 33.90625 0.734375 
Q 30.21875 -1.171875 26.078125 -1.171875 
Q 16.84375 -1.171875 10.171875 6.203125 
Q 3.515625 13.578125 3.515625 26.421875 
Q 3.515625 34.234375 6.21875 40.421875 
Q 8.9375 46.625 14.078125 49.828125 
Q 19.234375 53.03125 25.390625 53.03125 
Q 35.015625 53.03125 40.53125 44.921875 
L 40.53125 51.859375 
L 48.4375 51.859375 
L 48.4375 -19.875 
z
M 12.546875 26.078125 
Q 12.546875 16.0625 16.75 11.0625 
Q 20.953125 6.0625 26.8125 6.0625 
Q 32.421875 6.0625 36.46875 10.8125 
Q 40.53125 15.578125 40.53125 25.296875 
Q 40.53125 35.640625 36.25 40.859375 
Q 31.984375 46.09375 26.21875 46.09375 
Q 20.515625 46.09375 16.53125 41.234375 
Q 12.546875 36.375 12.546875 26.078125 
z
" id="ArialMT-113"/>
     <path d="M 6.203125 -19.96875 
L 5.21875 -11.71875 
Q 8.109375 -12.5 10.25 -12.5 
Q 13.1875 -12.5 14.9375 -11.515625 
Q 16.703125 -10.546875 17.828125 -8.796875 
Q 18.65625 -7.46875 20.515625 -2.25 
Q 20.75 -1.515625 21.296875 -0.09375 
L 1.609375 51.859375 
L 11.078125 51.859375 
L 21.875 21.828125 
Q 23.96875 16.109375 25.640625 9.8125 
Q 27.15625 15.875 29.25 21.625 
L 40.328125 51.859375 
L 49.125 51.859375 
L 29.390625 -0.875 
Q 26.21875 -9.421875 24.46875 -12.640625 
Q 22.125 -17 19.09375 -19.015625 
Q 16.0625 -21.046875 11.859375 -21.046875 
Q 9.328125 -21.046875 6.203125 -19.96875 
z
" id="ArialMT-121"/>
    </defs>
    <g style="fill:#262626;" transform="translate(196.97373 48)scale(0.168 -0.168)">
     <use xlink:href="#ArialMT-113"/>
     <use x="55.615234" xlink:href="#ArialMT-117"/>
     <use x="111.230469" xlink:href="#ArialMT-101"/>
     <use x="166.845703" xlink:href="#ArialMT-114"/>
     <use x="200.146484" xlink:href="#ArialMT-121"/>
     <use x="250.146484" xlink:href="#ArialMT-32"/>
     <use x="277.929688" xlink:href="#ArialMT-49"/>
    </g>
   </g>
  </g>
  <g id="axes_2">
   <g id="patch_5">
    <path d="M 403.536 298.116 
L 722.906084 298.116 
L 722.906084 54 
L 403.536 54 
z
" style="fill:#ffffff;"  opacity="0" />
   </g>
   <g id="matplotlib.axis_3">
    <g id="xtick_8">
     <g id="text_17">
      <!-- 0 -->
      <g style="fill:#262626;" transform="translate(399.254078 318.639031)scale(0.154 -0.154)">
       <use xlink:href="#ArialMT-48"/>
      </g>
     </g>
    </g>
    <g id="xtick_9">
     <g id="text_18">
      <!-- 25 -->
      <g style="fill:#262626;" transform="translate(448.200504 318.639031)scale(0.154 -0.154)">
       <use xlink:href="#ArialMT-50"/>
       <use x="55.615234" xlink:href="#ArialMT-53"/>
      </g>
     </g>
    </g>
    <g id="xtick_10">
     <g id="text_19">
      <!-- 50 -->
      <g style="fill:#262626;" transform="translate(501.428851 318.639031)scale(0.154 -0.154)">
       <use xlink:href="#ArialMT-53"/>
       <use x="55.615234" xlink:href="#ArialMT-48"/>
      </g>
     </g>
    </g>
    <g id="xtick_11">
     <g id="text_20">
      <!-- 75 -->
      <g style="fill:#262626;" transform="translate(554.657198 318.639031)scale(0.154 -0.154)">
       <use xlink:href="#ArialMT-55"/>
       <use x="55.615234" xlink:href="#ArialMT-53"/>
      </g>
     </g>
    </g>
    <g id="xtick_12">
     <g id="text_21">
      <!-- 100 -->
      <g style="fill:#262626;" transform="translate(603.603624 318.639031)scale(0.154 -0.154)">
       <use xlink:href="#ArialMT-49"/>
       <use x="55.615234" xlink:href="#ArialMT-48"/>
       <use x="111.230469" xlink:href="#ArialMT-48"/>
      </g>
     </g>
    </g>
    <g id="xtick_13">
     <g id="text_22">
      <!-- 125 -->
      <g style="fill:#262626;" transform="translate(656.831971 318.639031)scale(0.154 -0.154)">
       <use xlink:href="#ArialMT-49"/>
       <use x="55.615234" xlink:href="#ArialMT-50"/>
       <use x="111.230469" xlink:href="#ArialMT-53"/>
      </g>
     </g>
    </g>
    <g id="xtick_14">
     <g id="text_23">
      <!-- 150 -->
      <g style="fill:#262626;" transform="translate(710.060319 318.639031)scale(0.154 -0.154)">
       <use xlink:href="#ArialMT-49"/>
       <use x="55.615234" xlink:href="#ArialMT-53"/>
       <use x="111.230469" xlink:href="#ArialMT-48"/>
      </g>
     </g>
    </g>
    <g id="text_24">
     <!-- execution time (ms) -->
     <g style="fill:#262626;" transform="translate(489.938917 337.929656)scale(0.168 -0.168)">
      <use xlink:href="#ArialMT-101"/>
      <use x="55.615234" xlink:href="#ArialMT-120"/>
      <use x="105.615234" xlink:href="#ArialMT-101"/>
      <use x="161.230469" xlink:href="#ArialMT-99"/>
      <use x="211.230469" xlink:href="#ArialMT-117"/>
      <use x="266.845703" xlink:href="#ArialMT-116"/>
      <use x="294.628906" xlink:href="#ArialMT-105"/>
      <use x="316.845703" xlink:href="#ArialMT-111"/>
      <use x="372.460938" xlink:href="#ArialMT-110"/>
      <use x="428.076172" xlink:href="#ArialMT-32"/>
      <use x="455.859375" xlink:href="#ArialMT-116"/>
      <use x="483.642578" xlink:href="#ArialMT-105"/>
      <use x="505.859375" xlink:href="#ArialMT-109"/>
      <use x="589.160156" xlink:href="#ArialMT-101"/>
      <use x="644.775391" xlink:href="#ArialMT-32"/>
      <use x="672.558594" xlink:href="#ArialMT-40"/>
      <use x="705.859375" xlink:href="#ArialMT-109"/>
      <use x="789.160156" xlink:href="#ArialMT-115"/>
      <use x="839.160156" xlink:href="#ArialMT-41"/>
     </g>
    </g>
   </g>
   <g id="matplotlib.axis_4">
    <g id="ytick_7">
     <g id="line2d_11">
      <path clip-path="url(#pb42f18a115)" d="M 403.536 298.116 
L 722.906084 298.116 
" style="fill:none;stroke:#cccccc;stroke-linecap:round;"/>
     </g>
    </g>
    <g id="ytick_8">
     <g id="line2d_12">
      <path clip-path="url(#pb42f18a115)" d="M 403.536 249.2928 
L 722.906084 249.2928 
" style="fill:none;stroke:#cccccc;stroke-linecap:round;"/>
     </g>
    </g>
    <g id="ytick_9">
     <g id="line2d_13">
      <path clip-path="url(#pb42f18a115)" d="M 403.536 200.4696 
L 722.906084 200.4696 
" style="fill:none;stroke:#cccccc;stroke-linecap:round;"/>
     </g>
    </g>
    <g id="ytick_10">
     <g id="line2d_14">
      <path clip-path="url(#pb42f18a115)" d="M 403.536 151.6464 
L 722.906084 151.6464 
" style="fill:none;stroke:#cccccc;stroke-linecap:round;"/>
     </g>
    </g>
    <g id="ytick_11">
     <g id="line2d_15">
      <path clip-path="url(#pb42f18a115)" d="M 403.536 102.8232 
L 722.906084 102.8232 
" style="fill:none;stroke:#cccccc;stroke-linecap:round;"/>
     </g>
    </g>
    <g id="ytick_12">
     <g id="line2d_16">
      <path clip-path="url(#pb42f18a115)" d="M 403.536 54 
L 722.906084 54 
" style="fill:none;stroke:#cccccc;stroke-linecap:round;"/>
     </g>
    </g>
   </g>
   <g id="line2d_17">
    <path clip-path="url(#pb42f18a115)" d="M 403.536 298.058107 
L 405.665134 296.842351 
L 407.794268 292.934566 
L 409.923402 286.093528 
L 412.052536 268.831729 
L 414.181669 260.755638 
L 416.310803 255.024219 
L 418.439937 251.019945 
L 420.569071 247.94196 
L 422.698205 245.404312 
L 424.827339 241.757045 
L 426.956473 239.151855 
L 429.085607 238.071183 
L 431.214741 236.768588 
L 433.343875 236.315092 
L 435.473008 236.122115 
L 437.602142 235.417748 
L 443.989544 234.230939 
L 446.118678 234.201993 
L 448.247812 234.047611 
L 450.376946 233.748497 
L 452.50608 233.594115 
L 454.635213 233.121321 
L 458.893481 232.503794 
L 463.151749 232.185382 
L 467.410017 231.577505 
L 469.539151 230.85384 
L 471.668285 229.821413 
L 473.797419 227.930238 
L 475.926552 226.473261 
L 478.055686 224.726818 
L 480.18482 222.517231 
L 482.313954 221.330422 
L 484.443088 219.979582 
L 486.572222 217.798941 
L 488.701356 215.975308 
L 490.83049 214.77885 
L 492.959624 213.321873 
L 497.217891 211.372805 
L 499.347025 209.867584 
L 501.476159 208.729019 
L 503.605293 207.300988 
L 505.734427 206.451889 
L 507.863561 205.872958 
L 512.121829 204.251951 
L 514.250963 203.952836 
L 516.380096 203.238821 
L 518.50923 202.843218 
L 520.638364 202.244989 
L 527.025766 201.617814 
L 531.284034 201.444134 
L 535.542301 200.788012 
L 537.671435 200.334516 
L 541.929703 198.385448 
L 546.187971 197.18899 
L 548.317105 196.17586 
L 550.446239 195.365356 
L 552.575373 193.850486 
L 554.704507 192.64438 
L 556.83364 191.216349 
L 558.962774 189.981296 
L 561.091908 189.199739 
L 567.47931 185.899831 
L 569.608444 184.413907 
L 573.866712 182.464839 
L 575.995845 180.998213 
L 578.124979 179.116687 
L 584.512381 175.652748 
L 586.641515 174.359802 
L 588.770649 173.433512 
L 590.899783 172.680901 
L 593.028917 171.416901 
L 595.158051 171.002001 
L 597.287184 169.728352 
L 603.674586 168.223131 
L 610.061988 165.772322 
L 612.191122 165.154795 
L 614.320256 164.247803 
L 616.449389 162.800475 
L 618.578523 161.883834 
L 620.707657 159.818979 
L 622.836791 158.101483 
L 624.965925 155.698919 
L 627.095059 153.759499 
L 631.353327 150.893789 
L 633.482461 149.600843 
L 635.611595 147.053546 
L 637.740728 145.519378 
L 639.869862 143.82118 
L 644.12813 140.125669 
L 646.257264 138.813425 
L 648.386398 137.723104 
L 652.644666 135.088967 
L 656.902933 131.113639 
L 659.032067 129.386494 
L 663.290335 124.783991 
L 665.419469 123.674373 
L 667.548603 121.995472 
L 669.677737 121.049885 
L 671.806871 119.641152 
L 673.936005 119.284145 
L 676.065139 118.251717 
L 678.194272 117.875412 
L 680.323406 117.122801 
L 682.45254 116.611412 
L 684.581674 115.752664 
L 686.710808 115.270221 
L 695.227344 111.758039 
L 699.485611 110.629123 
L 701.614745 110.262466 
L 705.873013 109.837917 
L 710.131281 108.959871 
L 712.260415 108.824787 
L 716.518683 107.570436 
L 718.647816 107.329215 
L 720.77695 106.914314 
L 720.77695 106.914314 
" style="fill:none;stroke:#e41a1c;stroke-linecap:round;stroke-width:2.5;"/>
   </g>
   <g id="line2d_18">
    <path clip-path="url(#pb42f18a115)" d="M 403.536 298.087053 
L 405.665134 296.60113 
L 409.923402 291.053039 
L 412.052536 287.51191 
L 414.181669 277.091148 
L 416.310803 261.652982 
L 418.439937 252.216403 
L 420.569071 247.565655 
L 422.698205 245.433258 
L 424.827339 243.764007 
L 429.085607 242.181595 
L 431.214741 241.187763 
L 433.343875 239.586053 
L 435.473008 236.015977 
L 439.731276 232.725718 
L 441.86041 231.509963 
L 443.989544 230.767001 
L 446.118678 230.612619 
L 448.247812 230.091581 
L 450.376946 229.908253 
L 469.539151 229.618787 
L 473.797419 229.300375 
L 475.926552 228.325841 
L 478.055686 226.926757 
L 480.18482 224.736467 
L 486.572222 216.525293 
L 488.701356 213.524499 
L 490.83049 210.986851 
L 495.088757 205.033508 
L 497.217891 202.399371 
L 499.347025 200.759066 
L 501.476159 199.533661 
L 507.863561 193.898731 
L 509.992695 192.64438 
L 512.121829 190.743555 
L 514.250963 189.344472 
L 516.380096 187.598029 
L 518.50923 186.24719 
L 520.638364 185.774396 
L 522.767498 185.176167 
L 524.896632 184.365663 
L 531.284034 183.757785 
L 533.413168 183.034121 
L 537.671435 182.7929 
L 541.929703 182.416595 
L 548.317105 180.660503 
L 550.446239 178.778977 
L 552.575373 177.814091 
L 554.704507 176.607985 
L 556.83364 174.234367 
L 558.962774 172.642306 
L 561.091908 170.480963 
L 563.221042 167.991558 
L 565.350176 165.241635 
L 567.47931 161.729452 
L 569.608444 157.87956 
L 571.737578 155.052445 
L 575.995845 148.008782 
L 578.124979 143.2326 
L 580.254113 139.237974 
L 582.383247 136.333669 
L 584.512381 134.452143 
L 586.641515 132.377639 
L 588.770649 130.611899 
L 590.899783 129.203166 
L 593.028917 127.398831 
L 595.158051 125.140999 
L 597.287184 123.70332 
L 599.416318 122.574404 
L 601.545452 121.146373 
L 603.674586 119.477122 
L 605.80372 118.64732 
L 607.932854 118.126282 
L 612.191122 115.897397 
L 614.320256 115.800908 
L 616.449389 114.749183 
L 618.578523 114.585153 
L 620.707657 114.073763 
L 622.836791 113.909733 
L 624.965925 113.465886 
L 627.095059 112.742222 
L 629.224193 112.414161 
L 631.353327 111.680848 
L 633.482461 111.314191 
L 635.611595 111.179107 
L 637.740728 110.754558 
L 639.869862 110.185275 
L 641.998996 109.22039 
L 644.12813 108.487077 
L 648.386398 108.361642 
L 650.515532 107.753764 
L 652.644666 107.387108 
L 654.7738 107.338864 
L 656.902933 107.010803 
L 659.032067 106.489764 
L 665.419469 104.33807 
L 667.548603 103.894223 
L 669.677737 103.633704 
L 671.806871 102.446895 
L 673.936005 102.022345 
L 676.065139 101.752177 
L 678.194272 100.989918 
L 680.323406 100.767994 
L 684.581674 99.513643 
L 686.710808 99.320666 
L 688.839942 98.86717 
L 690.969076 98.674193 
L 693.09821 98.172452 
L 695.227344 97.989124 
L 697.356477 97.641766 
L 699.485611 97.593521 
L 701.614745 97.381246 
L 703.743879 97.01459 
L 708.002147 96.667231 
L 710.131281 96.522498 
L 714.389549 96.522498 
L 718.647816 96.242682 
L 720.77695 96.242682 
L 720.77695 96.242682 
" style="fill:none;stroke:#377eb8;stroke-linecap:round;stroke-width:2.5;"/>
   </g>
   <g id="line2d_19">
    <path clip-path="url(#pb42f18a115)" d="M 403.536 297.961618 
L 409.923402 297.961618 
L 412.052536 295.298535 
L 414.181669 295.057313 
L 416.310803 292.066169 
L 418.439937 280.034048 
L 424.827339 254.59967 
L 426.956473 251.097136 
L 429.085607 249.012983 
L 431.214741 247.507762 
L 433.343875 246.726205 
L 437.602142 245.83851 
L 439.731276 244.902572 
L 441.86041 244.246449 
L 443.989544 242.258786 
L 446.118678 239.113259 
L 448.247812 234.713382 
L 452.50608 228.547764 
L 454.635213 225.054879 
L 456.764347 223.211948 
L 458.893481 222.121628 
L 461.022615 221.417262 
L 467.410017 219.728712 
L 469.539151 219.526086 
L 471.668285 219.178727 
L 473.797419 219.111185 
L 478.055686 218.619094 
L 482.313954 216.592835 
L 486.572222 210.938606 
L 488.701356 207.030821 
L 492.959624 200.932745 
L 495.088757 198.404745 
L 497.217891 195.172379 
L 499.347025 192.634731 
L 501.476159 189.161143 
L 503.605293 186.353327 
L 505.734427 183.796381 
L 507.863561 181.644686 
L 509.992695 179.821053 
L 512.121829 177.65971 
L 514.250963 175.961511 
L 516.380096 173.558947 
L 518.50923 171.484443 
L 520.638364 168.088047 
L 522.767498 166.785452 
L 524.896632 164.093421 
L 527.025766 162.482063 
L 529.1549 161.796994 
L 531.284034 160.504048 
L 533.413168 158.477788 
L 535.542301 157.87956 
L 539.800569 157.059407 
L 541.929703 156.248903 
L 546.187971 155.621728 
L 550.446239 154.878766 
L 552.575373 153.672659 
L 554.704507 153.238461 
L 558.962774 150.63327 
L 561.091908 149.552599 
L 563.221042 147.989484 
L 565.350176 146.831622 
L 567.47931 145.451836 
L 569.608444 144.216783 
L 571.737578 142.499287 
L 573.866712 140.95547 
L 575.995845 138.987104 
L 578.124979 137.211715 
L 580.254113 135.745089 
L 582.383247 133.902158 
L 584.512381 132.657456 
L 586.641515 130.341731 
L 590.899783 126.694464 
L 593.028917 126.009396 
L 595.158051 124.494526 
L 597.287184 123.143686 
L 599.416318 121.078831 
L 601.545452 119.40958 
L 603.674586 118.097335 
L 605.80372 116.167565 
L 607.932854 114.392176 
L 610.061988 112.317672 
L 612.191122 111.169458 
L 614.320256 110.368604 
L 616.449389 109.982649 
L 620.707657 108.54497 
L 622.836791 107.493245 
L 624.965925 107.483596 
L 629.224193 106.837123 
L 631.353327 106.451169 
L 633.482461 106.200299 
L 635.611595 105.650314 
L 637.740728 105.312604 
L 644.12813 104.936299 
L 646.257264 104.202986 
L 648.386398 104.058253 
L 652.644666 103.344238 
L 656.902933 103.035475 
L 661.161201 102.360055 
L 663.290335 102.32146 
L 665.419469 102.031994 
L 667.548603 101.993399 
L 669.677737 101.433765 
L 671.806871 101.346925 
L 673.936005 100.845185 
L 676.065139 100.575017 
L 678.194272 100.111872 
L 680.323406 99.803109 
L 682.45254 99.079445 
L 684.581674 98.722437 
L 686.710808 98.52946 
L 688.839942 98.066315 
L 690.969076 97.26546 
L 693.09821 97.168972 
L 697.356477 96.696178 
L 703.743879 96.532147 
L 705.873013 96.223384 
L 712.260415 96.223384 
L 714.389549 96.049705 
L 720.77695 95.856728 
L 720.77695 95.856728 
" style="fill:none;stroke:#4daf4a;stroke-linecap:round;stroke-width:2.5;"/>
   </g>
   <g id="line2d_20">
    <path clip-path="url(#pb42f18a115)" d="M 403.536 298.116 
L 407.794268 298.116 
L 409.923402 297.730046 
L 412.052536 295.800275 
L 414.181669 295.520458 
L 416.310803 295.356428 
L 418.439937 294.864336 
L 420.569071 293.455604 
L 422.698205 290.474108 
L 424.827339 281.124369 
L 426.956473 275.267514 
L 429.085607 267.442294 
L 431.214741 261.817012 
L 435.473008 249.273502 
L 437.602142 244.719243 
L 439.731276 241.004435 
L 441.86041 235.967733 
L 443.989544 232.812558 
L 446.118678 230.516131 
L 448.247812 228.702146 
L 450.376946 227.544284 
L 452.50608 226.598696 
L 454.635213 226.30923 
L 456.764347 225.189963 
L 458.893481 224.360162 
L 461.022615 223.935612 
L 465.280883 223.887368 
L 467.410017 223.308437 
L 469.539151 222.430391 
L 471.668285 222.121628 
L 475.926552 221.668132 
L 478.055686 221.301475 
L 484.443088 220.606758 
L 486.572222 220.191857 
L 488.701356 219.419949 
L 492.959624 218.348926 
L 495.088757 217.355094 
L 497.217891 215.878819 
L 499.347025 214.653415 
L 501.476159 211.961385 
L 503.605293 209.587767 
L 505.734427 206.374698 
L 507.863561 202.32218 
L 512.121829 195.886394 
L 514.250963 190.772502 
L 516.380096 187.945388 
L 520.638364 180.94032 
L 524.896632 174.108932 
L 527.025766 171.658123 
L 529.1549 168.609085 
L 531.284034 166.119681 
L 533.413168 164.074124 
L 535.542301 163.331162 
L 537.671435 161.970674 
L 539.800569 161.430338 
L 541.929703 161.189116 
L 544.058837 160.812811 
L 550.446239 159.259346 
L 552.575373 159.22075 
L 558.962774 158.699712 
L 563.221042 156.837483 
L 565.350176 156.219957 
L 569.608444 154.76298 
L 571.737578 153.460385 
L 573.866712 150.739408 
L 575.995845 148.578065 
L 578.124979 147.35266 
L 582.383247 142.325607 
L 584.512381 140.405485 
L 586.641515 137.906432 
L 588.770649 136.613486 
L 590.899783 134.770555 
L 595.158051 130.168052 
L 597.287184 127.061121 
L 599.416318 125.256785 
L 601.545452 121.51303 
L 603.674586 118.213122 
L 605.80372 116.100023 
L 607.932854 113.793947 
L 610.061988 112.491351 
L 612.191122 112.028206 
L 614.320256 109.934405 
L 616.449389 107.290619 
L 618.578523 104.83981 
L 622.836791 102.717063 
L 627.095059 101.067109 
L 629.224193 100.391689 
L 631.353327 100.227658 
L 633.482461 99.426803 
L 635.611595 99.002254 
L 637.740728 98.394376 
L 641.998996 98.288239 
L 644.12813 97.931231 
L 646.257264 97.458437 
L 650.515532 97.120727 
L 652.644666 97.120727 
L 654.7738 96.725124 
L 656.902933 96.725124 
L 661.161201 96.329521 
L 669.677737 96.252331 
L 682.45254 95.962865 
L 686.710808 95.885674 
L 697.356477 95.644453 
L 699.485611 95.345338 
L 701.614745 95.345338 
L 703.743879 95.229552 
L 714.389549 95.171659 
L 718.647816 95.113766 
L 720.77695 95.113766 
L 720.77695 95.113766 
" style="fill:none;stroke:#984ea3;stroke-linecap:round;stroke-width:2.5;"/>
   </g>
   <g id="patch_6">
    <path d="M 403.536 298.116 
L 403.536 54 
" style="fill:none;stroke:#cccccc;stroke-linecap:square;stroke-linejoin:miter;stroke-width:1.25;"/>
   </g>
   <g id="patch_7">
    <path d="M 403.536 298.116 
L 722.906084 298.116 
" style="fill:none;stroke:#cccccc;stroke-linecap:square;stroke-linejoin:miter;stroke-width:1.25;"/>
   </g>
   <g id="text_25">
    <!-- query 2 -->
    <g style="fill:#262626;" transform="translate(535.20573 48)scale(0.168 -0.168)">
     <use xlink:href="#ArialMT-113"/>
     <use x="55.615234" xlink:href="#ArialMT-117"/>
     <use x="111.230469" xlink:href="#ArialMT-101"/>
     <use x="166.845703" xlink:href="#ArialMT-114"/>
     <use x="200.146484" xlink:href="#ArialMT-121"/>
     <use x="250.146484" xlink:href="#ArialMT-32"/>
     <use x="277.929688" xlink:href="#ArialMT-50"/>
    </g>
   </g>
  </g>
  <g id="axes_3">
   <g id="patch_8">
    <path d="M 741.768 298.116 
L 1061.138084 298.116 
L 1061.138084 54 
L 741.768 54 
z
" style="fill:#ffffff;"  opacity="0" />
   </g>
   <g id="matplotlib.axis_5">
    <g id="xtick_15">
     <g id="text_26">
      <!-- 0 -->
      <g style="fill:#262626;" transform="translate(737.486078 318.639031)scale(0.154 -0.154)">
       <use xlink:href="#ArialMT-48"/>
      </g>
     </g>
    </g>
    <g id="xtick_16">
     <g id="text_27">
      <!-- 25 -->
      <g style="fill:#262626;" transform="translate(786.432504 318.639031)scale(0.154 -0.154)">
       <use xlink:href="#ArialMT-50"/>
       <use x="55.615234" xlink:href="#ArialMT-53"/>
      </g>
     </g>
    </g>
    <g id="xtick_17">
     <g id="text_28">
      <!-- 50 -->
      <g style="fill:#262626;" transform="translate(839.660851 318.639031)scale(0.154 -0.154)">
       <use xlink:href="#ArialMT-53"/>
       <use x="55.615234" xlink:href="#ArialMT-48"/>
      </g>
     </g>
    </g>
    <g id="xtick_18">
     <g id="text_29">
      <!-- 75 -->
      <g style="fill:#262626;" transform="translate(892.889198 318.639031)scale(0.154 -0.154)">
       <use xlink:href="#ArialMT-55"/>
       <use x="55.615234" xlink:href="#ArialMT-53"/>
      </g>
     </g>
    </g>
    <g id="xtick_19">
     <g id="text_30">
      <!-- 100 -->
      <g style="fill:#262626;" transform="translate(941.835624 318.639031)scale(0.154 -0.154)">
       <use xlink:href="#ArialMT-49"/>
       <use x="55.615234" xlink:href="#ArialMT-48"/>
       <use x="111.230469" xlink:href="#ArialMT-48"/>
      </g>
     </g>
    </g>
    <g id="xtick_20">
     <g id="text_31">
      <!-- 125 -->
      <g style="fill:#262626;" transform="translate(995.063971 318.639031)scale(0.154 -0.154)">
       <use xlink:href="#ArialMT-49"/>
       <use x="55.615234" xlink:href="#ArialMT-50"/>
       <use x="111.230469" xlink:href="#ArialMT-53"/>
      </g>
     </g>
    </g>
    <g id="xtick_21">
     <g id="text_32">
      <!-- 150 -->
      <g style="fill:#262626;" transform="translate(1048.292319 318.639031)scale(0.154 -0.154)">
       <use xlink:href="#ArialMT-49"/>
       <use x="55.615234" xlink:href="#ArialMT-53"/>
       <use x="111.230469" xlink:href="#ArialMT-48"/>
      </g>
     </g>
    </g>
    <g id="text_33">
     <!-- execution time (ms) -->
     <g style="fill:#262626;" transform="translate(828.170917 337.929656)scale(0.168 -0.168)">
      <use xlink:href="#ArialMT-101"/>
      <use x="55.615234" xlink:href="#ArialMT-120"/>
      <use x="105.615234" xlink:href="#ArialMT-101"/>
      <use x="161.230469" xlink:href="#ArialMT-99"/>
      <use x="211.230469" xlink:href="#ArialMT-117"/>
      <use x="266.845703" xlink:href="#ArialMT-116"/>
      <use x="294.628906" xlink:href="#ArialMT-105"/>
      <use x="316.845703" xlink:href="#ArialMT-111"/>
      <use x="372.460938" xlink:href="#ArialMT-110"/>
      <use x="428.076172" xlink:href="#ArialMT-32"/>
      <use x="455.859375" xlink:href="#ArialMT-116"/>
      <use x="483.642578" xlink:href="#ArialMT-105"/>
      <use x="505.859375" xlink:href="#ArialMT-109"/>
      <use x="589.160156" xlink:href="#ArialMT-101"/>
      <use x="644.775391" xlink:href="#ArialMT-32"/>
      <use x="672.558594" xlink:href="#ArialMT-40"/>
      <use x="705.859375" xlink:href="#ArialMT-109"/>
      <use x="789.160156" xlink:href="#ArialMT-115"/>
      <use x="839.160156" xlink:href="#ArialMT-41"/>
     </g>
    </g>
   </g>
   <g id="matplotlib.axis_6">
    <g id="ytick_13">
     <g id="line2d_21">
      <path clip-path="url(#p3e35dd8ddb)" d="M 741.768 298.116 
L 1061.138084 298.116 
" style="fill:none;stroke:#cccccc;stroke-linecap:round;"/>
     </g>
    </g>
    <g id="ytick_14">
     <g id="line2d_22">
      <path clip-path="url(#p3e35dd8ddb)" d="M 741.768 249.2928 
L 1061.138084 249.2928 
" style="fill:none;stroke:#cccccc;stroke-linecap:round;"/>
     </g>
    </g>
    <g id="ytick_15">
     <g id="line2d_23">
      <path clip-path="url(#p3e35dd8ddb)" d="M 741.768 200.4696 
L 1061.138084 200.4696 
" style="fill:none;stroke:#cccccc;stroke-linecap:round;"/>
     </g>
    </g>
    <g id="ytick_16">
     <g id="line2d_24">
      <path clip-path="url(#p3e35dd8ddb)" d="M 741.768 151.6464 
L 1061.138084 151.6464 
" style="fill:none;stroke:#cccccc;stroke-linecap:round;"/>
     </g>
    </g>
    <g id="ytick_17">
     <g id="line2d_25">
      <path clip-path="url(#p3e35dd8ddb)" d="M 741.768 102.8232 
L 1061.138084 102.8232 
" style="fill:none;stroke:#cccccc;stroke-linecap:round;"/>
     </g>
    </g>
    <g id="ytick_18">
     <g id="line2d_26">
      <path clip-path="url(#p3e35dd8ddb)" d="M 741.768 54 
L 1061.138084 54 
" style="fill:none;stroke:#cccccc;stroke-linecap:round;"/>
     </g>
    </g>
   </g>
   <g id="line2d_27">
    <path clip-path="url(#p3e35dd8ddb)" d="M 741.768 298.091588 
L 743.897134 297.823061 
L 746.026268 296.041014 
L 748.155402 290.365317 
L 750.284536 269.273695 
L 752.413669 256.811573 
L 754.542803 251.233522 
L 756.671937 247.071344 
L 758.801071 243.153283 
L 760.930205 238.551696 
L 763.059339 235.512452 
L 765.188473 233.644964 
L 767.317607 232.473208 
L 769.446741 232.05821 
L 771.575875 230.593514 
L 775.834142 228.030296 
L 777.963276 227.17589 
L 780.09241 226.528983 
L 782.221544 225.63796 
L 786.479812 224.978846 
L 788.608946 224.624878 
L 792.867213 224.624878 
L 797.125481 224.209881 
L 801.383749 224.002382 
L 805.642017 223.611797 
L 807.771151 223.038124 
L 809.900285 222.342394 
L 812.029419 221.097402 
L 814.158552 220.096526 
L 816.287686 218.705065 
L 818.41682 217.106105 
L 820.545954 215.690233 
L 822.675088 214.457447 
L 826.933356 212.516725 
L 829.06249 211.650113 
L 835.449891 209.62395 
L 837.579025 208.671898 
L 839.708159 207.194996 
L 841.837293 206.047651 
L 843.966427 205.425155 
L 848.224695 204.790453 
L 850.353829 204.485308 
L 852.482963 203.972665 
L 854.612096 203.740754 
L 856.74123 203.643108 
L 860.999498 202.727673 
L 863.128632 202.483557 
L 865.257766 202.483557 
L 867.3869 202.117383 
L 873.774301 201.494887 
L 875.903435 201.031067 
L 878.032569 200.689304 
L 880.161703 200.201072 
L 882.290837 199.24902 
L 884.419971 198.650936 
L 886.549105 196.905506 
L 888.678239 195.758161 
L 892.936507 192.694505 
L 895.06564 191.473925 
L 899.323908 188.11733 
L 901.453042 185.737199 
L 903.582176 185.017057 
L 905.71131 183.479126 
L 907.840444 182.30737 
L 909.969578 181.355317 
L 912.098712 179.95165 
L 914.227845 177.998722 
L 916.356979 177.376226 
L 918.486113 176.424174 
L 922.744381 174.947272 
L 924.873515 174.751979 
L 927.002649 173.568017 
L 929.131783 173.177431 
L 931.260917 172.188761 
L 933.390051 170.980387 
L 937.648318 169.918483 
L 939.777452 168.893195 
L 950.423122 167.086737 
L 952.552256 166.232331 
L 956.810523 163.669113 
L 958.939657 162.619414 
L 961.068791 161.118101 
L 963.197925 159.848698 
L 965.327059 159.397083 
L 967.456193 158.164297 
L 969.585327 156.748424 
L 971.714461 156.028282 
L 973.843595 154.990789 
L 975.972728 153.672563 
L 978.101862 152.574041 
L 980.230996 150.999493 
L 982.36013 150.511261 
L 984.489264 149.730089 
L 986.618398 148.607156 
L 988.747532 147.850396 
L 990.876666 146.971579 
L 995.134933 144.798946 
L 999.393201 143.578366 
L 1001.522335 142.833812 
L 1003.651469 142.516462 
L 1005.780603 141.723085 
L 1007.909737 140.783238 
L 1010.038871 140.734415 
L 1012.168005 140.295006 
L 1014.297139 139.733539 
L 1016.426272 139.025603 
L 1018.555406 138.5984 
L 1020.68454 137.829434 
L 1027.071942 136.779736 
L 1029.201076 135.717831 
L 1033.459344 134.289752 
L 1035.588477 132.837262 
L 1039.846745 131.702123 
L 1041.975879 130.847717 
L 1044.105013 130.298456 
L 1046.234147 129.419638 
L 1048.363281 127.869502 
L 1050.492415 127.454504 
L 1054.750683 126.294953 
L 1056.879816 125.184226 
L 1059.00895 124.622759 
L 1059.00895 124.622759 
" style="fill:none;stroke:#e41a1c;stroke-linecap:round;stroke-width:2.5;"/>
   </g>
   <g id="line2d_28">
    <path clip-path="url(#p3e35dd8ddb)" d="M 741.768 298.091588 
L 743.897134 296.944243 
L 746.026268 296.236307 
L 748.155402 295.735869 
L 750.284536 293.245886 
L 752.413669 283.737568 
L 754.542803 270.262364 
L 756.671937 254.187326 
L 758.801071 249.964119 
L 760.930205 247.474136 
L 763.059339 246.033851 
L 765.188473 244.910918 
L 767.317607 243.165488 
L 771.575875 236.366858 
L 773.705008 232.729529 
L 775.834142 229.848961 
L 777.963276 228.445294 
L 780.09241 226.71207 
L 782.221544 226.077368 
L 784.350678 225.308403 
L 794.996347 225.25958 
L 797.125481 225.003258 
L 803.512883 225.003258 
L 805.642017 224.783554 
L 809.900285 224.783554 
L 814.158552 223.1968 
L 816.287686 221.280489 
L 818.41682 217.472279 
L 820.545954 214.079067 
L 826.933356 208.049402 
L 829.06249 205.58383 
L 831.191624 203.923841 
L 837.579025 198.40682 
L 839.708159 196.209776 
L 841.837293 195.611692 
L 843.966427 194.110378 
L 852.482963 191.962157 
L 856.74123 190.460844 
L 858.870364 190.314374 
L 860.999498 189.765113 
L 863.128632 189.752908 
L 867.3869 189.215852 
L 875.903435 188.813061 
L 878.032569 188.373652 
L 882.290837 186.847927 
L 884.419971 186.445136 
L 886.549105 185.651759 
L 888.678239 184.504414 
L 890.807373 181.843549 
L 892.936507 180.073708 
L 895.06564 177.229757 
L 897.194774 174.593304 
L 901.453042 168.075407 
L 903.582176 162.997794 
L 905.71131 158.21312 
L 907.840444 154.197412 
L 909.969578 152.049191 
L 912.098712 149.522591 
L 914.227845 148.265393 
L 916.356979 145.738793 
L 918.486113 144.115421 
L 920.615247 141.308087 
L 922.744381 139.867803 
L 924.873515 136.99944 
L 929.131783 133.874755 
L 931.260917 133.423141 
L 933.390051 131.88521 
L 935.519184 130.652424 
L 937.648318 129.578314 
L 941.906586 129.163316 
L 944.03572 129.163316 
L 946.164854 128.626261 
L 954.681389 125.684663 
L 956.810523 125.562605 
L 958.939657 125.245255 
L 961.068791 124.256585 
L 963.197925 123.829382 
L 967.456193 122.645419 
L 969.585327 122.12057 
L 971.714461 122.12057 
L 973.843595 121.217341 
L 975.972728 120.777932 
L 978.101862 120.497198 
L 980.230996 120.436169 
L 984.489264 119.252207 
L 986.618398 119.044708 
L 988.747532 118.068244 
L 990.876666 117.909569 
L 995.134933 116.554725 
L 997.264067 116.286197 
L 999.393201 115.627084 
L 1001.522335 115.553849 
L 1003.651469 115.224293 
L 1007.909737 114.382093 
L 1010.038871 114.137977 
L 1012.168005 113.564304 
L 1014.297139 113.552098 
L 1016.426272 113.149307 
L 1018.555406 113.149307 
L 1020.68454 113.002837 
L 1033.459344 112.892985 
L 1037.717611 112.343724 
L 1041.975879 112.319312 
L 1046.234147 111.867698 
L 1052.621549 111.843286 
L 1056.879816 111.440495 
L 1059.00895 111.306231 
L 1059.00895 111.306231 
" style="fill:none;stroke:#377eb8;stroke-linecap:round;stroke-width:2.5;"/>
   </g>
   <g id="line2d_29">
    <path clip-path="url(#p3e35dd8ddb)" d="M 741.768 298.018354 
L 748.155402 297.993942 
L 750.284536 296.468217 
L 752.413669 296.333953 
L 754.542803 294.07588 
L 758.801071 279.001717 
L 760.930205 263.93976 
L 763.059339 251.184699 
L 765.188473 242.567404 
L 767.317607 240.150656 
L 769.446741 239.613601 
L 775.834142 238.698166 
L 777.963276 237.709496 
L 780.09241 235.512452 
L 786.479812 221.927396 
L 788.608946 219.15668 
L 790.73808 217.496691 
L 792.867213 216.056407 
L 794.996347 215.507146 
L 797.125481 214.725974 
L 801.383749 214.689357 
L 803.512883 214.152302 
L 805.642017 214.091273 
L 807.771151 213.407748 
L 809.900285 213.371131 
L 812.029419 213.212455 
L 814.158552 213.175838 
L 816.287686 212.834075 
L 818.41682 212.29702 
L 820.545954 211.174087 
L 822.675088 209.916889 
L 824.804222 206.731175 
L 826.933356 203.032818 
L 829.06249 199.810487 
L 831.191624 194.159201 
L 833.320757 189.496586 
L 835.449891 188.019684 
L 837.579025 184.065005 
L 839.708159 180.769439 
L 841.837293 178.462543 
L 843.966427 174.520069 
L 846.095561 171.395384 
L 848.224695 166.781592 
L 850.353829 163.119852 
L 852.482963 161.240159 
L 854.612096 158.933263 
L 858.870364 155.369169 
L 869.516034 146.15379 
L 871.645168 145.348207 
L 873.774301 143.041311 
L 875.903435 142.186905 
L 878.032569 140.80765 
L 880.161703 139.928832 
L 882.290837 138.244432 
L 884.419971 138.244432 
L 888.678239 137.23135 
L 890.807373 137.048263 
L 892.936507 136.450179 
L 895.06564 136.193857 
L 897.194774 135.63239 
L 901.453042 134.997689 
L 903.582176 133.777109 
L 905.71131 132.87388 
L 907.840444 131.372566 
L 909.969578 130.188604 
L 912.098712 129.639343 
L 914.227845 129.395227 
L 916.356979 128.174647 
L 918.486113 128.052589 
L 922.744381 125.977603 
L 927.002649 124.464083 
L 929.131783 122.547773 
L 931.260917 121.803219 
L 933.390051 119.947937 
L 935.519184 119.654998 
L 937.648318 118.934856 
L 939.777452 118.934856 
L 941.906586 118.702946 
L 944.03572 118.275743 
L 946.164854 117.348102 
L 948.293988 117.348102 
L 952.552256 116.335021 
L 954.681389 115.663702 
L 956.810523 115.578261 
L 958.939657 114.736061 
L 963.197925 114.455327 
L 965.327059 114.455327 
L 969.585327 114.113565 
L 971.714461 113.57651 
L 978.101862 113.478863 
L 984.489264 113.442246 
L 986.618398 113.185924 
L 1001.522335 113.112689 
L 1003.651469 112.880779 
L 1012.168005 112.81975 
L 1022.813674 112.81975 
L 1027.071942 112.270489 
L 1031.33021 112.233872 
L 1033.459344 112.026373 
L 1039.846745 111.989756 
L 1041.975879 111.538141 
L 1048.363281 111.538141 
L 1050.492415 111.062115 
L 1059.00895 111.062115 
L 1059.00895 111.062115 
" style="fill:none;stroke:#4daf4a;stroke-linecap:round;stroke-width:2.5;"/>
   </g>
   <g id="line2d_30">
    <path clip-path="url(#p3e35dd8ddb)" d="M 741.768 298.116 
L 748.155402 298.079383 
L 752.413669 297.871884 
L 754.542803 297.847472 
L 756.671937 296.224101 
L 758.801071 295.259843 
L 760.930205 293.538825 
L 763.059339 286.935487 
L 765.188473 281.723611 
L 767.317607 275.376595 
L 769.446741 265.880482 
L 771.575875 255.066143 
L 775.834142 244.056512 
L 780.09241 234.719075 
L 782.221544 231.020717 
L 784.350678 229.336317 
L 786.479812 227.297948 
L 788.608946 225.772223 
L 790.73808 223.392092 
L 792.867213 223.184594 
L 794.996347 222.037249 
L 797.125481 221.658869 
L 801.383749 219.85241 
L 803.512883 219.85241 
L 809.900285 219.059033 
L 816.287686 219.059033 
L 820.545954 218.814917 
L 822.675088 218.192422 
L 824.804222 217.289192 
L 826.933356 216.752137 
L 829.06249 215.202001 
L 831.191624 214.115684 
L 833.320757 212.834075 
L 835.449891 210.966588 
L 837.579025 208.476605 
L 839.708159 205.669271 
L 841.837293 202.520174 
L 843.966427 195.904631 
L 846.095561 193.060679 
L 848.224695 189.728496 
L 850.353829 187.116455 
L 854.612096 182.368399 
L 856.74123 179.072833 
L 858.870364 176.021383 
L 860.999498 174.922861 
L 863.128632 171.676118 
L 867.3869 169.369222 
L 869.516034 167.97776 
L 871.645168 167.391882 
L 873.774301 166.232331 
L 878.032569 166.14689 
L 880.161703 165.268073 
L 884.419971 164.193962 
L 886.549105 163.327351 
L 888.678239 162.790295 
L 890.807373 162.704855 
L 892.936507 161.728391 
L 895.06564 160.959425 
L 897.194774 159.738845 
L 899.323908 158.884439 
L 901.453042 158.420619 
L 903.582176 156.736219 
L 905.71131 153.782415 
L 907.840444 152.146838 
L 909.969578 150.840817 
L 912.098712 148.338628 
L 914.227845 144.762329 
L 916.356979 143.505131 
L 918.486113 140.526916 
L 920.615247 137.866052 
L 922.744381 137.23135 
L 924.873515 136.145034 
L 927.002649 134.79019 
L 929.131783 131.665505 
L 931.260917 130.835511 
L 933.390051 130.188604 
L 937.648318 128.028177 
L 939.777452 126.685539 
L 941.906586 125.562605 
L 944.03572 123.927028 
L 946.164854 123.377767 
L 948.293988 122.523361 
L 950.423122 122.450126 
L 952.552256 121.864248 
L 954.681389 120.802343 
L 956.810523 120.338523 
L 958.939657 120.008966 
L 961.068791 119.081326 
L 963.197925 118.410007 
L 965.327059 118.117067 
L 967.456193 118.117067 
L 969.585327 117.738688 
L 971.714461 117.580012 
L 973.843595 117.128398 
L 978.101862 117.079574 
L 980.230996 116.774429 
L 982.36013 116.664577 
L 984.489264 116.432667 
L 986.618398 116.39605 
L 988.747532 116.029876 
L 993.0058 115.981052 
L 995.134933 115.663702 
L 999.393201 115.566055 
L 1003.651469 115.004588 
L 1007.909737 114.723855 
L 1010.038871 114.65062 
L 1012.168005 114.162388 
L 1016.426272 113.710774 
L 1018.555406 113.710774 
L 1020.68454 113.466658 
L 1029.201076 113.466658 
L 1031.33021 113.173718 
L 1041.975879 113.173718 
L 1044.105013 112.575634 
L 1052.621549 112.575634 
L 1056.879816 112.160637 
L 1059.00895 112.160637 
L 1059.00895 112.160637 
" style="fill:none;stroke:#984ea3;stroke-linecap:round;stroke-width:2.5;"/>
   </g>
   <g id="patch_9">
    <path d="M 741.768 298.116 
L 741.768 54 
" style="fill:none;stroke:#cccccc;stroke-linecap:square;stroke-linejoin:miter;stroke-width:1.25;"/>
   </g>
   <g id="patch_10">
    <path d="M 741.768 298.116 
L 1061.138084 298.116 
" style="fill:none;stroke:#cccccc;stroke-linecap:square;stroke-linejoin:miter;stroke-width:1.25;"/>
   </g>
   <g id="text_34">
    <!-- query 3 -->
    <defs>
     <path d="M 4.203125 18.890625 
L 12.984375 20.0625 
Q 14.5 12.59375 18.140625 9.296875 
Q 21.78125 6 27 6 
Q 33.203125 6 37.46875 10.296875 
Q 41.75 14.59375 41.75 20.953125 
Q 41.75 27 37.796875 30.921875 
Q 33.84375 34.859375 27.734375 34.859375 
Q 25.25 34.859375 21.53125 33.890625 
L 22.515625 41.609375 
Q 23.390625 41.5 23.921875 41.5 
Q 29.546875 41.5 34.03125 44.421875 
Q 38.53125 47.359375 38.53125 53.46875 
Q 38.53125 58.296875 35.25 61.46875 
Q 31.984375 64.65625 26.8125 64.65625 
Q 21.6875 64.65625 18.265625 61.421875 
Q 14.84375 58.203125 13.875 51.765625 
L 5.078125 53.328125 
Q 6.6875 62.15625 12.390625 67.015625 
Q 18.109375 71.875 26.609375 71.875 
Q 32.46875 71.875 37.390625 69.359375 
Q 42.328125 66.84375 44.9375 62.5 
Q 47.5625 58.15625 47.5625 53.265625 
Q 47.5625 48.640625 45.0625 44.828125 
Q 42.578125 41.015625 37.703125 38.765625 
Q 44.046875 37.3125 47.5625 32.6875 
Q 51.078125 28.078125 51.078125 21.140625 
Q 51.078125 11.765625 44.234375 5.25 
Q 37.40625 -1.265625 26.953125 -1.265625 
Q 17.53125 -1.265625 11.296875 4.34375 
Q 5.078125 9.96875 4.203125 18.890625 
z
" id="ArialMT-51"/>
    </defs>
    <g style="fill:#262626;" transform="translate(873.43773 48)scale(0.168 -0.168)">
     <use xlink:href="#ArialMT-113"/>
     <use x="55.615234" xlink:href="#ArialMT-117"/>
     <use x="111.230469" xlink:href="#ArialMT-101"/>
     <use x="166.845703" xlink:href="#ArialMT-114"/>
     <use x="200.146484" xlink:href="#ArialMT-121"/>
     <use x="250.146484" xlink:href="#ArialMT-32"/>
     <use x="277.929688" xlink:href="#ArialMT-51"/>
    </g>
   </g>
   <g id="legend_1">
    <g id="patch_11">
     <path d="M 1044.198084 74.02 
L 1050.358084 74.02 
Q 1053.438084 74.02 1053.438084 70.94 
L 1053.438084 64.78 
Q 1053.438084 61.7 1050.358084 61.7 
L 1044.198084 61.7 
Q 1041.118084 61.7 1041.118084 64.78 
L 1041.118084 70.94 
Q 1041.118084 74.02 1044.198084 74.02 
z
" style="fill:#ffffff;opacity:0.8;stroke:#cccccc;stroke-linejoin:miter;"/>
    </g>
   </g>
  </g>
  <g id="text_35">
   <!-- Average query results in 150ms over subsequent queries in a series -->
   <defs>
    <path d="M -0.140625 0 
L 27.34375 71.578125 
L 37.546875 71.578125 
L 66.84375 0 
L 56.0625 0 
L 47.703125 21.6875 
L 17.78125 21.6875 
L 9.90625 0 
z
M 20.515625 29.390625 
L 44.78125 29.390625 
L 37.3125 49.21875 
Q 33.890625 58.25 32.234375 64.0625 
Q 30.859375 57.171875 28.375 50.390625 
z
" id="ArialMT-65"/>
    <path d="M 40.4375 6.390625 
Q 35.546875 2.25 31.03125 0.53125 
Q 26.515625 -1.171875 21.34375 -1.171875 
Q 12.796875 -1.171875 8.203125 3 
Q 3.609375 7.171875 3.609375 13.671875 
Q 3.609375 17.484375 5.34375 20.625 
Q 7.078125 23.78125 9.890625 25.6875 
Q 12.703125 27.59375 16.21875 28.5625 
Q 18.796875 29.25 24.03125 29.890625 
Q 34.671875 31.15625 39.703125 32.90625 
Q 39.75 34.71875 39.75 35.203125 
Q 39.75 40.578125 37.25 42.78125 
Q 33.890625 45.75 27.25 45.75 
Q 21.046875 45.75 18.09375 43.578125 
Q 15.140625 41.40625 13.71875 35.890625 
L 5.125 37.0625 
Q 6.296875 42.578125 8.984375 45.96875 
Q 11.671875 49.359375 16.75 51.1875 
Q 21.828125 53.03125 28.515625 53.03125 
Q 35.15625 53.03125 39.296875 51.46875 
Q 43.453125 49.90625 45.40625 47.53125 
Q 47.359375 45.171875 48.140625 41.546875 
Q 48.578125 39.3125 48.578125 33.453125 
L 48.578125 21.734375 
Q 48.578125 9.46875 49.140625 6.21875 
Q 49.703125 2.984375 51.375 0 
L 42.1875 0 
Q 40.828125 2.734375 40.4375 6.390625 
z
M 39.703125 26.03125 
Q 34.90625 24.078125 25.34375 22.703125 
Q 19.921875 21.921875 17.671875 20.9375 
Q 15.4375 19.96875 14.203125 18.09375 
Q 12.984375 16.21875 12.984375 13.921875 
Q 12.984375 10.40625 15.640625 8.0625 
Q 18.3125 5.71875 23.4375 5.71875 
Q 28.515625 5.71875 32.46875 7.9375 
Q 36.421875 10.15625 38.28125 14.015625 
Q 39.703125 17 39.703125 22.796875 
z
" id="ArialMT-97"/>
    <path d="M 4.984375 -4.296875 
L 13.53125 -5.5625 
Q 14.0625 -9.515625 16.5 -11.328125 
Q 19.78125 -13.765625 25.4375 -13.765625 
Q 31.546875 -13.765625 34.859375 -11.328125 
Q 38.1875 -8.890625 39.359375 -4.5 
Q 40.046875 -1.8125 39.984375 6.78125 
Q 34.234375 0 25.640625 0 
Q 14.9375 0 9.078125 7.71875 
Q 3.21875 15.4375 3.21875 26.21875 
Q 3.21875 33.640625 5.90625 39.90625 
Q 8.59375 46.1875 13.6875 49.609375 
Q 18.796875 53.03125 25.6875 53.03125 
Q 34.859375 53.03125 40.828125 45.609375 
L 40.828125 51.859375 
L 48.921875 51.859375 
L 48.921875 7.03125 
Q 48.921875 -5.078125 46.453125 -10.125 
Q 44 -15.1875 38.640625 -18.109375 
Q 33.296875 -21.046875 25.484375 -21.046875 
Q 16.21875 -21.046875 10.5 -16.875 
Q 4.78125 -12.703125 4.984375 -4.296875 
z
M 12.25 26.859375 
Q 12.25 16.65625 16.296875 11.96875 
Q 20.359375 7.28125 26.46875 7.28125 
Q 32.515625 7.28125 36.609375 11.9375 
Q 40.71875 16.609375 40.71875 26.5625 
Q 40.71875 36.078125 36.5 40.90625 
Q 32.28125 45.75 26.3125 45.75 
Q 20.453125 45.75 16.34375 40.984375 
Q 12.25 36.234375 12.25 26.859375 
z
" id="ArialMT-103"/>
    <path d="M 14.703125 0 
L 6.546875 0 
L 6.546875 71.578125 
L 15.328125 71.578125 
L 15.328125 46.046875 
Q 20.90625 53.03125 29.546875 53.03125 
Q 34.328125 53.03125 38.59375 51.09375 
Q 42.875 49.171875 45.625 45.671875 
Q 48.390625 42.1875 49.953125 37.25 
Q 51.515625 32.328125 51.515625 26.703125 
Q 51.515625 13.375 44.921875 6.09375 
Q 38.328125 -1.171875 29.109375 -1.171875 
Q 19.921875 -1.171875 14.703125 6.5 
z
M 14.59375 26.3125 
Q 14.59375 17 17.140625 12.84375 
Q 21.296875 6.0625 28.375 6.0625 
Q 34.125 6.0625 38.328125 11.0625 
Q 42.53125 16.0625 42.53125 25.984375 
Q 42.53125 36.140625 38.5 40.96875 
Q 34.46875 45.796875 28.765625 45.796875 
Q 23 45.796875 18.796875 40.796875 
Q 14.59375 35.796875 14.59375 26.3125 
z
" id="ArialMT-98"/>
   </defs>
   <g style="fill:#262626;" transform="translate(236.338425 21.69)scale(0.2016 -0.2016)">
    <use xlink:href="#ArialMT-65"/>
    <use x="66.683594" xlink:href="#ArialMT-118"/>
    <use x="116.683594" xlink:href="#ArialMT-101"/>
    <use x="172.298828" xlink:href="#ArialMT-114"/>
    <use x="205.599609" xlink:href="#ArialMT-97"/>
    <use x="261.214844" xlink:href="#ArialMT-103"/>
    <use x="316.830078" xlink:href="#ArialMT-101"/>
    <use x="372.445312" xlink:href="#ArialMT-32"/>
    <use x="400.228516" xlink:href="#ArialMT-113"/>
    <use x="455.84375" xlink:href="#ArialMT-117"/>
    <use x="511.458984" xlink:href="#ArialMT-101"/>
    <use x="567.074219" xlink:href="#ArialMT-114"/>
    <use x="600.375" xlink:href="#ArialMT-121"/>
    <use x="650.375" xlink:href="#ArialMT-32"/>
    <use x="678.158203" xlink:href="#ArialMT-114"/>
    <use x="711.458984" xlink:href="#ArialMT-101"/>
    <use x="767.074219" xlink:href="#ArialMT-115"/>
    <use x="817.074219" xlink:href="#ArialMT-117"/>
    <use x="872.689453" xlink:href="#ArialMT-108"/>
    <use x="894.90625" xlink:href="#ArialMT-116"/>
    <use x="922.689453" xlink:href="#ArialMT-115"/>
    <use x="972.689453" xlink:href="#ArialMT-32"/>
    <use x="1000.472656" xlink:href="#ArialMT-105"/>
    <use x="1022.689453" xlink:href="#ArialMT-110"/>
    <use x="1078.304688" xlink:href="#ArialMT-32"/>
    <use x="1106.087891" xlink:href="#ArialMT-49"/>
    <use x="1161.703125" xlink:href="#ArialMT-53"/>
    <use x="1217.318359" xlink:href="#ArialMT-48"/>
    <use x="1272.933594" xlink:href="#ArialMT-109"/>
    <use x="1356.234375" xlink:href="#ArialMT-115"/>
    <use x="1406.234375" xlink:href="#ArialMT-32"/>
    <use x="1434.017578" xlink:href="#ArialMT-111"/>
    <use x="1489.632812" xlink:href="#ArialMT-118"/>
    <use x="1539.632812" xlink:href="#ArialMT-101"/>
    <use x="1595.248047" xlink:href="#ArialMT-114"/>
    <use x="1628.548828" xlink:href="#ArialMT-32"/>
    <use x="1656.332031" xlink:href="#ArialMT-115"/>
    <use x="1706.332031" xlink:href="#ArialMT-117"/>
    <use x="1761.947266" xlink:href="#ArialMT-98"/>
    <use x="1817.5625" xlink:href="#ArialMT-115"/>
    <use x="1867.5625" xlink:href="#ArialMT-101"/>
    <use x="1923.177734" xlink:href="#ArialMT-113"/>
    <use x="1978.792969" xlink:href="#ArialMT-117"/>
    <use x="2034.408203" xlink:href="#ArialMT-101"/>
    <use x="2090.023438" xlink:href="#ArialMT-110"/>
    <use x="2145.638672" xlink:href="#ArialMT-116"/>
    <use x="2173.421875" xlink:href="#ArialMT-32"/>
    <use x="2201.205078" xlink:href="#ArialMT-113"/>
    <use x="2256.820312" xlink:href="#ArialMT-117"/>
    <use x="2312.435547" xlink:href="#ArialMT-101"/>
    <use x="2368.050781" xlink:href="#ArialMT-114"/>
    <use x="2401.351562" xlink:href="#ArialMT-105"/>
    <use x="2423.568359" xlink:href="#ArialMT-101"/>
    <use x="2479.183594" xlink:href="#ArialMT-115"/>
    <use x="2529.183594" xlink:href="#ArialMT-32"/>
    <use x="2556.966797" xlink:href="#ArialMT-105"/>
    <use x="2579.183594" xlink:href="#ArialMT-110"/>
    <use x="2634.798828" xlink:href="#ArialMT-32"/>
    <use x="2662.582031" xlink:href="#ArialMT-97"/>
    <use x="2718.197266" xlink:href="#ArialMT-32"/>
    <use x="2745.980469" xlink:href="#ArialMT-115"/>
    <use x="2795.980469" xlink:href="#ArialMT-101"/>
    <use x="2851.595703" xlink:href="#ArialMT-114"/>
    <use x="2884.896484" xlink:href="#ArialMT-105"/>
    <use x="2907.113281" xlink:href="#ArialMT-101"/>
    <use x="2962.728516" xlink:href="#ArialMT-115"/>
   </g>
  </g>
 </g>
 <defs>
  <clipPath id="p74079d7b25">
   <rect height="244.116" width="319.370084" x="65.304" y="54"/>
  </clipPath>
  <clipPath id="pb42f18a115">
   <rect height="244.116" width="319.370084" x="403.536" y="54"/>
  </clipPath>
  <clipPath id="p3e35dd8ddb">
   <rect height="244.116" width="319.370084" x="741.768" y="54"/>
  </clipPath>
 </defs>
</svg>
