<svg version="1.1" viewBox="0.0 0.0 960.0 540.0" fill="none" stroke="none" stroke-linecap="square" stroke-miterlimit="10" xmlns:xlink="http://www.w3.org/1999/xlink" xmlns="http://www.w3.org/2000/svg"><clipPath id="gd872feba9e_1_304.0"><path d="m0 0l960.0 0l0 540.0l-960.0 0l0 -540.0z" clip-rule="nonzero"/></clipPath><g clip-path="url(#gd872feba9e_1_304.0)"><path fill="#ffffff" d="m0 0l960.0 0l0 540.0l-960.0 0z" fill-rule="evenodd"/><path fill="#eeeeee" d="m377.768 4.979015l171.77954 0l0 80.88189l-171.77954 0z" fill-rule="evenodd"/><path stroke="#ff0000" stroke-width="2.0" stroke-linejoin="round" stroke-linecap="butt" d="m377.768 4.979015l171.77954 0l0 80.88189l-171.77954 0z" fill-rule="evenodd"/><path fill="#000000" d="m459.1148 51.27996l0 -11.453125l3.953125 0q1.328125 0 2.03125 0.15625q0.984375 0.234375 1.6875 0.828125q0.90625 0.765625 1.34375 1.953125q0.453125 1.1875 0.453125 2.71875q0 1.3125 -0.3125 2.328125q-0.296875 1.0 -0.78125 1.65625q-0.46875 0.65625 -1.03125 1.046875q-0.5625 0.375 -1.375 0.578125q-0.796875 0.1875 -1.828125 0.1875l-4.140625 0zm1.515625 -1.359375l2.453125 0q1.125 0 1.765625 -0.203125q0.65625 -0.21875 1.03125 -0.59375q0.546875 -0.546875 0.84375 -1.453125q0.296875 -0.90625 0.296875 -2.203125q0 -1.796875 -0.59375 -2.765625q-0.578125 -0.96875 -1.421875 -1.296875q-0.609375 -0.234375 -1.96875 -0.234375l-2.40625 0l0 8.75z" fill-rule="nonzero"/><path fill="#eeeeee" d="m173.4321 211.60774l171.77954 0l0 80.88188l-171.77954 0z" fill-rule="evenodd"/><path stroke="#000000" stroke-width="2.0" stroke-linejoin="round" stroke-linecap="butt" d="m173.4321 211.60774l171.77954 0l0 80.88188l-171.77954 0z" fill-rule="evenodd"/><path fill="#000000" d="m255.15779 257.9087l0 -11.453125l4.2968903 0q1.3125 0 2.109375 0.34375q0.796875 0.34375 1.234375 1.078125q0.453125 0.71875 0.453125 1.5q0 0.734375 -0.40625 1.390625q-0.390625 0.640625 -1.1875 1.046875q1.03125 0.296875 1.59375 1.03125q0.5625 0.734375 0.5625 1.734375q0 0.8125 -0.34375 1.5q-0.34375 0.6875 -0.84375 1.0625q-0.5 0.375 -1.25 0.578125q-0.75 0.1875 -1.84375 0.1875l-4.3750153 0zm1.5156403 -6.640625l2.484375 0q1.0 0 1.4375 -0.140625q0.578125 -0.171875 0.875 -0.5625q0.296875 -0.40625 0.296875 -1.0q0 -0.578125 -0.28125 -1.0q-0.265625 -0.4375 -0.78125 -0.59375q-0.5 -0.171875 -1.734375 -0.171875l-2.296875 0l0 3.46875zm0 5.28125l2.859375 0q0.734375 0 1.03125 -0.046875q0.515625 -0.09375 0.859375 -0.3125q0.359375 -0.21875 0.578125 -0.640625q0.234375 -0.421875 0.234375 -0.96875q0 -0.640625 -0.328125 -1.109375q-0.328125 -0.46875 -0.90625 -0.65625q-0.578125 -0.203125 -1.671875 -0.203125l-2.65625 0l0 3.9375z" fill-rule="nonzero"/><path fill="#eeeeee" d="m578.5976 211.60774l171.77954 0l0 80.88188l-171.77954 0z" fill-rule="evenodd"/><path stroke="#ff0000" stroke-width="2.0" stroke-linejoin="round" stroke-linecap="butt" d="m578.5976 211.60774l171.77954 0l0 80.88188l-171.77954 0z" fill-rule="evenodd"/><path fill="#000000" d="m660.91315 257.9087l0 -11.453125l7.734375 0l0 1.34375l-6.21875 0l0 3.546875l5.375 0l0 1.359375l-5.375 0l0 5.203125l-1.515625 0z" fill-rule="nonzero"/><path fill="#000000" fill-opacity="0.0" d="m463.65778 85.8609l-204.34644 125.732285" fill-rule="evenodd"/><path stroke="#000000" stroke-width="2.0" stroke-linejoin="round" stroke-linecap="butt" d="m463.65778 85.8609l-194.12613 119.44383" fill-rule="evenodd"/><path fill="#000000" stroke="#000000" stroke-width="2.0" stroke-linecap="butt" d="m267.8005 202.49118l-5.998993 7.569824l9.461304 -1.9427338z" fill-rule="evenodd"/><path fill="#000000" fill-opacity="0.0" d="m463.65778 85.8609l200.81891 125.732285" fill-rule="evenodd"/><path stroke="#ff0000" stroke-width="2.0" stroke-linejoin="round" stroke-linecap="butt" d="m463.65778 85.8609l190.64789 119.36429" fill-rule="evenodd"/><path fill="#ff0000" stroke="#ff0000" stroke-width="2.0" stroke-linecap="butt" d="m652.5527 208.02513l9.445862 2.0164948l-5.9397583 -7.616394z" fill-rule="evenodd"/><path fill="#eeeeee" d="m276.1657 454.14038l171.77954 0l0 80.8819l-171.77954 0z" fill-rule="evenodd"/><path stroke="#000000" stroke-width="2.0" stroke-linejoin="round" stroke-linecap="butt" d="m276.1657 454.14038l171.77954 0l0 80.8819l-171.77954 0z" fill-rule="evenodd"/><path fill="#000000" d="m365.6844 496.42572l1.515625 0.375q-0.46875 1.875 -1.71875 2.859375q-1.234375 0.984375 -3.015625 0.984375q-1.859375 0 -3.015625 -0.75q-1.15625 -0.765625 -1.765625 -2.1875q-0.609375 -1.4375 -0.609375 -3.078125q0 -1.796875 0.6875 -3.125q0.6875 -1.328125 1.9375 -2.015625q1.265625 -0.703125 2.78125 -0.703125q1.71875 0 2.890625 0.875q1.171875 0.875 1.640625 2.46875l-1.5 0.34375q-0.390625 -1.25 -1.15625 -1.8125q-0.75 -0.578125 -1.90625 -0.578125q-1.3125 0 -2.203125 0.640625q-0.890625 0.625 -1.25 1.703125q-0.359375 1.0625 -0.359375 2.1875q0 1.46875 0.421875 2.5625q0.4375 1.078125 1.328125 1.625q0.90625 0.53125 1.953125 0.53125q1.265625 0 2.140625 -0.734375q0.890625 -0.734375 1.203125 -2.171875z" fill-rule="nonzero"/><path fill="#eeeeee" d="m492.72537 454.14038l171.77951 0l0 80.8819l-171.77951 0z" fill-rule="evenodd"/><path stroke="#000000" stroke-width="2.0" stroke-linejoin="round" stroke-linecap="butt" d="m492.72537 454.14038l171.77951 0l0 80.8819l-171.77951 0z" fill-rule="evenodd"/><path fill="#000000" d="m574.5448 500.44135l0 -11.453125l8.28125 0l0 1.34375l-6.765625 0l0 3.515625l6.34375 0l0 1.34375l-6.34375 0l0 3.890625l7.03125 0l0 1.359375l-8.546875 0z" fill-rule="nonzero"/><path fill="#eeeeee" d="m691.73785 454.14038l171.77954 0l0 80.8819l-171.77954 0z" fill-rule="evenodd"/><path stroke="#ff0000" stroke-width="4.0" stroke-linejoin="round" stroke-linecap="butt" d="m691.73785 454.14038l171.77954 0l0 80.8819l-171.77954 0z" fill-rule="evenodd"/><path fill="#000000" d="m777.9987 495.94135l0 -1.34375l4.859375 0l0 4.25q-1.125 0.890625 -2.3125 1.34375q-1.1875 0.453125 -2.4375 0.453125q-1.6875 0 -3.0625 -0.71875q-1.375 -0.734375 -2.078125 -2.09375q-0.703125 -1.375 -0.703125 -3.0625q0 -1.671875 0.6875 -3.125q0.703125 -1.453125 2.015625 -2.15625q1.3125 -0.703125 3.03125 -0.703125q1.234375 0 2.234375 0.40625q1.015625 0.40625 1.578125 1.125q0.578125 0.71875 0.875 1.875l-1.375 0.375q-0.25 -0.875 -0.640625 -1.375q-0.375 -0.5 -1.09375 -0.796875q-0.703125 -0.3125 -1.578125 -0.3125q-1.03125 0 -1.796875 0.328125q-0.75 0.3125 -1.21875 0.828125q-0.46875 0.515625 -0.71875 1.125q-0.4375 1.0625 -0.4375 2.3125q0 1.53125 0.515625 2.5625q0.53125 1.03125 1.53125 1.53125q1.015625 0.5 2.15625 0.5q0.984375 0 1.921875 -0.375q0.9375 -0.390625 1.421875 -0.8125l0 -2.140625l-3.375 0z" fill-rule="nonzero"/><path fill="#000000" fill-opacity="0.0" d="m259.32187 292.48962l102.74014 161.63779" fill-rule="evenodd"/><path stroke="#000000" stroke-width="2.0" stroke-linejoin="round" stroke-linecap="butt" d="m259.32187 292.48962l96.30301 151.51047" fill-rule="evenodd"/><path fill="#000000" stroke="#000000" stroke-width="2.0" stroke-linecap="butt" d="m352.8369 445.77216l7.6566772 5.887726l-2.08078 -9.431885z" fill-rule="evenodd"/><path fill="#000000" fill-opacity="0.0" d="m664.48737 292.48962l-85.85828 161.63779" fill-rule="evenodd"/><path stroke="#000000" stroke-width="2.0" stroke-linejoin="round" stroke-linecap="butt" d="m664.48737 292.48962l-80.229004 151.04007" fill-rule="evenodd"/><path fill="#000000" stroke="#000000" stroke-width="2.0" stroke-linecap="butt" d="m581.34094 441.98004l-1.340271 9.565247l7.17511 -6.465912z" fill-rule="evenodd"/><path fill="#000000" fill-opacity="0.0" d="m664.48737 292.48962l113.13385 161.63779" fill-rule="evenodd"/><path stroke="#ff0000" stroke-width="2.0" stroke-linejoin="round" stroke-linecap="butt" d="m664.48737 292.48962l106.25281 151.80664" fill-rule="evenodd"/><path fill="#ff0000" stroke="#ff0000" stroke-width="2.0" stroke-linecap="butt" d="m768.0338 446.19055l7.9108276 5.541504l-2.4980469 -9.330048z" fill-rule="evenodd"/><path fill="#000000" fill-opacity="0.0" d="m59.590565 326.90945l161.48032 0l0 56.251953l-161.48032 0z" fill-rule="evenodd"/><path fill="#000000" d="m70.41869 344.6888l1.453125 0l0.046875 1.6875q0.8125 -0.984375 1.59375 -1.421875q0.796875 -0.4375 1.59375 -0.4375q1.421875 0 2.15625 0.921875q0.734375 0.921875 0.671875 2.734375l-1.59375 0q0.015625 -1.203125 -0.359375 -1.734375q-0.375 -0.546875 -1.109375 -0.546875q-0.3125 0 -0.640625 0.109375q-0.328125 0.109375 -0.671875 0.359375q-0.328125 0.25 -0.71875 0.640625q-0.375 0.390625 -0.8125 0.953125l0 5.875l-1.609375 0l0 -9.140625zm17.616669 4.078125q0 0.34375 -0.015625 0.578125q0 0.21875 -0.03125 0.421875l-6.421875 0q0 1.40625 0.78125 2.15625q0.796875 0.75 2.265625 0.75q0.40625 0 0.796875 -0.03125q0.40625 -0.03125 0.78125 -0.078125q0.375 -0.0625 0.71875 -0.125q0.34375 -0.078125 0.625 -0.15625l0 1.296875q-0.640625 0.1875 -1.46875 0.296875q-0.8125 0.109375 -1.6875 0.109375q-1.171875 0 -2.015625 -0.3125q-0.84375 -0.3125 -1.390625 -0.921875q-0.546875 -0.609375 -0.8125 -1.484375q-0.25 -0.875 -0.25 -2.0q0 -0.953125 0.28125 -1.8125q0.28125 -0.859375 0.8125 -1.515625q0.53125 -0.65625 1.296875 -1.03125q0.78125 -0.390625 1.765625 -0.390625q0.953125 0 1.6875 0.3125q0.75 0.296875 1.25 0.84375q0.5 0.546875 0.765625 1.34375q0.265625 0.78125 0.265625 1.75zm-1.65625 -0.21875q0.03125 -0.609375 -0.125 -1.109375q-0.140625 -0.515625 -0.453125 -0.875q-0.296875 -0.375 -0.75 -0.578125q-0.453125 -0.203125 -1.0625 -0.203125q-0.515625 0 -0.953125 0.203125q-0.421875 0.203125 -0.734375 0.5625q-0.296875 0.359375 -0.5 0.875q-0.1875 0.515625 -0.234375 1.125l4.8125 0zm7.3041687 -6.28125l-2.703125 0l0 -1.3125l4.296875 0l0 11.546875l2.734375 0l0 1.328125l-7.34375 0l0 -1.328125l3.015625 0l0 -10.234375zm13.007294 11.5625l-0.03125 -1.234375q-0.75 0.75 -1.515625 1.078125q-0.765625 0.3125 -1.625 0.3125q-0.78125 0 -1.34375 -0.1875q-0.546875 -0.203125 -0.90625 -0.546875q-0.359375 -0.359375 -0.53125 -0.828125q-0.15625 -0.484375 -0.15625 -1.03125q0 -1.375 1.015625 -2.15625q1.03125 -0.78125 3.03125 -0.78125l1.890625 0l0 -0.796875q0 -0.8125 -0.515625 -1.296875q-0.515625 -0.5 -1.578125 -0.5q-0.78125 0 -1.53125 0.1875q-0.75 0.171875 -1.546875 0.484375l0 -1.4375q0.296875 -0.109375 0.65625 -0.203125q0.375 -0.109375 0.78125 -0.1875q0.40625 -0.078125 0.859375 -0.125q0.453125 -0.0625 0.90625 -0.0625q0.828125 0 1.484375 0.1875q0.671875 0.171875 1.125 0.546875q0.46875 0.375 0.703125 0.953125q0.25 0.5625 0.25 1.328125l0 6.296875l-1.421875 0zm-0.171875 -4.15625l-2.015625 0q-0.578125 0 -1.015625 0.125q-0.421875 0.109375 -0.703125 0.328125q-0.265625 0.21875 -0.40625 0.53125q-0.125 0.296875 -0.125 0.671875q0 0.265625 0.078125 0.515625q0.078125 0.234375 0.265625 0.421875q0.1875 0.1875 0.46875 0.296875q0.296875 0.109375 0.71875 0.109375q0.546875 0 1.25 -0.328125q0.703125 -0.34375 1.484375 -1.0625l0 -1.609375zm11.929169 4.03125q-0.53125 0.140625 -1.109375 0.1875q-0.578125 0.0625 -1.171875 0.0625q-1.71875 0 -2.5625 -0.78125q-0.84375 -0.78125 -0.84375 -2.390625l0 -4.765625l-2.5625 0l0 -1.328125l2.5625 0l0 -2.515625l1.578125 -0.40625l0 2.921875l4.109375 0l0 1.328125l-4.109375 0l0 4.640625q0 0.984375 0.515625 1.46875q0.53125 0.484375 1.546875 0.484375q0.4375 0 0.953125 -0.0625q0.53125 -0.0625 1.09375 -0.21875l0 1.375zm6.0072937 -7.703125l-2.703125 0l0 -1.3125l4.296875 0l0 7.8125l2.7343674 0l0 1.328125l-7.3437424 0l0 -1.328125l3.015625 0l0 -6.5zm0.546875 -5.15625q0.265625 0 0.484375 0.09375q0.234375 0.09375 0.40625 0.28125q0.171875 0.171875 0.265625 0.390625q0.09375 0.21875 0.09375 0.484375q0 0.25 -0.09375 0.484375q-0.09375 0.234375 -0.265625 0.40625q-0.171875 0.171875 -0.40625 0.265625q-0.21875 0.09375 -0.484375 0.09375q-0.265625 0 -0.5 -0.09375q-0.21875 -0.09375 -0.390625 -0.265625q-0.15625 -0.171875 -0.265625 -0.40625q-0.09375 -0.234375 -0.09375 -0.484375q0 -0.265625 0.09375 -0.484375q0.109375 -0.21875 0.265625 -0.390625q0.171875 -0.1875 0.390625 -0.28125q0.234375 -0.09375 0.5 -0.09375zm14.554161 8.34375q0 1.0625 -0.3125 1.953125q-0.296875 0.890625 -0.859375 1.53125q-0.5625 0.625 -1.375 0.96875q-0.8125 0.34375 -1.84375 0.34375q-0.984375 0 -1.765625 -0.296875q-0.765625 -0.3125 -1.3125 -0.890625q-0.546875 -0.59375 -0.828125 -1.46875q-0.28125 -0.875 -0.28125 -2.015625q0 -1.0625 0.296875 -1.9375q0.296875 -0.890625 0.859375 -1.515625q0.5625 -0.640625 1.375 -0.984375q0.8125 -0.359375 1.84375 -0.359375q0.984375 0 1.765625 0.3125q0.78125 0.296875 1.3125 0.890625q0.546875 0.578125 0.828125 1.453125q0.296875 0.875 0.296875 2.015625zm-1.625 0.0625q0 -0.84375 -0.1875 -1.46875q-0.1875 -0.640625 -0.53125 -1.0625q-0.34375 -0.421875 -0.84375 -0.640625q-0.5 -0.21875 -1.109375 -0.21875q-0.703125 0 -1.21875 0.28125q-0.5 0.28125 -0.828125 0.75q-0.3125 0.453125 -0.46875 1.078125q-0.15625 0.609375 -0.15625 1.28125q0 0.859375 0.1875 1.5q0.1875 0.625 0.53125 1.046875q0.359375 0.421875 0.84375 0.640625q0.5 0.21875 1.109375 0.21875q0.71875 0 1.21875 -0.28125q0.5 -0.28125 0.828125 -0.734375q0.328125 -0.46875 0.46875 -1.078125q0.15625 -0.625 0.15625 -1.3125zm3.9135437 -4.5625l1.421875 0l0.0625 1.46875q0.390625 -0.46875 0.765625 -0.78125q0.375 -0.3125 0.734375 -0.5q0.359375 -0.203125 0.734375 -0.28125q0.375 -0.078125 0.78125 -0.078125q1.40625 0 2.125 0.84375q0.734375 0.828125 0.734375 2.5l0 5.96875l-1.59375 0l0 -5.84375q0 -1.078125 -0.40625 -1.578125q-0.390625 -0.515625 -1.1875 -0.515625q-0.28125 0 -0.5625 0.09375q-0.28125 0.078125 -0.578125 0.296875q-0.296875 0.203125 -0.65625 0.578125q-0.34375 0.359375 -0.78125 0.90625l0 6.0625l-1.59375 0l0 -9.140625z" fill-rule="nonzero"/><path fill="#000000" fill-opacity="0.0" d="m304.84018 327.24265l179.93698 0l0 56.251984l-179.93698 0z" fill-rule="evenodd"/><path fill="#000000" d="m315.6683 345.02203l1.453125 0l0.046875 1.6875q0.8125 -0.984375 1.59375 -1.421875q0.796875 -0.4375 1.59375 -0.4375q1.421875 0 2.15625 0.921875q0.734375 0.921875 0.671875 2.734375l-1.59375 0q0.015625 -1.203125 -0.359375 -1.734375q-0.375 -0.546875 -1.109375 -0.546875q-0.3125 0 -0.640625 0.109375q-0.328125 0.109375 -0.671875 0.359375q-0.328125 0.25 -0.71875 0.640625q-0.375 0.390625 -0.8125 0.953125l0 5.875l-1.609375 0l0 -9.140625zm17.616669 4.078125q0 0.34375 -0.015625 0.578125q0 0.21875 -0.03125 0.421875l-6.421875 0q0 1.40625 0.78125 2.15625q0.796875 0.75 2.265625 0.75q0.40625 0 0.796875 -0.03125q0.40625 -0.03125 0.78125 -0.078125q0.375 -0.0625 0.71875 -0.125q0.34375 -0.078125 0.625 -0.15625l0 1.296875q-0.640625 0.1875 -1.46875 0.296875q-0.8125 0.109375 -1.6875 0.109375q-1.171875 0 -2.015625 -0.3125q-0.84375 -0.3125 -1.390625 -0.921875q-0.546875 -0.609375 -0.8125 -1.484375q-0.25 -0.875 -0.25 -2.0q0 -0.953125 0.28125 -1.8125q0.28125 -0.859375 0.8125 -1.515625q0.53125 -0.65625 1.296875 -1.03125q0.78125 -0.390625 1.765625 -0.390625q0.953125 0 1.6875 0.3125q0.75 0.296875 1.25 0.84375q0.5 0.546875 0.765625 1.34375q0.265625 0.78125 0.265625 1.75zm-1.65625 -0.21875q0.03125 -0.609375 -0.125 -1.109375q-0.140625 -0.515625 -0.453125 -0.875q-0.296875 -0.375 -0.75 -0.578125q-0.453125 -0.203125 -1.0625 -0.203125q-0.515625 0 -0.953125 0.203125q-0.421875 0.203125 -0.734375 0.5625q-0.296875 0.359375 -0.5 0.875q-0.1875 0.515625 -0.234375 1.125l4.8125 0zm7.3041687 -6.28125l-2.703125 0l0 -1.3125l4.296875 0l0 11.546875l2.734375 0l0 1.328125l-7.34375 0l0 -1.328125l3.015625 0l0 -10.234375zm13.007294 11.5625l-0.03125 -1.234375q-0.75 0.75 -1.515625 1.078125q-0.765625 0.3125 -1.625 0.3125q-0.78125 0 -1.34375 -0.1875q-0.546875 -0.203125 -0.90625 -0.546875q-0.359375 -0.359375 -0.53125 -0.828125q-0.15625 -0.484375 -0.15625 -1.03125q0 -1.375 1.015625 -2.15625q1.03125 -0.78125 3.03125 -0.78125l1.890625 0l0 -0.796875q0 -0.8125 -0.515625 -1.296875q-0.515625 -0.5 -1.578125 -0.5q-0.78125 0 -1.53125 0.1875q-0.75 0.171875 -1.546875 0.484375l0 -1.4375q0.296875 -0.109375 0.65625 -0.203125q0.375 -0.109375 0.78125 -0.1875q0.40625 -0.078125 0.859375 -0.125q0.453125 -0.0625 0.90625 -0.0625q0.828125 0 1.484375 0.1875q0.671875 0.171875 1.125 0.546875q0.46875 0.375 0.703125 0.953125q0.25 0.5625 0.25 1.328125l0 6.296875l-1.421875 0zm-0.171875 -4.15625l-2.015625 0q-0.578125 0 -1.015625 0.125q-0.421875 0.109375 -0.703125 0.328125q-0.265625 0.21875 -0.40625 0.53125q-0.125 0.296875 -0.125 0.671875q0 0.265625 0.078125 0.515625q0.078125 0.234375 0.265625 0.421875q0.1875 0.1875 0.46875 0.296875q0.296875 0.109375 0.71875 0.109375q0.546875 0 1.25 -0.328125q0.703125 -0.34375 1.484375 -1.0625l0 -1.609375zm11.929169 4.03125q-0.53125 0.140625 -1.109375 0.1875q-0.578125 0.0625 -1.171875 0.0625q-1.71875 0 -2.5625 -0.78125q-0.84375 -0.78125 -0.84375 -2.390625l0 -4.765625l-2.5625 0l0 -1.328125l2.5625 0l0 -2.515625l1.578125 -0.40625l0 2.921875l4.109375 0l0 1.328125l-4.109375 0l0 4.640625q0 0.984375 0.515625 1.46875q0.53125 0.484375 1.546875 0.484375q0.4375 0 0.953125 -0.0625q0.53125 -0.0625 1.09375 -0.21875l0 1.375zm6.0072937 -7.703125l-2.703125 0l0 -1.3125l4.296875 0l0 7.8125l2.734375 0l0 1.328125l-7.34375 0l0 -1.328125l3.015625 0l0 -6.5zm0.546875 -5.15625q0.265625 0 0.484375 0.09375q0.234375 0.09375 0.40625 0.28125q0.171875 0.171875 0.265625 0.390625q0.09375 0.21875 0.09375 0.484375q0 0.25 -0.09375 0.484375q-0.09375 0.234375 -0.265625 0.40625q-0.171875 0.171875 -0.40625 0.265625q-0.21875 0.09375 -0.484375 0.09375q-0.265625 0 -0.5 -0.09375q-0.21875 -0.09375 -0.390625 -0.265625q-0.15625 -0.171875 -0.265625 -0.40625q-0.09375 -0.234375 -0.09375 -0.484375q0 -0.265625 0.09375 -0.484375q0.109375 -0.21875 0.265625 -0.390625q0.171875 -0.1875 0.390625 -0.28125q0.234375 -0.09375 0.5 -0.09375zm14.554169 8.34375q0 1.0625 -0.3125 1.953125q-0.296875 0.890625 -0.859375 1.53125q-0.5625 0.625 -1.375 0.96875q-0.8125 0.34375 -1.84375 0.34375q-0.984375 0 -1.765625 -0.296875q-0.765625 -0.3125 -1.3125 -0.890625q-0.546875 -0.59375 -0.828125 -1.46875q-0.28125 -0.875 -0.28125 -2.015625q0 -1.0625 0.296875 -1.9375q0.296875 -0.890625 0.859375 -1.515625q0.5625 -0.640625 1.375 -0.984375q0.8125 -0.359375 1.84375 -0.359375q0.984375 0 1.765625 0.3125q0.78125 0.296875 1.3125 0.890625q0.546875 0.578125 0.828125 1.453125q0.296875 0.875 0.296875 2.015625zm-1.625 0.0625q0 -0.84375 -0.1875 -1.46875q-0.1875 -0.640625 -0.53125 -1.0625q-0.34375 -0.421875 -0.84375 -0.640625q-0.5 -0.21875 -1.109375 -0.21875q-0.703125 0 -1.21875 0.28125q-0.5 0.28125 -0.828125 0.75q-0.3125 0.453125 -0.46875 1.078125q-0.15625 0.609375 -0.15625 1.28125q0 0.859375 0.1875 1.5q0.1875 0.625 0.53125 1.046875q0.359375 0.421875 0.84375 0.640625q0.5 0.21875 1.109375 0.21875q0.71875 0 1.21875 -0.28125q0.5 -0.28125 0.828125 -0.734375q0.328125 -0.46875 0.46875 -1.078125q0.15625 -0.625 0.15625 -1.3125zm3.9135437 -4.5625l1.421875 0l0.0625 1.46875q0.390625 -0.46875 0.765625 -0.78125q0.375 -0.3125 0.734375 -0.5q0.359375 -0.203125 0.734375 -0.28125q0.375 -0.078125 0.78125 -0.078125q1.40625 0 2.125 0.84375q0.734375 0.828125 0.734375 2.5l0 5.96875l-1.59375 0l0 -5.84375q0 -1.078125 -0.40625 -1.578125q-0.390625 -0.515625 -1.1875 -0.515625q-0.28125 0 -0.5625 0.09375q-0.28125 0.078125 -0.578125 0.296875q-0.296875 0.203125 -0.65625 0.578125q-0.34375 0.359375 -0.78125 0.90625l0 6.0625l-1.59375 0l0 -9.140625z" fill-rule="nonzero"/><path fill="#000000" fill-opacity="0.0" d="m484.76736 327.24265l150.4567 0l0 56.251984l-150.4567 0z" fill-rule="evenodd"/><path fill="#000000" d="m495.5955 345.02203l1.453125 0l0.046875 1.6875q0.8125 -0.984375 1.59375 -1.421875q0.796875 -0.4375 1.59375 -0.4375q1.421875 0 2.15625 0.921875q0.734375 0.921875 0.671875 2.734375l-1.59375 0q0.015625 -1.203125 -0.359375 -1.734375q-0.375 -0.546875 -1.109375 -0.546875q-0.3125 0 -0.640625 0.109375q-0.328125 0.109375 -0.671875 0.359375q-0.328125 0.25 -0.71875 0.640625q-0.375 0.390625 -0.8125 0.953125l0 5.875l-1.609375 0l0 -9.140625zm17.616669 4.078125q0 0.34375 -0.015625 0.578125q0 0.21875 -0.03125 0.421875l-6.421875 0q0 1.40625 0.78125 2.15625q0.796875 0.75 2.265625 0.75q0.40625 0 0.796875 -0.03125q0.40625 -0.03125 0.78125 -0.078125q0.375 -0.0625 0.71875 -0.125q0.34375 -0.078125 0.625 -0.15625l0 1.296875q-0.640625 0.1875 -1.46875 0.296875q-0.8125 0.109375 -1.6875 0.109375q-1.171875 0 -2.015625 -0.3125q-0.84375 -0.3125 -1.390625 -0.921875q-0.546875 -0.609375 -0.8125 -1.484375q-0.25 -0.875 -0.25 -2.0q0 -0.953125 0.28125 -1.8125q0.28125 -0.859375 0.8125 -1.515625q0.53125 -0.65625 1.296875 -1.03125q0.78125 -0.390625 1.765625 -0.390625q0.953125 0 1.6875 0.3125q0.75 0.296875 1.25 0.84375q0.5 0.546875 0.765625 1.34375q0.265625 0.78125 0.265625 1.75zm-1.65625 -0.21875q0.03125 -0.609375 -0.125 -1.109375q-0.140625 -0.515625 -0.453125 -0.875q-0.296875 -0.375 -0.75 -0.578125q-0.453125 -0.203125 -1.0625 -0.203125q-0.515625 0 -0.953125 0.203125q-0.421875 0.203125 -0.734375 0.5625q-0.296875 0.359375 -0.5 0.875q-0.1875 0.515625 -0.234375 1.125l4.8125 0zm7.304138 -6.28125l-2.703125 0l0 -1.3125l4.296875 0l0 11.546875l2.734375 0l0 1.328125l-7.34375 0l0 -1.328125l3.015625 0l0 -10.234375zm13.007324 11.5625l-0.03125 -1.234375q-0.75 0.75 -1.515625 1.078125q-0.765625 0.3125 -1.625 0.3125q-0.78125 0 -1.34375 -0.1875q-0.546875 -0.203125 -0.90625 -0.546875q-0.359375 -0.359375 -0.53125 -0.828125q-0.15625 -0.484375 -0.15625 -1.03125q0 -1.375 1.015625 -2.15625q1.03125 -0.78125 3.03125 -0.78125l1.890625 0l0 -0.796875q0 -0.8125 -0.515625 -1.296875q-0.515625 -0.5 -1.578125 -0.5q-0.78125 0 -1.53125 0.1875q-0.75 0.171875 -1.546875 0.484375l0 -1.4375q0.296875 -0.109375 0.65625 -0.203125q0.375 -0.109375 0.78125 -0.1875q0.40625 -0.078125 0.859375 -0.125q0.453125 -0.0625 0.90625 -0.0625q0.828125 0 1.484375 0.1875q0.671875 0.171875 1.125 0.546875q0.46875 0.375 0.703125 0.953125q0.25 0.5625 0.25 1.328125l0 6.296875l-1.421875 0zm-0.171875 -4.15625l-2.015625 0q-0.578125 0 -1.015625 0.125q-0.421875 0.109375 -0.703125 0.328125q-0.265625 0.21875 -0.40625 0.53125q-0.125 0.296875 -0.125 0.671875q0 0.265625 0.078125 0.515625q0.078125 0.234375 0.265625 0.421875q0.1875 0.1875 0.46875 0.296875q0.296875 0.109375 0.71875 0.109375q0.546875 0 1.25 -0.328125q0.703125 -0.34375 1.484375 -1.0625l0 -1.609375zm11.929138 4.03125q-0.53125 0.140625 -1.109375 0.1875q-0.578125 0.0625 -1.171875 0.0625q-1.71875 0 -2.5625 -0.78125q-0.84375 -0.78125 -0.84375 -2.390625l0 -4.765625l-2.5625 0l0 -1.328125l2.5625 0l0 -2.515625l1.578125 -0.40625l0 2.921875l4.109375 0l0 1.328125l-4.109375 0l0 4.640625q0 0.984375 0.515625 1.46875q0.53125 0.484375 1.546875 0.484375q0.4375 0 0.953125 -0.0625q0.53125 -0.0625 1.09375 -0.21875l0 1.375zm6.007324 -7.703125l-2.703125 0l0 -1.3125l4.296875 0l0 7.8125l2.734375 0l0 1.328125l-7.34375 0l0 -1.328125l3.015625 0l0 -6.5zm0.546875 -5.15625q0.265625 0 0.484375 0.09375q0.234375 0.09375 0.40625 0.28125q0.171875 0.171875 0.265625 0.390625q0.09375 0.21875 0.09375 0.484375q0 0.25 -0.09375 0.484375q-0.09375 0.234375 -0.265625 0.40625q-0.171875 0.171875 -0.40625 0.265625q-0.21875 0.09375 -0.484375 0.09375q-0.265625 0 -0.5 -0.09375q-0.21875 -0.09375 -0.390625 -0.265625q-0.15625 -0.171875 -0.265625 -0.40625q-0.09375 -0.234375 -0.09375 -0.484375q0 -0.265625 0.09375 -0.484375q0.109375 -0.21875 0.265625 -0.390625q0.171875 -0.1875 0.390625 -0.28125q0.234375 -0.09375 0.5 -0.09375zm14.554138 8.34375q0 1.0625 -0.3125 1.953125q-0.296875 0.890625 -0.859375 1.53125q-0.5625 0.625 -1.375 0.96875q-0.8125 0.34375 -1.84375 0.34375q-0.984375 0 -1.765625 -0.296875q-0.765625 -0.3125 -1.3125 -0.890625q-0.546875 -0.59375 -0.828125 -1.46875q-0.28125 -0.875 -0.28125 -2.015625q0 -1.0625 0.296875 -1.9375q0.296875 -0.890625 0.859375 -1.515625q0.5625 -0.640625 1.375 -0.984375q0.8125 -0.359375 1.84375 -0.359375q0.984375 0 1.765625 0.3125q0.78125 0.296875 1.3125 0.890625q0.546875 0.578125 0.828125 1.453125q0.296875 0.875 0.296875 2.015625zm-1.625 0.0625q0 -0.84375 -0.1875 -1.46875q-0.1875 -0.640625 -0.53125 -1.0625q-0.34375 -0.421875 -0.84375 -0.640625q-0.5 -0.21875 -1.109375 -0.21875q-0.703125 0 -1.21875 0.28125q-0.5 0.28125 -0.828125 0.75q-0.3125 0.453125 -0.46875 1.078125q-0.15625 0.609375 -0.15625 1.28125q0 0.859375 0.1875 1.5q0.1875 0.625 0.53125 1.046875q0.359375 0.421875 0.84375 0.640625q0.5 0.21875 1.109375 0.21875q0.71875 0 1.21875 -0.28125q0.5 -0.28125 0.828125 -0.734375q0.328125 -0.46875 0.46875 -1.078125q0.15625 -0.625 0.15625 -1.3125zm3.9135742 -4.5625l1.421875 0l0.0625 1.46875q0.390625 -0.46875 0.765625 -0.78125q0.375 -0.3125 0.734375 -0.5q0.359375 -0.203125 0.734375 -0.28125q0.375 -0.078125 0.78125 -0.078125q1.40625 0 2.125 0.84375q0.734375 0.828125 0.734375 2.5l0 5.96875l-1.59375 0l0 -5.84375q0 -1.078125 -0.40625 -1.578125q-0.390625 -0.515625 -1.1875 -0.515625q-0.28125 0 -0.5625 0.09375q-0.28125 0.078125 -0.578125 0.296875q-0.296875 0.203125 -0.65625 0.578125q-0.34375 0.359375 -0.78125 0.90625l0 6.0625l-1.59375 0l0 -9.140625z" fill-rule="nonzero"/><path fill="#000000" fill-opacity="0.0" d="m710.3505 326.90945l171.77948 0l0 56.251953l-171.77948 0z" fill-rule="evenodd"/><path fill="#000000" d="m721.17865 344.6888l1.453125 0l0.046875 1.6875q0.8125 -0.984375 1.59375 -1.421875q0.796875 -0.4375 1.59375 -0.4375q1.421875 0 2.15625 0.921875q0.734375 0.921875 0.671875 2.734375l-1.59375 0q0.015625 -1.203125 -0.359375 -1.734375q-0.375 -0.546875 -1.109375 -0.546875q-0.3125 0 -0.640625 0.109375q-0.328125 0.109375 -0.671875 0.359375q-0.328125 0.25 -0.71875 0.640625q-0.375 0.390625 -0.8125 0.953125l0 5.875l-1.609375 0l0 -9.140625zm17.616638 4.078125q0 0.34375 -0.015625 0.578125q0 0.21875 -0.03125 0.421875l-6.421875 0q0 1.40625 0.78125 2.15625q0.796875 0.75 2.265625 0.75q0.40625 0 0.796875 -0.03125q0.40625 -0.03125 0.78125 -0.078125q0.375 -0.0625 0.71875 -0.125q0.34375 -0.078125 0.625 -0.15625l0 1.296875q-0.640625 0.1875 -1.46875 0.296875q-0.8125 0.109375 -1.6875 0.109375q-1.171875 0 -2.015625 -0.3125q-0.84375 -0.3125 -1.390625 -0.921875q-0.546875 -0.609375 -0.8125 -1.484375q-0.25 -0.875 -0.25 -2.0q0 -0.953125 0.28125 -1.8125q0.28125 -0.859375 0.8125 -1.515625q0.53125 -0.65625 1.296875 -1.03125q0.78125 -0.390625 1.765625 -0.390625q0.953125 0 1.6875 0.3125q0.75 0.296875 1.25 0.84375q0.5 0.546875 0.765625 1.34375q0.265625 0.78125 0.265625 1.75zm-1.65625 -0.21875q0.03125 -0.609375 -0.125 -1.109375q-0.140625 -0.515625 -0.453125 -0.875q-0.296875 -0.375 -0.75 -0.578125q-0.453125 -0.203125 -1.0625 -0.203125q-0.515625 0 -0.953125 0.203125q-0.421875 0.203125 -0.734375 0.5625q-0.296875 0.359375 -0.5 0.875q-0.1875 0.515625 -0.234375 1.125l4.8125 0zm7.304199 -6.28125l-2.703125 0l0 -1.3125l4.296875 0l0 11.546875l2.734375 0l0 1.328125l-7.34375 0l0 -1.328125l3.015625 0l0 -10.234375zm13.007263 11.5625l-0.03125 -1.234375q-0.75 0.75 -1.515625 1.078125q-0.765625 0.3125 -1.625 0.3125q-0.78125 0 -1.34375 -0.1875q-0.546875 -0.203125 -0.90625 -0.546875q-0.359375 -0.359375 -0.53125 -0.828125q-0.15625 -0.484375 -0.15625 -1.03125q0 -1.375 1.015625 -2.15625q1.03125 -0.78125 3.03125 -0.78125l1.890625 0l0 -0.796875q0 -0.8125 -0.515625 -1.296875q-0.515625 -0.5 -1.578125 -0.5q-0.78125 0 -1.53125 0.1875q-0.75 0.171875 -1.546875 0.484375l0 -1.4375q0.296875 -0.109375 0.65625 -0.203125q0.375 -0.109375 0.78125 -0.1875q0.40625 -0.078125 0.859375 -0.125q0.453125 -0.0625 0.90625 -0.0625q0.828125 0 1.484375 0.1875q0.671875 0.171875 1.125 0.546875q0.46875 0.375 0.703125 0.953125q0.25 0.5625 0.25 1.328125l0 6.296875l-1.421875 0zm-0.171875 -4.15625l-2.015625 0q-0.578125 0 -1.015625 0.125q-0.421875 0.109375 -0.703125 0.328125q-0.265625 0.21875 -0.40625 0.53125q-0.125 0.296875 -0.125 0.671875q0 0.265625 0.078125 0.515625q0.078125 0.234375 0.265625 0.421875q0.1875 0.1875 0.46875 0.296875q0.296875 0.109375 0.71875 0.109375q0.546875 0 1.25 -0.328125q0.703125 -0.34375 1.484375 -1.0625l0 -1.609375zm11.929199 4.03125q-0.53125 0.140625 -1.109375 0.1875q-0.578125 0.0625 -1.171875 0.0625q-1.71875 0 -2.5625 -0.78125q-0.84375 -0.78125 -0.84375 -2.390625l0 -4.765625l-2.5625 0l0 -1.328125l2.5625 0l0 -2.515625l1.578125 -0.40625l0 2.921875l4.109375 0l0 1.328125l-4.109375 0l0 4.640625q0 0.984375 0.515625 1.46875q0.53125 0.484375 1.546875 0.484375q0.4375 0 0.953125 -0.0625q0.53125 -0.0625 1.09375 -0.21875l0 1.375zm6.007263 -7.703125l-2.703125 0l0 -1.3125l4.296875 0l0 7.8125l2.734375 0l0 1.328125l-7.34375 0l0 -1.328125l3.015625 0l0 -6.5zm0.546875 -5.15625q0.265625 0 0.484375 0.09375q0.234375 0.09375 0.40625 0.28125q0.171875 0.171875 0.265625 0.390625q0.09375 0.21875 0.09375 0.484375q0 0.25 -0.09375 0.484375q-0.09375 0.234375 -0.265625 0.40625q-0.171875 0.171875 -0.40625 0.265625q-0.21875 0.09375 -0.484375 0.09375q-0.265625 0 -0.5 -0.09375q-0.21875 -0.09375 -0.390625 -0.265625q-0.15625 -0.171875 -0.265625 -0.40625q-0.09375 -0.234375 -0.09375 -0.484375q0 -0.265625 0.09375 -0.484375q0.109375 -0.21875 0.265625 -0.390625q0.171875 -0.1875 0.390625 -0.28125q0.234375 -0.09375 0.5 -0.09375zm14.554199 8.34375q0 1.0625 -0.3125 1.953125q-0.296875 0.890625 -0.859375 1.53125q-0.5625 0.625 -1.375 0.96875q-0.8125 0.34375 -1.84375 0.34375q-0.984375 0 -1.765625 -0.296875q-0.765625 -0.3125 -1.3125 -0.890625q-0.546875 -0.59375 -0.828125 -1.46875q-0.28125 -0.875 -0.28125 -2.015625q0 -1.0625 0.296875 -1.9375q0.296875 -0.890625 0.859375 -1.515625q0.5625 -0.640625 1.375 -0.984375q0.8125 -0.359375 1.84375 -0.359375q0.984375 0 1.765625 0.3125q0.78125 0.296875 1.3125 0.890625q0.546875 0.578125 0.828125 1.453125q0.296875 0.875 0.296875 2.015625zm-1.625 0.0625q0 -0.84375 -0.1875 -1.46875q-0.1875 -0.640625 -0.53125 -1.0625q-0.34375 -0.421875 -0.84375 -0.640625q-0.5 -0.21875 -1.109375 -0.21875q-0.703125 0 -1.21875 0.28125q-0.5 0.28125 -0.828125 0.75q-0.3125 0.453125 -0.46875 1.078125q-0.15625 0.609375 -0.15625 1.28125q0 0.859375 0.1875 1.5q0.1875 0.625 0.53125 1.046875q0.359375 0.421875 0.84375 0.640625q0.5 0.21875 1.109375 0.21875q0.71875 0 1.21875 -0.28125q0.5 -0.28125 0.828125 -0.734375q0.328125 -0.46875 0.46875 -1.078125q0.15625 -0.625 0.15625 -1.3125zm3.9135132 -4.5625l1.421875 0l0.0625 1.46875q0.390625 -0.46875 0.765625 -0.78125q0.375 -0.3125 0.734375 -0.5q0.359375 -0.203125 0.734375 -0.28125q0.375 -0.078125 0.78125 -0.078125q1.40625 0 2.125 0.84375q0.734375 0.828125 0.734375 2.5l0 5.96875l-1.59375 0l0 -5.84375q0 -1.078125 -0.40625 -1.578125q-0.390625 -0.515625 -1.1875 -0.515625q-0.28125 0 -0.5625 0.09375q-0.28125 0.078125 -0.578125 0.296875q-0.296875 0.203125 -0.65625 0.578125q-0.34375 0.359375 -0.78125 0.90625l0 6.0625l-1.59375 0l0 -9.140625z" fill-rule="nonzero"/><path fill="#000000" fill-opacity="0.0" d="m182.11462 110.49015l179.93701 0l0 56.251976l-179.93701 0z" fill-rule="evenodd"/><path fill="#000000" d="m192.94275 128.26953l1.453125 0l0.046875 1.6875q0.8125 -0.984375 1.59375 -1.421875q0.796875 -0.4375 1.59375 -0.4375q1.421875 0 2.15625 0.921875q0.734375 0.921875 0.671875 2.734375l-1.59375 0q0.015625 -1.203125 -0.359375 -1.734375q-0.375 -0.546875 -1.109375 -0.546875q-0.3125 0 -0.640625 0.109375q-0.328125 0.109375 -0.671875 0.359375q-0.328125 0.25 -0.71875 0.640625q-0.375 0.390625 -0.8125 0.953125l0 5.875l-1.609375 0l0 -9.140625zm17.616669 4.078125q0 0.34375 -0.015625 0.578125q0 0.21875 -0.03125 0.421875l-6.421875 0q0 1.40625 0.78125 2.15625q0.796875 0.75 2.265625 0.75q0.40625 0 0.796875 -0.03125q0.40625 -0.03125 0.78125 -0.078125q0.375 -0.0625 0.71875 -0.125q0.34375 -0.078125 0.625 -0.15625l0 1.296875q-0.640625 0.1875 -1.46875 0.296875q-0.8125 0.109375 -1.6875 0.109375q-1.171875 0 -2.015625 -0.3125q-0.84375 -0.3125 -1.390625 -0.921875q-0.546875 -0.609375 -0.8125 -1.484375q-0.25 -0.875 -0.25 -2.0q0 -0.953125 0.28125 -1.8125q0.28125 -0.859375 0.8125 -1.515625q0.53125 -0.65625 1.296875 -1.03125q0.78125 -0.390625 1.765625 -0.390625q0.953125 0 1.6875 0.3125q0.75 0.296875 1.25 0.84375q0.5 0.546875 0.765625 1.34375q0.265625 0.78125 0.265625 1.75zm-1.65625 -0.21875q0.03125 -0.609375 -0.125 -1.109375q-0.140625 -0.515625 -0.453125 -0.875q-0.296875 -0.375 -0.75 -0.578125q-0.453125 -0.203125 -1.0625 -0.203125q-0.515625 0 -0.953125 0.203125q-0.421875 0.203125 -0.734375 0.5625q-0.296875 0.359375 -0.5 0.875q-0.1875 0.515625 -0.234375 1.125l4.8125 0zm7.3041687 -6.2812576l-2.703125 0l0 -1.3125l4.296875 0l0 11.546883l2.734375 0l0 1.328125l-7.34375 0l0 -1.328125l3.015625 0l0 -10.234383zm13.007294 11.562508l-0.03125 -1.234375q-0.75 0.75 -1.515625 1.078125q-0.765625 0.3125 -1.625 0.3125q-0.78125 0 -1.34375 -0.1875q-0.546875 -0.203125 -0.90625 -0.546875q-0.359375 -0.359375 -0.53125 -0.828125q-0.15625 -0.484375 -0.15625 -1.03125q0 -1.375 1.015625 -2.15625q1.03125 -0.78125 3.03125 -0.78125l1.890625 0l0 -0.796875q0 -0.8125 -0.515625 -1.296875q-0.515625 -0.5 -1.578125 -0.5q-0.78125 0 -1.53125 0.1875q-0.75 0.171875 -1.546875 0.484375l0 -1.4375q0.296875 -0.109375 0.65625 -0.203125q0.375 -0.109375 0.78125 -0.1875q0.40625 -0.078125 0.859375 -0.125q0.453125 -0.0625 0.90625 -0.0625q0.828125 0 1.484375 0.1875q0.671875 0.171875 1.125 0.546875q0.46875 0.375 0.703125 0.953125q0.25 0.5625 0.25 1.328125l0 6.296875l-1.421875 0zm-0.171875 -4.15625l-2.015625 0q-0.578125 0 -1.015625 0.125q-0.421875 0.109375 -0.703125 0.328125q-0.265625 0.21875 -0.40625 0.53125q-0.125 0.296875 -0.125 0.671875q0 0.265625 0.078125 0.515625q0.078125 0.234375 0.265625 0.421875q0.1875 0.1875 0.46875 0.296875q0.296875 0.109375 0.71875 0.109375q0.546875 0 1.25 -0.328125q0.703125 -0.34375 1.484375 -1.0625l0 -1.609375zm11.929169 4.03125q-0.53125 0.140625 -1.109375 0.1875q-0.578125 0.0625 -1.171875 0.0625q-1.71875 0 -2.5625 -0.78125q-0.84375 -0.78125 -0.84375 -2.390625l0 -4.765625l-2.5625 0l0 -1.328125l2.5625 0l0 -2.5156326l1.578125 -0.40625l0 2.9218826l4.109375 0l0 1.328125l-4.109375 0l0 4.640625q0 0.984375 0.515625 1.46875q0.53125 0.484375 1.546875 0.484375q0.4375 0 0.953125 -0.0625q0.53125 -0.0625 1.09375 -0.21875l0 1.375zm6.0072937 -7.703125l-2.703125 0l0 -1.3125l4.296875 0l0 7.8125l2.734375 0l0 1.328125l-7.34375 0l0 -1.328125l3.015625 0l0 -6.5zm0.546875 -5.1562576q0.265625 0 0.484375 0.09375q0.234375 0.09375 0.40625 0.28125q0.171875 0.171875 0.265625 0.390625q0.09375 0.21875 0.09375 0.484375q0 0.25 -0.09375 0.484375q-0.09375 0.234375 -0.265625 0.40625q-0.171875 0.171875 -0.40625 0.265625q-0.21875 0.09375 -0.484375 0.09375q-0.265625 0 -0.5 -0.09375q-0.21875 -0.09375 -0.390625 -0.265625q-0.15625 -0.171875 -0.265625 -0.40625q-0.09375 -0.234375 -0.09375 -0.484375q0 -0.265625 0.09375 -0.484375q0.109375 -0.21875 0.265625 -0.390625q0.171875 -0.1875 0.390625 -0.28125q0.234375 -0.09375 0.5 -0.09375zm14.554169 8.343758q0 1.0625 -0.3125 1.953125q-0.296875 0.890625 -0.859375 1.53125q-0.5625 0.625 -1.375 0.96875q-0.8125 0.34375 -1.84375 0.34375q-0.984375 0 -1.765625 -0.296875q-0.765625 -0.3125 -1.3125 -0.890625q-0.546875 -0.59375 -0.828125 -1.46875q-0.28125 -0.875 -0.28125 -2.015625q0 -1.0625 0.296875 -1.9375q0.296875 -0.890625 0.859375 -1.515625q0.5625 -0.640625 1.375 -0.984375q0.8125 -0.359375 1.84375 -0.359375q0.984375 0 1.765625 0.3125q0.78125 0.296875 1.3125 0.890625q0.546875 0.578125 0.828125 1.453125q0.296875 0.875 0.296875 2.015625zm-1.625 0.0625q0 -0.84375 -0.1875 -1.46875q-0.1875 -0.640625 -0.53125 -1.0625q-0.34375 -0.421875 -0.84375 -0.640625q-0.5 -0.21875 -1.109375 -0.21875q-0.703125 0 -1.21875 0.28125q-0.5 0.28125 -0.828125 0.75q-0.3125 0.453125 -0.46875 1.078125q-0.15625 0.609375 -0.15625 1.28125q0 0.859375 0.1875 1.5q0.1875 0.625 0.53125 1.046875q0.359375 0.421875 0.84375 0.640625q0.5 0.21875 1.109375 0.21875q0.71875 0 1.21875 -0.28125q0.5 -0.28125 0.828125 -0.734375q0.328125 -0.46875 0.46875 -1.078125q0.15625 -0.625 0.15625 -1.3125zm3.9135437 -4.5625l1.421875 0l0.0625 1.46875q0.390625 -0.46875 0.765625 -0.78125q0.375 -0.3125 0.734375 -0.5q0.359375 -0.203125 0.734375 -0.28125q0.375 -0.078125 0.78125 -0.078125q1.40625 0 2.125 0.84375q0.734375 0.828125 0.734375 2.5l0 5.96875l-1.59375 0l0 -5.84375q0 -1.078125 -0.40625 -1.578125q-0.390625 -0.515625 -1.1875 -0.515625q-0.28125 0 -0.5625 0.09375q-0.28125 0.078125 -0.578125 0.296875q-0.296875 0.203125 -0.65625 0.578125q-0.34375 0.359375 -0.78125 0.90625l0 6.0625l-1.59375 0l0 -9.140625z" fill-rule="nonzero"/><path fill="#000000" fill-opacity="0.0" d="m572.76276 110.49015l262.42517 0l0 56.251976l-262.42517 0z" fill-rule="evenodd"/><path fill="#000000" d="m583.5909 128.26953l1.453125 0l0.046875 1.6875q0.8125 -0.984375 1.59375 -1.421875q0.796875 -0.4375 1.59375 -0.4375q1.421875 0 2.15625 0.921875q0.734375 0.921875 0.671875 2.734375l-1.59375 0q0.015625 -1.203125 -0.359375 -1.734375q-0.375 -0.546875 -1.109375 -0.546875q-0.3125 0 -0.640625 0.109375q-0.328125 0.109375 -0.671875 0.359375q-0.328125 0.25 -0.71875 0.640625q-0.375 0.390625 -0.8125 0.953125l0 5.875l-1.609375 0l0 -9.140625zm17.6167 4.078125q0 0.34375 -0.015625 0.578125q0 0.21875 -0.03125 0.421875l-6.421875 0q0 1.40625 0.78125 2.15625q0.796875 0.75 2.265625 0.75q0.40625 0 0.796875 -0.03125q0.40625 -0.03125 0.78125 -0.078125q0.375 -0.0625 0.71875 -0.125q0.34375 -0.078125 0.625 -0.15625l0 1.296875q-0.640625 0.1875 -1.46875 0.296875q-0.8125 0.109375 -1.6875 0.109375q-1.171875 0 -2.015625 -0.3125q-0.84375 -0.3125 -1.390625 -0.921875q-0.546875 -0.609375 -0.8125 -1.484375q-0.25 -0.875 -0.25 -2.0q0 -0.953125 0.28125 -1.8125q0.28125 -0.859375 0.8125 -1.515625q0.53125 -0.65625 1.296875 -1.03125q0.78125 -0.390625 1.765625 -0.390625q0.953125 0 1.6875 0.3125q0.75 0.296875 1.25 0.84375q0.5 0.546875 0.765625 1.34375q0.265625 0.78125 0.265625 1.75zm-1.65625 -0.21875q0.03125 -0.609375 -0.125 -1.109375q-0.140625 -0.515625 -0.453125 -0.875q-0.296875 -0.375 -0.75 -0.578125q-0.453125 -0.203125 -1.0625 -0.203125q-0.515625 0 -0.953125 0.203125q-0.421875 0.203125 -0.734375 0.5625q-0.296875 0.359375 -0.5 0.875q-0.1875 0.515625 -0.234375 1.125l4.8125 0zm7.304138 -6.2812576l-2.703125 0l0 -1.3125l4.296875 0l0 11.546883l2.734375 0l0 1.328125l-7.34375 0l0 -1.328125l3.015625 0l0 -10.234383zm13.007324 11.562508l-0.03125 -1.234375q-0.75 0.75 -1.515625 1.078125q-0.765625 0.3125 -1.625 0.3125q-0.78125 0 -1.34375 -0.1875q-0.546875 -0.203125 -0.90625 -0.546875q-0.359375 -0.359375 -0.53125 -0.828125q-0.15625 -0.484375 -0.15625 -1.03125q0 -1.375 1.015625 -2.15625q1.03125 -0.78125 3.03125 -0.78125l1.890625 0l0 -0.796875q0 -0.8125 -0.515625 -1.296875q-0.515625 -0.5 -1.578125 -0.5q-0.78125 0 -1.53125 0.1875q-0.75 0.171875 -1.546875 0.484375l0 -1.4375q0.296875 -0.109375 0.65625 -0.203125q0.375 -0.109375 0.78125 -0.1875q0.40625 -0.078125 0.859375 -0.125q0.453125 -0.0625 0.90625 -0.0625q0.828125 0 1.484375 0.1875q0.671875 0.171875 1.125 0.546875q0.46875 0.375 0.703125 0.953125q0.25 0.5625 0.25 1.328125l0 6.296875l-1.421875 0zm-0.171875 -4.15625l-2.015625 0q-0.578125 0 -1.015625 0.125q-0.421875 0.109375 -0.703125 0.328125q-0.265625 0.21875 -0.40625 0.53125q-0.125 0.296875 -0.125 0.671875q0 0.265625 0.078125 0.515625q0.078125 0.234375 0.265625 0.421875q0.1875 0.1875 0.46875 0.296875q0.296875 0.109375 0.71875 0.109375q0.546875 0 1.25 -0.328125q0.703125 -0.34375 1.484375 -1.0625l0 -1.609375zm11.929138 4.03125q-0.53125 0.140625 -1.109375 0.1875q-0.578125 0.0625 -1.171875 0.0625q-1.71875 0 -2.5625 -0.78125q-0.84375 -0.78125 -0.84375 -2.390625l0 -4.765625l-2.5625 0l0 -1.328125l2.5625 0l0 -2.5156326l1.578125 -0.40625l0 2.9218826l4.109375 0l0 1.328125l-4.109375 0l0 4.640625q0 0.984375 0.515625 1.46875q0.53125 0.484375 1.546875 0.484375q0.4375 0 0.953125 -0.0625q0.53125 -0.0625 1.09375 -0.21875l0 1.375zm6.007324 -7.703125l-2.703125 0l0 -1.3125l4.296875 0l0 7.8125l2.734375 0l0 1.328125l-7.34375 0l0 -1.328125l3.015625 0l0 -6.5zm0.546875 -5.1562576q0.265625 0 0.484375 0.09375q0.234375 0.09375 0.40625 0.28125q0.171875 0.171875 0.265625 0.390625q0.09375 0.21875 0.09375 0.484375q0 0.25 -0.09375 0.484375q-0.09375 0.234375 -0.265625 0.40625q-0.171875 0.171875 -0.40625 0.265625q-0.21875 0.09375 -0.484375 0.09375q-0.265625 0 -0.5 -0.09375q-0.21875 -0.09375 -0.390625 -0.265625q-0.15625 -0.171875 -0.265625 -0.40625q-0.09375 -0.234375 -0.09375 -0.484375q0 -0.265625 0.09375 -0.484375q0.109375 -0.21875 0.265625 -0.390625q0.171875 -0.1875 0.390625 -0.28125q0.234375 -0.09375 0.5 -0.09375zm14.554138 8.343758q0 1.0625 -0.3125 1.953125q-0.296875 0.890625 -0.859375 1.53125q-0.5625 0.625 -1.375 0.96875q-0.8125 0.34375 -1.84375 0.34375q-0.984375 0 -1.765625 -0.296875q-0.765625 -0.3125 -1.3125 -0.890625q-0.546875 -0.59375 -0.828125 -1.46875q-0.28125 -0.875 -0.28125 -2.015625q0 -1.0625 0.296875 -1.9375q0.296875 -0.890625 0.859375 -1.515625q0.5625 -0.640625 1.375 -0.984375q0.8125 -0.359375 1.84375 -0.359375q0.984375 0 1.765625 0.3125q0.78125 0.296875 1.3125 0.890625q0.546875 0.578125 0.828125 1.453125q0.296875 0.875 0.296875 2.015625zm-1.625 0.0625q0 -0.84375 -0.1875 -1.46875q-0.1875 -0.640625 -0.53125 -1.0625q-0.34375 -0.421875 -0.84375 -0.640625q-0.5 -0.21875 -1.109375 -0.21875q-0.703125 0 -1.21875 0.28125q-0.5 0.28125 -0.828125 0.75q-0.3125 0.453125 -0.46875 1.078125q-0.15625 0.609375 -0.15625 1.28125q0 0.859375 0.1875 1.5q0.1875 0.625 0.53125 1.046875q0.359375 0.421875 0.84375 0.640625q0.5 0.21875 1.109375 0.21875q0.71875 0 1.21875 -0.28125q0.5 -0.28125 0.828125 -0.734375q0.328125 -0.46875 0.46875 -1.078125q0.15625 -0.625 0.15625 -1.3125zm3.9135742 -4.5625l1.421875 0l0.0625 1.46875q0.390625 -0.46875 0.765625 -0.78125q0.375 -0.3125 0.734375 -0.5q0.359375 -0.203125 0.734375 -0.28125q0.375 -0.078125 0.78125 -0.078125q1.40625 0 2.125 0.84375q0.734375 0.828125 0.734375 2.5l0 5.96875l-1.59375 0l0 -5.84375q0 -1.078125 -0.40625 -1.578125q-0.390625 -0.515625 -1.1875 -0.515625q-0.28125 0 -0.5625 0.09375q-0.28125 0.078125 -0.578125 0.296875q-0.296875 0.203125 -0.65625 0.578125q-0.34375 0.359375 -0.78125 0.90625l0 6.0625l-1.59375 0l0 -9.140625z" fill-rule="nonzero"/><path fill="#000000" fill-opacity="0.0" d="m259.29922 292.4711l-105.291336 161.66928" fill-rule="evenodd"/><path stroke="#000000" stroke-width="2.0" stroke-linejoin="round" stroke-linecap="butt" d="m259.29922 292.4711l-98.74246 151.61383" fill-rule="evenodd"/><path fill="#000000" stroke="#000000" stroke-width="2.0" stroke-linecap="butt" d="m157.7886 442.2821l-2.185089 9.408264l7.721405 -5.8026123z" fill-rule="evenodd"/><path fill="#eeeeee" d="m68.118126 454.14038l171.77951 0l0 80.8819l-171.77951 0z" fill-rule="evenodd"/><path stroke="#000000" stroke-width="2.0" stroke-linejoin="round" stroke-linecap="butt" d="m68.118126 454.14038l171.77951 0l0 80.8819l-171.77951 0z" fill-rule="evenodd"/><path fill="#000000" d="m148.6407 500.44135l4.40625 -11.453125l1.640625 0l4.6875 11.453125l-1.734375 0l-1.328125 -3.46875l-4.796875 0l-1.25 3.46875l-1.625 0zm3.3125 -4.703125l3.890625 0l-1.203125 -3.171875q-0.546875 -1.453125 -0.8125 -2.375q-0.21875 1.09375 -0.609375 2.1875l-1.265625 3.359375z" fill-rule="nonzero"/></g></svg>